<?xml version="1.0" encoding="utf-8" standalone="no"?>
<!DOCTYPE svg PUBLIC "-//W3C//DTD SVG 1.1//EN"
  "http://www.w3.org/Graphics/SVG/1.1/DTD/svg11.dtd">
<svg height="345.6pt" version="1.1" viewBox="0 0 460.8 345.6" width="460.8pt" xmlns="http://www.w3.org/2000/svg" xmlns:xlink="http://www.w3.org/1999/xlink">
 <metadata>
  <rdf:RDF xmlns:cc="http://creativecommons.org/ns#" xmlns:dc="http://purl.org/dc/elements/1.1/" xmlns:rdf="http://www.w3.org/1999/02/22-rdf-syntax-ns#">
   <cc:Work>
    <dc:type rdf:resource="http://purl.org/dc/dcmitype/StillImage"/>
    <dc:date>2022-03-14T15:39:17.895598</dc:date>
    <dc:format>image/svg+xml</dc:format>
    <dc:creator>
     <cc:Agent>
      <dc:title>Matplotlib v3.4.1, https://matplotlib.org/</dc:title>
     </cc:Agent>
    </dc:creator>
   </cc:Work>
  </rdf:RDF>
 </metadata>
 <defs>
  <style type="text/css">*{stroke-linecap:butt;stroke-linejoin:round;}</style>
 </defs>
 <g id="figure_1">
  <g id="patch_1">
   <path d="M 0 345.6 
L 460.8 345.6 
L 460.8 0 
L 0 0 
z
" style="fill:#ffffff;"/>
  </g>
  <g id="axes_1">
   <g id="patch_2">
    <path d="M 57.6 307.584 
L 414.72 307.584 
L 414.72 41.472 
L 57.6 41.472 
z
" style="fill:#ffffff;"/>
   </g>
   <g id="PolyCollection_1">
    <path clip-path="url(#p06b696eadd)" d="M 73.832727 273.808345 
L 73.832727 277.279912 
L 78.312168 276.234668 
L 86.16347 274.200736 
L 92.889003 272.337634 
L 98.771491 272.299014 
L 106.409646 267.854034 
L 112.978256 265.340328 
L 118.740388 262.580324 
L 125.465922 259.214523 
L 132.710782 255.441401 
L 138.986565 250.871776 
L 146.565935 246.193835 
L 153.091048 241.886302 
L 159.583915 237.34985 
L 165.954358 41731.911633 
L 172.724001 230.678967 
L 179.640198 222.955503 
L 186.101137 223.308282 
L 192.912827 212.513054 
L 199.513861 205.402217 
L 206.152881 198.508819 
L 212.953402 191.16306 
L 219.532598 185.851421 
L 226.045948 185.592808 
L 232.734606 179.36814 
L 239.428156 169.646527 
L 246.014846 163.686248 
L 252.635822 158.216498 
L 259.263558 152.895094 
L 265.94665 149.117681 
L 272.556384 145.829161 
L 279.190481 142.136916 
L 285.836625 137.817496 
L 292.472552 133.656168 
L 299.072349 128.856029 
L 305.712068 124.077901 
L 312.329201 119.449467 
L 318.978252 114.607898 
L 325.584564 109.809864 
L 332.230221 104.640448 
L 338.843996 99.475842 
L 345.475806 94.246398 
L 352.100566 89.393583 
L 358.723423 84.137052 
L 365.352473 78.8901 
L 371.977707 73.996584 
L 378.608415 68.880421 
L 385.235319 64.040097 
L 391.861054 58.976684 
L 398.487273 53.801766 
L 398.487273 53.568 
L 398.487273 53.568 
L 391.861054 58.557329 
L 385.235319 63.390523 
L 378.608415 68.630458 
L 371.977707 73.823755 
L 365.352473 78.413756 
L 358.723423 83.976871 
L 352.100566 89.176652 
L 345.475806 94.018766 
L 338.843996 99.245817 
L 332.230221 104.366157 
L 325.584564 109.591116 
L 318.978252 114.374426 
L 312.329201 119.253498 
L 305.712068 123.863557 
L 299.072349 128.670771 
L 292.472552 133.307513 
L 285.836625 137.599431 
L 279.190481 141.425198 
L 272.556384 145.625034 
L 265.94665 148.885582 
L 259.263558 152.560674 
L 252.635822 157.348715 
L 246.014846 161.607191 
L 239.428156 165.284133 
L 232.734606 171.503224 
L 226.045948 176.036678 
L 219.532598 180.651987 
L 212.953402 185.863476 
L 206.152881 187.459288 
L 199.513861 189.975729 
L 192.912827 195.891148 
L 186.101137 197.695478 
L 179.640198 204.994062 
L 172.724001 208.001754 
L 165.954358 203.117533 
L 159.583915 234.354426 
L 153.091048 238.686242 
L 146.565935 242.34085 
L 138.986565 248.167016 
L 132.710782 251.426326 
L 125.465922 255.569854 
L 118.740388 259.760273 
L 112.978256 261.994158 
L 106.409646 266.321926 
L 98.771491 266.727489 
L 92.889003 269.545605 
L 86.16347 271.578645 
L 78.312168 274.109159 
L 73.832727 273.808345 
z
" style="fill:#1f77b4;fill-opacity:0.1;stroke:#1f77b4;stroke-opacity:0.1;"/>
   </g>
   <g id="PolyCollection_2">
    <defs>
     <path d="M 73.832727 -60.244094 
L 73.832727 -57.795861 
L 78.312168 -58.287821 
L 86.16347 -59.118494 
L 92.889003 -58.479037 
L 98.771491 -58.664358 
L 106.409646 -59.754953 
L 112.978256 -60.070616 
L 118.740388 -60.419091 
L 125.465922 -58.897579 
L 132.710782 -60.019636 
L 138.986565 -62.454322 
L 146.565935 -63.134742 
L 153.091048 -65.393013 
L 159.583915 -65.469796 
L 165.954358 -75.562894 
L 172.724001 -76.851184 
L 179.640198 -80.769845 
L 186.101137 -83.099076 
L 192.912827 -81.326833 
L 199.513861 -89.053194 
L 206.152881 -93.439577 
L 212.953402 -96.138679 
L 219.532598 -101.58337 
L 226.045948 -59.714823 
L 232.734606 -96.412914 
L 239.428156 -113.097108 
L 246.014846 -118.244794 
L 252.635822 -76.093427 
L 259.263558 -132.674441 
L 265.94665 -138.588174 
L 272.556384 -145.033294 
L 279.190481 -149.777225 
L 285.836625 -155.959268 
L 292.472552 -161.234713 
L 299.072349 -167.925917 
L 305.712068 -173.640443 
L 312.329201 -178.886576 
L 318.978252 -183.623216 
L 325.584564 -190.627535 
L 332.230221 -197.600243 
L 338.843996 -203.490735 
L 345.475806 -207.894216 
L 352.100566 -212.140473 
L 358.723423 -216.73232 
L 365.352473 -221.222867 
L 371.977707 -225.929759 
L 378.608415 -230.793458 
L 385.235319 -235.684067 
L 391.861054 -240.270207 
L 398.487273 -245.220282 
L 398.487273 -246.627009 
L 398.487273 -246.627009 
L 391.861054 -241.107515 
L 385.235319 -236.491438 
L 378.608415 -231.670244 
L 371.977707 -226.741092 
L 365.352473 -222.040595 
L 358.723423 -217.521493 
L 352.100566 -212.873589 
L 345.475806 -208.537664 
L 338.843996 -204.218733 
L 332.230221 -198.387438 
L 325.584564 -191.265913 
L 318.978252 -185.249621 
L 312.329201 -179.860509 
L 305.712068 -174.808474 
L 299.072349 -169.656635 
L 292.472552 -165.094039 
L 285.836625 -157.647768 
L 279.190481 -153.207121 
L 272.556384 -147.222448 
L 265.94665 -142.443355 
L 259.263558 -135.133592 
L 252.635822 -144.663447 
L 246.014846 -123.377683 
L 239.428156 -118.880531 
L 232.734606 -114.519677 
L 226.045948 -124.091181 
L 219.532598 -104.33064 
L 212.953402 -101.746389 
L 206.152881 -95.993439 
L 199.513861 -93.139503 
L 192.912827 -93.597803 
L 186.101137 -85.909765 
L 179.640198 -83.482711 
L 172.724001 -82.324456 
L 165.954358 -79.944989 
L 159.583915 -71.354796 
L 153.091048 -68.448956 
L 146.565935 -69.158655 
L 138.986565 -65.534958 
L 132.710782 -67.251706 
L 125.465922 -66.755512 
L 118.740388 -63.628845 
L 112.978256 -61.958205 
L 106.409646 -60.795636 
L 98.771491 -61.101578 
L 92.889003 -61.897477 
L 86.16347 -60.136464 
L 78.312168 -59.389187 
L 73.832727 -60.244094 
z
" id="m0192ae0f39" style="stroke:#ff7f0e;stroke-opacity:0.1;"/>
    </defs>
    <g clip-path="url(#p06b696eadd)">
     <use style="fill:#ff7f0e;fill-opacity:0.1;stroke:#ff7f0e;stroke-opacity:0.1;" x="0" xlink:href="#m0192ae0f39" y="345.6"/>
    </g>
   </g>
   <g id="PolyCollection_3">
    <path clip-path="url(#p06b696eadd)" d="M 73.832727 291.794042 
L 73.832727 295.488 
L 78.312168 294.621357 
L 86.16347 294.482063 
L 92.889003 294.352625 
L 98.771491 293.590107 
L 106.409646 293.219028 
L 112.978256 292.991427 
L 118.740388 291.425074 
L 125.465922 291.712208 
L 132.710782 290.957128 
L 138.986565 289.24344 
L 146.565935 287.581695 
L 153.091048 285.547878 
L 159.583915 284.825302 
L 165.954358 276.372762 
L 172.724001 275.783798 
L 179.640198 273.320747 
L 186.101137 268.868311 
L 192.912827 266.199492 
L 199.513861 263.904968 
L 206.152881 259.278981 
L 212.953402 254.727835 
L 219.532598 41731.911633 
L 226.045948 252.170835 
L 232.734606 248.339913 
L 239.428156 238.452824 
L 246.014846 235.458951 
L 252.635822 229.405559 
L 259.263558 228.328939 
L 265.94665 223.142667 
L 272.556384 214.720803 
L 279.190481 206.419609 
L 285.836625 200.940379 
L 292.472552 193.465793 
L 299.072349 187.418144 
L 305.712068 181.432885 
L 312.329201 176.144398 
L 318.978252 171.522649 
L 325.584564 167.338556 
L 332.230221 156.375578 
L 338.843996 151.577705 
L 345.475806 147.20357 
L 352.100566 142.044956 
L 358.723423 138.308768 
L 365.352473 133.931837 
L 371.977707 129.280144 
L 378.608415 124.557273 
L 385.235319 119.617264 
L 391.861054 114.788839 
L 398.487273 109.886828 
L 398.487273 109.138077 
L 398.487273 109.138077 
L 391.861054 114.086224 
L 385.235319 118.662544 
L 378.608415 123.900365 
L 371.977707 128.384492 
L 365.352473 132.753855 
L 358.723423 137.614365 
L 352.100566 141.145725 
L 345.475806 146.555004 
L 338.843996 150.365807 
L 332.230221 155.535689 
L 325.584564 164.851007 
L 318.978252 170.162367 
L 312.329201 174.309006 
L 305.712068 179.706936 
L 299.072349 185.455342 
L 292.472552 190.883742 
L 285.836625 198.626224 
L 279.190481 202.885708 
L 272.556384 208.075357 
L 265.94665 211.007575 
L 259.263558 217.068492 
L 252.635822 226.243727 
L 246.014846 229.704263 
L 239.428156 235.616087 
L 232.734606 242.329102 
L 226.045948 245.989604 
L 219.532598 223.565079 
L 212.953402 252.550461 
L 206.152881 256.981495 
L 199.513861 259.270295 
L 192.912827 264.24298 
L 186.101137 267.75267 
L 179.640198 267.925132 
L 172.724001 269.978062 
L 165.954358 274.170613 
L 159.583915 283.390443 
L 153.091048 284.394141 
L 146.565935 286.325924 
L 138.986565 287.760847 
L 132.710782 287.941254 
L 125.465922 286.769538 
L 118.740388 290.109804 
L 112.978256 287.682397 
L 106.409646 290.931355 
L 98.771491 291.656735 
L 92.889003 290.829452 
L 86.16347 288.743211 
L 78.312168 291.794245 
L 73.832727 291.794042 
z
" style="fill:#2ca02c;fill-opacity:0.1;stroke:#2ca02c;stroke-opacity:0.1;"/>
   </g>
   <g id="matplotlib.axis_1">
    <g id="xtick_1">
     <g id="line2d_1">
      <defs>
       <path d="M 0 0 
L 0 3.5 
" id="mac5186d573" style="stroke:#000000;stroke-width:0.8;"/>
      </defs>
      <g>
       <use style="stroke:#000000;stroke-width:0.8;" x="73.832727" xlink:href="#mac5186d573" y="307.584"/>
      </g>
     </g>
     <g id="text_1">
      <!-- $\mathdefault{10^{1}}$ -->
      <g transform="translate(65.032727 322.182437)scale(0.1 -0.1)">
       <defs>
        <path d="M 794 531 
L 1825 531 
L 1825 4091 
L 703 3866 
L 703 4441 
L 1819 4666 
L 2450 4666 
L 2450 531 
L 3481 531 
L 3481 0 
L 794 0 
L 794 531 
z
" id="DejaVuSans-31" transform="scale(0.015625)"/>
        <path d="M 2034 4250 
Q 1547 4250 1301 3770 
Q 1056 3291 1056 2328 
Q 1056 1369 1301 889 
Q 1547 409 2034 409 
Q 2525 409 2770 889 
Q 3016 1369 3016 2328 
Q 3016 3291 2770 3770 
Q 2525 4250 2034 4250 
z
M 2034 4750 
Q 2819 4750 3233 4129 
Q 3647 3509 3647 2328 
Q 3647 1150 3233 529 
Q 2819 -91 2034 -91 
Q 1250 -91 836 529 
Q 422 1150 422 2328 
Q 422 3509 836 4129 
Q 1250 4750 2034 4750 
z
" id="DejaVuSans-30" transform="scale(0.015625)"/>
       </defs>
       <use transform="translate(0 0.684375)" xlink:href="#DejaVuSans-31"/>
       <use transform="translate(63.623047 0.684375)" xlink:href="#DejaVuSans-30"/>
       <use transform="translate(128.203125 38.965625)scale(0.7)" xlink:href="#DejaVuSans-31"/>
      </g>
     </g>
    </g>
    <g id="xtick_2">
     <g id="line2d_2">
      <g>
       <use style="stroke:#000000;stroke-width:0.8;" x="182.050909" xlink:href="#mac5186d573" y="307.584"/>
      </g>
     </g>
     <g id="text_2">
      <!-- $\mathdefault{10^{2}}$ -->
      <g transform="translate(173.250909 322.182437)scale(0.1 -0.1)">
       <defs>
        <path d="M 1228 531 
L 3431 531 
L 3431 0 
L 469 0 
L 469 531 
Q 828 903 1448 1529 
Q 2069 2156 2228 2338 
Q 2531 2678 2651 2914 
Q 2772 3150 2772 3378 
Q 2772 3750 2511 3984 
Q 2250 4219 1831 4219 
Q 1534 4219 1204 4116 
Q 875 4013 500 3803 
L 500 4441 
Q 881 4594 1212 4672 
Q 1544 4750 1819 4750 
Q 2544 4750 2975 4387 
Q 3406 4025 3406 3419 
Q 3406 3131 3298 2873 
Q 3191 2616 2906 2266 
Q 2828 2175 2409 1742 
Q 1991 1309 1228 531 
z
" id="DejaVuSans-32" transform="scale(0.015625)"/>
       </defs>
       <use transform="translate(0 0.765625)" xlink:href="#DejaVuSans-31"/>
       <use transform="translate(63.623047 0.765625)" xlink:href="#DejaVuSans-30"/>
       <use transform="translate(128.203125 39.046875)scale(0.7)" xlink:href="#DejaVuSans-32"/>
      </g>
     </g>
    </g>
    <g id="xtick_3">
     <g id="line2d_3">
      <g>
       <use style="stroke:#000000;stroke-width:0.8;" x="290.269091" xlink:href="#mac5186d573" y="307.584"/>
      </g>
     </g>
     <g id="text_3">
      <!-- $\mathdefault{10^{3}}$ -->
      <g transform="translate(281.469091 322.182437)scale(0.1 -0.1)">
       <defs>
        <path d="M 2597 2516 
Q 3050 2419 3304 2112 
Q 3559 1806 3559 1356 
Q 3559 666 3084 287 
Q 2609 -91 1734 -91 
Q 1441 -91 1130 -33 
Q 819 25 488 141 
L 488 750 
Q 750 597 1062 519 
Q 1375 441 1716 441 
Q 2309 441 2620 675 
Q 2931 909 2931 1356 
Q 2931 1769 2642 2001 
Q 2353 2234 1838 2234 
L 1294 2234 
L 1294 2753 
L 1863 2753 
Q 2328 2753 2575 2939 
Q 2822 3125 2822 3475 
Q 2822 3834 2567 4026 
Q 2313 4219 1838 4219 
Q 1578 4219 1281 4162 
Q 984 4106 628 3988 
L 628 4550 
Q 988 4650 1302 4700 
Q 1616 4750 1894 4750 
Q 2613 4750 3031 4423 
Q 3450 4097 3450 3541 
Q 3450 3153 3228 2886 
Q 3006 2619 2597 2516 
z
" id="DejaVuSans-33" transform="scale(0.015625)"/>
       </defs>
       <use transform="translate(0 0.765625)" xlink:href="#DejaVuSans-31"/>
       <use transform="translate(63.623047 0.765625)" xlink:href="#DejaVuSans-30"/>
       <use transform="translate(128.203125 39.046875)scale(0.7)" xlink:href="#DejaVuSans-33"/>
      </g>
     </g>
    </g>
    <g id="xtick_4">
     <g id="line2d_4">
      <g>
       <use style="stroke:#000000;stroke-width:0.8;" x="398.487273" xlink:href="#mac5186d573" y="307.584"/>
      </g>
     </g>
     <g id="text_4">
      <!-- $\mathdefault{10^{4}}$ -->
      <g transform="translate(389.687273 322.182437)scale(0.1 -0.1)">
       <defs>
        <path d="M 2419 4116 
L 825 1625 
L 2419 1625 
L 2419 4116 
z
M 2253 4666 
L 3047 4666 
L 3047 1625 
L 3713 1625 
L 3713 1100 
L 3047 1100 
L 3047 0 
L 2419 0 
L 2419 1100 
L 313 1100 
L 313 1709 
L 2253 4666 
z
" id="DejaVuSans-34" transform="scale(0.015625)"/>
       </defs>
       <use transform="translate(0 0.684375)" xlink:href="#DejaVuSans-31"/>
       <use transform="translate(63.623047 0.684375)" xlink:href="#DejaVuSans-30"/>
       <use transform="translate(128.203125 38.965625)scale(0.7)" xlink:href="#DejaVuSans-34"/>
      </g>
     </g>
    </g>
    <g id="xtick_5">
     <g id="line2d_5">
      <defs>
       <path d="M 0 0 
L 0 2 
" id="madb50fee07" style="stroke:#000000;stroke-width:0.6;"/>
      </defs>
      <g>
       <use style="stroke:#000000;stroke-width:0.6;" x="63.345302" xlink:href="#madb50fee07" y="307.584"/>
      </g>
     </g>
    </g>
    <g id="xtick_6">
     <g id="line2d_6">
      <g>
       <use style="stroke:#000000;stroke-width:0.6;" x="68.880935" xlink:href="#madb50fee07" y="307.584"/>
      </g>
     </g>
    </g>
    <g id="xtick_7">
     <g id="line2d_7">
      <g>
       <use style="stroke:#000000;stroke-width:0.6;" x="106.409646" xlink:href="#madb50fee07" y="307.584"/>
      </g>
     </g>
    </g>
    <g id="xtick_8">
     <g id="line2d_8">
      <g>
       <use style="stroke:#000000;stroke-width:0.6;" x="125.465922" xlink:href="#madb50fee07" y="307.584"/>
      </g>
     </g>
    </g>
    <g id="xtick_9">
     <g id="line2d_9">
      <g>
       <use style="stroke:#000000;stroke-width:0.6;" x="138.986565" xlink:href="#madb50fee07" y="307.584"/>
      </g>
     </g>
    </g>
    <g id="xtick_10">
     <g id="line2d_10">
      <g>
       <use style="stroke:#000000;stroke-width:0.6;" x="149.47399" xlink:href="#madb50fee07" y="307.584"/>
      </g>
     </g>
    </g>
    <g id="xtick_11">
     <g id="line2d_11">
      <g>
       <use style="stroke:#000000;stroke-width:0.6;" x="158.042841" xlink:href="#madb50fee07" y="307.584"/>
      </g>
     </g>
    </g>
    <g id="xtick_12">
     <g id="line2d_12">
      <g>
       <use style="stroke:#000000;stroke-width:0.6;" x="165.287701" xlink:href="#madb50fee07" y="307.584"/>
      </g>
     </g>
    </g>
    <g id="xtick_13">
     <g id="line2d_13">
      <g>
       <use style="stroke:#000000;stroke-width:0.6;" x="171.563484" xlink:href="#madb50fee07" y="307.584"/>
      </g>
     </g>
    </g>
    <g id="xtick_14">
     <g id="line2d_14">
      <g>
       <use style="stroke:#000000;stroke-width:0.6;" x="177.099117" xlink:href="#madb50fee07" y="307.584"/>
      </g>
     </g>
    </g>
    <g id="xtick_15">
     <g id="line2d_15">
      <g>
       <use style="stroke:#000000;stroke-width:0.6;" x="214.627828" xlink:href="#madb50fee07" y="307.584"/>
      </g>
     </g>
    </g>
    <g id="xtick_16">
     <g id="line2d_16">
      <g>
       <use style="stroke:#000000;stroke-width:0.6;" x="233.684104" xlink:href="#madb50fee07" y="307.584"/>
      </g>
     </g>
    </g>
    <g id="xtick_17">
     <g id="line2d_17">
      <g>
       <use style="stroke:#000000;stroke-width:0.6;" x="247.204747" xlink:href="#madb50fee07" y="307.584"/>
      </g>
     </g>
    </g>
    <g id="xtick_18">
     <g id="line2d_18">
      <g>
       <use style="stroke:#000000;stroke-width:0.6;" x="257.692172" xlink:href="#madb50fee07" y="307.584"/>
      </g>
     </g>
    </g>
    <g id="xtick_19">
     <g id="line2d_19">
      <g>
       <use style="stroke:#000000;stroke-width:0.6;" x="266.261023" xlink:href="#madb50fee07" y="307.584"/>
      </g>
     </g>
    </g>
    <g id="xtick_20">
     <g id="line2d_20">
      <g>
       <use style="stroke:#000000;stroke-width:0.6;" x="273.505882" xlink:href="#madb50fee07" y="307.584"/>
      </g>
     </g>
    </g>
    <g id="xtick_21">
     <g id="line2d_21">
      <g>
       <use style="stroke:#000000;stroke-width:0.6;" x="279.781666" xlink:href="#madb50fee07" y="307.584"/>
      </g>
     </g>
    </g>
    <g id="xtick_22">
     <g id="line2d_22">
      <g>
       <use style="stroke:#000000;stroke-width:0.6;" x="285.317298" xlink:href="#madb50fee07" y="307.584"/>
      </g>
     </g>
    </g>
    <g id="xtick_23">
     <g id="line2d_23">
      <g>
       <use style="stroke:#000000;stroke-width:0.6;" x="322.84601" xlink:href="#madb50fee07" y="307.584"/>
      </g>
     </g>
    </g>
    <g id="xtick_24">
     <g id="line2d_24">
      <g>
       <use style="stroke:#000000;stroke-width:0.6;" x="341.902286" xlink:href="#madb50fee07" y="307.584"/>
      </g>
     </g>
    </g>
    <g id="xtick_25">
     <g id="line2d_25">
      <g>
       <use style="stroke:#000000;stroke-width:0.6;" x="355.422929" xlink:href="#madb50fee07" y="307.584"/>
      </g>
     </g>
    </g>
    <g id="xtick_26">
     <g id="line2d_26">
      <g>
       <use style="stroke:#000000;stroke-width:0.6;" x="365.910354" xlink:href="#madb50fee07" y="307.584"/>
      </g>
     </g>
    </g>
    <g id="xtick_27">
     <g id="line2d_27">
      <g>
       <use style="stroke:#000000;stroke-width:0.6;" x="374.479204" xlink:href="#madb50fee07" y="307.584"/>
      </g>
     </g>
    </g>
    <g id="xtick_28">
     <g id="line2d_28">
      <g>
       <use style="stroke:#000000;stroke-width:0.6;" x="381.724064" xlink:href="#madb50fee07" y="307.584"/>
      </g>
     </g>
    </g>
    <g id="xtick_29">
     <g id="line2d_29">
      <g>
       <use style="stroke:#000000;stroke-width:0.6;" x="387.999847" xlink:href="#madb50fee07" y="307.584"/>
      </g>
     </g>
    </g>
    <g id="xtick_30">
     <g id="line2d_30">
      <g>
       <use style="stroke:#000000;stroke-width:0.6;" x="393.53548" xlink:href="#madb50fee07" y="307.584"/>
      </g>
     </g>
    </g>
    <g id="text_5">
     <!-- Number of Neurons -->
     <g transform="translate(187.314687 335.860562)scale(0.1 -0.1)">
      <defs>
       <path d="M 628 4666 
L 1478 4666 
L 3547 763 
L 3547 4666 
L 4159 4666 
L 4159 0 
L 3309 0 
L 1241 3903 
L 1241 0 
L 628 0 
L 628 4666 
z
" id="DejaVuSans-4e" transform="scale(0.015625)"/>
       <path d="M 544 1381 
L 544 3500 
L 1119 3500 
L 1119 1403 
Q 1119 906 1312 657 
Q 1506 409 1894 409 
Q 2359 409 2629 706 
Q 2900 1003 2900 1516 
L 2900 3500 
L 3475 3500 
L 3475 0 
L 2900 0 
L 2900 538 
Q 2691 219 2414 64 
Q 2138 -91 1772 -91 
Q 1169 -91 856 284 
Q 544 659 544 1381 
z
M 1991 3584 
L 1991 3584 
z
" id="DejaVuSans-75" transform="scale(0.015625)"/>
       <path d="M 3328 2828 
Q 3544 3216 3844 3400 
Q 4144 3584 4550 3584 
Q 5097 3584 5394 3201 
Q 5691 2819 5691 2113 
L 5691 0 
L 5113 0 
L 5113 2094 
Q 5113 2597 4934 2840 
Q 4756 3084 4391 3084 
Q 3944 3084 3684 2787 
Q 3425 2491 3425 1978 
L 3425 0 
L 2847 0 
L 2847 2094 
Q 2847 2600 2669 2842 
Q 2491 3084 2119 3084 
Q 1678 3084 1418 2786 
Q 1159 2488 1159 1978 
L 1159 0 
L 581 0 
L 581 3500 
L 1159 3500 
L 1159 2956 
Q 1356 3278 1631 3431 
Q 1906 3584 2284 3584 
Q 2666 3584 2933 3390 
Q 3200 3197 3328 2828 
z
" id="DejaVuSans-6d" transform="scale(0.015625)"/>
       <path d="M 3116 1747 
Q 3116 2381 2855 2742 
Q 2594 3103 2138 3103 
Q 1681 3103 1420 2742 
Q 1159 2381 1159 1747 
Q 1159 1113 1420 752 
Q 1681 391 2138 391 
Q 2594 391 2855 752 
Q 3116 1113 3116 1747 
z
M 1159 2969 
Q 1341 3281 1617 3432 
Q 1894 3584 2278 3584 
Q 2916 3584 3314 3078 
Q 3713 2572 3713 1747 
Q 3713 922 3314 415 
Q 2916 -91 2278 -91 
Q 1894 -91 1617 61 
Q 1341 213 1159 525 
L 1159 0 
L 581 0 
L 581 4863 
L 1159 4863 
L 1159 2969 
z
" id="DejaVuSans-62" transform="scale(0.015625)"/>
       <path d="M 3597 1894 
L 3597 1613 
L 953 1613 
Q 991 1019 1311 708 
Q 1631 397 2203 397 
Q 2534 397 2845 478 
Q 3156 559 3463 722 
L 3463 178 
Q 3153 47 2828 -22 
Q 2503 -91 2169 -91 
Q 1331 -91 842 396 
Q 353 884 353 1716 
Q 353 2575 817 3079 
Q 1281 3584 2069 3584 
Q 2775 3584 3186 3129 
Q 3597 2675 3597 1894 
z
M 3022 2063 
Q 3016 2534 2758 2815 
Q 2500 3097 2075 3097 
Q 1594 3097 1305 2825 
Q 1016 2553 972 2059 
L 3022 2063 
z
" id="DejaVuSans-65" transform="scale(0.015625)"/>
       <path d="M 2631 2963 
Q 2534 3019 2420 3045 
Q 2306 3072 2169 3072 
Q 1681 3072 1420 2755 
Q 1159 2438 1159 1844 
L 1159 0 
L 581 0 
L 581 3500 
L 1159 3500 
L 1159 2956 
Q 1341 3275 1631 3429 
Q 1922 3584 2338 3584 
Q 2397 3584 2469 3576 
Q 2541 3569 2628 3553 
L 2631 2963 
z
" id="DejaVuSans-72" transform="scale(0.015625)"/>
       <path id="DejaVuSans-20" transform="scale(0.015625)"/>
       <path d="M 1959 3097 
Q 1497 3097 1228 2736 
Q 959 2375 959 1747 
Q 959 1119 1226 758 
Q 1494 397 1959 397 
Q 2419 397 2687 759 
Q 2956 1122 2956 1747 
Q 2956 2369 2687 2733 
Q 2419 3097 1959 3097 
z
M 1959 3584 
Q 2709 3584 3137 3096 
Q 3566 2609 3566 1747 
Q 3566 888 3137 398 
Q 2709 -91 1959 -91 
Q 1206 -91 779 398 
Q 353 888 353 1747 
Q 353 2609 779 3096 
Q 1206 3584 1959 3584 
z
" id="DejaVuSans-6f" transform="scale(0.015625)"/>
       <path d="M 2375 4863 
L 2375 4384 
L 1825 4384 
Q 1516 4384 1395 4259 
Q 1275 4134 1275 3809 
L 1275 3500 
L 2222 3500 
L 2222 3053 
L 1275 3053 
L 1275 0 
L 697 0 
L 697 3053 
L 147 3053 
L 147 3500 
L 697 3500 
L 697 3744 
Q 697 4328 969 4595 
Q 1241 4863 1831 4863 
L 2375 4863 
z
" id="DejaVuSans-66" transform="scale(0.015625)"/>
       <path d="M 3513 2113 
L 3513 0 
L 2938 0 
L 2938 2094 
Q 2938 2591 2744 2837 
Q 2550 3084 2163 3084 
Q 1697 3084 1428 2787 
Q 1159 2491 1159 1978 
L 1159 0 
L 581 0 
L 581 3500 
L 1159 3500 
L 1159 2956 
Q 1366 3272 1645 3428 
Q 1925 3584 2291 3584 
Q 2894 3584 3203 3211 
Q 3513 2838 3513 2113 
z
" id="DejaVuSans-6e" transform="scale(0.015625)"/>
       <path d="M 2834 3397 
L 2834 2853 
Q 2591 2978 2328 3040 
Q 2066 3103 1784 3103 
Q 1356 3103 1142 2972 
Q 928 2841 928 2578 
Q 928 2378 1081 2264 
Q 1234 2150 1697 2047 
L 1894 2003 
Q 2506 1872 2764 1633 
Q 3022 1394 3022 966 
Q 3022 478 2636 193 
Q 2250 -91 1575 -91 
Q 1294 -91 989 -36 
Q 684 19 347 128 
L 347 722 
Q 666 556 975 473 
Q 1284 391 1588 391 
Q 1994 391 2212 530 
Q 2431 669 2431 922 
Q 2431 1156 2273 1281 
Q 2116 1406 1581 1522 
L 1381 1569 
Q 847 1681 609 1914 
Q 372 2147 372 2553 
Q 372 3047 722 3315 
Q 1072 3584 1716 3584 
Q 2034 3584 2315 3537 
Q 2597 3491 2834 3397 
z
" id="DejaVuSans-73" transform="scale(0.015625)"/>
      </defs>
      <use xlink:href="#DejaVuSans-4e"/>
      <use x="74.804688" xlink:href="#DejaVuSans-75"/>
      <use x="138.183594" xlink:href="#DejaVuSans-6d"/>
      <use x="235.595703" xlink:href="#DejaVuSans-62"/>
      <use x="299.072266" xlink:href="#DejaVuSans-65"/>
      <use x="360.595703" xlink:href="#DejaVuSans-72"/>
      <use x="401.708984" xlink:href="#DejaVuSans-20"/>
      <use x="433.496094" xlink:href="#DejaVuSans-6f"/>
      <use x="494.677734" xlink:href="#DejaVuSans-66"/>
      <use x="529.882812" xlink:href="#DejaVuSans-20"/>
      <use x="561.669922" xlink:href="#DejaVuSans-4e"/>
      <use x="636.474609" xlink:href="#DejaVuSans-65"/>
      <use x="697.998047" xlink:href="#DejaVuSans-75"/>
      <use x="761.376953" xlink:href="#DejaVuSans-72"/>
      <use x="800.240234" xlink:href="#DejaVuSans-6f"/>
      <use x="861.421875" xlink:href="#DejaVuSans-6e"/>
      <use x="924.800781" xlink:href="#DejaVuSans-73"/>
     </g>
    </g>
   </g>
   <g id="matplotlib.axis_2">
    <g id="ytick_1">
     <g id="line2d_31">
      <defs>
       <path d="M 0 0 
L -3.5 0 
" id="m53175a653e" style="stroke:#000000;stroke-width:0.8;"/>
      </defs>
      <g>
       <use style="stroke:#000000;stroke-width:0.8;" x="57.6" xlink:href="#m53175a653e" y="271.557086"/>
      </g>
     </g>
     <g id="text_6">
      <!-- $\mathdefault{10^{-4}}$ -->
      <g transform="translate(27.1 275.356305)scale(0.1 -0.1)">
       <defs>
        <path d="M 678 2272 
L 4684 2272 
L 4684 1741 
L 678 1741 
L 678 2272 
z
" id="DejaVuSans-2212" transform="scale(0.015625)"/>
       </defs>
       <use transform="translate(0 0.684375)" xlink:href="#DejaVuSans-31"/>
       <use transform="translate(63.623047 0.684375)" xlink:href="#DejaVuSans-30"/>
       <use transform="translate(128.203125 38.965625)scale(0.7)" xlink:href="#DejaVuSans-2212"/>
       <use transform="translate(186.855469 38.965625)scale(0.7)" xlink:href="#DejaVuSans-34"/>
      </g>
     </g>
    </g>
    <g id="ytick_2">
     <g id="line2d_32">
      <g>
       <use style="stroke:#000000;stroke-width:0.8;" x="57.6" xlink:href="#m53175a653e" y="229.930224"/>
      </g>
     </g>
     <g id="text_7">
      <!-- $\mathdefault{10^{-3}}$ -->
      <g transform="translate(27.1 233.729443)scale(0.1 -0.1)">
       <use transform="translate(0 0.765625)" xlink:href="#DejaVuSans-31"/>
       <use transform="translate(63.623047 0.765625)" xlink:href="#DejaVuSans-30"/>
       <use transform="translate(128.203125 39.046875)scale(0.7)" xlink:href="#DejaVuSans-2212"/>
       <use transform="translate(186.855469 39.046875)scale(0.7)" xlink:href="#DejaVuSans-33"/>
      </g>
     </g>
    </g>
    <g id="ytick_3">
     <g id="line2d_33">
      <g>
       <use style="stroke:#000000;stroke-width:0.8;" x="57.6" xlink:href="#m53175a653e" y="188.303362"/>
      </g>
     </g>
     <g id="text_8">
      <!-- $\mathdefault{10^{-2}}$ -->
      <g transform="translate(27.1 192.102581)scale(0.1 -0.1)">
       <use transform="translate(0 0.765625)" xlink:href="#DejaVuSans-31"/>
       <use transform="translate(63.623047 0.765625)" xlink:href="#DejaVuSans-30"/>
       <use transform="translate(128.203125 39.046875)scale(0.7)" xlink:href="#DejaVuSans-2212"/>
       <use transform="translate(186.855469 39.046875)scale(0.7)" xlink:href="#DejaVuSans-32"/>
      </g>
     </g>
    </g>
    <g id="ytick_4">
     <g id="line2d_34">
      <g>
       <use style="stroke:#000000;stroke-width:0.8;" x="57.6" xlink:href="#m53175a653e" y="146.6765"/>
      </g>
     </g>
     <g id="text_9">
      <!-- $\mathdefault{10^{-1}}$ -->
      <g transform="translate(27.1 150.475719)scale(0.1 -0.1)">
       <use transform="translate(0 0.684375)" xlink:href="#DejaVuSans-31"/>
       <use transform="translate(63.623047 0.684375)" xlink:href="#DejaVuSans-30"/>
       <use transform="translate(128.203125 38.965625)scale(0.7)" xlink:href="#DejaVuSans-2212"/>
       <use transform="translate(186.855469 38.965625)scale(0.7)" xlink:href="#DejaVuSans-31"/>
      </g>
     </g>
    </g>
    <g id="ytick_5">
     <g id="line2d_35">
      <g>
       <use style="stroke:#000000;stroke-width:0.8;" x="57.6" xlink:href="#m53175a653e" y="105.049638"/>
      </g>
     </g>
     <g id="text_10">
      <!-- $\mathdefault{10^{0}}$ -->
      <g transform="translate(33 108.848857)scale(0.1 -0.1)">
       <use transform="translate(0 0.765625)" xlink:href="#DejaVuSans-31"/>
       <use transform="translate(63.623047 0.765625)" xlink:href="#DejaVuSans-30"/>
       <use transform="translate(128.203125 39.046875)scale(0.7)" xlink:href="#DejaVuSans-30"/>
      </g>
     </g>
    </g>
    <g id="ytick_6">
     <g id="line2d_36">
      <g>
       <use style="stroke:#000000;stroke-width:0.8;" x="57.6" xlink:href="#m53175a653e" y="63.422776"/>
      </g>
     </g>
     <g id="text_11">
      <!-- $\mathdefault{10^{1}}$ -->
      <g transform="translate(33 67.221995)scale(0.1 -0.1)">
       <use transform="translate(0 0.684375)" xlink:href="#DejaVuSans-31"/>
       <use transform="translate(63.623047 0.684375)" xlink:href="#DejaVuSans-30"/>
       <use transform="translate(128.203125 38.965625)scale(0.7)" xlink:href="#DejaVuSans-31"/>
      </g>
     </g>
    </g>
    <g id="ytick_7">
     <g id="line2d_37">
      <defs>
       <path d="M 0 0 
L -2 0 
" id="m46b7dd16a2" style="stroke:#000000;stroke-width:0.6;"/>
      </defs>
      <g>
       <use style="stroke:#000000;stroke-width:0.6;" x="57.6" xlink:href="#m46b7dd16a2" y="300.653014"/>
      </g>
     </g>
    </g>
    <g id="ytick_8">
     <g id="line2d_38">
      <g>
       <use style="stroke:#000000;stroke-width:0.6;" x="57.6" xlink:href="#m46b7dd16a2" y="293.322887"/>
      </g>
     </g>
    </g>
    <g id="ytick_9">
     <g id="line2d_39">
      <g>
       <use style="stroke:#000000;stroke-width:0.6;" x="57.6" xlink:href="#m46b7dd16a2" y="288.12208"/>
      </g>
     </g>
    </g>
    <g id="ytick_10">
     <g id="line2d_40">
      <g>
       <use style="stroke:#000000;stroke-width:0.6;" x="57.6" xlink:href="#m46b7dd16a2" y="284.08802"/>
      </g>
     </g>
    </g>
    <g id="ytick_11">
     <g id="line2d_41">
      <g>
       <use style="stroke:#000000;stroke-width:0.6;" x="57.6" xlink:href="#m46b7dd16a2" y="280.791953"/>
      </g>
     </g>
    </g>
    <g id="ytick_12">
     <g id="line2d_42">
      <g>
       <use style="stroke:#000000;stroke-width:0.6;" x="57.6" xlink:href="#m46b7dd16a2" y="278.005168"/>
      </g>
     </g>
    </g>
    <g id="ytick_13">
     <g id="line2d_43">
      <g>
       <use style="stroke:#000000;stroke-width:0.6;" x="57.6" xlink:href="#m46b7dd16a2" y="275.591146"/>
      </g>
     </g>
    </g>
    <g id="ytick_14">
     <g id="line2d_44">
      <g>
       <use style="stroke:#000000;stroke-width:0.6;" x="57.6" xlink:href="#m46b7dd16a2" y="273.461827"/>
      </g>
     </g>
    </g>
    <g id="ytick_15">
     <g id="line2d_45">
      <g>
       <use style="stroke:#000000;stroke-width:0.6;" x="57.6" xlink:href="#m46b7dd16a2" y="259.026152"/>
      </g>
     </g>
    </g>
    <g id="ytick_16">
     <g id="line2d_46">
      <g>
       <use style="stroke:#000000;stroke-width:0.6;" x="57.6" xlink:href="#m46b7dd16a2" y="251.696025"/>
      </g>
     </g>
    </g>
    <g id="ytick_17">
     <g id="line2d_47">
      <g>
       <use style="stroke:#000000;stroke-width:0.6;" x="57.6" xlink:href="#m46b7dd16a2" y="246.495218"/>
      </g>
     </g>
    </g>
    <g id="ytick_18">
     <g id="line2d_48">
      <g>
       <use style="stroke:#000000;stroke-width:0.6;" x="57.6" xlink:href="#m46b7dd16a2" y="242.461158"/>
      </g>
     </g>
    </g>
    <g id="ytick_19">
     <g id="line2d_49">
      <g>
       <use style="stroke:#000000;stroke-width:0.6;" x="57.6" xlink:href="#m46b7dd16a2" y="239.165091"/>
      </g>
     </g>
    </g>
    <g id="ytick_20">
     <g id="line2d_50">
      <g>
       <use style="stroke:#000000;stroke-width:0.6;" x="57.6" xlink:href="#m46b7dd16a2" y="236.378306"/>
      </g>
     </g>
    </g>
    <g id="ytick_21">
     <g id="line2d_51">
      <g>
       <use style="stroke:#000000;stroke-width:0.6;" x="57.6" xlink:href="#m46b7dd16a2" y="233.964284"/>
      </g>
     </g>
    </g>
    <g id="ytick_22">
     <g id="line2d_52">
      <g>
       <use style="stroke:#000000;stroke-width:0.6;" x="57.6" xlink:href="#m46b7dd16a2" y="231.834965"/>
      </g>
     </g>
    </g>
    <g id="ytick_23">
     <g id="line2d_53">
      <g>
       <use style="stroke:#000000;stroke-width:0.6;" x="57.6" xlink:href="#m46b7dd16a2" y="217.39929"/>
      </g>
     </g>
    </g>
    <g id="ytick_24">
     <g id="line2d_54">
      <g>
       <use style="stroke:#000000;stroke-width:0.6;" x="57.6" xlink:href="#m46b7dd16a2" y="210.069163"/>
      </g>
     </g>
    </g>
    <g id="ytick_25">
     <g id="line2d_55">
      <g>
       <use style="stroke:#000000;stroke-width:0.6;" x="57.6" xlink:href="#m46b7dd16a2" y="204.868356"/>
      </g>
     </g>
    </g>
    <g id="ytick_26">
     <g id="line2d_56">
      <g>
       <use style="stroke:#000000;stroke-width:0.6;" x="57.6" xlink:href="#m46b7dd16a2" y="200.834296"/>
      </g>
     </g>
    </g>
    <g id="ytick_27">
     <g id="line2d_57">
      <g>
       <use style="stroke:#000000;stroke-width:0.6;" x="57.6" xlink:href="#m46b7dd16a2" y="197.538229"/>
      </g>
     </g>
    </g>
    <g id="ytick_28">
     <g id="line2d_58">
      <g>
       <use style="stroke:#000000;stroke-width:0.6;" x="57.6" xlink:href="#m46b7dd16a2" y="194.751444"/>
      </g>
     </g>
    </g>
    <g id="ytick_29">
     <g id="line2d_59">
      <g>
       <use style="stroke:#000000;stroke-width:0.6;" x="57.6" xlink:href="#m46b7dd16a2" y="192.337422"/>
      </g>
     </g>
    </g>
    <g id="ytick_30">
     <g id="line2d_60">
      <g>
       <use style="stroke:#000000;stroke-width:0.6;" x="57.6" xlink:href="#m46b7dd16a2" y="190.208103"/>
      </g>
     </g>
    </g>
    <g id="ytick_31">
     <g id="line2d_61">
      <g>
       <use style="stroke:#000000;stroke-width:0.6;" x="57.6" xlink:href="#m46b7dd16a2" y="175.772428"/>
      </g>
     </g>
    </g>
    <g id="ytick_32">
     <g id="line2d_62">
      <g>
       <use style="stroke:#000000;stroke-width:0.6;" x="57.6" xlink:href="#m46b7dd16a2" y="168.442301"/>
      </g>
     </g>
    </g>
    <g id="ytick_33">
     <g id="line2d_63">
      <g>
       <use style="stroke:#000000;stroke-width:0.6;" x="57.6" xlink:href="#m46b7dd16a2" y="163.241494"/>
      </g>
     </g>
    </g>
    <g id="ytick_34">
     <g id="line2d_64">
      <g>
       <use style="stroke:#000000;stroke-width:0.6;" x="57.6" xlink:href="#m46b7dd16a2" y="159.207434"/>
      </g>
     </g>
    </g>
    <g id="ytick_35">
     <g id="line2d_65">
      <g>
       <use style="stroke:#000000;stroke-width:0.6;" x="57.6" xlink:href="#m46b7dd16a2" y="155.911367"/>
      </g>
     </g>
    </g>
    <g id="ytick_36">
     <g id="line2d_66">
      <g>
       <use style="stroke:#000000;stroke-width:0.6;" x="57.6" xlink:href="#m46b7dd16a2" y="153.124582"/>
      </g>
     </g>
    </g>
    <g id="ytick_37">
     <g id="line2d_67">
      <g>
       <use style="stroke:#000000;stroke-width:0.6;" x="57.6" xlink:href="#m46b7dd16a2" y="150.71056"/>
      </g>
     </g>
    </g>
    <g id="ytick_38">
     <g id="line2d_68">
      <g>
       <use style="stroke:#000000;stroke-width:0.6;" x="57.6" xlink:href="#m46b7dd16a2" y="148.581241"/>
      </g>
     </g>
    </g>
    <g id="ytick_39">
     <g id="line2d_69">
      <g>
       <use style="stroke:#000000;stroke-width:0.6;" x="57.6" xlink:href="#m46b7dd16a2" y="134.145566"/>
      </g>
     </g>
    </g>
    <g id="ytick_40">
     <g id="line2d_70">
      <g>
       <use style="stroke:#000000;stroke-width:0.6;" x="57.6" xlink:href="#m46b7dd16a2" y="126.815439"/>
      </g>
     </g>
    </g>
    <g id="ytick_41">
     <g id="line2d_71">
      <g>
       <use style="stroke:#000000;stroke-width:0.6;" x="57.6" xlink:href="#m46b7dd16a2" y="121.614632"/>
      </g>
     </g>
    </g>
    <g id="ytick_42">
     <g id="line2d_72">
      <g>
       <use style="stroke:#000000;stroke-width:0.6;" x="57.6" xlink:href="#m46b7dd16a2" y="117.580572"/>
      </g>
     </g>
    </g>
    <g id="ytick_43">
     <g id="line2d_73">
      <g>
       <use style="stroke:#000000;stroke-width:0.6;" x="57.6" xlink:href="#m46b7dd16a2" y="114.284505"/>
      </g>
     </g>
    </g>
    <g id="ytick_44">
     <g id="line2d_74">
      <g>
       <use style="stroke:#000000;stroke-width:0.6;" x="57.6" xlink:href="#m46b7dd16a2" y="111.49772"/>
      </g>
     </g>
    </g>
    <g id="ytick_45">
     <g id="line2d_75">
      <g>
       <use style="stroke:#000000;stroke-width:0.6;" x="57.6" xlink:href="#m46b7dd16a2" y="109.083698"/>
      </g>
     </g>
    </g>
    <g id="ytick_46">
     <g id="line2d_76">
      <g>
       <use style="stroke:#000000;stroke-width:0.6;" x="57.6" xlink:href="#m46b7dd16a2" y="106.954379"/>
      </g>
     </g>
    </g>
    <g id="ytick_47">
     <g id="line2d_77">
      <g>
       <use style="stroke:#000000;stroke-width:0.6;" x="57.6" xlink:href="#m46b7dd16a2" y="92.518704"/>
      </g>
     </g>
    </g>
    <g id="ytick_48">
     <g id="line2d_78">
      <g>
       <use style="stroke:#000000;stroke-width:0.6;" x="57.6" xlink:href="#m46b7dd16a2" y="85.188577"/>
      </g>
     </g>
    </g>
    <g id="ytick_49">
     <g id="line2d_79">
      <g>
       <use style="stroke:#000000;stroke-width:0.6;" x="57.6" xlink:href="#m46b7dd16a2" y="79.98777"/>
      </g>
     </g>
    </g>
    <g id="ytick_50">
     <g id="line2d_80">
      <g>
       <use style="stroke:#000000;stroke-width:0.6;" x="57.6" xlink:href="#m46b7dd16a2" y="75.95371"/>
      </g>
     </g>
    </g>
    <g id="ytick_51">
     <g id="line2d_81">
      <g>
       <use style="stroke:#000000;stroke-width:0.6;" x="57.6" xlink:href="#m46b7dd16a2" y="72.657643"/>
      </g>
     </g>
    </g>
    <g id="ytick_52">
     <g id="line2d_82">
      <g>
       <use style="stroke:#000000;stroke-width:0.6;" x="57.6" xlink:href="#m46b7dd16a2" y="69.870858"/>
      </g>
     </g>
    </g>
    <g id="ytick_53">
     <g id="line2d_83">
      <g>
       <use style="stroke:#000000;stroke-width:0.6;" x="57.6" xlink:href="#m46b7dd16a2" y="67.456836"/>
      </g>
     </g>
    </g>
    <g id="ytick_54">
     <g id="line2d_84">
      <g>
       <use style="stroke:#000000;stroke-width:0.6;" x="57.6" xlink:href="#m46b7dd16a2" y="65.327517"/>
      </g>
     </g>
    </g>
    <g id="ytick_55">
     <g id="line2d_85">
      <g>
       <use style="stroke:#000000;stroke-width:0.6;" x="57.6" xlink:href="#m46b7dd16a2" y="50.891842"/>
      </g>
     </g>
    </g>
    <g id="ytick_56">
     <g id="line2d_86">
      <g>
       <use style="stroke:#000000;stroke-width:0.6;" x="57.6" xlink:href="#m46b7dd16a2" y="43.561715"/>
      </g>
     </g>
    </g>
    <g id="text_12">
     <!-- Average Time per Step (s) -->
     <g transform="translate(21.020312 239.848312)rotate(-90)scale(0.1 -0.1)">
      <defs>
       <path d="M 2188 4044 
L 1331 1722 
L 3047 1722 
L 2188 4044 
z
M 1831 4666 
L 2547 4666 
L 4325 0 
L 3669 0 
L 3244 1197 
L 1141 1197 
L 716 0 
L 50 0 
L 1831 4666 
z
" id="DejaVuSans-41" transform="scale(0.015625)"/>
       <path d="M 191 3500 
L 800 3500 
L 1894 563 
L 2988 3500 
L 3597 3500 
L 2284 0 
L 1503 0 
L 191 3500 
z
" id="DejaVuSans-76" transform="scale(0.015625)"/>
       <path d="M 2194 1759 
Q 1497 1759 1228 1600 
Q 959 1441 959 1056 
Q 959 750 1161 570 
Q 1363 391 1709 391 
Q 2188 391 2477 730 
Q 2766 1069 2766 1631 
L 2766 1759 
L 2194 1759 
z
M 3341 1997 
L 3341 0 
L 2766 0 
L 2766 531 
Q 2569 213 2275 61 
Q 1981 -91 1556 -91 
Q 1019 -91 701 211 
Q 384 513 384 1019 
Q 384 1609 779 1909 
Q 1175 2209 1959 2209 
L 2766 2209 
L 2766 2266 
Q 2766 2663 2505 2880 
Q 2244 3097 1772 3097 
Q 1472 3097 1187 3025 
Q 903 2953 641 2809 
L 641 3341 
Q 956 3463 1253 3523 
Q 1550 3584 1831 3584 
Q 2591 3584 2966 3190 
Q 3341 2797 3341 1997 
z
" id="DejaVuSans-61" transform="scale(0.015625)"/>
       <path d="M 2906 1791 
Q 2906 2416 2648 2759 
Q 2391 3103 1925 3103 
Q 1463 3103 1205 2759 
Q 947 2416 947 1791 
Q 947 1169 1205 825 
Q 1463 481 1925 481 
Q 2391 481 2648 825 
Q 2906 1169 2906 1791 
z
M 3481 434 
Q 3481 -459 3084 -895 
Q 2688 -1331 1869 -1331 
Q 1566 -1331 1297 -1286 
Q 1028 -1241 775 -1147 
L 775 -588 
Q 1028 -725 1275 -790 
Q 1522 -856 1778 -856 
Q 2344 -856 2625 -561 
Q 2906 -266 2906 331 
L 2906 616 
Q 2728 306 2450 153 
Q 2172 0 1784 0 
Q 1141 0 747 490 
Q 353 981 353 1791 
Q 353 2603 747 3093 
Q 1141 3584 1784 3584 
Q 2172 3584 2450 3431 
Q 2728 3278 2906 2969 
L 2906 3500 
L 3481 3500 
L 3481 434 
z
" id="DejaVuSans-67" transform="scale(0.015625)"/>
       <path d="M -19 4666 
L 3928 4666 
L 3928 4134 
L 2272 4134 
L 2272 0 
L 1638 0 
L 1638 4134 
L -19 4134 
L -19 4666 
z
" id="DejaVuSans-54" transform="scale(0.015625)"/>
       <path d="M 603 3500 
L 1178 3500 
L 1178 0 
L 603 0 
L 603 3500 
z
M 603 4863 
L 1178 4863 
L 1178 4134 
L 603 4134 
L 603 4863 
z
" id="DejaVuSans-69" transform="scale(0.015625)"/>
       <path d="M 1159 525 
L 1159 -1331 
L 581 -1331 
L 581 3500 
L 1159 3500 
L 1159 2969 
Q 1341 3281 1617 3432 
Q 1894 3584 2278 3584 
Q 2916 3584 3314 3078 
Q 3713 2572 3713 1747 
Q 3713 922 3314 415 
Q 2916 -91 2278 -91 
Q 1894 -91 1617 61 
Q 1341 213 1159 525 
z
M 3116 1747 
Q 3116 2381 2855 2742 
Q 2594 3103 2138 3103 
Q 1681 3103 1420 2742 
Q 1159 2381 1159 1747 
Q 1159 1113 1420 752 
Q 1681 391 2138 391 
Q 2594 391 2855 752 
Q 3116 1113 3116 1747 
z
" id="DejaVuSans-70" transform="scale(0.015625)"/>
       <path d="M 3425 4513 
L 3425 3897 
Q 3066 4069 2747 4153 
Q 2428 4238 2131 4238 
Q 1616 4238 1336 4038 
Q 1056 3838 1056 3469 
Q 1056 3159 1242 3001 
Q 1428 2844 1947 2747 
L 2328 2669 
Q 3034 2534 3370 2195 
Q 3706 1856 3706 1288 
Q 3706 609 3251 259 
Q 2797 -91 1919 -91 
Q 1588 -91 1214 -16 
Q 841 59 441 206 
L 441 856 
Q 825 641 1194 531 
Q 1563 422 1919 422 
Q 2459 422 2753 634 
Q 3047 847 3047 1241 
Q 3047 1584 2836 1778 
Q 2625 1972 2144 2069 
L 1759 2144 
Q 1053 2284 737 2584 
Q 422 2884 422 3419 
Q 422 4038 858 4394 
Q 1294 4750 2059 4750 
Q 2388 4750 2728 4690 
Q 3069 4631 3425 4513 
z
" id="DejaVuSans-53" transform="scale(0.015625)"/>
       <path d="M 1172 4494 
L 1172 3500 
L 2356 3500 
L 2356 3053 
L 1172 3053 
L 1172 1153 
Q 1172 725 1289 603 
Q 1406 481 1766 481 
L 2356 481 
L 2356 0 
L 1766 0 
Q 1100 0 847 248 
Q 594 497 594 1153 
L 594 3053 
L 172 3053 
L 172 3500 
L 594 3500 
L 594 4494 
L 1172 4494 
z
" id="DejaVuSans-74" transform="scale(0.015625)"/>
       <path d="M 1984 4856 
Q 1566 4138 1362 3434 
Q 1159 2731 1159 2009 
Q 1159 1288 1364 580 
Q 1569 -128 1984 -844 
L 1484 -844 
Q 1016 -109 783 600 
Q 550 1309 550 2009 
Q 550 2706 781 3412 
Q 1013 4119 1484 4856 
L 1984 4856 
z
" id="DejaVuSans-28" transform="scale(0.015625)"/>
       <path d="M 513 4856 
L 1013 4856 
Q 1481 4119 1714 3412 
Q 1947 2706 1947 2009 
Q 1947 1309 1714 600 
Q 1481 -109 1013 -844 
L 513 -844 
Q 928 -128 1133 580 
Q 1338 1288 1338 2009 
Q 1338 2731 1133 3434 
Q 928 4138 513 4856 
z
" id="DejaVuSans-29" transform="scale(0.015625)"/>
      </defs>
      <use xlink:href="#DejaVuSans-41"/>
      <use x="62.533203" xlink:href="#DejaVuSans-76"/>
      <use x="121.712891" xlink:href="#DejaVuSans-65"/>
      <use x="183.236328" xlink:href="#DejaVuSans-72"/>
      <use x="224.349609" xlink:href="#DejaVuSans-61"/>
      <use x="285.628906" xlink:href="#DejaVuSans-67"/>
      <use x="349.105469" xlink:href="#DejaVuSans-65"/>
      <use x="410.628906" xlink:href="#DejaVuSans-20"/>
      <use x="442.416016" xlink:href="#DejaVuSans-54"/>
      <use x="500.375" xlink:href="#DejaVuSans-69"/>
      <use x="528.158203" xlink:href="#DejaVuSans-6d"/>
      <use x="625.570312" xlink:href="#DejaVuSans-65"/>
      <use x="687.09375" xlink:href="#DejaVuSans-20"/>
      <use x="718.880859" xlink:href="#DejaVuSans-70"/>
      <use x="782.357422" xlink:href="#DejaVuSans-65"/>
      <use x="843.880859" xlink:href="#DejaVuSans-72"/>
      <use x="884.994141" xlink:href="#DejaVuSans-20"/>
      <use x="916.78125" xlink:href="#DejaVuSans-53"/>
      <use x="980.257812" xlink:href="#DejaVuSans-74"/>
      <use x="1019.466797" xlink:href="#DejaVuSans-65"/>
      <use x="1080.990234" xlink:href="#DejaVuSans-70"/>
      <use x="1144.466797" xlink:href="#DejaVuSans-20"/>
      <use x="1176.253906" xlink:href="#DejaVuSans-28"/>
      <use x="1215.267578" xlink:href="#DejaVuSans-73"/>
      <use x="1267.367188" xlink:href="#DejaVuSans-29"/>
     </g>
    </g>
   </g>
   <g id="line2d_87">
    <path clip-path="url(#p06b696eadd)" d="M 73.832727 275.460926 
L 78.312168 275.140694 
L 86.16347 272.842193 
L 92.889003 270.887773 
L 98.771491 269.299461 
L 106.409646 267.071755 
L 112.978256 263.589934 
L 118.740388 261.115367 
L 125.465922 257.300496 
L 132.710782 253.322627 
L 138.986565 249.46886 
L 146.565935 244.164889 
L 153.091048 240.215558 
L 159.583915 235.790169 
L 165.954358 216.312441 
L 172.724001 215.995868 
L 179.640198 211.830245 
L 186.101137 206.301205 
L 192.912827 202.355473 
L 199.513861 196.091143 
L 206.152881 192.152686 
L 212.953402 188.319765 
L 219.532598 183.065421 
L 226.045948 180.190543 
L 232.734606 175.011312 
L 239.428156 167.334064 
L 246.014846 162.616849 
L 252.635822 157.7774 
L 259.263558 152.727111 
L 265.94665 149.001259 
L 272.556384 145.726809 
L 279.190481 141.777555 
L 285.836625 137.708135 
L 292.472552 133.481 
L 299.072349 128.763163 
L 305.712068 123.970411 
L 312.329201 119.351217 
L 318.978252 114.490785 
L 325.584564 109.700159 
L 332.230221 104.502782 
L 338.843996 99.360463 
L 345.475806 94.132224 
L 352.100566 89.284792 
L 358.723423 84.056784 
L 365.352473 78.650359 
L 371.977707 73.909963 
L 378.608415 68.755007 
L 385.235319 63.712393 
L 391.861054 58.765791 
L 398.487273 53.684505 
" style="fill:none;stroke:#1f77b4;stroke-linecap:square;stroke-width:1.5;"/>
   </g>
   <g id="line2d_88">
    <path clip-path="url(#p06b696eadd)" d="M 73.832727 286.53861 
L 78.312168 286.75311 
L 86.16347 285.965357 
L 92.889003 285.331064 
L 98.771491 285.675991 
L 106.409646 285.317218 
L 112.978256 284.560965 
L 118.740388 283.50489 
L 125.465922 282.349832 
L 132.710782 281.605075 
L 138.986565 281.53982 
L 146.565935 279.203549 
L 153.091048 278.614521 
L 159.583915 276.949288 
L 165.954358 267.713607 
L 172.724001 265.805835 
L 179.640198 263.422882 
L 186.101137 261.041011 
L 192.912827 257.115933 
L 199.513861 254.388441 
L 206.152881 250.838433 
L 212.953402 246.4409 
L 219.532598 242.590859 
L 226.045948 233.533287 
L 232.734606 237.955659 
L 239.428156 229.380889 
L 246.014846 224.607201 
L 252.635822 213.064717 
L 259.263558 211.654202 
L 265.94665 204.981665 
L 272.556384 199.439013 
L 279.190481 194.026606 
L 285.836625 188.776776 
L 292.472552 182.332833 
L 299.072349 176.788021 
L 305.712068 171.36611 
L 312.329201 166.2199 
L 318.978252 161.145298 
L 325.584564 154.650458 
L 332.230221 147.601875 
L 338.843996 141.741602 
L 345.475806 137.381197 
L 352.100566 133.089253 
L 358.723423 128.468787 
L 365.352473 123.963646 
L 371.977707 119.260023 
L 378.608415 114.362834 
L 385.235319 109.507741 
L 391.861054 104.906292 
L 398.487273 99.662675 
" style="fill:none;stroke:#ff7f0e;stroke-linecap:square;stroke-width:1.5;"/>
   </g>
   <g id="line2d_89">
    <path clip-path="url(#p06b696eadd)" d="M 73.832727 293.546836 
L 78.312168 293.152594 
L 86.16347 291.385866 
L 92.889003 292.505348 
L 98.771491 292.597588 
L 106.409646 292.03903 
L 112.978256 290.142722 
L 118.740388 290.75548 
L 125.465922 289.072479 
L 132.710782 289.386374 
L 138.986565 288.48695 
L 146.565935 286.942908 
L 153.091048 284.961807 
L 159.583915 284.093641 
L 165.954358 275.238177 
L 172.724001 272.648865 
L 179.640198 270.422387 
L 186.101137 268.301886 
L 192.912827 265.194781 
L 199.513861 261.439514 
L 206.152881 258.093766 
L 212.953402 253.606387 
L 219.532598 241.027531 
L 226.045948 248.817315 
L 232.734606 245.085835 
L 239.428156 236.978872 
L 246.014846 232.353589 
L 252.635822 227.755607 
L 259.263558 221.835807 
L 265.94665 216.07547 
L 272.556384 211.094432 
L 279.190481 204.566446 
L 285.836625 199.746298 
L 292.472552 192.128709 
L 299.072349 186.410118 
L 305.712068 180.549321 
L 312.329201 175.20342 
L 318.978252 170.829717 
L 325.584564 166.05203 
L 332.230221 155.950756 
L 338.843996 150.961603 
L 345.475806 146.876379 
L 352.100566 141.58975 
L 358.723423 137.958233 
L 365.352473 133.333253 
L 371.977707 128.826772 
L 378.608415 124.225835 
L 385.235319 119.133602 
L 391.861054 114.434118 
L 398.487273 109.508576 
" style="fill:none;stroke:#2ca02c;stroke-linecap:square;stroke-width:1.5;"/>
   </g>
   <g id="patch_3">
    <path d="M 57.6 307.584 
L 57.6 41.472 
" style="fill:none;stroke:#000000;stroke-linecap:square;stroke-linejoin:miter;stroke-width:0.8;"/>
   </g>
   <g id="patch_4">
    <path d="M 414.72 307.584 
L 414.72 41.472 
" style="fill:none;stroke:#000000;stroke-linecap:square;stroke-linejoin:miter;stroke-width:0.8;"/>
   </g>
   <g id="patch_5">
    <path d="M 57.6 307.584 
L 414.72 307.584 
" style="fill:none;stroke:#000000;stroke-linecap:square;stroke-linejoin:miter;stroke-width:0.8;"/>
   </g>
   <g id="patch_6">
    <path d="M 57.6 41.472 
L 414.72 41.472 
" style="fill:none;stroke:#000000;stroke-linecap:square;stroke-linejoin:miter;stroke-width:0.8;"/>
   </g>
   <g id="text_13">
    <!-- Fully Connected Networks -->
    <g transform="translate(158.050313 35.472)scale(0.12 -0.12)">
     <defs>
      <path d="M 628 4666 
L 3309 4666 
L 3309 4134 
L 1259 4134 
L 1259 2759 
L 3109 2759 
L 3109 2228 
L 1259 2228 
L 1259 0 
L 628 0 
L 628 4666 
z
" id="DejaVuSans-46" transform="scale(0.015625)"/>
      <path d="M 603 4863 
L 1178 4863 
L 1178 0 
L 603 0 
L 603 4863 
z
" id="DejaVuSans-6c" transform="scale(0.015625)"/>
      <path d="M 2059 -325 
Q 1816 -950 1584 -1140 
Q 1353 -1331 966 -1331 
L 506 -1331 
L 506 -850 
L 844 -850 
Q 1081 -850 1212 -737 
Q 1344 -625 1503 -206 
L 1606 56 
L 191 3500 
L 800 3500 
L 1894 763 
L 2988 3500 
L 3597 3500 
L 2059 -325 
z
" id="DejaVuSans-79" transform="scale(0.015625)"/>
      <path d="M 4122 4306 
L 4122 3641 
Q 3803 3938 3442 4084 
Q 3081 4231 2675 4231 
Q 1875 4231 1450 3742 
Q 1025 3253 1025 2328 
Q 1025 1406 1450 917 
Q 1875 428 2675 428 
Q 3081 428 3442 575 
Q 3803 722 4122 1019 
L 4122 359 
Q 3791 134 3420 21 
Q 3050 -91 2638 -91 
Q 1578 -91 968 557 
Q 359 1206 359 2328 
Q 359 3453 968 4101 
Q 1578 4750 2638 4750 
Q 3056 4750 3426 4639 
Q 3797 4528 4122 4306 
z
" id="DejaVuSans-43" transform="scale(0.015625)"/>
      <path d="M 3122 3366 
L 3122 2828 
Q 2878 2963 2633 3030 
Q 2388 3097 2138 3097 
Q 1578 3097 1268 2742 
Q 959 2388 959 1747 
Q 959 1106 1268 751 
Q 1578 397 2138 397 
Q 2388 397 2633 464 
Q 2878 531 3122 666 
L 3122 134 
Q 2881 22 2623 -34 
Q 2366 -91 2075 -91 
Q 1284 -91 818 406 
Q 353 903 353 1747 
Q 353 2603 823 3093 
Q 1294 3584 2113 3584 
Q 2378 3584 2631 3529 
Q 2884 3475 3122 3366 
z
" id="DejaVuSans-63" transform="scale(0.015625)"/>
      <path d="M 2906 2969 
L 2906 4863 
L 3481 4863 
L 3481 0 
L 2906 0 
L 2906 525 
Q 2725 213 2448 61 
Q 2172 -91 1784 -91 
Q 1150 -91 751 415 
Q 353 922 353 1747 
Q 353 2572 751 3078 
Q 1150 3584 1784 3584 
Q 2172 3584 2448 3432 
Q 2725 3281 2906 2969 
z
M 947 1747 
Q 947 1113 1208 752 
Q 1469 391 1925 391 
Q 2381 391 2643 752 
Q 2906 1113 2906 1747 
Q 2906 2381 2643 2742 
Q 2381 3103 1925 3103 
Q 1469 3103 1208 2742 
Q 947 2381 947 1747 
z
" id="DejaVuSans-64" transform="scale(0.015625)"/>
      <path d="M 269 3500 
L 844 3500 
L 1563 769 
L 2278 3500 
L 2956 3500 
L 3675 769 
L 4391 3500 
L 4966 3500 
L 4050 0 
L 3372 0 
L 2619 2869 
L 1863 0 
L 1184 0 
L 269 3500 
z
" id="DejaVuSans-77" transform="scale(0.015625)"/>
      <path d="M 581 4863 
L 1159 4863 
L 1159 1991 
L 2875 3500 
L 3609 3500 
L 1753 1863 
L 3688 0 
L 2938 0 
L 1159 1709 
L 1159 0 
L 581 0 
L 581 4863 
z
" id="DejaVuSans-6b" transform="scale(0.015625)"/>
     </defs>
     <use xlink:href="#DejaVuSans-46"/>
     <use x="52.019531" xlink:href="#DejaVuSans-75"/>
     <use x="115.398438" xlink:href="#DejaVuSans-6c"/>
     <use x="143.181641" xlink:href="#DejaVuSans-6c"/>
     <use x="170.964844" xlink:href="#DejaVuSans-79"/>
     <use x="230.144531" xlink:href="#DejaVuSans-20"/>
     <use x="261.931641" xlink:href="#DejaVuSans-43"/>
     <use x="331.755859" xlink:href="#DejaVuSans-6f"/>
     <use x="392.9375" xlink:href="#DejaVuSans-6e"/>
     <use x="456.316406" xlink:href="#DejaVuSans-6e"/>
     <use x="519.695312" xlink:href="#DejaVuSans-65"/>
     <use x="581.21875" xlink:href="#DejaVuSans-63"/>
     <use x="636.199219" xlink:href="#DejaVuSans-74"/>
     <use x="675.408203" xlink:href="#DejaVuSans-65"/>
     <use x="736.931641" xlink:href="#DejaVuSans-64"/>
     <use x="800.408203" xlink:href="#DejaVuSans-20"/>
     <use x="832.195312" xlink:href="#DejaVuSans-4e"/>
     <use x="907" xlink:href="#DejaVuSans-65"/>
     <use x="968.523438" xlink:href="#DejaVuSans-74"/>
     <use x="1007.732422" xlink:href="#DejaVuSans-77"/>
     <use x="1089.519531" xlink:href="#DejaVuSans-6f"/>
     <use x="1150.701172" xlink:href="#DejaVuSans-72"/>
     <use x="1191.814453" xlink:href="#DejaVuSans-6b"/>
     <use x="1249.724609" xlink:href="#DejaVuSans-73"/>
    </g>
   </g>
   <g id="legend_1">
    <g id="patch_7">
     <path d="M 64.6 93.506375 
L 209.923438 93.506375 
Q 211.923438 93.506375 211.923438 91.506375 
L 211.923438 48.472 
Q 211.923438 46.472 209.923438 46.472 
L 64.6 46.472 
Q 62.6 46.472 62.6 48.472 
L 62.6 91.506375 
Q 62.6 93.506375 64.6 93.506375 
z
" style="fill:#ffffff;opacity:0.8;stroke:#cccccc;stroke-linejoin:miter;"/>
    </g>
    <g id="line2d_90">
     <path d="M 66.6 54.570438 
L 86.6 54.570438 
" style="fill:none;stroke:#1f77b4;stroke-linecap:square;stroke-width:1.5;"/>
    </g>
    <g id="line2d_91"/>
    <g id="text_14">
     <!-- Full Spiking Model -->
     <g transform="translate(94.6 58.070438)scale(0.1 -0.1)">
      <defs>
       <path d="M 628 4666 
L 1569 4666 
L 2759 1491 
L 3956 4666 
L 4897 4666 
L 4897 0 
L 4281 0 
L 4281 4097 
L 3078 897 
L 2444 897 
L 1241 4097 
L 1241 0 
L 628 0 
L 628 4666 
z
" id="DejaVuSans-4d" transform="scale(0.015625)"/>
      </defs>
      <use xlink:href="#DejaVuSans-46"/>
      <use x="52.019531" xlink:href="#DejaVuSans-75"/>
      <use x="115.398438" xlink:href="#DejaVuSans-6c"/>
      <use x="143.181641" xlink:href="#DejaVuSans-6c"/>
      <use x="170.964844" xlink:href="#DejaVuSans-20"/>
      <use x="202.751953" xlink:href="#DejaVuSans-53"/>
      <use x="266.228516" xlink:href="#DejaVuSans-70"/>
      <use x="329.705078" xlink:href="#DejaVuSans-69"/>
      <use x="357.488281" xlink:href="#DejaVuSans-6b"/>
      <use x="415.398438" xlink:href="#DejaVuSans-69"/>
      <use x="443.181641" xlink:href="#DejaVuSans-6e"/>
      <use x="506.560547" xlink:href="#DejaVuSans-67"/>
      <use x="570.037109" xlink:href="#DejaVuSans-20"/>
      <use x="601.824219" xlink:href="#DejaVuSans-4d"/>
      <use x="688.103516" xlink:href="#DejaVuSans-6f"/>
      <use x="749.285156" xlink:href="#DejaVuSans-64"/>
      <use x="812.761719" xlink:href="#DejaVuSans-65"/>
      <use x="874.285156" xlink:href="#DejaVuSans-6c"/>
     </g>
    </g>
    <g id="line2d_92">
     <path d="M 66.6 69.248563 
L 86.6 69.248563 
" style="fill:none;stroke:#ff7f0e;stroke-linecap:square;stroke-width:1.5;"/>
    </g>
    <g id="line2d_93"/>
    <g id="text_15">
     <!-- Full No Delay Model -->
     <g transform="translate(94.6 72.748563)scale(0.1 -0.1)">
      <defs>
       <path d="M 1259 4147 
L 1259 519 
L 2022 519 
Q 2988 519 3436 956 
Q 3884 1394 3884 2338 
Q 3884 3275 3436 3711 
Q 2988 4147 2022 4147 
L 1259 4147 
z
M 628 4666 
L 1925 4666 
Q 3281 4666 3915 4102 
Q 4550 3538 4550 2338 
Q 4550 1131 3912 565 
Q 3275 0 1925 0 
L 628 0 
L 628 4666 
z
" id="DejaVuSans-44" transform="scale(0.015625)"/>
      </defs>
      <use xlink:href="#DejaVuSans-46"/>
      <use x="52.019531" xlink:href="#DejaVuSans-75"/>
      <use x="115.398438" xlink:href="#DejaVuSans-6c"/>
      <use x="143.181641" xlink:href="#DejaVuSans-6c"/>
      <use x="170.964844" xlink:href="#DejaVuSans-20"/>
      <use x="202.751953" xlink:href="#DejaVuSans-4e"/>
      <use x="277.556641" xlink:href="#DejaVuSans-6f"/>
      <use x="338.738281" xlink:href="#DejaVuSans-20"/>
      <use x="370.525391" xlink:href="#DejaVuSans-44"/>
      <use x="447.527344" xlink:href="#DejaVuSans-65"/>
      <use x="509.050781" xlink:href="#DejaVuSans-6c"/>
      <use x="536.833984" xlink:href="#DejaVuSans-61"/>
      <use x="598.113281" xlink:href="#DejaVuSans-79"/>
      <use x="657.292969" xlink:href="#DejaVuSans-20"/>
      <use x="689.080078" xlink:href="#DejaVuSans-4d"/>
      <use x="775.359375" xlink:href="#DejaVuSans-6f"/>
      <use x="836.541016" xlink:href="#DejaVuSans-64"/>
      <use x="900.017578" xlink:href="#DejaVuSans-65"/>
      <use x="961.541016" xlink:href="#DejaVuSans-6c"/>
     </g>
    </g>
    <g id="line2d_94">
     <path d="M 66.6 83.926688 
L 86.6 83.926688 
" style="fill:none;stroke:#2ca02c;stroke-linecap:square;stroke-width:1.5;"/>
    </g>
    <g id="line2d_95"/>
    <g id="text_16">
     <!-- Full Non Spiking Model -->
     <g transform="translate(94.6 87.426688)scale(0.1 -0.1)">
      <use xlink:href="#DejaVuSans-46"/>
      <use x="52.019531" xlink:href="#DejaVuSans-75"/>
      <use x="115.398438" xlink:href="#DejaVuSans-6c"/>
      <use x="143.181641" xlink:href="#DejaVuSans-6c"/>
      <use x="170.964844" xlink:href="#DejaVuSans-20"/>
      <use x="202.751953" xlink:href="#DejaVuSans-4e"/>
      <use x="277.556641" xlink:href="#DejaVuSans-6f"/>
      <use x="338.738281" xlink:href="#DejaVuSans-6e"/>
      <use x="402.117188" xlink:href="#DejaVuSans-20"/>
      <use x="433.904297" xlink:href="#DejaVuSans-53"/>
      <use x="497.380859" xlink:href="#DejaVuSans-70"/>
      <use x="560.857422" xlink:href="#DejaVuSans-69"/>
      <use x="588.640625" xlink:href="#DejaVuSans-6b"/>
      <use x="646.550781" xlink:href="#DejaVuSans-69"/>
      <use x="674.333984" xlink:href="#DejaVuSans-6e"/>
      <use x="737.712891" xlink:href="#DejaVuSans-67"/>
      <use x="801.189453" xlink:href="#DejaVuSans-20"/>
      <use x="832.976562" xlink:href="#DejaVuSans-4d"/>
      <use x="919.255859" xlink:href="#DejaVuSans-6f"/>
      <use x="980.4375" xlink:href="#DejaVuSans-64"/>
      <use x="1043.914062" xlink:href="#DejaVuSans-65"/>
      <use x="1105.4375" xlink:href="#DejaVuSans-6c"/>
     </g>
    </g>
   </g>
  </g>
 </g>
 <defs>
  <clipPath id="p06b696eadd">
   <rect height="266.112" width="357.12" x="57.6" y="41.472"/>
  </clipPath>
 </defs>
</svg>
