<?xml version="1.0" encoding="utf-8" standalone="no"?>
<!DOCTYPE svg PUBLIC "-//W3C//DTD SVG 1.1//EN"
  "http://www.w3.org/Graphics/SVG/1.1/DTD/svg11.dtd">
<svg height="345.6pt" version="1.1" viewBox="0 0 460.8 345.6" width="460.8pt" xmlns="http://www.w3.org/2000/svg" xmlns:xlink="http://www.w3.org/1999/xlink">
 <metadata>
  <rdf:RDF xmlns:cc="http://creativecommons.org/ns#" xmlns:dc="http://purl.org/dc/elements/1.1/" xmlns:rdf="http://www.w3.org/1999/02/22-rdf-syntax-ns#">
   <cc:Work>
    <dc:type rdf:resource="http://purl.org/dc/dcmitype/StillImage"/>
    <dc:date>2022-03-14T15:39:40.025682</dc:date>
    <dc:format>image/svg+xml</dc:format>
    <dc:creator>
     <cc:Agent>
      <dc:title>Matplotlib v3.4.1, https://matplotlib.org/</dc:title>
     </cc:Agent>
    </dc:creator>
   </cc:Work>
  </rdf:RDF>
 </metadata>
 <defs>
  <style type="text/css">*{stroke-linecap:butt;stroke-linejoin:round;}</style>
 </defs>
 <g id="figure_1">
  <g id="patch_1">
   <path d="M 0 345.6 
L 460.8 345.6 
L 460.8 0 
L 0 0 
z
" style="fill:#ffffff;"/>
  </g>
  <g id="axes_1">
   <g id="patch_2">
    <path d="M 57.6 307.584 
L 414.72 307.584 
L 414.72 41.472 
L 57.6 41.472 
z
" style="fill:#ffffff;"/>
   </g>
   <g id="PolyCollection_1">
    <defs>
     <path d="M 73.832727 -72.11265 
L 73.832727 -68.224126 
L 78.312168 -69.033939 
L 86.16347 -69.270255 
L 92.889003 -69.569734 
L 98.771491 -69.940909 
L 106.409646 -69.810349 
L 112.978256 -70.113642 
L 118.740388 -71.086052 
L 125.465922 -70.898112 
L 132.710782 -72.324833 
L 138.986565 -73.251804 
L 146.565935 -72.987094 
L 153.091048 -75.864821 
L 159.583915 -77.119897 
L 165.954358 -87.958669 
L 172.724001 -90.605086 
L 179.640198 -93.043612 
L 186.101137 -95.965569 
L 192.912827 -99.571382 
L 199.513861 -103.181695 
L 206.152881 -107.317008 
L 212.953402 -112.117905 
L 219.532598 -106.478641 
L 226.045948 -103.547222 
L 232.734606 -117.864666 
L 239.428156 -131.450676 
L 246.014846 -101.444624 
L 252.635822 -129.139324 
L 259.263558 -148.201116 
L 265.94665 -157.707352 
L 272.556384 -166.856912 
L 279.190481 -170.865245 
L 285.836625 -180.988299 
L 292.472552 -188.815335 
L 299.072349 -195.11839 
L 305.712068 -202.771808 
L 312.329201 -207.72485 
L 318.978252 -215.733345 
L 325.584564 -222.965534 
L 332.230221 -230.195026 
L 338.843996 -237.740659 
L 345.475806 -243.420261 
L 352.100566 -248.707633 
L 358.723423 -254.618532 
L 365.352473 -259.69411 
L 371.977707 -265.756126 
L 378.608415 -271.497965 
L 385.235319 -277.604539 
L 391.861054 -283.611254 
L 398.487273 -289.812004 
L 398.487273 -292.032 
L 398.487273 -292.032 
L 391.861054 -287.181178 
L 385.235319 -282.748846 
L 378.608415 -273.816397 
L 371.977707 -267.519715 
L 365.352473 -263.564589 
L 358.723423 -256.153921 
L 352.100566 -250.596478 
L 345.475806 -245.343302 
L 338.843996 -239.651279 
L 332.230221 -232.530388 
L 325.584564 -224.921742 
L 318.978252 -218.076599 
L 312.329201 -212.275757 
L 305.712068 -205.657485 
L 299.072349 -197.795981 
L 292.472552 -192.612907 
L 285.836625 -184.861884 
L 279.190481 -181.743705 
L 272.556384 -171.309749 
L 265.94665 -166.223157 
L 259.263558 -160.071385 
L 252.635822 -158.700403 
L 246.014846 -162.340085 
L 239.428156 -166.331008 
L 232.734606 -166.903258 
L 226.045948 -164.863219 
L 219.532598 -151.690772 
L 212.953402 -145.162284 
L 206.152881 -153.352608 
L 199.513861 -154.686944 
L 192.912827 -148.649523 
L 186.101137 -150.933019 
L 179.640198 -138.904088 
L 172.724001 -137.823783 
L 165.954358 -150.625159 
L 159.583915 -88.993821 
L 153.091048 -87.746533 
L 146.565935 -86.315485 
L 138.986565 -81.775971 
L 132.710782 -80.983227 
L 125.465922 -80.198802 
L 118.740388 -77.140485 
L 112.978256 -78.21464 
L 106.409646 -72.644127 
L 98.771491 -75.710172 
L 92.889003 -72.681646 
L 86.16347 -72.49441 
L 78.312168 -71.554712 
L 73.832727 -72.11265 
z
" id="m45960f037d" style="stroke:#1f77b4;stroke-opacity:0.1;"/>
    </defs>
    <g clip-path="url(#p582992526a)">
     <use style="fill:#1f77b4;fill-opacity:0.1;stroke:#1f77b4;stroke-opacity:0.1;" x="0" xlink:href="#m45960f037d" y="345.6"/>
    </g>
   </g>
   <g id="PolyCollection_2">
    <defs>
     <path d="M 73.832727 -61.783313 
L 73.832727 -59.903159 
L 78.312168 -59.52093 
L 86.16347 -60.101242 
L 92.889003 -60.750956 
L 98.771491 -60.282599 
L 106.409646 -61.259512 
L 112.978256 -62.042292 
L 118.740388 -61.2081 
L 125.465922 -63.060711 
L 132.710782 -64.769764 
L 138.986565 -62.280656 
L 146.565935 -66.634416 
L 153.091048 -67.95322 
L 159.583915 -69.881583 
L 165.954358 -80.629271 
L 172.724001 -83.217537 
L 179.640198 -86.570988 
L 186.101137 -89.692124 
L 192.912827 -93.829573 
L 199.513861 -98.22295 
L 206.152881 -102.754647 
L 212.953402 -98.034735 
L 219.532598 -112.141599 
L 226.045948 -108.467604 
L 232.734606 -110.580112 
L 239.428156 -128.798481 
L 246.014846 -135.449191 
L 252.635822 -110.789138 
L 259.263558 -146.86675 
L 265.94665 -155.948846 
L 272.556384 -163.94185 
L 279.190481 -170.305877 
L 285.836625 -179.819589 
L 292.472552 -185.394605 
L 299.072349 -194.907095 
L 305.712068 -200.804401 
L 312.329201 -206.591834 
L 318.978252 -213.809282 
L 325.584564 -223.777752 
L 332.230221 -231.681087 
L 338.843996 -236.901548 
L 345.475806 -242.793855 
L 352.100566 -248.071576 
L 358.723423 -253.832772 
L 365.352473 -259.07498 
L 371.977707 -265.074165 
L 378.608415 -270.880186 
L 385.235319 -276.876552 
L 391.861054 -282.783441 
L 398.487273 -288.972208 
L 398.487273 -289.596308 
L 398.487273 -289.596308 
L 391.861054 -283.368393 
L 385.235319 -277.510867 
L 378.608415 -271.504502 
L 371.977707 -265.734709 
L 365.352473 -259.928899 
L 358.723423 -254.569701 
L 352.100566 -248.715656 
L 345.475806 -243.438505 
L 338.843996 -237.729395 
L 332.230221 -232.463385 
L 325.584564 -224.373723 
L 318.978252 -215.106564 
L 312.329201 -212.39303 
L 305.712068 -204.282783 
L 299.072349 -196.211123 
L 292.472552 -192.69878 
L 285.836625 -181.85157 
L 279.190481 -178.376446 
L 272.556384 -168.683613 
L 265.94665 -164.40712 
L 259.263558 -157.275373 
L 252.635822 -160.099778 
L 246.014846 -137.307982 
L 239.428156 -130.887278 
L 232.734606 -123.773886 
L 226.045948 -111.019066 
L 219.532598 -114.22604 
L 212.953402 -109.95531 
L 206.152881 -103.644315 
L 199.513861 -99.082893 
L 192.912827 -94.575763 
L 186.101137 -90.653936 
L 179.640198 -87.406573 
L 172.724001 -84.214985 
L 165.954358 -81.453362 
L 159.583915 -71.02991 
L 153.091048 -71.131434 
L 146.565935 -67.898098 
L 138.986565 -71.424531 
L 132.710782 -66.05901 
L 125.465922 -66.02 
L 118.740388 -67.198333 
L 112.978256 -64.741472 
L 106.409646 -63.042293 
L 98.771491 -63.374718 
L 92.889003 -62.455157 
L 86.16347 -63.073934 
L 78.312168 -61.865403 
L 73.832727 -61.783313 
z
" id="m2bfb3f19eb" style="stroke:#ff7f0e;stroke-opacity:0.1;"/>
    </defs>
    <g clip-path="url(#p582992526a)">
     <use style="fill:#ff7f0e;fill-opacity:0.1;stroke:#ff7f0e;stroke-opacity:0.1;" x="0" xlink:href="#m2bfb3f19eb" y="345.6"/>
    </g>
   </g>
   <g id="PolyCollection_3">
    <defs>
     <path d="M 73.832727 -54.426053 
L 73.832727 -50.112 
L 78.312168 -51.060864 
L 86.16347 -51.494791 
L 92.889003 -51.111671 
L 98.771491 -52.000206 
L 106.409646 -52.694144 
L 112.978256 -50.487457 
L 118.740388 -52.998626 
L 125.465922 -54.385917 
L 132.710782 -55.134893 
L 138.986565 -55.2266 
L 146.565935 -57.26099 
L 153.091048 -59.237114 
L 159.583915 -60.519176 
L 165.954358 -71.299792 
L 172.724001 -73.598907 
L 179.640198 -77.014385 
L 186.101137 -80.175385 
L 192.912827 -83.972624 
L 199.513861 -82.204351 
L 206.152881 -82.615218 
L 212.953402 -86.665763 
L 219.532598 -96.829821 
L 226.045948 -97.176089 
L 232.734606 -102.101535 
L 239.428156 -119.115943 
L 246.014846 -124.504726 
L 252.635822 -66.800838 
L 259.263558 -129.807382 
L 265.94665 -139.686401 
L 272.556384 -147.35169 
L 279.190481 -159.552768 
L 285.836625 -163.143454 
L 292.472552 -174.226506 
L 299.072349 -179.988483 
L 305.712068 -188.799181 
L 312.329201 -195.353262 
L 318.978252 -200.851684 
L 325.584564 -207.548067 
L 332.230221 -215.630041 
L 338.843996 -225.556941 
L 345.475806 -230.789558 
L 352.100566 -235.464817 
L 358.723423 -240.689553 
L 365.352473 -245.587771 
L 371.977707 -250.833403 
L 378.608415 -256.390528 
L 385.235319 -262.490962 
L 391.861054 -268.268264 
L 398.487273 -274.067516 
L 398.487273 -275.049859 
L 398.487273 -275.049859 
L 391.861054 -269.064635 
L 385.235319 -263.42692 
L 378.608415 -257.217244 
L 371.977707 -251.661688 
L 365.352473 -246.328367 
L 358.723423 -241.432104 
L 352.100566 -236.29781 
L 345.475806 -231.460945 
L 338.843996 -226.315872 
L 332.230221 -216.495978 
L 325.584564 -208.383316 
L 318.978252 -201.910441 
L 312.329201 -196.590472 
L 305.712068 -190.046639 
L 299.072349 -184.544164 
L 292.472552 -176.76247 
L 285.836625 -168.995806 
L 279.190481 -161.944737 
L 272.556384 -155.394697 
L 265.94665 -148.136411 
L 259.263558 -145.05624 
L 252.635822 -148.525429 
L 246.014846 -125.841449 
L 239.428156 -119.639379 
L 232.734606 -108.002788 
L 226.045948 -107.391778 
L 219.532598 -109.075953 
L 212.953402 -90.975042 
L 206.152881 -83.967122 
L 199.513861 -89.851501 
L 192.912827 -84.929815 
L 186.101137 -81.187488 
L 179.640198 -78.054551 
L 172.724001 -74.794315 
L 165.954358 -72.584344 
L 159.583915 -62.161945 
L 153.091048 -61.177435 
L 146.565935 -60.733716 
L 138.986565 -59.513959 
L 132.710782 -58.015075 
L 125.465922 -56.076368 
L 118.740388 -58.347085 
L 112.978256 -62.19051 
L 106.409646 -54.345209 
L 98.771491 -53.990547 
L 92.889003 -55.409109 
L 86.16347 -63.066373 
L 78.312168 -52.933091 
L 73.832727 -54.426053 
z
" id="m4b809b8093" style="stroke:#2ca02c;stroke-opacity:0.1;"/>
    </defs>
    <g clip-path="url(#p582992526a)">
     <use style="fill:#2ca02c;fill-opacity:0.1;stroke:#2ca02c;stroke-opacity:0.1;" x="0" xlink:href="#m4b809b8093" y="345.6"/>
    </g>
   </g>
   <g id="matplotlib.axis_1">
    <g id="xtick_1">
     <g id="line2d_1">
      <defs>
       <path d="M 0 0 
L 0 3.5 
" id="mec4aad3f05" style="stroke:#000000;stroke-width:0.8;"/>
      </defs>
      <g>
       <use style="stroke:#000000;stroke-width:0.8;" x="73.832727" xlink:href="#mec4aad3f05" y="307.584"/>
      </g>
     </g>
     <g id="text_1">
      <!-- $\mathdefault{10^{1}}$ -->
      <g transform="translate(65.032727 322.182437)scale(0.1 -0.1)">
       <defs>
        <path d="M 794 531 
L 1825 531 
L 1825 4091 
L 703 3866 
L 703 4441 
L 1819 4666 
L 2450 4666 
L 2450 531 
L 3481 531 
L 3481 0 
L 794 0 
L 794 531 
z
" id="DejaVuSans-31" transform="scale(0.015625)"/>
        <path d="M 2034 4250 
Q 1547 4250 1301 3770 
Q 1056 3291 1056 2328 
Q 1056 1369 1301 889 
Q 1547 409 2034 409 
Q 2525 409 2770 889 
Q 3016 1369 3016 2328 
Q 3016 3291 2770 3770 
Q 2525 4250 2034 4250 
z
M 2034 4750 
Q 2819 4750 3233 4129 
Q 3647 3509 3647 2328 
Q 3647 1150 3233 529 
Q 2819 -91 2034 -91 
Q 1250 -91 836 529 
Q 422 1150 422 2328 
Q 422 3509 836 4129 
Q 1250 4750 2034 4750 
z
" id="DejaVuSans-30" transform="scale(0.015625)"/>
       </defs>
       <use transform="translate(0 0.684375)" xlink:href="#DejaVuSans-31"/>
       <use transform="translate(63.623047 0.684375)" xlink:href="#DejaVuSans-30"/>
       <use transform="translate(128.203125 38.965625)scale(0.7)" xlink:href="#DejaVuSans-31"/>
      </g>
     </g>
    </g>
    <g id="xtick_2">
     <g id="line2d_2">
      <g>
       <use style="stroke:#000000;stroke-width:0.8;" x="182.050909" xlink:href="#mec4aad3f05" y="307.584"/>
      </g>
     </g>
     <g id="text_2">
      <!-- $\mathdefault{10^{2}}$ -->
      <g transform="translate(173.250909 322.182437)scale(0.1 -0.1)">
       <defs>
        <path d="M 1228 531 
L 3431 531 
L 3431 0 
L 469 0 
L 469 531 
Q 828 903 1448 1529 
Q 2069 2156 2228 2338 
Q 2531 2678 2651 2914 
Q 2772 3150 2772 3378 
Q 2772 3750 2511 3984 
Q 2250 4219 1831 4219 
Q 1534 4219 1204 4116 
Q 875 4013 500 3803 
L 500 4441 
Q 881 4594 1212 4672 
Q 1544 4750 1819 4750 
Q 2544 4750 2975 4387 
Q 3406 4025 3406 3419 
Q 3406 3131 3298 2873 
Q 3191 2616 2906 2266 
Q 2828 2175 2409 1742 
Q 1991 1309 1228 531 
z
" id="DejaVuSans-32" transform="scale(0.015625)"/>
       </defs>
       <use transform="translate(0 0.765625)" xlink:href="#DejaVuSans-31"/>
       <use transform="translate(63.623047 0.765625)" xlink:href="#DejaVuSans-30"/>
       <use transform="translate(128.203125 39.046875)scale(0.7)" xlink:href="#DejaVuSans-32"/>
      </g>
     </g>
    </g>
    <g id="xtick_3">
     <g id="line2d_3">
      <g>
       <use style="stroke:#000000;stroke-width:0.8;" x="290.269091" xlink:href="#mec4aad3f05" y="307.584"/>
      </g>
     </g>
     <g id="text_3">
      <!-- $\mathdefault{10^{3}}$ -->
      <g transform="translate(281.469091 322.182437)scale(0.1 -0.1)">
       <defs>
        <path d="M 2597 2516 
Q 3050 2419 3304 2112 
Q 3559 1806 3559 1356 
Q 3559 666 3084 287 
Q 2609 -91 1734 -91 
Q 1441 -91 1130 -33 
Q 819 25 488 141 
L 488 750 
Q 750 597 1062 519 
Q 1375 441 1716 441 
Q 2309 441 2620 675 
Q 2931 909 2931 1356 
Q 2931 1769 2642 2001 
Q 2353 2234 1838 2234 
L 1294 2234 
L 1294 2753 
L 1863 2753 
Q 2328 2753 2575 2939 
Q 2822 3125 2822 3475 
Q 2822 3834 2567 4026 
Q 2313 4219 1838 4219 
Q 1578 4219 1281 4162 
Q 984 4106 628 3988 
L 628 4550 
Q 988 4650 1302 4700 
Q 1616 4750 1894 4750 
Q 2613 4750 3031 4423 
Q 3450 4097 3450 3541 
Q 3450 3153 3228 2886 
Q 3006 2619 2597 2516 
z
" id="DejaVuSans-33" transform="scale(0.015625)"/>
       </defs>
       <use transform="translate(0 0.765625)" xlink:href="#DejaVuSans-31"/>
       <use transform="translate(63.623047 0.765625)" xlink:href="#DejaVuSans-30"/>
       <use transform="translate(128.203125 39.046875)scale(0.7)" xlink:href="#DejaVuSans-33"/>
      </g>
     </g>
    </g>
    <g id="xtick_4">
     <g id="line2d_4">
      <g>
       <use style="stroke:#000000;stroke-width:0.8;" x="398.487273" xlink:href="#mec4aad3f05" y="307.584"/>
      </g>
     </g>
     <g id="text_4">
      <!-- $\mathdefault{10^{4}}$ -->
      <g transform="translate(389.687273 322.182437)scale(0.1 -0.1)">
       <defs>
        <path d="M 2419 4116 
L 825 1625 
L 2419 1625 
L 2419 4116 
z
M 2253 4666 
L 3047 4666 
L 3047 1625 
L 3713 1625 
L 3713 1100 
L 3047 1100 
L 3047 0 
L 2419 0 
L 2419 1100 
L 313 1100 
L 313 1709 
L 2253 4666 
z
" id="DejaVuSans-34" transform="scale(0.015625)"/>
       </defs>
       <use transform="translate(0 0.684375)" xlink:href="#DejaVuSans-31"/>
       <use transform="translate(63.623047 0.684375)" xlink:href="#DejaVuSans-30"/>
       <use transform="translate(128.203125 38.965625)scale(0.7)" xlink:href="#DejaVuSans-34"/>
      </g>
     </g>
    </g>
    <g id="xtick_5">
     <g id="line2d_5">
      <defs>
       <path d="M 0 0 
L 0 2 
" id="m85652abee1" style="stroke:#000000;stroke-width:0.6;"/>
      </defs>
      <g>
       <use style="stroke:#000000;stroke-width:0.6;" x="63.345302" xlink:href="#m85652abee1" y="307.584"/>
      </g>
     </g>
    </g>
    <g id="xtick_6">
     <g id="line2d_6">
      <g>
       <use style="stroke:#000000;stroke-width:0.6;" x="68.880935" xlink:href="#m85652abee1" y="307.584"/>
      </g>
     </g>
    </g>
    <g id="xtick_7">
     <g id="line2d_7">
      <g>
       <use style="stroke:#000000;stroke-width:0.6;" x="106.409646" xlink:href="#m85652abee1" y="307.584"/>
      </g>
     </g>
    </g>
    <g id="xtick_8">
     <g id="line2d_8">
      <g>
       <use style="stroke:#000000;stroke-width:0.6;" x="125.465922" xlink:href="#m85652abee1" y="307.584"/>
      </g>
     </g>
    </g>
    <g id="xtick_9">
     <g id="line2d_9">
      <g>
       <use style="stroke:#000000;stroke-width:0.6;" x="138.986565" xlink:href="#m85652abee1" y="307.584"/>
      </g>
     </g>
    </g>
    <g id="xtick_10">
     <g id="line2d_10">
      <g>
       <use style="stroke:#000000;stroke-width:0.6;" x="149.47399" xlink:href="#m85652abee1" y="307.584"/>
      </g>
     </g>
    </g>
    <g id="xtick_11">
     <g id="line2d_11">
      <g>
       <use style="stroke:#000000;stroke-width:0.6;" x="158.042841" xlink:href="#m85652abee1" y="307.584"/>
      </g>
     </g>
    </g>
    <g id="xtick_12">
     <g id="line2d_12">
      <g>
       <use style="stroke:#000000;stroke-width:0.6;" x="165.287701" xlink:href="#m85652abee1" y="307.584"/>
      </g>
     </g>
    </g>
    <g id="xtick_13">
     <g id="line2d_13">
      <g>
       <use style="stroke:#000000;stroke-width:0.6;" x="171.563484" xlink:href="#m85652abee1" y="307.584"/>
      </g>
     </g>
    </g>
    <g id="xtick_14">
     <g id="line2d_14">
      <g>
       <use style="stroke:#000000;stroke-width:0.6;" x="177.099117" xlink:href="#m85652abee1" y="307.584"/>
      </g>
     </g>
    </g>
    <g id="xtick_15">
     <g id="line2d_15">
      <g>
       <use style="stroke:#000000;stroke-width:0.6;" x="214.627828" xlink:href="#m85652abee1" y="307.584"/>
      </g>
     </g>
    </g>
    <g id="xtick_16">
     <g id="line2d_16">
      <g>
       <use style="stroke:#000000;stroke-width:0.6;" x="233.684104" xlink:href="#m85652abee1" y="307.584"/>
      </g>
     </g>
    </g>
    <g id="xtick_17">
     <g id="line2d_17">
      <g>
       <use style="stroke:#000000;stroke-width:0.6;" x="247.204747" xlink:href="#m85652abee1" y="307.584"/>
      </g>
     </g>
    </g>
    <g id="xtick_18">
     <g id="line2d_18">
      <g>
       <use style="stroke:#000000;stroke-width:0.6;" x="257.692172" xlink:href="#m85652abee1" y="307.584"/>
      </g>
     </g>
    </g>
    <g id="xtick_19">
     <g id="line2d_19">
      <g>
       <use style="stroke:#000000;stroke-width:0.6;" x="266.261023" xlink:href="#m85652abee1" y="307.584"/>
      </g>
     </g>
    </g>
    <g id="xtick_20">
     <g id="line2d_20">
      <g>
       <use style="stroke:#000000;stroke-width:0.6;" x="273.505882" xlink:href="#m85652abee1" y="307.584"/>
      </g>
     </g>
    </g>
    <g id="xtick_21">
     <g id="line2d_21">
      <g>
       <use style="stroke:#000000;stroke-width:0.6;" x="279.781666" xlink:href="#m85652abee1" y="307.584"/>
      </g>
     </g>
    </g>
    <g id="xtick_22">
     <g id="line2d_22">
      <g>
       <use style="stroke:#000000;stroke-width:0.6;" x="285.317298" xlink:href="#m85652abee1" y="307.584"/>
      </g>
     </g>
    </g>
    <g id="xtick_23">
     <g id="line2d_23">
      <g>
       <use style="stroke:#000000;stroke-width:0.6;" x="322.84601" xlink:href="#m85652abee1" y="307.584"/>
      </g>
     </g>
    </g>
    <g id="xtick_24">
     <g id="line2d_24">
      <g>
       <use style="stroke:#000000;stroke-width:0.6;" x="341.902286" xlink:href="#m85652abee1" y="307.584"/>
      </g>
     </g>
    </g>
    <g id="xtick_25">
     <g id="line2d_25">
      <g>
       <use style="stroke:#000000;stroke-width:0.6;" x="355.422929" xlink:href="#m85652abee1" y="307.584"/>
      </g>
     </g>
    </g>
    <g id="xtick_26">
     <g id="line2d_26">
      <g>
       <use style="stroke:#000000;stroke-width:0.6;" x="365.910354" xlink:href="#m85652abee1" y="307.584"/>
      </g>
     </g>
    </g>
    <g id="xtick_27">
     <g id="line2d_27">
      <g>
       <use style="stroke:#000000;stroke-width:0.6;" x="374.479204" xlink:href="#m85652abee1" y="307.584"/>
      </g>
     </g>
    </g>
    <g id="xtick_28">
     <g id="line2d_28">
      <g>
       <use style="stroke:#000000;stroke-width:0.6;" x="381.724064" xlink:href="#m85652abee1" y="307.584"/>
      </g>
     </g>
    </g>
    <g id="xtick_29">
     <g id="line2d_29">
      <g>
       <use style="stroke:#000000;stroke-width:0.6;" x="387.999847" xlink:href="#m85652abee1" y="307.584"/>
      </g>
     </g>
    </g>
    <g id="xtick_30">
     <g id="line2d_30">
      <g>
       <use style="stroke:#000000;stroke-width:0.6;" x="393.53548" xlink:href="#m85652abee1" y="307.584"/>
      </g>
     </g>
    </g>
    <g id="text_5">
     <!-- Number of Neurons -->
     <g transform="translate(187.314687 335.860562)scale(0.1 -0.1)">
      <defs>
       <path d="M 628 4666 
L 1478 4666 
L 3547 763 
L 3547 4666 
L 4159 4666 
L 4159 0 
L 3309 0 
L 1241 3903 
L 1241 0 
L 628 0 
L 628 4666 
z
" id="DejaVuSans-4e" transform="scale(0.015625)"/>
       <path d="M 544 1381 
L 544 3500 
L 1119 3500 
L 1119 1403 
Q 1119 906 1312 657 
Q 1506 409 1894 409 
Q 2359 409 2629 706 
Q 2900 1003 2900 1516 
L 2900 3500 
L 3475 3500 
L 3475 0 
L 2900 0 
L 2900 538 
Q 2691 219 2414 64 
Q 2138 -91 1772 -91 
Q 1169 -91 856 284 
Q 544 659 544 1381 
z
M 1991 3584 
L 1991 3584 
z
" id="DejaVuSans-75" transform="scale(0.015625)"/>
       <path d="M 3328 2828 
Q 3544 3216 3844 3400 
Q 4144 3584 4550 3584 
Q 5097 3584 5394 3201 
Q 5691 2819 5691 2113 
L 5691 0 
L 5113 0 
L 5113 2094 
Q 5113 2597 4934 2840 
Q 4756 3084 4391 3084 
Q 3944 3084 3684 2787 
Q 3425 2491 3425 1978 
L 3425 0 
L 2847 0 
L 2847 2094 
Q 2847 2600 2669 2842 
Q 2491 3084 2119 3084 
Q 1678 3084 1418 2786 
Q 1159 2488 1159 1978 
L 1159 0 
L 581 0 
L 581 3500 
L 1159 3500 
L 1159 2956 
Q 1356 3278 1631 3431 
Q 1906 3584 2284 3584 
Q 2666 3584 2933 3390 
Q 3200 3197 3328 2828 
z
" id="DejaVuSans-6d" transform="scale(0.015625)"/>
       <path d="M 3116 1747 
Q 3116 2381 2855 2742 
Q 2594 3103 2138 3103 
Q 1681 3103 1420 2742 
Q 1159 2381 1159 1747 
Q 1159 1113 1420 752 
Q 1681 391 2138 391 
Q 2594 391 2855 752 
Q 3116 1113 3116 1747 
z
M 1159 2969 
Q 1341 3281 1617 3432 
Q 1894 3584 2278 3584 
Q 2916 3584 3314 3078 
Q 3713 2572 3713 1747 
Q 3713 922 3314 415 
Q 2916 -91 2278 -91 
Q 1894 -91 1617 61 
Q 1341 213 1159 525 
L 1159 0 
L 581 0 
L 581 4863 
L 1159 4863 
L 1159 2969 
z
" id="DejaVuSans-62" transform="scale(0.015625)"/>
       <path d="M 3597 1894 
L 3597 1613 
L 953 1613 
Q 991 1019 1311 708 
Q 1631 397 2203 397 
Q 2534 397 2845 478 
Q 3156 559 3463 722 
L 3463 178 
Q 3153 47 2828 -22 
Q 2503 -91 2169 -91 
Q 1331 -91 842 396 
Q 353 884 353 1716 
Q 353 2575 817 3079 
Q 1281 3584 2069 3584 
Q 2775 3584 3186 3129 
Q 3597 2675 3597 1894 
z
M 3022 2063 
Q 3016 2534 2758 2815 
Q 2500 3097 2075 3097 
Q 1594 3097 1305 2825 
Q 1016 2553 972 2059 
L 3022 2063 
z
" id="DejaVuSans-65" transform="scale(0.015625)"/>
       <path d="M 2631 2963 
Q 2534 3019 2420 3045 
Q 2306 3072 2169 3072 
Q 1681 3072 1420 2755 
Q 1159 2438 1159 1844 
L 1159 0 
L 581 0 
L 581 3500 
L 1159 3500 
L 1159 2956 
Q 1341 3275 1631 3429 
Q 1922 3584 2338 3584 
Q 2397 3584 2469 3576 
Q 2541 3569 2628 3553 
L 2631 2963 
z
" id="DejaVuSans-72" transform="scale(0.015625)"/>
       <path id="DejaVuSans-20" transform="scale(0.015625)"/>
       <path d="M 1959 3097 
Q 1497 3097 1228 2736 
Q 959 2375 959 1747 
Q 959 1119 1226 758 
Q 1494 397 1959 397 
Q 2419 397 2687 759 
Q 2956 1122 2956 1747 
Q 2956 2369 2687 2733 
Q 2419 3097 1959 3097 
z
M 1959 3584 
Q 2709 3584 3137 3096 
Q 3566 2609 3566 1747 
Q 3566 888 3137 398 
Q 2709 -91 1959 -91 
Q 1206 -91 779 398 
Q 353 888 353 1747 
Q 353 2609 779 3096 
Q 1206 3584 1959 3584 
z
" id="DejaVuSans-6f" transform="scale(0.015625)"/>
       <path d="M 2375 4863 
L 2375 4384 
L 1825 4384 
Q 1516 4384 1395 4259 
Q 1275 4134 1275 3809 
L 1275 3500 
L 2222 3500 
L 2222 3053 
L 1275 3053 
L 1275 0 
L 697 0 
L 697 3053 
L 147 3053 
L 147 3500 
L 697 3500 
L 697 3744 
Q 697 4328 969 4595 
Q 1241 4863 1831 4863 
L 2375 4863 
z
" id="DejaVuSans-66" transform="scale(0.015625)"/>
       <path d="M 3513 2113 
L 3513 0 
L 2938 0 
L 2938 2094 
Q 2938 2591 2744 2837 
Q 2550 3084 2163 3084 
Q 1697 3084 1428 2787 
Q 1159 2491 1159 1978 
L 1159 0 
L 581 0 
L 581 3500 
L 1159 3500 
L 1159 2956 
Q 1366 3272 1645 3428 
Q 1925 3584 2291 3584 
Q 2894 3584 3203 3211 
Q 3513 2838 3513 2113 
z
" id="DejaVuSans-6e" transform="scale(0.015625)"/>
       <path d="M 2834 3397 
L 2834 2853 
Q 2591 2978 2328 3040 
Q 2066 3103 1784 3103 
Q 1356 3103 1142 2972 
Q 928 2841 928 2578 
Q 928 2378 1081 2264 
Q 1234 2150 1697 2047 
L 1894 2003 
Q 2506 1872 2764 1633 
Q 3022 1394 3022 966 
Q 3022 478 2636 193 
Q 2250 -91 1575 -91 
Q 1294 -91 989 -36 
Q 684 19 347 128 
L 347 722 
Q 666 556 975 473 
Q 1284 391 1588 391 
Q 1994 391 2212 530 
Q 2431 669 2431 922 
Q 2431 1156 2273 1281 
Q 2116 1406 1581 1522 
L 1381 1569 
Q 847 1681 609 1914 
Q 372 2147 372 2553 
Q 372 3047 722 3315 
Q 1072 3584 1716 3584 
Q 2034 3584 2315 3537 
Q 2597 3491 2834 3397 
z
" id="DejaVuSans-73" transform="scale(0.015625)"/>
      </defs>
      <use xlink:href="#DejaVuSans-4e"/>
      <use x="74.804688" xlink:href="#DejaVuSans-75"/>
      <use x="138.183594" xlink:href="#DejaVuSans-6d"/>
      <use x="235.595703" xlink:href="#DejaVuSans-62"/>
      <use x="299.072266" xlink:href="#DejaVuSans-65"/>
      <use x="360.595703" xlink:href="#DejaVuSans-72"/>
      <use x="401.708984" xlink:href="#DejaVuSans-20"/>
      <use x="433.496094" xlink:href="#DejaVuSans-6f"/>
      <use x="494.677734" xlink:href="#DejaVuSans-66"/>
      <use x="529.882812" xlink:href="#DejaVuSans-20"/>
      <use x="561.669922" xlink:href="#DejaVuSans-4e"/>
      <use x="636.474609" xlink:href="#DejaVuSans-65"/>
      <use x="697.998047" xlink:href="#DejaVuSans-75"/>
      <use x="761.376953" xlink:href="#DejaVuSans-72"/>
      <use x="800.240234" xlink:href="#DejaVuSans-6f"/>
      <use x="861.421875" xlink:href="#DejaVuSans-6e"/>
      <use x="924.800781" xlink:href="#DejaVuSans-73"/>
     </g>
    </g>
   </g>
   <g id="matplotlib.axis_2">
    <g id="ytick_1">
     <g id="line2d_31">
      <defs>
       <path d="M 0 0 
L -3.5 0 
" id="m0e589e0d35" style="stroke:#000000;stroke-width:0.8;"/>
      </defs>
      <g>
       <use style="stroke:#000000;stroke-width:0.8;" x="57.6" xlink:href="#m0e589e0d35" y="266.086133"/>
      </g>
     </g>
     <g id="text_6">
      <!-- $\mathdefault{10^{-4}}$ -->
      <g transform="translate(27.1 269.885351)scale(0.1 -0.1)">
       <defs>
        <path d="M 678 2272 
L 4684 2272 
L 4684 1741 
L 678 1741 
L 678 2272 
z
" id="DejaVuSans-2212" transform="scale(0.015625)"/>
       </defs>
       <use transform="translate(0 0.684375)" xlink:href="#DejaVuSans-31"/>
       <use transform="translate(63.623047 0.684375)" xlink:href="#DejaVuSans-30"/>
       <use transform="translate(128.203125 38.965625)scale(0.7)" xlink:href="#DejaVuSans-2212"/>
       <use transform="translate(186.855469 38.965625)scale(0.7)" xlink:href="#DejaVuSans-34"/>
      </g>
     </g>
    </g>
    <g id="ytick_2">
     <g id="line2d_32">
      <g>
       <use style="stroke:#000000;stroke-width:0.8;" x="57.6" xlink:href="#m0e589e0d35" y="214.783397"/>
      </g>
     </g>
     <g id="text_7">
      <!-- $\mathdefault{10^{-3}}$ -->
      <g transform="translate(27.1 218.582616)scale(0.1 -0.1)">
       <use transform="translate(0 0.765625)" xlink:href="#DejaVuSans-31"/>
       <use transform="translate(63.623047 0.765625)" xlink:href="#DejaVuSans-30"/>
       <use transform="translate(128.203125 39.046875)scale(0.7)" xlink:href="#DejaVuSans-2212"/>
       <use transform="translate(186.855469 39.046875)scale(0.7)" xlink:href="#DejaVuSans-33"/>
      </g>
     </g>
    </g>
    <g id="ytick_3">
     <g id="line2d_33">
      <g>
       <use style="stroke:#000000;stroke-width:0.8;" x="57.6" xlink:href="#m0e589e0d35" y="163.480661"/>
      </g>
     </g>
     <g id="text_8">
      <!-- $\mathdefault{10^{-2}}$ -->
      <g transform="translate(27.1 167.27988)scale(0.1 -0.1)">
       <use transform="translate(0 0.765625)" xlink:href="#DejaVuSans-31"/>
       <use transform="translate(63.623047 0.765625)" xlink:href="#DejaVuSans-30"/>
       <use transform="translate(128.203125 39.046875)scale(0.7)" xlink:href="#DejaVuSans-2212"/>
       <use transform="translate(186.855469 39.046875)scale(0.7)" xlink:href="#DejaVuSans-32"/>
      </g>
     </g>
    </g>
    <g id="ytick_4">
     <g id="line2d_34">
      <g>
       <use style="stroke:#000000;stroke-width:0.8;" x="57.6" xlink:href="#m0e589e0d35" y="112.177926"/>
      </g>
     </g>
     <g id="text_9">
      <!-- $\mathdefault{10^{-1}}$ -->
      <g transform="translate(27.1 115.977144)scale(0.1 -0.1)">
       <use transform="translate(0 0.684375)" xlink:href="#DejaVuSans-31"/>
       <use transform="translate(63.623047 0.684375)" xlink:href="#DejaVuSans-30"/>
       <use transform="translate(128.203125 38.965625)scale(0.7)" xlink:href="#DejaVuSans-2212"/>
       <use transform="translate(186.855469 38.965625)scale(0.7)" xlink:href="#DejaVuSans-31"/>
      </g>
     </g>
    </g>
    <g id="ytick_5">
     <g id="line2d_35">
      <g>
       <use style="stroke:#000000;stroke-width:0.8;" x="57.6" xlink:href="#m0e589e0d35" y="60.87519"/>
      </g>
     </g>
     <g id="text_10">
      <!-- $\mathdefault{10^{0}}$ -->
      <g transform="translate(33 64.674409)scale(0.1 -0.1)">
       <use transform="translate(0 0.765625)" xlink:href="#DejaVuSans-31"/>
       <use transform="translate(63.623047 0.765625)" xlink:href="#DejaVuSans-30"/>
       <use transform="translate(128.203125 39.046875)scale(0.7)" xlink:href="#DejaVuSans-30"/>
      </g>
     </g>
    </g>
    <g id="ytick_6">
     <g id="line2d_36">
      <defs>
       <path d="M 0 0 
L -2 0 
" id="m69b5d56dea" style="stroke:#000000;stroke-width:0.6;"/>
      </defs>
      <g>
       <use style="stroke:#000000;stroke-width:0.6;" x="57.6" xlink:href="#m69b5d56dea" y="301.945206"/>
      </g>
     </g>
    </g>
    <g id="ytick_7">
     <g id="line2d_37">
      <g>
       <use style="stroke:#000000;stroke-width:0.6;" x="57.6" xlink:href="#m69b5d56dea" y="292.911243"/>
      </g>
     </g>
    </g>
    <g id="ytick_8">
     <g id="line2d_38">
      <g>
       <use style="stroke:#000000;stroke-width:0.6;" x="57.6" xlink:href="#m69b5d56dea" y="286.501544"/>
      </g>
     </g>
    </g>
    <g id="ytick_9">
     <g id="line2d_39">
      <g>
       <use style="stroke:#000000;stroke-width:0.6;" x="57.6" xlink:href="#m69b5d56dea" y="281.529795"/>
      </g>
     </g>
    </g>
    <g id="ytick_10">
     <g id="line2d_40">
      <g>
       <use style="stroke:#000000;stroke-width:0.6;" x="57.6" xlink:href="#m69b5d56dea" y="277.46758"/>
      </g>
     </g>
    </g>
    <g id="ytick_11">
     <g id="line2d_41">
      <g>
       <use style="stroke:#000000;stroke-width:0.6;" x="57.6" xlink:href="#m69b5d56dea" y="274.033027"/>
      </g>
     </g>
    </g>
    <g id="ytick_12">
     <g id="line2d_42">
      <g>
       <use style="stroke:#000000;stroke-width:0.6;" x="57.6" xlink:href="#m69b5d56dea" y="271.057881"/>
      </g>
     </g>
    </g>
    <g id="ytick_13">
     <g id="line2d_43">
      <g>
       <use style="stroke:#000000;stroke-width:0.6;" x="57.6" xlink:href="#m69b5d56dea" y="268.433617"/>
      </g>
     </g>
    </g>
    <g id="ytick_14">
     <g id="line2d_44">
      <g>
       <use style="stroke:#000000;stroke-width:0.6;" x="57.6" xlink:href="#m69b5d56dea" y="250.64247"/>
      </g>
     </g>
    </g>
    <g id="ytick_15">
     <g id="line2d_45">
      <g>
       <use style="stroke:#000000;stroke-width:0.6;" x="57.6" xlink:href="#m69b5d56dea" y="241.608507"/>
      </g>
     </g>
    </g>
    <g id="ytick_16">
     <g id="line2d_46">
      <g>
       <use style="stroke:#000000;stroke-width:0.6;" x="57.6" xlink:href="#m69b5d56dea" y="235.198808"/>
      </g>
     </g>
    </g>
    <g id="ytick_17">
     <g id="line2d_47">
      <g>
       <use style="stroke:#000000;stroke-width:0.6;" x="57.6" xlink:href="#m69b5d56dea" y="230.227059"/>
      </g>
     </g>
    </g>
    <g id="ytick_18">
     <g id="line2d_48">
      <g>
       <use style="stroke:#000000;stroke-width:0.6;" x="57.6" xlink:href="#m69b5d56dea" y="226.164845"/>
      </g>
     </g>
    </g>
    <g id="ytick_19">
     <g id="line2d_49">
      <g>
       <use style="stroke:#000000;stroke-width:0.6;" x="57.6" xlink:href="#m69b5d56dea" y="222.730291"/>
      </g>
     </g>
    </g>
    <g id="ytick_20">
     <g id="line2d_50">
      <g>
       <use style="stroke:#000000;stroke-width:0.6;" x="57.6" xlink:href="#m69b5d56dea" y="219.755146"/>
      </g>
     </g>
    </g>
    <g id="ytick_21">
     <g id="line2d_51">
      <g>
       <use style="stroke:#000000;stroke-width:0.6;" x="57.6" xlink:href="#m69b5d56dea" y="217.130881"/>
      </g>
     </g>
    </g>
    <g id="ytick_22">
     <g id="line2d_52">
      <g>
       <use style="stroke:#000000;stroke-width:0.6;" x="57.6" xlink:href="#m69b5d56dea" y="199.339735"/>
      </g>
     </g>
    </g>
    <g id="ytick_23">
     <g id="line2d_53">
      <g>
       <use style="stroke:#000000;stroke-width:0.6;" x="57.6" xlink:href="#m69b5d56dea" y="190.305771"/>
      </g>
     </g>
    </g>
    <g id="ytick_24">
     <g id="line2d_54">
      <g>
       <use style="stroke:#000000;stroke-width:0.6;" x="57.6" xlink:href="#m69b5d56dea" y="183.896072"/>
      </g>
     </g>
    </g>
    <g id="ytick_25">
     <g id="line2d_55">
      <g>
       <use style="stroke:#000000;stroke-width:0.6;" x="57.6" xlink:href="#m69b5d56dea" y="178.924324"/>
      </g>
     </g>
    </g>
    <g id="ytick_26">
     <g id="line2d_56">
      <g>
       <use style="stroke:#000000;stroke-width:0.6;" x="57.6" xlink:href="#m69b5d56dea" y="174.862109"/>
      </g>
     </g>
    </g>
    <g id="ytick_27">
     <g id="line2d_57">
      <g>
       <use style="stroke:#000000;stroke-width:0.6;" x="57.6" xlink:href="#m69b5d56dea" y="171.427556"/>
      </g>
     </g>
    </g>
    <g id="ytick_28">
     <g id="line2d_58">
      <g>
       <use style="stroke:#000000;stroke-width:0.6;" x="57.6" xlink:href="#m69b5d56dea" y="168.45241"/>
      </g>
     </g>
    </g>
    <g id="ytick_29">
     <g id="line2d_59">
      <g>
       <use style="stroke:#000000;stroke-width:0.6;" x="57.6" xlink:href="#m69b5d56dea" y="165.828146"/>
      </g>
     </g>
    </g>
    <g id="ytick_30">
     <g id="line2d_60">
      <g>
       <use style="stroke:#000000;stroke-width:0.6;" x="57.6" xlink:href="#m69b5d56dea" y="148.036999"/>
      </g>
     </g>
    </g>
    <g id="ytick_31">
     <g id="line2d_61">
      <g>
       <use style="stroke:#000000;stroke-width:0.6;" x="57.6" xlink:href="#m69b5d56dea" y="139.003036"/>
      </g>
     </g>
    </g>
    <g id="ytick_32">
     <g id="line2d_62">
      <g>
       <use style="stroke:#000000;stroke-width:0.6;" x="57.6" xlink:href="#m69b5d56dea" y="132.593337"/>
      </g>
     </g>
    </g>
    <g id="ytick_33">
     <g id="line2d_63">
      <g>
       <use style="stroke:#000000;stroke-width:0.6;" x="57.6" xlink:href="#m69b5d56dea" y="127.621588"/>
      </g>
     </g>
    </g>
    <g id="ytick_34">
     <g id="line2d_64">
      <g>
       <use style="stroke:#000000;stroke-width:0.6;" x="57.6" xlink:href="#m69b5d56dea" y="123.559373"/>
      </g>
     </g>
    </g>
    <g id="ytick_35">
     <g id="line2d_65">
      <g>
       <use style="stroke:#000000;stroke-width:0.6;" x="57.6" xlink:href="#m69b5d56dea" y="120.12482"/>
      </g>
     </g>
    </g>
    <g id="ytick_36">
     <g id="line2d_66">
      <g>
       <use style="stroke:#000000;stroke-width:0.6;" x="57.6" xlink:href="#m69b5d56dea" y="117.149674"/>
      </g>
     </g>
    </g>
    <g id="ytick_37">
     <g id="line2d_67">
      <g>
       <use style="stroke:#000000;stroke-width:0.6;" x="57.6" xlink:href="#m69b5d56dea" y="114.52541"/>
      </g>
     </g>
    </g>
    <g id="ytick_38">
     <g id="line2d_68">
      <g>
       <use style="stroke:#000000;stroke-width:0.6;" x="57.6" xlink:href="#m69b5d56dea" y="96.734263"/>
      </g>
     </g>
    </g>
    <g id="ytick_39">
     <g id="line2d_69">
      <g>
       <use style="stroke:#000000;stroke-width:0.6;" x="57.6" xlink:href="#m69b5d56dea" y="87.7003"/>
      </g>
     </g>
    </g>
    <g id="ytick_40">
     <g id="line2d_70">
      <g>
       <use style="stroke:#000000;stroke-width:0.6;" x="57.6" xlink:href="#m69b5d56dea" y="81.290601"/>
      </g>
     </g>
    </g>
    <g id="ytick_41">
     <g id="line2d_71">
      <g>
       <use style="stroke:#000000;stroke-width:0.6;" x="57.6" xlink:href="#m69b5d56dea" y="76.318852"/>
      </g>
     </g>
    </g>
    <g id="ytick_42">
     <g id="line2d_72">
      <g>
       <use style="stroke:#000000;stroke-width:0.6;" x="57.6" xlink:href="#m69b5d56dea" y="72.256638"/>
      </g>
     </g>
    </g>
    <g id="ytick_43">
     <g id="line2d_73">
      <g>
       <use style="stroke:#000000;stroke-width:0.6;" x="57.6" xlink:href="#m69b5d56dea" y="68.822084"/>
      </g>
     </g>
    </g>
    <g id="ytick_44">
     <g id="line2d_74">
      <g>
       <use style="stroke:#000000;stroke-width:0.6;" x="57.6" xlink:href="#m69b5d56dea" y="65.846939"/>
      </g>
     </g>
    </g>
    <g id="ytick_45">
     <g id="line2d_75">
      <g>
       <use style="stroke:#000000;stroke-width:0.6;" x="57.6" xlink:href="#m69b5d56dea" y="63.222674"/>
      </g>
     </g>
    </g>
    <g id="ytick_46">
     <g id="line2d_76">
      <g>
       <use style="stroke:#000000;stroke-width:0.6;" x="57.6" xlink:href="#m69b5d56dea" y="45.431527"/>
      </g>
     </g>
    </g>
    <g id="text_11">
     <!-- Average Time per Step (s) -->
     <g transform="translate(21.020312 239.848312)rotate(-90)scale(0.1 -0.1)">
      <defs>
       <path d="M 2188 4044 
L 1331 1722 
L 3047 1722 
L 2188 4044 
z
M 1831 4666 
L 2547 4666 
L 4325 0 
L 3669 0 
L 3244 1197 
L 1141 1197 
L 716 0 
L 50 0 
L 1831 4666 
z
" id="DejaVuSans-41" transform="scale(0.015625)"/>
       <path d="M 191 3500 
L 800 3500 
L 1894 563 
L 2988 3500 
L 3597 3500 
L 2284 0 
L 1503 0 
L 191 3500 
z
" id="DejaVuSans-76" transform="scale(0.015625)"/>
       <path d="M 2194 1759 
Q 1497 1759 1228 1600 
Q 959 1441 959 1056 
Q 959 750 1161 570 
Q 1363 391 1709 391 
Q 2188 391 2477 730 
Q 2766 1069 2766 1631 
L 2766 1759 
L 2194 1759 
z
M 3341 1997 
L 3341 0 
L 2766 0 
L 2766 531 
Q 2569 213 2275 61 
Q 1981 -91 1556 -91 
Q 1019 -91 701 211 
Q 384 513 384 1019 
Q 384 1609 779 1909 
Q 1175 2209 1959 2209 
L 2766 2209 
L 2766 2266 
Q 2766 2663 2505 2880 
Q 2244 3097 1772 3097 
Q 1472 3097 1187 3025 
Q 903 2953 641 2809 
L 641 3341 
Q 956 3463 1253 3523 
Q 1550 3584 1831 3584 
Q 2591 3584 2966 3190 
Q 3341 2797 3341 1997 
z
" id="DejaVuSans-61" transform="scale(0.015625)"/>
       <path d="M 2906 1791 
Q 2906 2416 2648 2759 
Q 2391 3103 1925 3103 
Q 1463 3103 1205 2759 
Q 947 2416 947 1791 
Q 947 1169 1205 825 
Q 1463 481 1925 481 
Q 2391 481 2648 825 
Q 2906 1169 2906 1791 
z
M 3481 434 
Q 3481 -459 3084 -895 
Q 2688 -1331 1869 -1331 
Q 1566 -1331 1297 -1286 
Q 1028 -1241 775 -1147 
L 775 -588 
Q 1028 -725 1275 -790 
Q 1522 -856 1778 -856 
Q 2344 -856 2625 -561 
Q 2906 -266 2906 331 
L 2906 616 
Q 2728 306 2450 153 
Q 2172 0 1784 0 
Q 1141 0 747 490 
Q 353 981 353 1791 
Q 353 2603 747 3093 
Q 1141 3584 1784 3584 
Q 2172 3584 2450 3431 
Q 2728 3278 2906 2969 
L 2906 3500 
L 3481 3500 
L 3481 434 
z
" id="DejaVuSans-67" transform="scale(0.015625)"/>
       <path d="M -19 4666 
L 3928 4666 
L 3928 4134 
L 2272 4134 
L 2272 0 
L 1638 0 
L 1638 4134 
L -19 4134 
L -19 4666 
z
" id="DejaVuSans-54" transform="scale(0.015625)"/>
       <path d="M 603 3500 
L 1178 3500 
L 1178 0 
L 603 0 
L 603 3500 
z
M 603 4863 
L 1178 4863 
L 1178 4134 
L 603 4134 
L 603 4863 
z
" id="DejaVuSans-69" transform="scale(0.015625)"/>
       <path d="M 1159 525 
L 1159 -1331 
L 581 -1331 
L 581 3500 
L 1159 3500 
L 1159 2969 
Q 1341 3281 1617 3432 
Q 1894 3584 2278 3584 
Q 2916 3584 3314 3078 
Q 3713 2572 3713 1747 
Q 3713 922 3314 415 
Q 2916 -91 2278 -91 
Q 1894 -91 1617 61 
Q 1341 213 1159 525 
z
M 3116 1747 
Q 3116 2381 2855 2742 
Q 2594 3103 2138 3103 
Q 1681 3103 1420 2742 
Q 1159 2381 1159 1747 
Q 1159 1113 1420 752 
Q 1681 391 2138 391 
Q 2594 391 2855 752 
Q 3116 1113 3116 1747 
z
" id="DejaVuSans-70" transform="scale(0.015625)"/>
       <path d="M 3425 4513 
L 3425 3897 
Q 3066 4069 2747 4153 
Q 2428 4238 2131 4238 
Q 1616 4238 1336 4038 
Q 1056 3838 1056 3469 
Q 1056 3159 1242 3001 
Q 1428 2844 1947 2747 
L 2328 2669 
Q 3034 2534 3370 2195 
Q 3706 1856 3706 1288 
Q 3706 609 3251 259 
Q 2797 -91 1919 -91 
Q 1588 -91 1214 -16 
Q 841 59 441 206 
L 441 856 
Q 825 641 1194 531 
Q 1563 422 1919 422 
Q 2459 422 2753 634 
Q 3047 847 3047 1241 
Q 3047 1584 2836 1778 
Q 2625 1972 2144 2069 
L 1759 2144 
Q 1053 2284 737 2584 
Q 422 2884 422 3419 
Q 422 4038 858 4394 
Q 1294 4750 2059 4750 
Q 2388 4750 2728 4690 
Q 3069 4631 3425 4513 
z
" id="DejaVuSans-53" transform="scale(0.015625)"/>
       <path d="M 1172 4494 
L 1172 3500 
L 2356 3500 
L 2356 3053 
L 1172 3053 
L 1172 1153 
Q 1172 725 1289 603 
Q 1406 481 1766 481 
L 2356 481 
L 2356 0 
L 1766 0 
Q 1100 0 847 248 
Q 594 497 594 1153 
L 594 3053 
L 172 3053 
L 172 3500 
L 594 3500 
L 594 4494 
L 1172 4494 
z
" id="DejaVuSans-74" transform="scale(0.015625)"/>
       <path d="M 1984 4856 
Q 1566 4138 1362 3434 
Q 1159 2731 1159 2009 
Q 1159 1288 1364 580 
Q 1569 -128 1984 -844 
L 1484 -844 
Q 1016 -109 783 600 
Q 550 1309 550 2009 
Q 550 2706 781 3412 
Q 1013 4119 1484 4856 
L 1984 4856 
z
" id="DejaVuSans-28" transform="scale(0.015625)"/>
       <path d="M 513 4856 
L 1013 4856 
Q 1481 4119 1714 3412 
Q 1947 2706 1947 2009 
Q 1947 1309 1714 600 
Q 1481 -109 1013 -844 
L 513 -844 
Q 928 -128 1133 580 
Q 1338 1288 1338 2009 
Q 1338 2731 1133 3434 
Q 928 4138 513 4856 
z
" id="DejaVuSans-29" transform="scale(0.015625)"/>
      </defs>
      <use xlink:href="#DejaVuSans-41"/>
      <use x="62.533203" xlink:href="#DejaVuSans-76"/>
      <use x="121.712891" xlink:href="#DejaVuSans-65"/>
      <use x="183.236328" xlink:href="#DejaVuSans-72"/>
      <use x="224.349609" xlink:href="#DejaVuSans-61"/>
      <use x="285.628906" xlink:href="#DejaVuSans-67"/>
      <use x="349.105469" xlink:href="#DejaVuSans-65"/>
      <use x="410.628906" xlink:href="#DejaVuSans-20"/>
      <use x="442.416016" xlink:href="#DejaVuSans-54"/>
      <use x="500.375" xlink:href="#DejaVuSans-69"/>
      <use x="528.158203" xlink:href="#DejaVuSans-6d"/>
      <use x="625.570312" xlink:href="#DejaVuSans-65"/>
      <use x="687.09375" xlink:href="#DejaVuSans-20"/>
      <use x="718.880859" xlink:href="#DejaVuSans-70"/>
      <use x="782.357422" xlink:href="#DejaVuSans-65"/>
      <use x="843.880859" xlink:href="#DejaVuSans-72"/>
      <use x="884.994141" xlink:href="#DejaVuSans-20"/>
      <use x="916.78125" xlink:href="#DejaVuSans-53"/>
      <use x="980.257812" xlink:href="#DejaVuSans-74"/>
      <use x="1019.466797" xlink:href="#DejaVuSans-65"/>
      <use x="1080.990234" xlink:href="#DejaVuSans-70"/>
      <use x="1144.466797" xlink:href="#DejaVuSans-20"/>
      <use x="1176.253906" xlink:href="#DejaVuSans-28"/>
      <use x="1215.267578" xlink:href="#DejaVuSans-73"/>
      <use x="1267.367188" xlink:href="#DejaVuSans-29"/>
     </g>
    </g>
   </g>
   <g id="line2d_77">
    <path clip-path="url(#p582992526a)" d="M 73.832727 276.021784 
L 78.312168 275.634374 
L 86.16347 275.265611 
L 92.889003 275.4816 
L 98.771491 275.014392 
L 106.409646 274.665816 
L 112.978256 271.058832 
L 118.740388 272.192832 
L 125.465922 270.776421 
L 132.710782 272.056304 
L 138.986565 269.615819 
L 146.565935 269.088711 
L 153.091048 267.293307 
L 159.583915 267.640886 
L 165.954358 257.054138 
L 172.724001 254.586138 
L 179.640198 252.155113 
L 186.101137 249.151169 
L 192.912827 245.620547 
L 199.513861 241.392492 
L 206.152881 237.931324 
L 212.953402 232.583125 
L 219.532598 224.594029 
L 226.045948 227.572652 
L 232.734606 226.765816 
L 239.428156 212.793837 
L 246.014846 202.473843 
L 252.635822 197.246788 
L 259.263558 189.896802 
L 265.94665 182.104025 
L 272.556384 176.555077 
L 279.190481 170.639428 
L 285.836625 162.780115 
L 292.472552 155.960315 
L 299.072349 149.379962 
L 305.712068 141.616348 
L 312.329201 134.785426 
L 318.978252 129.291034 
L 325.584564 122.259375 
L 332.230221 114.960914 
L 338.843996 107.467426 
L 345.475806 101.812436 
L 352.100566 96.53403 
L 358.723423 90.612578 
L 365.352473 85.56941 
L 371.977707 79.409743 
L 378.608415 73.73816 
L 385.235319 67.633652 
L 391.861054 61.634371 
L 398.487273 55.421359 
" style="fill:none;stroke:#1f77b4;stroke-linecap:square;stroke-width:1.5;"/>
   </g>
   <g id="line2d_78">
    <path clip-path="url(#p582992526a)" d="M 73.832727 284.736938 
L 78.312168 284.87601 
L 86.16347 283.962871 
L 92.889003 283.980654 
L 98.771491 283.717743 
L 106.409646 283.431271 
L 112.978256 282.167269 
L 118.740388 281.196073 
L 125.465922 281.010549 
L 132.710782 280.176289 
L 138.986565 278.281583 
L 146.565935 278.324785 
L 153.091048 276.001051 
L 159.583915 275.136857 
L 165.954358 264.554873 
L 172.724001 261.878158 
L 179.640198 258.607302 
L 186.101137 255.42178 
L 192.912827 251.394208 
L 199.513861 246.942929 
L 206.152881 242.396079 
L 212.953402 240.817086 
L 219.532598 232.391813 
L 226.045948 235.820162 
L 232.734606 227.46033 
L 239.428156 215.732651 
L 246.014846 209.202035 
L 252.635822 198.631684 
L 259.263558 192.926571 
L 265.94665 185.023031 
L 272.556384 179.161362 
L 279.190481 170.895398 
L 285.836625 164.741264 
L 292.472552 156.255324 
L 299.072349 150.031352 
L 305.712068 142.988597 
L 312.329201 135.919291 
L 318.978252 131.132637 
L 325.584564 121.52227 
L 332.230221 113.524331 
L 338.843996 108.280684 
L 345.475806 102.481489 
L 352.100566 97.204057 
L 358.723423 91.395717 
L 365.352473 86.09397 
L 371.977707 80.193115 
L 378.608415 74.405469 
L 385.235319 68.404033 
L 391.861054 62.522163 
L 398.487273 56.313557 
" style="fill:none;stroke:#ff7f0e;stroke-linecap:square;stroke-width:1.5;"/>
   </g>
   <g id="line2d_79">
    <path clip-path="url(#p582992526a)" d="M 73.832727 293.226723 
L 78.312168 293.583363 
L 86.16347 287.576486 
L 92.889003 292.236159 
L 98.771491 292.582406 
L 106.409646 292.065033 
L 112.978256 288.501298 
L 118.740388 289.76704 
L 125.465922 290.352829 
L 132.710782 288.978509 
L 138.986565 288.126754 
L 146.565935 286.535056 
L 153.091048 285.371611 
L 159.583915 284.244303 
L 165.954358 273.648676 
L 172.724001 271.395373 
L 179.640198 268.059463 
L 186.101137 264.912817 
L 192.912827 261.143641 
L 199.513861 259.245588 
L 206.152881 262.298578 
L 212.953402 256.675577 
L 219.532598 241.816133 
L 226.045948 242.735633 
L 232.734606 240.35303 
L 239.428156 226.220802 
L 246.014846 220.416889 
L 252.635822 211.956601 
L 259.263558 206.888334 
L 265.94665 201.290382 
L 272.556384 193.865831 
L 279.190481 184.819164 
L 285.836625 179.338768 
L 292.472552 170.069451 
L 299.072349 163.217441 
L 305.712068 156.16836 
L 312.329201 149.619546 
L 318.978252 144.212649 
L 325.584564 137.630395 
L 332.230221 129.532784 
L 338.843996 119.660362 
L 345.475806 114.472219 
L 352.100566 109.714794 
L 358.723423 104.536078 
L 365.352473 99.638854 
L 371.977707 94.348606 
L 378.608415 88.79228 
L 385.235319 82.636145 
L 391.861054 76.929993 
L 398.487273 71.035899 
" style="fill:none;stroke:#2ca02c;stroke-linecap:square;stroke-width:1.5;"/>
   </g>
   <g id="patch_3">
    <path d="M 57.6 307.584 
L 57.6 41.472 
" style="fill:none;stroke:#000000;stroke-linecap:square;stroke-linejoin:miter;stroke-width:0.8;"/>
   </g>
   <g id="patch_4">
    <path d="M 414.72 307.584 
L 414.72 41.472 
" style="fill:none;stroke:#000000;stroke-linecap:square;stroke-linejoin:miter;stroke-width:0.8;"/>
   </g>
   <g id="patch_5">
    <path d="M 57.6 307.584 
L 414.72 307.584 
" style="fill:none;stroke:#000000;stroke-linecap:square;stroke-linejoin:miter;stroke-width:0.8;"/>
   </g>
   <g id="patch_6">
    <path d="M 57.6 41.472 
L 414.72 41.472 
" style="fill:none;stroke:#000000;stroke-linecap:square;stroke-linejoin:miter;stroke-width:0.8;"/>
   </g>
   <g id="text_12">
    <!-- Realistically Connected Networks -->
    <g transform="translate(136.251563 35.472)scale(0.12 -0.12)">
     <defs>
      <path d="M 2841 2188 
Q 3044 2119 3236 1894 
Q 3428 1669 3622 1275 
L 4263 0 
L 3584 0 
L 2988 1197 
Q 2756 1666 2539 1819 
Q 2322 1972 1947 1972 
L 1259 1972 
L 1259 0 
L 628 0 
L 628 4666 
L 2053 4666 
Q 2853 4666 3247 4331 
Q 3641 3997 3641 3322 
Q 3641 2881 3436 2590 
Q 3231 2300 2841 2188 
z
M 1259 4147 
L 1259 2491 
L 2053 2491 
Q 2509 2491 2742 2702 
Q 2975 2913 2975 3322 
Q 2975 3731 2742 3939 
Q 2509 4147 2053 4147 
L 1259 4147 
z
" id="DejaVuSans-52" transform="scale(0.015625)"/>
      <path d="M 603 4863 
L 1178 4863 
L 1178 0 
L 603 0 
L 603 4863 
z
" id="DejaVuSans-6c" transform="scale(0.015625)"/>
      <path d="M 3122 3366 
L 3122 2828 
Q 2878 2963 2633 3030 
Q 2388 3097 2138 3097 
Q 1578 3097 1268 2742 
Q 959 2388 959 1747 
Q 959 1106 1268 751 
Q 1578 397 2138 397 
Q 2388 397 2633 464 
Q 2878 531 3122 666 
L 3122 134 
Q 2881 22 2623 -34 
Q 2366 -91 2075 -91 
Q 1284 -91 818 406 
Q 353 903 353 1747 
Q 353 2603 823 3093 
Q 1294 3584 2113 3584 
Q 2378 3584 2631 3529 
Q 2884 3475 3122 3366 
z
" id="DejaVuSans-63" transform="scale(0.015625)"/>
      <path d="M 2059 -325 
Q 1816 -950 1584 -1140 
Q 1353 -1331 966 -1331 
L 506 -1331 
L 506 -850 
L 844 -850 
Q 1081 -850 1212 -737 
Q 1344 -625 1503 -206 
L 1606 56 
L 191 3500 
L 800 3500 
L 1894 763 
L 2988 3500 
L 3597 3500 
L 2059 -325 
z
" id="DejaVuSans-79" transform="scale(0.015625)"/>
      <path d="M 4122 4306 
L 4122 3641 
Q 3803 3938 3442 4084 
Q 3081 4231 2675 4231 
Q 1875 4231 1450 3742 
Q 1025 3253 1025 2328 
Q 1025 1406 1450 917 
Q 1875 428 2675 428 
Q 3081 428 3442 575 
Q 3803 722 4122 1019 
L 4122 359 
Q 3791 134 3420 21 
Q 3050 -91 2638 -91 
Q 1578 -91 968 557 
Q 359 1206 359 2328 
Q 359 3453 968 4101 
Q 1578 4750 2638 4750 
Q 3056 4750 3426 4639 
Q 3797 4528 4122 4306 
z
" id="DejaVuSans-43" transform="scale(0.015625)"/>
      <path d="M 2906 2969 
L 2906 4863 
L 3481 4863 
L 3481 0 
L 2906 0 
L 2906 525 
Q 2725 213 2448 61 
Q 2172 -91 1784 -91 
Q 1150 -91 751 415 
Q 353 922 353 1747 
Q 353 2572 751 3078 
Q 1150 3584 1784 3584 
Q 2172 3584 2448 3432 
Q 2725 3281 2906 2969 
z
M 947 1747 
Q 947 1113 1208 752 
Q 1469 391 1925 391 
Q 2381 391 2643 752 
Q 2906 1113 2906 1747 
Q 2906 2381 2643 2742 
Q 2381 3103 1925 3103 
Q 1469 3103 1208 2742 
Q 947 2381 947 1747 
z
" id="DejaVuSans-64" transform="scale(0.015625)"/>
      <path d="M 269 3500 
L 844 3500 
L 1563 769 
L 2278 3500 
L 2956 3500 
L 3675 769 
L 4391 3500 
L 4966 3500 
L 4050 0 
L 3372 0 
L 2619 2869 
L 1863 0 
L 1184 0 
L 269 3500 
z
" id="DejaVuSans-77" transform="scale(0.015625)"/>
      <path d="M 581 4863 
L 1159 4863 
L 1159 1991 
L 2875 3500 
L 3609 3500 
L 1753 1863 
L 3688 0 
L 2938 0 
L 1159 1709 
L 1159 0 
L 581 0 
L 581 4863 
z
" id="DejaVuSans-6b" transform="scale(0.015625)"/>
     </defs>
     <use xlink:href="#DejaVuSans-52"/>
     <use x="64.982422" xlink:href="#DejaVuSans-65"/>
     <use x="126.505859" xlink:href="#DejaVuSans-61"/>
     <use x="187.785156" xlink:href="#DejaVuSans-6c"/>
     <use x="215.568359" xlink:href="#DejaVuSans-69"/>
     <use x="243.351562" xlink:href="#DejaVuSans-73"/>
     <use x="295.451172" xlink:href="#DejaVuSans-74"/>
     <use x="334.660156" xlink:href="#DejaVuSans-69"/>
     <use x="362.443359" xlink:href="#DejaVuSans-63"/>
     <use x="417.423828" xlink:href="#DejaVuSans-61"/>
     <use x="478.703125" xlink:href="#DejaVuSans-6c"/>
     <use x="506.486328" xlink:href="#DejaVuSans-6c"/>
     <use x="534.269531" xlink:href="#DejaVuSans-79"/>
     <use x="593.449219" xlink:href="#DejaVuSans-20"/>
     <use x="625.236328" xlink:href="#DejaVuSans-43"/>
     <use x="695.060547" xlink:href="#DejaVuSans-6f"/>
     <use x="756.242188" xlink:href="#DejaVuSans-6e"/>
     <use x="819.621094" xlink:href="#DejaVuSans-6e"/>
     <use x="883" xlink:href="#DejaVuSans-65"/>
     <use x="944.523438" xlink:href="#DejaVuSans-63"/>
     <use x="999.503906" xlink:href="#DejaVuSans-74"/>
     <use x="1038.712891" xlink:href="#DejaVuSans-65"/>
     <use x="1100.236328" xlink:href="#DejaVuSans-64"/>
     <use x="1163.712891" xlink:href="#DejaVuSans-20"/>
     <use x="1195.5" xlink:href="#DejaVuSans-4e"/>
     <use x="1270.304688" xlink:href="#DejaVuSans-65"/>
     <use x="1331.828125" xlink:href="#DejaVuSans-74"/>
     <use x="1371.037109" xlink:href="#DejaVuSans-77"/>
     <use x="1452.824219" xlink:href="#DejaVuSans-6f"/>
     <use x="1514.005859" xlink:href="#DejaVuSans-72"/>
     <use x="1555.119141" xlink:href="#DejaVuSans-6b"/>
     <use x="1613.029297" xlink:href="#DejaVuSans-73"/>
    </g>
   </g>
   <g id="legend_1">
    <g id="patch_7">
     <path d="M 64.6 93.506375 
L 234.570312 93.506375 
Q 236.570312 93.506375 236.570312 91.506375 
L 236.570312 48.472 
Q 236.570312 46.472 234.570312 46.472 
L 64.6 46.472 
Q 62.6 46.472 62.6 48.472 
L 62.6 91.506375 
Q 62.6 93.506375 64.6 93.506375 
z
" style="fill:#ffffff;opacity:0.8;stroke:#cccccc;stroke-linejoin:miter;"/>
    </g>
    <g id="line2d_80">
     <path d="M 66.6 54.570438 
L 86.6 54.570438 
" style="fill:none;stroke:#1f77b4;stroke-linecap:square;stroke-width:1.5;"/>
    </g>
    <g id="line2d_81"/>
    <g id="text_13">
     <!-- Realistic Spiking Model -->
     <g transform="translate(94.6 58.070438)scale(0.1 -0.1)">
      <defs>
       <path d="M 628 4666 
L 1569 4666 
L 2759 1491 
L 3956 4666 
L 4897 4666 
L 4897 0 
L 4281 0 
L 4281 4097 
L 3078 897 
L 2444 897 
L 1241 4097 
L 1241 0 
L 628 0 
L 628 4666 
z
" id="DejaVuSans-4d" transform="scale(0.015625)"/>
      </defs>
      <use xlink:href="#DejaVuSans-52"/>
      <use x="64.982422" xlink:href="#DejaVuSans-65"/>
      <use x="126.505859" xlink:href="#DejaVuSans-61"/>
      <use x="187.785156" xlink:href="#DejaVuSans-6c"/>
      <use x="215.568359" xlink:href="#DejaVuSans-69"/>
      <use x="243.351562" xlink:href="#DejaVuSans-73"/>
      <use x="295.451172" xlink:href="#DejaVuSans-74"/>
      <use x="334.660156" xlink:href="#DejaVuSans-69"/>
      <use x="362.443359" xlink:href="#DejaVuSans-63"/>
      <use x="417.423828" xlink:href="#DejaVuSans-20"/>
      <use x="449.210938" xlink:href="#DejaVuSans-53"/>
      <use x="512.6875" xlink:href="#DejaVuSans-70"/>
      <use x="576.164062" xlink:href="#DejaVuSans-69"/>
      <use x="603.947266" xlink:href="#DejaVuSans-6b"/>
      <use x="661.857422" xlink:href="#DejaVuSans-69"/>
      <use x="689.640625" xlink:href="#DejaVuSans-6e"/>
      <use x="753.019531" xlink:href="#DejaVuSans-67"/>
      <use x="816.496094" xlink:href="#DejaVuSans-20"/>
      <use x="848.283203" xlink:href="#DejaVuSans-4d"/>
      <use x="934.5625" xlink:href="#DejaVuSans-6f"/>
      <use x="995.744141" xlink:href="#DejaVuSans-64"/>
      <use x="1059.220703" xlink:href="#DejaVuSans-65"/>
      <use x="1120.744141" xlink:href="#DejaVuSans-6c"/>
     </g>
    </g>
    <g id="line2d_82">
     <path d="M 66.6 69.248563 
L 86.6 69.248563 
" style="fill:none;stroke:#ff7f0e;stroke-linecap:square;stroke-width:1.5;"/>
    </g>
    <g id="line2d_83"/>
    <g id="text_14">
     <!-- Realistic No Delay Model -->
     <g transform="translate(94.6 72.748563)scale(0.1 -0.1)">
      <defs>
       <path d="M 1259 4147 
L 1259 519 
L 2022 519 
Q 2988 519 3436 956 
Q 3884 1394 3884 2338 
Q 3884 3275 3436 3711 
Q 2988 4147 2022 4147 
L 1259 4147 
z
M 628 4666 
L 1925 4666 
Q 3281 4666 3915 4102 
Q 4550 3538 4550 2338 
Q 4550 1131 3912 565 
Q 3275 0 1925 0 
L 628 0 
L 628 4666 
z
" id="DejaVuSans-44" transform="scale(0.015625)"/>
      </defs>
      <use xlink:href="#DejaVuSans-52"/>
      <use x="64.982422" xlink:href="#DejaVuSans-65"/>
      <use x="126.505859" xlink:href="#DejaVuSans-61"/>
      <use x="187.785156" xlink:href="#DejaVuSans-6c"/>
      <use x="215.568359" xlink:href="#DejaVuSans-69"/>
      <use x="243.351562" xlink:href="#DejaVuSans-73"/>
      <use x="295.451172" xlink:href="#DejaVuSans-74"/>
      <use x="334.660156" xlink:href="#DejaVuSans-69"/>
      <use x="362.443359" xlink:href="#DejaVuSans-63"/>
      <use x="417.423828" xlink:href="#DejaVuSans-20"/>
      <use x="449.210938" xlink:href="#DejaVuSans-4e"/>
      <use x="524.015625" xlink:href="#DejaVuSans-6f"/>
      <use x="585.197266" xlink:href="#DejaVuSans-20"/>
      <use x="616.984375" xlink:href="#DejaVuSans-44"/>
      <use x="693.986328" xlink:href="#DejaVuSans-65"/>
      <use x="755.509766" xlink:href="#DejaVuSans-6c"/>
      <use x="783.292969" xlink:href="#DejaVuSans-61"/>
      <use x="844.572266" xlink:href="#DejaVuSans-79"/>
      <use x="903.751953" xlink:href="#DejaVuSans-20"/>
      <use x="935.539062" xlink:href="#DejaVuSans-4d"/>
      <use x="1021.818359" xlink:href="#DejaVuSans-6f"/>
      <use x="1083" xlink:href="#DejaVuSans-64"/>
      <use x="1146.476562" xlink:href="#DejaVuSans-65"/>
      <use x="1208" xlink:href="#DejaVuSans-6c"/>
     </g>
    </g>
    <g id="line2d_84">
     <path d="M 66.6 83.926688 
L 86.6 83.926688 
" style="fill:none;stroke:#2ca02c;stroke-linecap:square;stroke-width:1.5;"/>
    </g>
    <g id="line2d_85"/>
    <g id="text_15">
     <!-- Realistic Non Spiking Model -->
     <g transform="translate(94.6 87.426688)scale(0.1 -0.1)">
      <use xlink:href="#DejaVuSans-52"/>
      <use x="64.982422" xlink:href="#DejaVuSans-65"/>
      <use x="126.505859" xlink:href="#DejaVuSans-61"/>
      <use x="187.785156" xlink:href="#DejaVuSans-6c"/>
      <use x="215.568359" xlink:href="#DejaVuSans-69"/>
      <use x="243.351562" xlink:href="#DejaVuSans-73"/>
      <use x="295.451172" xlink:href="#DejaVuSans-74"/>
      <use x="334.660156" xlink:href="#DejaVuSans-69"/>
      <use x="362.443359" xlink:href="#DejaVuSans-63"/>
      <use x="417.423828" xlink:href="#DejaVuSans-20"/>
      <use x="449.210938" xlink:href="#DejaVuSans-4e"/>
      <use x="524.015625" xlink:href="#DejaVuSans-6f"/>
      <use x="585.197266" xlink:href="#DejaVuSans-6e"/>
      <use x="648.576172" xlink:href="#DejaVuSans-20"/>
      <use x="680.363281" xlink:href="#DejaVuSans-53"/>
      <use x="743.839844" xlink:href="#DejaVuSans-70"/>
      <use x="807.316406" xlink:href="#DejaVuSans-69"/>
      <use x="835.099609" xlink:href="#DejaVuSans-6b"/>
      <use x="893.009766" xlink:href="#DejaVuSans-69"/>
      <use x="920.792969" xlink:href="#DejaVuSans-6e"/>
      <use x="984.171875" xlink:href="#DejaVuSans-67"/>
      <use x="1047.648438" xlink:href="#DejaVuSans-20"/>
      <use x="1079.435547" xlink:href="#DejaVuSans-4d"/>
      <use x="1165.714844" xlink:href="#DejaVuSans-6f"/>
      <use x="1226.896484" xlink:href="#DejaVuSans-64"/>
      <use x="1290.373047" xlink:href="#DejaVuSans-65"/>
      <use x="1351.896484" xlink:href="#DejaVuSans-6c"/>
     </g>
    </g>
   </g>
  </g>
 </g>
 <defs>
  <clipPath id="p582992526a">
   <rect height="266.112" width="357.12" x="57.6" y="41.472"/>
  </clipPath>
 </defs>
</svg>
