<?xml version="1.0" encoding="utf-8" standalone="no"?>
<!DOCTYPE svg PUBLIC "-//W3C//DTD SVG 1.1//EN"
  "http://www.w3.org/Graphics/SVG/1.1/DTD/svg11.dtd">
<svg height="720.72pt" version="1.1" viewBox="0 0 1382.4 720.72" width="1382.4pt" xmlns="http://www.w3.org/2000/svg" xmlns:xlink="http://www.w3.org/1999/xlink">
 <metadata>
  <rdf:RDF xmlns:cc="http://creativecommons.org/ns#" xmlns:dc="http://purl.org/dc/elements/1.1/" xmlns:rdf="http://www.w3.org/1999/02/22-rdf-syntax-ns#">
   <cc:Work>
    <dc:type rdf:resource="http://purl.org/dc/dcmitype/StillImage"/>
    <dc:date>2021-09-27T11:31:04.861126</dc:date>
    <dc:format>image/svg+xml</dc:format>
    <dc:creator>
     <cc:Agent>
      <dc:title>Matplotlib v3.4.2, https://matplotlib.org/</dc:title>
     </cc:Agent>
    </dc:creator>
   </cc:Work>
  </rdf:RDF>
 </metadata>
 <defs>
  <style type="text/css">*{stroke-linecap:butt;stroke-linejoin:round;}</style>
 </defs>
 <g id="figure_1">
  <g id="patch_1">
   <path d="M 0 720.72 
L 1382.4 720.72 
L 1382.4 0 
L 0 0 
z
" style="fill:#ffffff;"/>
  </g>
  <g id="axes_1">
   <g id="patch_2">
    <path d="M 172.8 641.4408 
L 1244.16 641.4408 
L 1244.16 86.4864 
L 172.8 86.4864 
z
" style="fill:#ffffff;"/>
   </g>
   <g id="PolyCollection_1">
    <defs>
     <path d="M 221.498182 -117.971632 
L 221.498182 -104.5044 
L 231.336198 -109.643129 
L 241.174215 -108.908047 
L 251.012231 -111.170204 
L 260.850248 -113.04183 
L 270.688264 -112.774822 
L 280.526281 -113.074498 
L 290.364298 -113.395174 
L 300.202314 -109.216982 
L 310.040331 -114.823741 
L 319.878347 -114.33288 
L 329.716364 -114.795024 
L 339.55438 -116.718437 
L 349.392397 -117.421978 
L 359.230413 -117.643606 
L 369.06843 -118.150063 
L 378.906446 -118.962067 
L 388.744463 -119.304408 
L 398.582479 -120.855482 
L 408.420496 -121.625737 
L 418.258512 -123.07837 
L 428.096529 -123.873406 
L 437.934545 -124.736447 
L 447.772562 -127.179195 
L 457.610579 -129.387121 
L 467.448595 -130.770702 
L 477.286612 -133.394757 
L 487.124628 -135.969133 
L 496.962645 -132.738266 
L 506.800661 -139.831418 
L 516.638678 -143.642002 
L 526.476694 -146.787912 
L 536.314711 -149.654941 
L 546.152727 -153.294866 
L 555.990744 -151.809426 
L 565.82876 -156.776463 
L 575.666777 -161.718163 
L 585.504793 -166.797792 
L 595.34281 -170.522611 
L 605.180826 -172.772279 
L 615.018843 -177.129483 
L 624.85686 -182.813554 
L 634.694876 -185.025676 
L 644.532893 -192.241972 
L 654.370909 -197.383607 
L 664.208926 -200.591295 
L 674.046942 -206.181642 
L 683.884959 -210.342136 
L 693.722975 -212.586052 
L 703.560992 -224.157159 
L 713.399008 -227.246553 
L 723.237025 -233.413882 
L 733.075041 -237.991317 
L 742.913058 -247.54486 
L 752.751074 -253.534916 
L 762.589091 -279.033461 
L 772.427107 -278.733249 
L 782.265124 -277.9487 
L 792.10314 -287.569462 
L 801.941157 -309.951736 
L 811.779174 -307.055753 
L 821.61719 -323.152465 
L 831.455207 -325.828165 
L 841.293223 -328.307774 
L 851.13124 -338.397038 
L 860.969256 -344.456842 
L 870.807273 -353.952471 
L 880.645289 -360.197592 
L 890.483306 -368.566085 
L 900.321322 -375.261677 
L 910.159339 -381.265533 
L 919.997355 -385.066876 
L 929.835372 -392.346244 
L 939.673388 -398.149357 
L 949.511405 -404.74885 
L 959.349421 -410.063981 
L 969.187438 -415.236116 
L 979.025455 -424.134469 
L 988.863471 -430.871541 
L 998.701488 -438.415874 
L 1008.539504 -447.620507 
L 1018.377521 -445.419806 
L 1028.215537 -457.636863 
L 1038.053554 -462.581106 
L 1047.89157 -467.540672 
L 1057.729587 -472.126075 
L 1067.567603 -477.293989 
L 1077.40562 -482.061614 
L 1087.243636 -487.485127 
L 1097.081653 -492.806513 
L 1106.919669 -497.982968 
L 1116.757686 -504.08342 
L 1126.595702 -508.338022 
L 1136.433719 -514.193922 
L 1146.271736 -519.746415 
L 1156.109752 -526.127678 
L 1165.947769 -531.383517 
L 1175.785785 -536.045176 
L 1185.623802 -542.492145 
L 1195.461818 -547.719164 
L 1195.461818 -548.813944 
L 1195.461818 -548.813944 
L 1185.623802 -542.961298 
L 1175.785785 -537.537322 
L 1165.947769 -532.173806 
L 1156.109752 -526.689497 
L 1146.271736 -520.325988 
L 1136.433719 -514.945776 
L 1126.595702 -509.910394 
L 1116.757686 -504.453809 
L 1106.919669 -499.72242 
L 1097.081653 -493.309457 
L 1087.243636 -488.945377 
L 1077.40562 -483.478416 
L 1067.567603 -478.026991 
L 1057.729587 -472.704831 
L 1047.89157 -468.267245 
L 1038.053554 -463.290522 
L 1028.215537 -458.293715 
L 1018.377521 -447.477305 
L 1008.539504 -449.985841 
L 998.701488 -439.027018 
L 988.863471 -432.122709 
L 979.025455 -426.36569 
L 969.187438 -420.407889 
L 959.349421 -413.404183 
L 949.511405 -409.663734 
L 939.673388 -401.924934 
L 929.835372 -397.576163 
L 919.997355 -388.741845 
L 910.159339 -386.963893 
L 900.321322 -379.281968 
L 890.483306 -373.24591 
L 880.645289 -369.489322 
L 870.807273 -362.313069 
L 860.969256 -359.368423 
L 851.13124 -348.40431 
L 841.293223 -347.836061 
L 831.455207 -335.157329 
L 821.61719 -324.209646 
L 811.779174 -317.490808 
L 801.941157 -310.824915 
L 792.10314 -292.462872 
L 782.265124 -292.228736 
L 772.427107 -290.265445 
L 762.589091 -280.175937 
L 752.751074 -268.179682 
L 742.913058 -251.67307 
L 733.075041 -247.359282 
L 723.237025 -241.759312 
L 713.399008 -235.33965 
L 703.560992 -226.242082 
L 693.722975 -231.711046 
L 683.884959 -212.281906 
L 674.046942 -208.389578 
L 664.208926 -202.820451 
L 654.370909 -200.036964 
L 644.532893 -195.104722 
L 634.694876 -192.698272 
L 624.85686 -185.299831 
L 615.018843 -179.887512 
L 605.180826 -176.187931 
L 595.34281 -173.347986 
L 585.504793 -169.339151 
L 575.666777 -165.668541 
L 565.82876 -159.980084 
L 555.990744 -156.130874 
L 546.152727 -156.112809 
L 536.314711 -152.630212 
L 526.476694 -149.648083 
L 516.638678 -146.583206 
L 506.800661 -143.253381 
L 496.962645 -147.11742 
L 487.124628 -139.293527 
L 477.286612 -136.820014 
L 467.448595 -134.024533 
L 457.610579 -132.213158 
L 447.772562 -130.269751 
L 437.934545 -131.92616 
L 428.096529 -127.891115 
L 418.258512 -126.778522 
L 408.420496 -125.759569 
L 398.582479 -124.694143 
L 388.744463 -123.31252 
L 378.906446 -122.798168 
L 369.06843 -122.140063 
L 359.230413 -121.445451 
L 349.392397 -122.939168 
L 339.55438 -120.157297 
L 329.716364 -119.290515 
L 319.878347 -118.651704 
L 310.040331 -119.12791 
L 300.202314 -124.718191 
L 290.364298 -117.242753 
L 280.526281 -119.247637 
L 270.688264 -117.020163 
L 260.850248 -117.189452 
L 251.012231 -119.512669 
L 241.174215 -116.191219 
L 231.336198 -114.950063 
L 221.498182 -117.971632 
z
" id="mc6c98a20c6" style="stroke:#1f77b4;stroke-opacity:0.2;"/>
    </defs>
    <g clip-path="url(#pcc281f9b33)">
     <use style="fill:#1f77b4;fill-opacity:0.2;stroke:#1f77b4;stroke-opacity:0.2;" x="0" xlink:href="#mc6c98a20c6" y="720.72"/>
    </g>
   </g>
   <g id="PolyCollection_2">
    <path clip-path="url(#pcc281f9b33)" d="M 221.498182 562.519192 
L 221.498182 581.524602 
L 231.336198 585.708586 
L 241.174215 572.634467 
L 251.012231 573.537555 
L 260.850248 571.725348 
L 270.688264 572.792523 
L 280.526281 572.304207 
L 290.364298 572.055675 
L 300.202314 571.961093 
L 310.040331 571.689278 
L 319.878347 572.09342 
L 329.716364 572.198 
L 339.55438 571.181141 
L 349.392397 571.067893 
L 359.230413 571.975442 
L 369.06843 571.69794 
L 378.906446 571.815767 
L 388.744463 571.280252 
L 398.582479 570.48653 
L 408.420496 570.01109 
L 418.258512 570.318663 
L 428.096529 569.415649 
L 437.934545 570.620069 
L 447.772562 568.527978 
L 457.610579 568.426509 
L 467.448595 567.641622 
L 477.286612 566.788379 
L 487.124628 565.612678 
L 496.962645 565.265273 
L 506.800661 564.738539 
L 516.638678 563.213541 
L 526.476694 561.294532 
L 536.314711 560.722214 
L 546.152727 558.994072 
L 555.990744 560.572922 
L 565.82876 559.528286 
L 575.666777 554.254641 
L 585.504793 555.974322 
L 595.34281 552.487973 
L 605.180826 551.301645 
L 615.018843 548.598844 
L 624.85686 542.38392 
L 634.694876 530.615431 
L 644.532893 527.398352 
L 654.370909 526.315531 
L 664.208926 523.959379 
L 674.046942 519.659733 
L 683.884959 518.521664 
L 693.722975 524.182627 
L 703.560992 515.317184 
L 713.399008 513.85217 
L 723.237025 509.655589 
L 733.075041 508.90719 
L 742.913058 499.838264 
L 752.751074 533.40276 
L 762.589091 95666.101937 
L 772.427107 95666.101937 
L 782.265124 95666.101937 
L 792.10314 95666.101937 
L 801.941157 607.137866 
L 811.779174 519.188636 
L 821.61719 551.162947 
L 831.455207 95666.101937 
L 841.293223 508.823994 
L 851.13124 498.543346 
L 860.969256 476.398932 
L 870.807273 452.933704 
L 880.645289 431.093116 
L 890.483306 414.207703 
L 900.321322 399.8151 
L 910.159339 388.701603 
L 919.997355 380.726109 
L 929.835372 372.517646 
L 939.673388 365.617073 
L 949.511405 353.778685 
L 959.349421 339.570354 
L 969.187438 325.624244 
L 979.025455 313.049512 
L 988.863471 300.421087 
L 998.701488 296.449382 
L 1008.539504 279.564364 
L 1018.377521 272.036706 
L 1028.215537 268.617753 
L 1038.053554 263.3057 
L 1047.89157 257.70635 
L 1057.729587 251.893649 
L 1067.567603 246.083928 
L 1077.40562 240.649056 
L 1087.243636 234.948789 
L 1097.081653 229.615568 
L 1106.919669 223.947285 
L 1116.757686 218.23857 
L 1126.595702 212.825604 
L 1136.433719 207.267892 
L 1146.271736 201.353037 
L 1156.109752 195.433257 
L 1165.947769 189.914082 
L 1175.785785 184.406737 
L 1185.623802 179.194564 
L 1195.461818 173.730522 
L 1195.461818 172.732519 
L 1195.461818 172.732519 
L 1185.623802 178.371702 
L 1175.785785 183.775693 
L 1165.947769 189.398123 
L 1156.109752 194.83638 
L 1146.271736 200.585813 
L 1136.433719 206.677677 
L 1126.595702 212.268579 
L 1116.757686 217.566561 
L 1106.919669 223.158658 
L 1097.081653 229.004061 
L 1087.243636 234.296856 
L 1077.40562 240.152951 
L 1067.567603 245.494673 
L 1057.729587 251.400007 
L 1047.89157 257.240438 
L 1038.053554 262.828021 
L 1028.215537 268.134509 
L 1018.377521 271.558945 
L 1008.539504 278.672141 
L 998.701488 294.765525 
L 988.863471 295.973906 
L 979.025455 310.571593 
L 969.187438 323.495325 
L 959.349421 336.010957 
L 949.511405 350.837713 
L 939.673388 362.7883 
L 929.835372 369.102661 
L 919.997355 378.278538 
L 910.159339 385.445433 
L 900.321322 397.490577 
L 890.483306 407.616408 
L 880.645289 422.849827 
L 870.807273 440.010701 
L 860.969256 459.339252 
L 851.13124 473.720655 
L 841.293223 486.956139 
L 831.455207 474.616701 
L 821.61719 475.875313 
L 811.779174 505.574718 
L 801.941157 485.993055 
L 792.10314 451.935659 
L 782.265124 456.20278 
L 772.427107 442.72412 
L 762.589091 452.653465 
L 752.751074 485.206073 
L 742.913058 495.067027 
L 733.075041 502.021357 
L 723.237025 504.918056 
L 713.399008 509.528298 
L 703.560992 511.26862 
L 693.722975 516.331859 
L 683.884959 512.984044 
L 674.046942 516.449049 
L 664.208926 520.753032 
L 654.370909 522.482417 
L 644.532893 524.902821 
L 634.694876 524.349305 
L 624.85686 539.676773 
L 615.018843 545.896511 
L 605.180826 547.502829 
L 595.34281 549.809403 
L 585.504793 552.167773 
L 575.666777 550.841074 
L 565.82876 557.060746 
L 555.990744 556.843486 
L 546.152727 556.562425 
L 536.314711 558.039414 
L 526.476694 558.867087 
L 516.638678 559.794189 
L 506.800661 561.619662 
L 496.962645 562.850748 
L 487.124628 562.96351 
L 477.286612 564.695227 
L 467.448595 565.076231 
L 457.610579 565.694452 
L 447.772562 566.433444 
L 437.934545 565.800187 
L 428.096529 567.53059 
L 418.258512 568.320784 
L 408.420496 568.162744 
L 398.582479 568.48886 
L 388.744463 569.263416 
L 378.906446 569.714218 
L 369.06843 568.945326 
L 359.230413 568.721352 
L 349.392397 567.507614 
L 339.55438 569.236556 
L 329.716364 569.981639 
L 319.878347 570.122453 
L 310.040331 567.464463 
L 300.202314 569.996803 
L 290.364298 569.992543 
L 280.526281 569.244113 
L 270.688264 567.088637 
L 260.850248 569.787107 
L 251.012231 567.968875 
L 241.174215 569.351637 
L 231.336198 561.234936 
L 221.498182 562.519192 
z
" style="fill:#ff7f0e;fill-opacity:0.2;stroke:#ff7f0e;stroke-opacity:0.2;"/>
   </g>
   <g id="PolyCollection_3">
    <defs>
     <path d="M 221.498182 -205.002155 
L 221.498182 -187.15432 
L 231.336198 -197.29763 
L 241.174215 -195.324465 
L 251.012231 -196.048118 
L 260.850248 -195.802281 
L 270.688264 -198.061211 
L 280.526281 -196.585377 
L 290.364298 -195.94104 
L 300.202314 -196.108414 
L 310.040331 -196.006596 
L 319.878347 -195.961014 
L 329.716364 -195.860948 
L 339.55438 -195.932024 
L 349.392397 -196.024773 
L 359.230413 -196.138355 
L 369.06843 -195.662809 
L 378.906446 -195.882215 
L 388.744463 -195.899158 
L 398.582479 -195.760352 
L 408.420496 -195.885913 
L 418.258512 -195.418092 
L 428.096529 -195.707425 
L 437.934545 -195.713857 
L 447.772562 -196.094952 
L 457.610579 -196.009779 
L 467.448595 -196.247731 
L 477.286612 -196.039666 
L 487.124628 -196.498919 
L 496.962645 -196.126153 
L 506.800661 -196.040907 
L 516.638678 -196.583237 
L 526.476694 -196.469768 
L 536.314711 -196.277511 
L 546.152727 -196.371504 
L 555.990744 -193.533309 
L 565.82876 -195.517323 
L 575.666777 -194.907517 
L 585.504793 -195.083783 
L 595.34281 -196.987523 
L 605.180826 -194.408959 
L 615.018843 -194.536703 
L 624.85686 -194.397686 
L 634.694876 -195.801553 
L 644.532893 -196.569675 
L 654.370909 -195.676688 
L 664.208926 -194.666858 
L 674.046942 -196.428347 
L 683.884959 -195.770607 
L 693.722975 -196.654035 
L 703.560992 -196.3121 
L 713.399008 -195.823608 
L 723.237025 -194.685017 
L 733.075041 -192.121235 
L 742.913058 -195.456741 
L 752.751074 -196.621333 
L 762.589091 -197.068345 
L 772.427107 -184.763816 
L 782.265124 -186.897068 
L 792.10314 -192.779305 
L 801.941157 -197.126693 
L 811.779174 -203.405742 
L 821.61719 -207.836404 
L 831.455207 -214.159573 
L 841.293223 -220.062084 
L 851.13124 -225.769852 
L 860.969256 -230.75167 
L 870.807273 -237.261693 
L 880.645289 -242.956414 
L 890.483306 -248.596877 
L 900.321322 -254.341583 
L 910.159339 -259.943318 
L 919.997355 -265.63884 
L 929.835372 -271.464176 
L 939.673388 -277.897743 
L 949.511405 -283.068537 
L 959.349421 -288.373224 
L 969.187438 -294.085523 
L 979.025455 -300.063849 
L 988.863471 -305.629458 
L 998.701488 -311.394188 
L 1008.539504 -316.924562 
L 1018.377521 -322.700778 
L 1028.215537 -328.542787 
L 1038.053554 -334.231819 
L 1047.89157 -340.673679 
L 1057.729587 -345.741777 
L 1067.567603 -351.54208 
L 1077.40562 -357.325306 
L 1087.243636 -363.127031 
L 1097.081653 -368.723844 
L 1106.919669 -374.551376 
L 1116.757686 -380.293353 
L 1126.595702 -386.144333 
L 1136.433719 -391.32871 
L 1146.271736 -396.895778 
L 1146.271736 -411.071625 
L 1146.271736 -411.071625 
L 1136.433719 -405.739436 
L 1126.595702 -400.513037 
L 1116.757686 -394.731613 
L 1106.919669 -389.136531 
L 1097.081653 -383.226334 
L 1087.243636 -377.638358 
L 1077.40562 -371.892899 
L 1067.567603 -366.193748 
L 1057.729587 -360.551075 
L 1047.89157 -355.511953 
L 1038.053554 -349.239049 
L 1028.215537 -343.687908 
L 1018.377521 -337.935941 
L 1008.539504 -332.27213 
L 998.701488 -327.233212 
L 988.863471 -321.265693 
L 979.025455 -316.000395 
L 969.187438 -310.131033 
L 959.349421 -304.56599 
L 949.511405 -299.372814 
L 939.673388 -294.388445 
L 929.835372 -288.827601 
L 919.997355 -283.659636 
L 910.159339 -277.97446 
L 900.321322 -273.356347 
L 890.483306 -268.505041 
L 880.645289 -263.745388 
L 870.807273 -259.91353 
L 860.969256 -254.213217 
L 851.13124 -249.588118 
L 841.293223 -245.615957 
L 831.455207 -242.126176 
L 821.61719 -237.819405 
L 811.779174 -231.758588 
L 801.941157 -229.215982 
L 792.10314 -224.454655 
L 782.265124 -219.070976 
L 772.427107 -212.699134 
L 762.589091 -198.925971 
L 752.751074 -200.757691 
L 742.913058 -197.710949 
L 733.075041 -204.733787 
L 723.237025 -200.917863 
L 713.399008 -199.183197 
L 703.560992 -199.514932 
L 693.722975 -198.371522 
L 683.884959 -199.162011 
L 674.046942 -199.332887 
L 664.208926 -197.460157 
L 654.370909 -198.86943 
L 644.532893 -199.349916 
L 634.694876 -199.456991 
L 624.85686 -197.081057 
L 615.018843 -198.195142 
L 605.180826 -196.993816 
L 595.34281 -198.990834 
L 585.504793 -198.032333 
L 575.666777 -196.944855 
L 565.82876 -197.513941 
L 555.990744 -198.527889 
L 546.152727 -198.090923 
L 536.314711 -198.18104 
L 526.476694 -198.723565 
L 516.638678 -198.42438 
L 506.800661 -199.461756 
L 496.962645 -199.160304 
L 487.124628 -198.366322 
L 477.286612 -197.86376 
L 467.448595 -197.788341 
L 457.610579 -198.296339 
L 447.772562 -197.609581 
L 437.934545 -197.299553 
L 428.096529 -197.226208 
L 418.258512 -197.879951 
L 408.420496 -197.384955 
L 398.582479 -197.240084 
L 388.744463 -197.358328 
L 378.906446 -197.386097 
L 369.06843 -197.739571 
L 359.230413 -197.526016 
L 349.392397 -198.437138 
L 339.55438 -197.343335 
L 329.716364 -197.297953 
L 319.878347 -197.38207 
L 310.040331 -198.451534 
L 300.202314 -198.203868 
L 290.364298 -197.335559 
L 280.526281 -198.177768 
L 270.688264 -200.267453 
L 260.850248 -197.733568 
L 251.012231 -200.651401 
L 241.174215 -204.41295 
L 231.336198 -199.877715 
L 221.498182 -205.002155 
z
" id="m34e0e34433" style="stroke:#2ca02c;stroke-opacity:0.2;"/>
    </defs>
    <g clip-path="url(#pcc281f9b33)">
     <use style="fill:#2ca02c;fill-opacity:0.2;stroke:#2ca02c;stroke-opacity:0.2;" x="0" xlink:href="#m34e0e34433" y="720.72"/>
    </g>
   </g>
   <g id="PolyCollection_4">
    <defs>
     <path d="M 221.498182 -212.298914 
L 221.498182 -197.913114 
L 231.336198 -206.766801 
L 241.174215 -201.982813 
L 251.012231 -204.769884 
L 260.850248 -205.312203 
L 270.688264 -205.361365 
L 280.526281 -204.617623 
L 290.364298 -204.882684 
L 300.202314 -202.773817 
L 310.040331 -203.621196 
L 319.878347 -203.257072 
L 329.716364 -202.771432 
L 339.55438 -204.521263 
L 349.392397 -201.836396 
L 359.230413 -205.016606 
L 369.06843 -203.033666 
L 378.906446 -203.226255 
L 388.744463 -203.479442 
L 398.582479 -204.125339 
L 408.420496 -202.881394 
L 418.258512 -201.809161 
L 428.096529 -202.700524 
L 437.934545 -202.158688 
L 447.772562 -204.538945 
L 457.610579 -202.650894 
L 467.448595 -204.795914 
L 477.286612 -203.050448 
L 487.124628 -203.11438 
L 496.962645 -203.24839 
L 506.800661 -203.836404 
L 516.638678 -205.020515 
L 526.476694 -204.642707 
L 536.314711 -204.805135 
L 546.152727 -205.105317 
L 555.990744 -201.756608 
L 565.82876 -203.840281 
L 575.666777 -204.066972 
L 585.504793 -201.055754 
L 595.34281 -202.192324 
L 605.180826 -201.525344 
L 615.018843 -202.479852 
L 624.85686 -203.016541 
L 634.694876 -202.841648 
L 644.532893 -203.528482 
L 654.370909 -203.895033 
L 664.208926 -204.009596 
L 674.046942 -203.407692 
L 683.884959 -204.052323 
L 693.722975 -204.091368 
L 703.560992 -203.488183 
L 713.399008 -202.502803 
L 723.237025 -205.608828 
L 733.075041 -199.707131 
L 742.913058 -203.722438 
L 752.751074 -201.975337 
L 762.589091 -204.231923 
L 772.427107 -192.97413 
L 782.265124 -196.910053 
L 792.10314 -203.839734 
L 801.941157 -207.862576 
L 811.779174 -213.717006 
L 821.61719 -216.142689 
L 831.455207 -220.754489 
L 841.293223 -226.225194 
L 851.13124 -231.882413 
L 860.969256 -237.067263 
L 870.807273 -242.800727 
L 880.645289 -248.559793 
L 890.483306 -253.909662 
L 900.321322 -259.309275 
L 910.159339 -264.638019 
L 919.997355 -270.544267 
L 929.835372 -275.351001 
L 939.673388 -280.162205 
L 949.511405 -288.236966 
L 959.349421 -293.025506 
L 969.187438 -298.294686 
L 979.025455 -302.978288 
L 988.863471 -308.607136 
L 998.701488 -314.701297 
L 1008.539504 -319.804361 
L 1018.377521 -325.095809 
L 1028.215537 -331.640793 
L 1038.053554 -336.806512 
L 1047.89157 -343.139767 
L 1057.729587 -348.27977 
L 1067.567603 -353.794843 
L 1077.40562 -360.109675 
L 1087.243636 -365.463717 
L 1097.081653 -371.18649 
L 1106.919669 -376.987454 
L 1116.757686 -381.888114 
L 1126.595702 -387.726799 
L 1136.433719 -392.938549 
L 1146.271736 -398.425026 
L 1146.271736 -412.162775 
L 1146.271736 -412.162775 
L 1136.433719 -406.88199 
L 1126.595702 -401.637183 
L 1116.757686 -395.862662 
L 1106.919669 -390.86333 
L 1097.081653 -384.975549 
L 1087.243636 -379.297027 
L 1077.40562 -373.86981 
L 1067.567603 -367.787063 
L 1057.729587 -362.341235 
L 1047.89157 -357.249759 
L 1038.053554 -351.046844 
L 1028.215537 -345.86015 
L 1018.377521 -339.60745 
L 1008.539504 -334.280166 
L 998.701488 -329.516238 
L 988.863471 -323.328622 
L 979.025455 -318.004779 
L 969.187438 -313.032493 
L 959.349421 -307.767208 
L 949.511405 -302.926856 
L 939.673388 -295.921694 
L 929.835372 -291.422264 
L 919.997355 -286.897684 
L 910.159339 -281.069994 
L 900.321322 -276.561358 
L 890.483306 -271.86726 
L 880.645289 -267.224273 
L 870.807273 -263.205864 
L 860.969256 -257.911438 
L 851.13124 -253.134385 
L 841.293223 -249.051373 
L 831.455207 -245.610439 
L 821.61719 -242.050035 
L 811.779174 -237.272817 
L 801.941157 -234.50409 
L 792.10314 -229.964887 
L 782.265124 -223.971679 
L 772.427107 -217.079844 
L 762.589091 -205.799554 
L 752.751074 -205.630811 
L 742.913058 -205.577185 
L 733.075041 -210.456104 
L 723.237025 -210.475964 
L 713.399008 -205.378223 
L 703.560992 -206.197004 
L 693.722975 -205.530958 
L 683.884959 -206.848419 
L 674.046942 -205.874243 
L 664.208926 -206.252946 
L 654.370909 -206.530148 
L 644.532893 -205.890085 
L 634.694876 -205.945666 
L 624.85686 -205.208107 
L 615.018843 -205.521725 
L 605.180826 -203.712076 
L 595.34281 -203.963671 
L 585.504793 -203.619764 
L 575.666777 -205.707374 
L 565.82876 -205.479954 
L 555.990744 -205.893798 
L 546.152727 -206.502783 
L 536.314711 -206.360473 
L 526.476694 -206.501187 
L 516.638678 -206.527903 
L 506.800661 -206.689192 
L 496.962645 -205.816989 
L 487.124628 -204.710922 
L 477.286612 -204.595279 
L 467.448595 -206.053094 
L 457.610579 -204.606036 
L 447.772562 -205.777925 
L 437.934545 -203.519228 
L 428.096529 -203.986604 
L 418.258512 -203.927287 
L 408.420496 -204.150639 
L 398.582479 -205.337962 
L 388.744463 -204.697737 
L 378.906446 -204.48908 
L 369.06843 -204.778359 
L 359.230413 -206.139711 
L 349.392397 -203.940325 
L 339.55438 -205.671475 
L 329.716364 -203.990477 
L 319.878347 -204.451522 
L 310.040331 -205.664857 
L 300.202314 -204.563926 
L 290.364298 -206.009652 
L 280.526281 -205.93327 
L 270.688264 -207.218398 
L 260.850248 -206.853948 
L 251.012231 -208.536246 
L 241.174215 -209.839526 
L 231.336198 -208.831699 
L 221.498182 -212.298914 
z
" id="mff1d7e233a" style="stroke:#d62728;stroke-opacity:0.2;"/>
    </defs>
    <g clip-path="url(#pcc281f9b33)">
     <use style="fill:#d62728;fill-opacity:0.2;stroke:#d62728;stroke-opacity:0.2;" x="0" xlink:href="#mff1d7e233a" y="720.72"/>
    </g>
   </g>
   <g id="PolyCollection_5">
    <path clip-path="url(#pcc281f9b33)" d="M 221.498182 416.118182 
L 221.498182 440.86499 
L 231.336198 439.831048 
L 241.174215 440.302802 
L 251.012231 440.126068 
L 260.850248 441.949067 
L 270.688264 95666.101937 
L 280.526281 441.727465 
L 290.364298 441.853271 
L 300.202314 445.935239 
L 310.040331 442.336173 
L 319.878347 442.564477 
L 329.716364 441.559168 
L 339.55438 441.870002 
L 349.392397 442.105862 
L 359.230413 441.870579 
L 369.06843 441.420181 
L 378.906446 441.527964 
L 388.744463 441.80239 
L 398.582479 441.053731 
L 408.420496 440.868398 
L 418.258512 440.306198 
L 428.096529 440.378903 
L 437.934545 438.400991 
L 447.772562 439.171388 
L 457.610579 438.314902 
L 467.448595 437.819666 
L 477.286612 437.02363 
L 487.124628 436.169561 
L 496.962645 435.261611 
L 506.800661 435.093426 
L 516.638678 433.643661 
L 526.476694 433.484727 
L 536.314711 431.384806 
L 546.152727 430.625214 
L 555.990744 429.236995 
L 565.82876 427.337423 
L 575.666777 425.704051 
L 585.504793 419.889328 
L 595.34281 416.395744 
L 605.180826 414.210511 
L 615.018843 414.066062 
L 624.85686 408.848246 
L 634.694876 405.046174 
L 644.532893 397.77294 
L 654.370909 394.156038 
L 664.208926 389.670261 
L 674.046942 385.649674 
L 683.884959 384.773397 
L 693.722975 380.426273 
L 703.560992 374.933475 
L 713.399008 369.442175 
L 723.237025 365.8591 
L 733.075041 360.857849 
L 742.913058 355.86967 
L 752.751074 352.299947 
L 762.589091 346.663263 
L 772.427107 341.0499 
L 782.265124 336.147504 
L 792.10314 328.61467 
L 801.941157 325.743948 
L 811.779174 319.532708 
L 821.61719 313.880396 
L 831.455207 309.060865 
L 841.293223 301.719586 
L 851.13124 298.796034 
L 860.969256 293.84059 
L 870.807273 288.525118 
L 880.645289 282.2218 
L 890.483306 275.495991 
L 900.321322 273.150182 
L 910.159339 266.780608 
L 919.997355 263.420262 
L 929.835372 252.849828 
L 939.673388 249.904949 
L 949.511405 245.595036 
L 959.349421 237.33879 
L 969.187438 226.4368 
L 979.025455 218.033381 
L 988.863471 210.880586 
L 998.701488 206.114005 
L 1008.539504 198.551869 
L 1018.377521 192.937833 
L 1028.215537 187.865371 
L 1038.053554 181.931376 
L 1047.89157 175.332835 
L 1057.729587 170.520432 
L 1067.567603 164.766324 
L 1077.40562 159.140764 
L 1087.243636 152.390071 
L 1097.081653 147.150088 
L 1106.919669 141.357897 
L 1116.757686 136.073304 
L 1126.595702 130.125075 
L 1136.433719 123.302219 
L 1146.271736 118.085725 
L 1156.109752 112.692695 
L 1156.109752 111.7116 
L 1156.109752 111.7116 
L 1146.271736 117.181916 
L 1136.433719 121.325518 
L 1126.595702 129.071146 
L 1116.757686 135.009386 
L 1106.919669 140.613903 
L 1097.081653 146.237339 
L 1087.243636 150.603327 
L 1077.40562 157.753072 
L 1067.567603 163.639562 
L 1057.729587 169.595595 
L 1047.89157 173.924375 
L 1038.053554 180.725982 
L 1028.215537 186.919996 
L 1018.377521 192.026121 
L 1008.539504 197.871177 
L 998.701488 204.174908 
L 988.863471 208.373019 
L 979.025455 216.468082 
L 969.187438 224.831476 
L 959.349421 235.01577 
L 949.511405 242.769062 
L 939.673388 247.892505 
L 929.835372 249.741346 
L 919.997355 260.524538 
L 910.159339 264.762049 
L 900.321322 270.732973 
L 890.483306 272.012295 
L 880.645289 279.72529 
L 870.807273 286.259985 
L 860.969256 291.08198 
L 851.13124 296.16177 
L 841.293223 296.836328 
L 831.455207 305.772238 
L 821.61719 310.165767 
L 811.779174 315.365174 
L 801.941157 321.841154 
L 792.10314 324.687182 
L 782.265124 332.673314 
L 772.427107 336.197178 
L 762.589091 339.990781 
L 752.751074 345.851619 
L 742.913058 349.894532 
L 733.075041 355.421784 
L 723.237025 359.215642 
L 713.399008 364.883545 
L 703.560992 367.335079 
L 693.722975 370.403103 
L 683.884959 374.407933 
L 674.046942 377.746183 
L 664.208926 379.505573 
L 654.370909 385.146602 
L 644.532893 388.549001 
L 634.694876 393.351456 
L 624.85686 394.878523 
L 615.018843 399.130222 
L 605.180826 399.273513 
L 595.34281 402.242122 
L 585.504793 404.520147 
L 575.666777 408.867615 
L 565.82876 409.788002 
L 555.990744 410.067232 
L 546.152727 410.690856 
L 536.314711 412.561814 
L 526.476694 413.430882 
L 516.638678 413.591819 
L 506.800661 414.695302 
L 496.962645 415.495887 
L 487.124628 416.288608 
L 477.286612 416.779933 
L 467.448595 417.285509 
L 457.610579 417.352314 
L 447.772562 417.621751 
L 437.934545 416.905095 
L 428.096529 418.189526 
L 418.258512 418.635768 
L 408.420496 419.246597 
L 398.582479 419.782515 
L 388.744463 418.974217 
L 378.906446 419.859761 
L 369.06843 420.418919 
L 359.230413 420.295669 
L 349.392397 420.5679 
L 339.55438 420.227568 
L 329.716364 421.217986 
L 319.878347 420.052157 
L 310.040331 419.825998 
L 300.202314 418.224834 
L 290.364298 420.063813 
L 280.526281 420.004163 
L 270.688264 385.823943 
L 260.850248 421.502238 
L 251.012231 416.813432 
L 241.174215 415.651138 
L 231.336198 415.842693 
L 221.498182 416.118182 
z
" style="fill:#d62728;fill-opacity:0.2;stroke:#d62728;stroke-opacity:0.2;"/>
   </g>
   <g id="matplotlib.axis_1">
    <g id="xtick_1">
     <g id="line2d_1">
      <defs>
       <path d="M 0 0 
L 0 3.5 
" id="m613ba3f8c8" style="stroke:#000000;stroke-width:0.8;"/>
      </defs>
      <g>
       <use style="stroke:#000000;stroke-width:0.8;" x="221.498182" xlink:href="#m613ba3f8c8" y="641.4408"/>
      </g>
     </g>
     <g id="text_1">
      <!-- $\mathdefault{10^{1}}$ -->
      <g transform="translate(212.698182 656.039238)scale(0.1 -0.1)">
       <defs>
        <path d="M 794 531 
L 1825 531 
L 1825 4091 
L 703 3866 
L 703 4441 
L 1819 4666 
L 2450 4666 
L 2450 531 
L 3481 531 
L 3481 0 
L 794 0 
L 794 531 
z
" id="DejaVuSans-31" transform="scale(0.015625)"/>
        <path d="M 2034 4250 
Q 1547 4250 1301 3770 
Q 1056 3291 1056 2328 
Q 1056 1369 1301 889 
Q 1547 409 2034 409 
Q 2525 409 2770 889 
Q 3016 1369 3016 2328 
Q 3016 3291 2770 3770 
Q 2525 4250 2034 4250 
z
M 2034 4750 
Q 2819 4750 3233 4129 
Q 3647 3509 3647 2328 
Q 3647 1150 3233 529 
Q 2819 -91 2034 -91 
Q 1250 -91 836 529 
Q 422 1150 422 2328 
Q 422 3509 836 4129 
Q 1250 4750 2034 4750 
z
" id="DejaVuSans-30" transform="scale(0.015625)"/>
       </defs>
       <use transform="translate(0 0.684375)" xlink:href="#DejaVuSans-31"/>
       <use transform="translate(63.623047 0.684375)" xlink:href="#DejaVuSans-30"/>
       <use transform="translate(128.203125 38.965625)scale(0.7)" xlink:href="#DejaVuSans-31"/>
      </g>
     </g>
    </g>
    <g id="xtick_2">
     <g id="line2d_2">
      <g>
       <use style="stroke:#000000;stroke-width:0.8;" x="546.152727" xlink:href="#m613ba3f8c8" y="641.4408"/>
      </g>
     </g>
     <g id="text_2">
      <!-- $\mathdefault{10^{2}}$ -->
      <g transform="translate(537.352727 656.039238)scale(0.1 -0.1)">
       <defs>
        <path d="M 1228 531 
L 3431 531 
L 3431 0 
L 469 0 
L 469 531 
Q 828 903 1448 1529 
Q 2069 2156 2228 2338 
Q 2531 2678 2651 2914 
Q 2772 3150 2772 3378 
Q 2772 3750 2511 3984 
Q 2250 4219 1831 4219 
Q 1534 4219 1204 4116 
Q 875 4013 500 3803 
L 500 4441 
Q 881 4594 1212 4672 
Q 1544 4750 1819 4750 
Q 2544 4750 2975 4387 
Q 3406 4025 3406 3419 
Q 3406 3131 3298 2873 
Q 3191 2616 2906 2266 
Q 2828 2175 2409 1742 
Q 1991 1309 1228 531 
z
" id="DejaVuSans-32" transform="scale(0.015625)"/>
       </defs>
       <use transform="translate(0 0.765625)" xlink:href="#DejaVuSans-31"/>
       <use transform="translate(63.623047 0.765625)" xlink:href="#DejaVuSans-30"/>
       <use transform="translate(128.203125 39.046875)scale(0.7)" xlink:href="#DejaVuSans-32"/>
      </g>
     </g>
    </g>
    <g id="xtick_3">
     <g id="line2d_3">
      <g>
       <use style="stroke:#000000;stroke-width:0.8;" x="870.807273" xlink:href="#m613ba3f8c8" y="641.4408"/>
      </g>
     </g>
     <g id="text_3">
      <!-- $\mathdefault{10^{3}}$ -->
      <g transform="translate(862.007273 656.039238)scale(0.1 -0.1)">
       <defs>
        <path d="M 2597 2516 
Q 3050 2419 3304 2112 
Q 3559 1806 3559 1356 
Q 3559 666 3084 287 
Q 2609 -91 1734 -91 
Q 1441 -91 1130 -33 
Q 819 25 488 141 
L 488 750 
Q 750 597 1062 519 
Q 1375 441 1716 441 
Q 2309 441 2620 675 
Q 2931 909 2931 1356 
Q 2931 1769 2642 2001 
Q 2353 2234 1838 2234 
L 1294 2234 
L 1294 2753 
L 1863 2753 
Q 2328 2753 2575 2939 
Q 2822 3125 2822 3475 
Q 2822 3834 2567 4026 
Q 2313 4219 1838 4219 
Q 1578 4219 1281 4162 
Q 984 4106 628 3988 
L 628 4550 
Q 988 4650 1302 4700 
Q 1616 4750 1894 4750 
Q 2613 4750 3031 4423 
Q 3450 4097 3450 3541 
Q 3450 3153 3228 2886 
Q 3006 2619 2597 2516 
z
" id="DejaVuSans-33" transform="scale(0.015625)"/>
       </defs>
       <use transform="translate(0 0.765625)" xlink:href="#DejaVuSans-31"/>
       <use transform="translate(63.623047 0.765625)" xlink:href="#DejaVuSans-30"/>
       <use transform="translate(128.203125 39.046875)scale(0.7)" xlink:href="#DejaVuSans-33"/>
      </g>
     </g>
    </g>
    <g id="xtick_4">
     <g id="line2d_4">
      <g>
       <use style="stroke:#000000;stroke-width:0.8;" x="1195.461818" xlink:href="#m613ba3f8c8" y="641.4408"/>
      </g>
     </g>
     <g id="text_4">
      <!-- $\mathdefault{10^{4}}$ -->
      <g transform="translate(1186.661818 656.039238)scale(0.1 -0.1)">
       <defs>
        <path d="M 2419 4116 
L 825 1625 
L 2419 1625 
L 2419 4116 
z
M 2253 4666 
L 3047 4666 
L 3047 1625 
L 3713 1625 
L 3713 1100 
L 3047 1100 
L 3047 0 
L 2419 0 
L 2419 1100 
L 313 1100 
L 313 1709 
L 2253 4666 
z
" id="DejaVuSans-34" transform="scale(0.015625)"/>
       </defs>
       <use transform="translate(0 0.684375)" xlink:href="#DejaVuSans-31"/>
       <use transform="translate(63.623047 0.684375)" xlink:href="#DejaVuSans-30"/>
       <use transform="translate(128.203125 38.965625)scale(0.7)" xlink:href="#DejaVuSans-34"/>
      </g>
     </g>
    </g>
    <g id="xtick_5">
     <g id="line2d_5">
      <defs>
       <path d="M 0 0 
L 0 2 
" id="maaabe1a896" style="stroke:#000000;stroke-width:0.6;"/>
      </defs>
      <g>
       <use style="stroke:#000000;stroke-width:0.6;" x="190.035906" xlink:href="#maaabe1a896" y="641.4408"/>
      </g>
     </g>
    </g>
    <g id="xtick_6">
     <g id="line2d_6">
      <g>
       <use style="stroke:#000000;stroke-width:0.6;" x="206.642805" xlink:href="#maaabe1a896" y="641.4408"/>
      </g>
     </g>
    </g>
    <g id="xtick_7">
     <g id="line2d_7">
      <g>
       <use style="stroke:#000000;stroke-width:0.6;" x="319.228938" xlink:href="#maaabe1a896" y="641.4408"/>
      </g>
     </g>
    </g>
    <g id="xtick_8">
     <g id="line2d_8">
      <g>
       <use style="stroke:#000000;stroke-width:0.6;" x="376.397766" xlink:href="#maaabe1a896" y="641.4408"/>
      </g>
     </g>
    </g>
    <g id="xtick_9">
     <g id="line2d_9">
      <g>
       <use style="stroke:#000000;stroke-width:0.6;" x="416.959695" xlink:href="#maaabe1a896" y="641.4408"/>
      </g>
     </g>
    </g>
    <g id="xtick_10">
     <g id="line2d_10">
      <g>
       <use style="stroke:#000000;stroke-width:0.6;" x="448.421971" xlink:href="#maaabe1a896" y="641.4408"/>
      </g>
     </g>
    </g>
    <g id="xtick_11">
     <g id="line2d_11">
      <g>
       <use style="stroke:#000000;stroke-width:0.6;" x="474.128522" xlink:href="#maaabe1a896" y="641.4408"/>
      </g>
     </g>
    </g>
    <g id="xtick_12">
     <g id="line2d_12">
      <g>
       <use style="stroke:#000000;stroke-width:0.6;" x="495.863102" xlink:href="#maaabe1a896" y="641.4408"/>
      </g>
     </g>
    </g>
    <g id="xtick_13">
     <g id="line2d_13">
      <g>
       <use style="stroke:#000000;stroke-width:0.6;" x="514.690451" xlink:href="#maaabe1a896" y="641.4408"/>
      </g>
     </g>
    </g>
    <g id="xtick_14">
     <g id="line2d_14">
      <g>
       <use style="stroke:#000000;stroke-width:0.6;" x="531.29735" xlink:href="#maaabe1a896" y="641.4408"/>
      </g>
     </g>
    </g>
    <g id="xtick_15">
     <g id="line2d_15">
      <g>
       <use style="stroke:#000000;stroke-width:0.6;" x="643.883484" xlink:href="#maaabe1a896" y="641.4408"/>
      </g>
     </g>
    </g>
    <g id="xtick_16">
     <g id="line2d_16">
      <g>
       <use style="stroke:#000000;stroke-width:0.6;" x="701.052311" xlink:href="#maaabe1a896" y="641.4408"/>
      </g>
     </g>
    </g>
    <g id="xtick_17">
     <g id="line2d_17">
      <g>
       <use style="stroke:#000000;stroke-width:0.6;" x="741.61424" xlink:href="#maaabe1a896" y="641.4408"/>
      </g>
     </g>
    </g>
    <g id="xtick_18">
     <g id="line2d_18">
      <g>
       <use style="stroke:#000000;stroke-width:0.6;" x="773.076516" xlink:href="#maaabe1a896" y="641.4408"/>
      </g>
     </g>
    </g>
    <g id="xtick_19">
     <g id="line2d_19">
      <g>
       <use style="stroke:#000000;stroke-width:0.6;" x="798.783068" xlink:href="#maaabe1a896" y="641.4408"/>
      </g>
     </g>
    </g>
    <g id="xtick_20">
     <g id="line2d_20">
      <g>
       <use style="stroke:#000000;stroke-width:0.6;" x="820.517647" xlink:href="#maaabe1a896" y="641.4408"/>
      </g>
     </g>
    </g>
    <g id="xtick_21">
     <g id="line2d_21">
      <g>
       <use style="stroke:#000000;stroke-width:0.6;" x="839.344997" xlink:href="#maaabe1a896" y="641.4408"/>
      </g>
     </g>
    </g>
    <g id="xtick_22">
     <g id="line2d_22">
      <g>
       <use style="stroke:#000000;stroke-width:0.6;" x="855.951895" xlink:href="#maaabe1a896" y="641.4408"/>
      </g>
     </g>
    </g>
    <g id="xtick_23">
     <g id="line2d_23">
      <g>
       <use style="stroke:#000000;stroke-width:0.6;" x="968.538029" xlink:href="#maaabe1a896" y="641.4408"/>
      </g>
     </g>
    </g>
    <g id="xtick_24">
     <g id="line2d_24">
      <g>
       <use style="stroke:#000000;stroke-width:0.6;" x="1025.706857" xlink:href="#maaabe1a896" y="641.4408"/>
      </g>
     </g>
    </g>
    <g id="xtick_25">
     <g id="line2d_25">
      <g>
       <use style="stroke:#000000;stroke-width:0.6;" x="1066.268786" xlink:href="#maaabe1a896" y="641.4408"/>
      </g>
     </g>
    </g>
    <g id="xtick_26">
     <g id="line2d_26">
      <g>
       <use style="stroke:#000000;stroke-width:0.6;" x="1097.731062" xlink:href="#maaabe1a896" y="641.4408"/>
      </g>
     </g>
    </g>
    <g id="xtick_27">
     <g id="line2d_27">
      <g>
       <use style="stroke:#000000;stroke-width:0.6;" x="1123.437613" xlink:href="#maaabe1a896" y="641.4408"/>
      </g>
     </g>
    </g>
    <g id="xtick_28">
     <g id="line2d_28">
      <g>
       <use style="stroke:#000000;stroke-width:0.6;" x="1145.172193" xlink:href="#maaabe1a896" y="641.4408"/>
      </g>
     </g>
    </g>
    <g id="xtick_29">
     <g id="line2d_29">
      <g>
       <use style="stroke:#000000;stroke-width:0.6;" x="1163.999542" xlink:href="#maaabe1a896" y="641.4408"/>
      </g>
     </g>
    </g>
    <g id="xtick_30">
     <g id="line2d_30">
      <g>
       <use style="stroke:#000000;stroke-width:0.6;" x="1180.606441" xlink:href="#maaabe1a896" y="641.4408"/>
      </g>
     </g>
    </g>
    <g id="text_5">
     <!-- Number of Neurons -->
     <g transform="translate(659.634687 669.717363)scale(0.1 -0.1)">
      <defs>
       <path d="M 628 4666 
L 1478 4666 
L 3547 763 
L 3547 4666 
L 4159 4666 
L 4159 0 
L 3309 0 
L 1241 3903 
L 1241 0 
L 628 0 
L 628 4666 
z
" id="DejaVuSans-4e" transform="scale(0.015625)"/>
       <path d="M 544 1381 
L 544 3500 
L 1119 3500 
L 1119 1403 
Q 1119 906 1312 657 
Q 1506 409 1894 409 
Q 2359 409 2629 706 
Q 2900 1003 2900 1516 
L 2900 3500 
L 3475 3500 
L 3475 0 
L 2900 0 
L 2900 538 
Q 2691 219 2414 64 
Q 2138 -91 1772 -91 
Q 1169 -91 856 284 
Q 544 659 544 1381 
z
M 1991 3584 
L 1991 3584 
z
" id="DejaVuSans-75" transform="scale(0.015625)"/>
       <path d="M 3328 2828 
Q 3544 3216 3844 3400 
Q 4144 3584 4550 3584 
Q 5097 3584 5394 3201 
Q 5691 2819 5691 2113 
L 5691 0 
L 5113 0 
L 5113 2094 
Q 5113 2597 4934 2840 
Q 4756 3084 4391 3084 
Q 3944 3084 3684 2787 
Q 3425 2491 3425 1978 
L 3425 0 
L 2847 0 
L 2847 2094 
Q 2847 2600 2669 2842 
Q 2491 3084 2119 3084 
Q 1678 3084 1418 2786 
Q 1159 2488 1159 1978 
L 1159 0 
L 581 0 
L 581 3500 
L 1159 3500 
L 1159 2956 
Q 1356 3278 1631 3431 
Q 1906 3584 2284 3584 
Q 2666 3584 2933 3390 
Q 3200 3197 3328 2828 
z
" id="DejaVuSans-6d" transform="scale(0.015625)"/>
       <path d="M 3116 1747 
Q 3116 2381 2855 2742 
Q 2594 3103 2138 3103 
Q 1681 3103 1420 2742 
Q 1159 2381 1159 1747 
Q 1159 1113 1420 752 
Q 1681 391 2138 391 
Q 2594 391 2855 752 
Q 3116 1113 3116 1747 
z
M 1159 2969 
Q 1341 3281 1617 3432 
Q 1894 3584 2278 3584 
Q 2916 3584 3314 3078 
Q 3713 2572 3713 1747 
Q 3713 922 3314 415 
Q 2916 -91 2278 -91 
Q 1894 -91 1617 61 
Q 1341 213 1159 525 
L 1159 0 
L 581 0 
L 581 4863 
L 1159 4863 
L 1159 2969 
z
" id="DejaVuSans-62" transform="scale(0.015625)"/>
       <path d="M 3597 1894 
L 3597 1613 
L 953 1613 
Q 991 1019 1311 708 
Q 1631 397 2203 397 
Q 2534 397 2845 478 
Q 3156 559 3463 722 
L 3463 178 
Q 3153 47 2828 -22 
Q 2503 -91 2169 -91 
Q 1331 -91 842 396 
Q 353 884 353 1716 
Q 353 2575 817 3079 
Q 1281 3584 2069 3584 
Q 2775 3584 3186 3129 
Q 3597 2675 3597 1894 
z
M 3022 2063 
Q 3016 2534 2758 2815 
Q 2500 3097 2075 3097 
Q 1594 3097 1305 2825 
Q 1016 2553 972 2059 
L 3022 2063 
z
" id="DejaVuSans-65" transform="scale(0.015625)"/>
       <path d="M 2631 2963 
Q 2534 3019 2420 3045 
Q 2306 3072 2169 3072 
Q 1681 3072 1420 2755 
Q 1159 2438 1159 1844 
L 1159 0 
L 581 0 
L 581 3500 
L 1159 3500 
L 1159 2956 
Q 1341 3275 1631 3429 
Q 1922 3584 2338 3584 
Q 2397 3584 2469 3576 
Q 2541 3569 2628 3553 
L 2631 2963 
z
" id="DejaVuSans-72" transform="scale(0.015625)"/>
       <path id="DejaVuSans-20" transform="scale(0.015625)"/>
       <path d="M 1959 3097 
Q 1497 3097 1228 2736 
Q 959 2375 959 1747 
Q 959 1119 1226 758 
Q 1494 397 1959 397 
Q 2419 397 2687 759 
Q 2956 1122 2956 1747 
Q 2956 2369 2687 2733 
Q 2419 3097 1959 3097 
z
M 1959 3584 
Q 2709 3584 3137 3096 
Q 3566 2609 3566 1747 
Q 3566 888 3137 398 
Q 2709 -91 1959 -91 
Q 1206 -91 779 398 
Q 353 888 353 1747 
Q 353 2609 779 3096 
Q 1206 3584 1959 3584 
z
" id="DejaVuSans-6f" transform="scale(0.015625)"/>
       <path d="M 2375 4863 
L 2375 4384 
L 1825 4384 
Q 1516 4384 1395 4259 
Q 1275 4134 1275 3809 
L 1275 3500 
L 2222 3500 
L 2222 3053 
L 1275 3053 
L 1275 0 
L 697 0 
L 697 3053 
L 147 3053 
L 147 3500 
L 697 3500 
L 697 3744 
Q 697 4328 969 4595 
Q 1241 4863 1831 4863 
L 2375 4863 
z
" id="DejaVuSans-66" transform="scale(0.015625)"/>
       <path d="M 3513 2113 
L 3513 0 
L 2938 0 
L 2938 2094 
Q 2938 2591 2744 2837 
Q 2550 3084 2163 3084 
Q 1697 3084 1428 2787 
Q 1159 2491 1159 1978 
L 1159 0 
L 581 0 
L 581 3500 
L 1159 3500 
L 1159 2956 
Q 1366 3272 1645 3428 
Q 1925 3584 2291 3584 
Q 2894 3584 3203 3211 
Q 3513 2838 3513 2113 
z
" id="DejaVuSans-6e" transform="scale(0.015625)"/>
       <path d="M 2834 3397 
L 2834 2853 
Q 2591 2978 2328 3040 
Q 2066 3103 1784 3103 
Q 1356 3103 1142 2972 
Q 928 2841 928 2578 
Q 928 2378 1081 2264 
Q 1234 2150 1697 2047 
L 1894 2003 
Q 2506 1872 2764 1633 
Q 3022 1394 3022 966 
Q 3022 478 2636 193 
Q 2250 -91 1575 -91 
Q 1294 -91 989 -36 
Q 684 19 347 128 
L 347 722 
Q 666 556 975 473 
Q 1284 391 1588 391 
Q 1994 391 2212 530 
Q 2431 669 2431 922 
Q 2431 1156 2273 1281 
Q 2116 1406 1581 1522 
L 1381 1569 
Q 847 1681 609 1914 
Q 372 2147 372 2553 
Q 372 3047 722 3315 
Q 1072 3584 1716 3584 
Q 2034 3584 2315 3537 
Q 2597 3491 2834 3397 
z
" id="DejaVuSans-73" transform="scale(0.015625)"/>
      </defs>
      <use xlink:href="#DejaVuSans-4e"/>
      <use x="74.804688" xlink:href="#DejaVuSans-75"/>
      <use x="138.183594" xlink:href="#DejaVuSans-6d"/>
      <use x="235.595703" xlink:href="#DejaVuSans-62"/>
      <use x="299.072266" xlink:href="#DejaVuSans-65"/>
      <use x="360.595703" xlink:href="#DejaVuSans-72"/>
      <use x="401.708984" xlink:href="#DejaVuSans-20"/>
      <use x="433.496094" xlink:href="#DejaVuSans-6f"/>
      <use x="494.677734" xlink:href="#DejaVuSans-66"/>
      <use x="529.882812" xlink:href="#DejaVuSans-20"/>
      <use x="561.669922" xlink:href="#DejaVuSans-4e"/>
      <use x="636.474609" xlink:href="#DejaVuSans-65"/>
      <use x="697.998047" xlink:href="#DejaVuSans-75"/>
      <use x="761.376953" xlink:href="#DejaVuSans-72"/>
      <use x="800.240234" xlink:href="#DejaVuSans-6f"/>
      <use x="861.421875" xlink:href="#DejaVuSans-6e"/>
      <use x="924.800781" xlink:href="#DejaVuSans-73"/>
     </g>
    </g>
   </g>
   <g id="matplotlib.axis_2">
    <g id="ytick_1">
     <g id="line2d_31">
      <defs>
       <path d="M 0 0 
L -3.5 0 
" id="m7078b8401b" style="stroke:#000000;stroke-width:0.8;"/>
      </defs>
      <g>
       <use style="stroke:#000000;stroke-width:0.8;" x="172.8" xlink:href="#m7078b8401b" y="561.560157"/>
      </g>
     </g>
     <g id="text_6">
      <!-- $\mathdefault{10^{-1}}$ -->
      <g transform="translate(142.3 565.359375)scale(0.1 -0.1)">
       <defs>
        <path d="M 678 2272 
L 4684 2272 
L 4684 1741 
L 678 1741 
L 678 2272 
z
" id="DejaVuSans-2212" transform="scale(0.015625)"/>
       </defs>
       <use transform="translate(0 0.684375)" xlink:href="#DejaVuSans-31"/>
       <use transform="translate(63.623047 0.684375)" xlink:href="#DejaVuSans-30"/>
       <use transform="translate(128.203125 38.965625)scale(0.7)" xlink:href="#DejaVuSans-2212"/>
       <use transform="translate(186.855469 38.965625)scale(0.7)" xlink:href="#DejaVuSans-31"/>
      </g>
     </g>
    </g>
    <g id="ytick_2">
     <g id="line2d_32">
      <g>
       <use style="stroke:#000000;stroke-width:0.8;" x="172.8" xlink:href="#m7078b8401b" y="466.360415"/>
      </g>
     </g>
     <g id="text_7">
      <!-- $\mathdefault{10^{0}}$ -->
      <g transform="translate(148.2 470.159634)scale(0.1 -0.1)">
       <use transform="translate(0 0.765625)" xlink:href="#DejaVuSans-31"/>
       <use transform="translate(63.623047 0.765625)" xlink:href="#DejaVuSans-30"/>
       <use transform="translate(128.203125 39.046875)scale(0.7)" xlink:href="#DejaVuSans-30"/>
      </g>
     </g>
    </g>
    <g id="ytick_3">
     <g id="line2d_33">
      <g>
       <use style="stroke:#000000;stroke-width:0.8;" x="172.8" xlink:href="#m7078b8401b" y="371.160674"/>
      </g>
     </g>
     <g id="text_8">
      <!-- $\mathdefault{10^{1}}$ -->
      <g transform="translate(148.2 374.959892)scale(0.1 -0.1)">
       <use transform="translate(0 0.684375)" xlink:href="#DejaVuSans-31"/>
       <use transform="translate(63.623047 0.684375)" xlink:href="#DejaVuSans-30"/>
       <use transform="translate(128.203125 38.965625)scale(0.7)" xlink:href="#DejaVuSans-31"/>
      </g>
     </g>
    </g>
    <g id="ytick_4">
     <g id="line2d_34">
      <g>
       <use style="stroke:#000000;stroke-width:0.8;" x="172.8" xlink:href="#m7078b8401b" y="275.960932"/>
      </g>
     </g>
     <g id="text_9">
      <!-- $\mathdefault{10^{2}}$ -->
      <g transform="translate(148.2 279.760151)scale(0.1 -0.1)">
       <use transform="translate(0 0.765625)" xlink:href="#DejaVuSans-31"/>
       <use transform="translate(63.623047 0.765625)" xlink:href="#DejaVuSans-30"/>
       <use transform="translate(128.203125 39.046875)scale(0.7)" xlink:href="#DejaVuSans-32"/>
      </g>
     </g>
    </g>
    <g id="ytick_5">
     <g id="line2d_35">
      <g>
       <use style="stroke:#000000;stroke-width:0.8;" x="172.8" xlink:href="#m7078b8401b" y="180.761191"/>
      </g>
     </g>
     <g id="text_10">
      <!-- $\mathdefault{10^{3}}$ -->
      <g transform="translate(148.2 184.560409)scale(0.1 -0.1)">
       <use transform="translate(0 0.765625)" xlink:href="#DejaVuSans-31"/>
       <use transform="translate(63.623047 0.765625)" xlink:href="#DejaVuSans-30"/>
       <use transform="translate(128.203125 39.046875)scale(0.7)" xlink:href="#DejaVuSans-33"/>
      </g>
     </g>
    </g>
    <g id="ytick_6">
     <g id="line2d_36">
      <defs>
       <path d="M 0 0 
L -2 0 
" id="m276cf8b320" style="stroke:#000000;stroke-width:0.6;"/>
      </defs>
      <g>
       <use style="stroke:#000000;stroke-width:0.6;" x="172.8" xlink:href="#m276cf8b320" y="628.10192"/>
      </g>
     </g>
    </g>
    <g id="ytick_7">
     <g id="line2d_37">
      <g>
       <use style="stroke:#000000;stroke-width:0.6;" x="172.8" xlink:href="#m276cf8b320" y="611.338078"/>
      </g>
     </g>
    </g>
    <g id="ytick_8">
     <g id="line2d_38">
      <g>
       <use style="stroke:#000000;stroke-width:0.6;" x="172.8" xlink:href="#m276cf8b320" y="599.443943"/>
      </g>
     </g>
    </g>
    <g id="ytick_9">
     <g id="line2d_39">
      <g>
       <use style="stroke:#000000;stroke-width:0.6;" x="172.8" xlink:href="#m276cf8b320" y="590.218134"/>
      </g>
     </g>
    </g>
    <g id="ytick_10">
     <g id="line2d_40">
      <g>
       <use style="stroke:#000000;stroke-width:0.6;" x="172.8" xlink:href="#m276cf8b320" y="582.6801"/>
      </g>
     </g>
    </g>
    <g id="ytick_11">
     <g id="line2d_41">
      <g>
       <use style="stroke:#000000;stroke-width:0.6;" x="172.8" xlink:href="#m276cf8b320" y="576.306783"/>
      </g>
     </g>
    </g>
    <g id="ytick_12">
     <g id="line2d_42">
      <g>
       <use style="stroke:#000000;stroke-width:0.6;" x="172.8" xlink:href="#m276cf8b320" y="570.785965"/>
      </g>
     </g>
    </g>
    <g id="ytick_13">
     <g id="line2d_43">
      <g>
       <use style="stroke:#000000;stroke-width:0.6;" x="172.8" xlink:href="#m276cf8b320" y="565.916258"/>
      </g>
     </g>
    </g>
    <g id="ytick_14">
     <g id="line2d_44">
      <g>
       <use style="stroke:#000000;stroke-width:0.6;" x="172.8" xlink:href="#m276cf8b320" y="532.902179"/>
      </g>
     </g>
    </g>
    <g id="ytick_15">
     <g id="line2d_45">
      <g>
       <use style="stroke:#000000;stroke-width:0.6;" x="172.8" xlink:href="#m276cf8b320" y="516.138337"/>
      </g>
     </g>
    </g>
    <g id="ytick_16">
     <g id="line2d_46">
      <g>
       <use style="stroke:#000000;stroke-width:0.6;" x="172.8" xlink:href="#m276cf8b320" y="504.244201"/>
      </g>
     </g>
    </g>
    <g id="ytick_17">
     <g id="line2d_47">
      <g>
       <use style="stroke:#000000;stroke-width:0.6;" x="172.8" xlink:href="#m276cf8b320" y="495.018393"/>
      </g>
     </g>
    </g>
    <g id="ytick_18">
     <g id="line2d_48">
      <g>
       <use style="stroke:#000000;stroke-width:0.6;" x="172.8" xlink:href="#m276cf8b320" y="487.480359"/>
      </g>
     </g>
    </g>
    <g id="ytick_19">
     <g id="line2d_49">
      <g>
       <use style="stroke:#000000;stroke-width:0.6;" x="172.8" xlink:href="#m276cf8b320" y="481.107042"/>
      </g>
     </g>
    </g>
    <g id="ytick_20">
     <g id="line2d_50">
      <g>
       <use style="stroke:#000000;stroke-width:0.6;" x="172.8" xlink:href="#m276cf8b320" y="475.586223"/>
      </g>
     </g>
    </g>
    <g id="ytick_21">
     <g id="line2d_51">
      <g>
       <use style="stroke:#000000;stroke-width:0.6;" x="172.8" xlink:href="#m276cf8b320" y="470.716516"/>
      </g>
     </g>
    </g>
    <g id="ytick_22">
     <g id="line2d_52">
      <g>
       <use style="stroke:#000000;stroke-width:0.6;" x="172.8" xlink:href="#m276cf8b320" y="437.702437"/>
      </g>
     </g>
    </g>
    <g id="ytick_23">
     <g id="line2d_53">
      <g>
       <use style="stroke:#000000;stroke-width:0.6;" x="172.8" xlink:href="#m276cf8b320" y="420.938595"/>
      </g>
     </g>
    </g>
    <g id="ytick_24">
     <g id="line2d_54">
      <g>
       <use style="stroke:#000000;stroke-width:0.6;" x="172.8" xlink:href="#m276cf8b320" y="409.04446"/>
      </g>
     </g>
    </g>
    <g id="ytick_25">
     <g id="line2d_55">
      <g>
       <use style="stroke:#000000;stroke-width:0.6;" x="172.8" xlink:href="#m276cf8b320" y="399.818651"/>
      </g>
     </g>
    </g>
    <g id="ytick_26">
     <g id="line2d_56">
      <g>
       <use style="stroke:#000000;stroke-width:0.6;" x="172.8" xlink:href="#m276cf8b320" y="392.280617"/>
      </g>
     </g>
    </g>
    <g id="ytick_27">
     <g id="line2d_57">
      <g>
       <use style="stroke:#000000;stroke-width:0.6;" x="172.8" xlink:href="#m276cf8b320" y="385.9073"/>
      </g>
     </g>
    </g>
    <g id="ytick_28">
     <g id="line2d_58">
      <g>
       <use style="stroke:#000000;stroke-width:0.6;" x="172.8" xlink:href="#m276cf8b320" y="380.386482"/>
      </g>
     </g>
    </g>
    <g id="ytick_29">
     <g id="line2d_59">
      <g>
       <use style="stroke:#000000;stroke-width:0.6;" x="172.8" xlink:href="#m276cf8b320" y="375.516775"/>
      </g>
     </g>
    </g>
    <g id="ytick_30">
     <g id="line2d_60">
      <g>
       <use style="stroke:#000000;stroke-width:0.6;" x="172.8" xlink:href="#m276cf8b320" y="342.502696"/>
      </g>
     </g>
    </g>
    <g id="ytick_31">
     <g id="line2d_61">
      <g>
       <use style="stroke:#000000;stroke-width:0.6;" x="172.8" xlink:href="#m276cf8b320" y="325.738853"/>
      </g>
     </g>
    </g>
    <g id="ytick_32">
     <g id="line2d_62">
      <g>
       <use style="stroke:#000000;stroke-width:0.6;" x="172.8" xlink:href="#m276cf8b320" y="313.844718"/>
      </g>
     </g>
    </g>
    <g id="ytick_33">
     <g id="line2d_63">
      <g>
       <use style="stroke:#000000;stroke-width:0.6;" x="172.8" xlink:href="#m276cf8b320" y="304.61891"/>
      </g>
     </g>
    </g>
    <g id="ytick_34">
     <g id="line2d_64">
      <g>
       <use style="stroke:#000000;stroke-width:0.6;" x="172.8" xlink:href="#m276cf8b320" y="297.080876"/>
      </g>
     </g>
    </g>
    <g id="ytick_35">
     <g id="line2d_65">
      <g>
       <use style="stroke:#000000;stroke-width:0.6;" x="172.8" xlink:href="#m276cf8b320" y="290.707559"/>
      </g>
     </g>
    </g>
    <g id="ytick_36">
     <g id="line2d_66">
      <g>
       <use style="stroke:#000000;stroke-width:0.6;" x="172.8" xlink:href="#m276cf8b320" y="285.18674"/>
      </g>
     </g>
    </g>
    <g id="ytick_37">
     <g id="line2d_67">
      <g>
       <use style="stroke:#000000;stroke-width:0.6;" x="172.8" xlink:href="#m276cf8b320" y="280.317033"/>
      </g>
     </g>
    </g>
    <g id="ytick_38">
     <g id="line2d_68">
      <g>
       <use style="stroke:#000000;stroke-width:0.6;" x="172.8" xlink:href="#m276cf8b320" y="247.302954"/>
      </g>
     </g>
    </g>
    <g id="ytick_39">
     <g id="line2d_69">
      <g>
       <use style="stroke:#000000;stroke-width:0.6;" x="172.8" xlink:href="#m276cf8b320" y="230.539112"/>
      </g>
     </g>
    </g>
    <g id="ytick_40">
     <g id="line2d_70">
      <g>
       <use style="stroke:#000000;stroke-width:0.6;" x="172.8" xlink:href="#m276cf8b320" y="218.644977"/>
      </g>
     </g>
    </g>
    <g id="ytick_41">
     <g id="line2d_71">
      <g>
       <use style="stroke:#000000;stroke-width:0.6;" x="172.8" xlink:href="#m276cf8b320" y="209.419168"/>
      </g>
     </g>
    </g>
    <g id="ytick_42">
     <g id="line2d_72">
      <g>
       <use style="stroke:#000000;stroke-width:0.6;" x="172.8" xlink:href="#m276cf8b320" y="201.881134"/>
      </g>
     </g>
    </g>
    <g id="ytick_43">
     <g id="line2d_73">
      <g>
       <use style="stroke:#000000;stroke-width:0.6;" x="172.8" xlink:href="#m276cf8b320" y="195.507817"/>
      </g>
     </g>
    </g>
    <g id="ytick_44">
     <g id="line2d_74">
      <g>
       <use style="stroke:#000000;stroke-width:0.6;" x="172.8" xlink:href="#m276cf8b320" y="189.986999"/>
      </g>
     </g>
    </g>
    <g id="ytick_45">
     <g id="line2d_75">
      <g>
       <use style="stroke:#000000;stroke-width:0.6;" x="172.8" xlink:href="#m276cf8b320" y="185.117292"/>
      </g>
     </g>
    </g>
    <g id="ytick_46">
     <g id="line2d_76">
      <g>
       <use style="stroke:#000000;stroke-width:0.6;" x="172.8" xlink:href="#m276cf8b320" y="152.103213"/>
      </g>
     </g>
    </g>
    <g id="ytick_47">
     <g id="line2d_77">
      <g>
       <use style="stroke:#000000;stroke-width:0.6;" x="172.8" xlink:href="#m276cf8b320" y="135.33937"/>
      </g>
     </g>
    </g>
    <g id="ytick_48">
     <g id="line2d_78">
      <g>
       <use style="stroke:#000000;stroke-width:0.6;" x="172.8" xlink:href="#m276cf8b320" y="123.445235"/>
      </g>
     </g>
    </g>
    <g id="ytick_49">
     <g id="line2d_79">
      <g>
       <use style="stroke:#000000;stroke-width:0.6;" x="172.8" xlink:href="#m276cf8b320" y="114.219427"/>
      </g>
     </g>
    </g>
    <g id="ytick_50">
     <g id="line2d_80">
      <g>
       <use style="stroke:#000000;stroke-width:0.6;" x="172.8" xlink:href="#m276cf8b320" y="106.681393"/>
      </g>
     </g>
    </g>
    <g id="ytick_51">
     <g id="line2d_81">
      <g>
       <use style="stroke:#000000;stroke-width:0.6;" x="172.8" xlink:href="#m276cf8b320" y="100.308076"/>
      </g>
     </g>
    </g>
    <g id="ytick_52">
     <g id="line2d_82">
      <g>
       <use style="stroke:#000000;stroke-width:0.6;" x="172.8" xlink:href="#m276cf8b320" y="94.787257"/>
      </g>
     </g>
    </g>
    <g id="ytick_53">
     <g id="line2d_83">
      <g>
       <use style="stroke:#000000;stroke-width:0.6;" x="172.8" xlink:href="#m276cf8b320" y="89.91755"/>
      </g>
     </g>
    </g>
    <g id="text_11">
     <!-- Step Time (ms) -->
     <g transform="translate(136.220312 402.137037)rotate(-90)scale(0.1 -0.1)">
      <defs>
       <path d="M 3425 4513 
L 3425 3897 
Q 3066 4069 2747 4153 
Q 2428 4238 2131 4238 
Q 1616 4238 1336 4038 
Q 1056 3838 1056 3469 
Q 1056 3159 1242 3001 
Q 1428 2844 1947 2747 
L 2328 2669 
Q 3034 2534 3370 2195 
Q 3706 1856 3706 1288 
Q 3706 609 3251 259 
Q 2797 -91 1919 -91 
Q 1588 -91 1214 -16 
Q 841 59 441 206 
L 441 856 
Q 825 641 1194 531 
Q 1563 422 1919 422 
Q 2459 422 2753 634 
Q 3047 847 3047 1241 
Q 3047 1584 2836 1778 
Q 2625 1972 2144 2069 
L 1759 2144 
Q 1053 2284 737 2584 
Q 422 2884 422 3419 
Q 422 4038 858 4394 
Q 1294 4750 2059 4750 
Q 2388 4750 2728 4690 
Q 3069 4631 3425 4513 
z
" id="DejaVuSans-53" transform="scale(0.015625)"/>
       <path d="M 1172 4494 
L 1172 3500 
L 2356 3500 
L 2356 3053 
L 1172 3053 
L 1172 1153 
Q 1172 725 1289 603 
Q 1406 481 1766 481 
L 2356 481 
L 2356 0 
L 1766 0 
Q 1100 0 847 248 
Q 594 497 594 1153 
L 594 3053 
L 172 3053 
L 172 3500 
L 594 3500 
L 594 4494 
L 1172 4494 
z
" id="DejaVuSans-74" transform="scale(0.015625)"/>
       <path d="M 1159 525 
L 1159 -1331 
L 581 -1331 
L 581 3500 
L 1159 3500 
L 1159 2969 
Q 1341 3281 1617 3432 
Q 1894 3584 2278 3584 
Q 2916 3584 3314 3078 
Q 3713 2572 3713 1747 
Q 3713 922 3314 415 
Q 2916 -91 2278 -91 
Q 1894 -91 1617 61 
Q 1341 213 1159 525 
z
M 3116 1747 
Q 3116 2381 2855 2742 
Q 2594 3103 2138 3103 
Q 1681 3103 1420 2742 
Q 1159 2381 1159 1747 
Q 1159 1113 1420 752 
Q 1681 391 2138 391 
Q 2594 391 2855 752 
Q 3116 1113 3116 1747 
z
" id="DejaVuSans-70" transform="scale(0.015625)"/>
       <path d="M -19 4666 
L 3928 4666 
L 3928 4134 
L 2272 4134 
L 2272 0 
L 1638 0 
L 1638 4134 
L -19 4134 
L -19 4666 
z
" id="DejaVuSans-54" transform="scale(0.015625)"/>
       <path d="M 603 3500 
L 1178 3500 
L 1178 0 
L 603 0 
L 603 3500 
z
M 603 4863 
L 1178 4863 
L 1178 4134 
L 603 4134 
L 603 4863 
z
" id="DejaVuSans-69" transform="scale(0.015625)"/>
       <path d="M 1984 4856 
Q 1566 4138 1362 3434 
Q 1159 2731 1159 2009 
Q 1159 1288 1364 580 
Q 1569 -128 1984 -844 
L 1484 -844 
Q 1016 -109 783 600 
Q 550 1309 550 2009 
Q 550 2706 781 3412 
Q 1013 4119 1484 4856 
L 1984 4856 
z
" id="DejaVuSans-28" transform="scale(0.015625)"/>
       <path d="M 513 4856 
L 1013 4856 
Q 1481 4119 1714 3412 
Q 1947 2706 1947 2009 
Q 1947 1309 1714 600 
Q 1481 -109 1013 -844 
L 513 -844 
Q 928 -128 1133 580 
Q 1338 1288 1338 2009 
Q 1338 2731 1133 3434 
Q 928 4138 513 4856 
z
" id="DejaVuSans-29" transform="scale(0.015625)"/>
      </defs>
      <use xlink:href="#DejaVuSans-53"/>
      <use x="63.476562" xlink:href="#DejaVuSans-74"/>
      <use x="102.685547" xlink:href="#DejaVuSans-65"/>
      <use x="164.208984" xlink:href="#DejaVuSans-70"/>
      <use x="227.685547" xlink:href="#DejaVuSans-20"/>
      <use x="259.472656" xlink:href="#DejaVuSans-54"/>
      <use x="317.431641" xlink:href="#DejaVuSans-69"/>
      <use x="345.214844" xlink:href="#DejaVuSans-6d"/>
      <use x="442.626953" xlink:href="#DejaVuSans-65"/>
      <use x="504.150391" xlink:href="#DejaVuSans-20"/>
      <use x="535.9375" xlink:href="#DejaVuSans-28"/>
      <use x="574.951172" xlink:href="#DejaVuSans-6d"/>
      <use x="672.363281" xlink:href="#DejaVuSans-73"/>
      <use x="724.462891" xlink:href="#DejaVuSans-29"/>
     </g>
    </g>
   </g>
   <g id="line2d_84">
    <path clip-path="url(#pcc281f9b33)" d="M 221.498182 608.936055 
L 231.336198 608.338313 
L 241.174215 608.010201 
L 251.012231 605.168504 
L 260.850248 605.552371 
L 270.688264 605.768042 
L 280.526281 604.443826 
L 290.364298 605.356295 
L 300.202314 603.030154 
L 310.040331 603.68819 
L 319.878347 604.171341 
L 329.716364 603.61616 
L 339.55438 602.246389 
L 349.392397 600.447466 
L 359.230413 601.131787 
L 369.06843 600.526823 
L 378.906446 599.795408 
L 388.744463 599.362985 
L 398.582479 597.900653 
L 408.420496 596.975703 
L 418.258512 595.750175 
L 428.096529 594.788955 
L 437.934545 592.23261 
L 447.772562 591.966656 
L 457.610579 589.895719 
L 467.448595 588.290381 
L 477.286612 585.577154 
L 487.124628 583.055266 
L 496.962645 580.170172 
L 506.800661 579.142208 
L 516.638678 575.581247 
L 526.476694 572.477275 
L 536.314711 569.550665 
L 546.152727 565.992159 
L 555.990744 566.693415 
L 565.82876 562.310705 
L 575.666777 556.979485 
L 585.504793 552.632005 
L 595.34281 548.760571 
L 605.180826 546.204633 
L 615.018843 542.188509 
L 624.85686 536.644621 
L 634.694876 531.6803 
L 644.532893 527.02188 
L 654.370909 521.988433 
L 664.208926 518.999106 
L 674.046942 513.419653 
L 683.884959 509.396604 
L 693.722975 497.475331 
L 703.560992 495.507239 
L 713.399008 489.229189 
L 723.237025 482.923194 
L 733.075041 477.77994 
L 742.913058 471.059532 
L 752.751074 459.217645 
L 762.589091 441.111355 
L 772.427107 435.819869 
L 782.265124 435.0178 
L 792.10314 430.63148 
L 801.941157 410.329369 
L 811.779174 408.118375 
L 821.61719 397.035565 
L 831.455207 389.964676 
L 841.293223 381.505673 
L 851.13124 377.017286 
L 860.969256 368.13872 
L 870.807273 362.376257 
L 880.645289 355.616065 
L 890.483306 349.747824 
L 900.321322 343.399331 
L 910.159339 336.507192 
L 919.997355 333.774821 
L 929.835372 325.676156 
L 939.673388 320.639771 
L 949.511405 313.440718 
L 959.349421 308.952196 
L 969.187438 302.817184 
L 979.025455 295.454871 
L 988.863471 289.218142 
L 998.701488 281.997425 
L 1008.539504 271.899913 
L 1018.377521 274.258647 
L 1028.215537 262.753407 
L 1038.053554 257.782665 
L 1047.89157 252.814445 
L 1057.729587 248.303534 
L 1067.567603 243.057886 
L 1077.40562 237.943916 
L 1087.243636 232.498302 
L 1097.081653 227.66125 
L 1106.919669 221.858159 
L 1116.757686 216.450971 
L 1126.595702 211.588318 
L 1136.433719 206.148442 
L 1146.271736 200.682783 
L 1156.109752 194.310458 
L 1165.947769 188.93945 
L 1175.785785 183.922019 
L 1185.623802 177.992613 
L 1195.461818 172.449822 
" style="fill:none;stroke:#1f77b4;stroke-linecap:square;stroke-width:1.5;"/>
   </g>
   <g id="line2d_85">
    <path clip-path="url(#pcc281f9b33)" d="M 221.498182 570.939324 
L 231.336198 571.686727 
L 241.174215 570.960477 
L 251.012231 570.659531 
L 260.850248 570.74487 
L 270.688264 569.842295 
L 280.526281 570.745855 
L 290.364298 571.011241 
L 300.202314 570.967284 
L 310.040331 569.52293 
L 319.878347 571.096193 
L 329.716364 571.07497 
L 339.55438 570.197417 
L 349.392397 569.249442 
L 359.230413 570.316391 
L 369.06843 570.29873 
L 378.906446 570.751641 
L 388.744463 570.259537 
L 398.582479 569.475631 
L 408.420496 569.076589 
L 418.258512 569.307657 
L 428.096529 568.462377 
L 437.934545 568.139931 
L 447.772562 567.467449 
L 457.610579 567.037918 
L 467.448595 566.339032 
L 477.286612 565.728558 
L 487.124628 564.26688 
L 496.962645 564.040387 
L 506.800661 563.149698 
L 516.638678 561.468526 
L 526.476694 560.062997 
L 536.314711 559.359057 
L 546.152727 557.760375 
L 555.990744 558.666167 
L 565.82876 558.27611 
L 575.666777 552.512638 
L 585.504793 554.027255 
L 595.34281 551.127 
L 605.180826 549.358622 
L 615.018843 547.225603 
L 624.85686 541.008193 
L 634.694876 527.363771 
L 644.532893 526.131761 
L 654.370909 524.354568 
L 664.208926 522.325131 
L 674.046942 518.023232 
L 683.884959 515.660211 
L 693.722975 520.071179 
L 703.560992 513.243367 
L 713.399008 511.633735 
L 723.237025 507.219003 
L 733.075041 505.321087 
L 742.913058 497.383858 
L 752.751074 502.646369 
L 762.589091 493.295362 
L 772.427107 491.141156 
L 782.265124 487.41941 
L 792.10314 489.993102 
L 801.941157 512.500514 
L 811.779174 511.823844 
L 821.61719 498.330377 
L 831.455207 507.422885 
L 841.293223 496.460831 
L 851.13124 484.296433 
L 860.969256 466.995367 
L 870.807273 445.969331 
L 880.645289 426.766368 
L 890.483306 410.780844 
L 900.321322 398.636504 
L 910.159339 387.041471 
L 919.997355 379.484215 
L 929.835372 370.774905 
L 939.673388 364.178498 
L 949.511405 352.282055 
L 959.349421 337.752364 
L 969.187438 324.546083 
L 979.025455 311.791992 
L 988.863471 298.137731 
L 998.701488 295.598881 
L 1008.539504 279.115846 
L 1018.377521 271.797135 
L 1028.215537 268.375425 
L 1038.053554 263.066171 
L 1047.89157 257.472738 
L 1057.729587 251.646091 
L 1067.567603 245.788251 
L 1077.40562 240.400259 
L 1087.243636 234.621538 
L 1097.081653 229.308684 
L 1106.919669 223.551091 
L 1116.757686 217.9012 
L 1126.595702 212.546153 
L 1136.433719 206.971731 
L 1146.271736 200.967646 
L 1156.109752 195.133741 
L 1165.947769 189.655298 
L 1175.785785 184.090011 
L 1185.623802 178.781086 
L 1195.461818 173.228509 
" style="fill:none;stroke:#ff7f0e;stroke-linecap:square;stroke-width:1.5;"/>
   </g>
   <g id="line2d_86">
    <path clip-path="url(#pcc281f9b33)" d="M 221.498182 523.686071 
L 231.336198 522.112205 
L 241.174215 520.602062 
L 251.012231 522.306208 
L 260.850248 523.9408 
L 270.688264 521.540953 
L 280.526281 523.330762 
L 290.364298 524.075821 
L 300.202314 523.550585 
L 310.040331 523.472865 
L 319.878347 524.042353 
L 329.716364 524.134307 
L 339.55438 524.076299 
L 349.392397 523.471452 
L 359.230413 523.881993 
L 369.06843 524.005771 
L 378.906446 524.079006 
L 388.744463 524.08482 
L 398.582479 524.213162 
L 408.420496 524.077772 
L 418.258512 524.052657 
L 428.096529 524.24621 
L 437.934545 524.205693 
L 447.772562 523.860798 
L 457.610579 523.551136 
L 467.448595 523.694788 
L 477.286612 523.758228 
L 487.124628 523.276837 
L 496.962645 523.048945 
L 506.800661 522.933299 
L 516.638678 523.205944 
L 526.476694 523.107978 
L 536.314711 523.479771 
L 546.152727 523.479849 
L 555.990744 524.614027 
L 565.82876 524.192317 
L 575.666777 524.781266 
L 585.504793 524.135663 
L 595.34281 522.718689 
L 605.180826 524.998415 
L 615.018843 524.313625 
L 624.85686 524.958863 
L 634.694876 523.050343 
L 644.532893 522.736839 
L 654.370909 523.416129 
L 664.208926 524.632907 
L 674.046942 522.813882 
L 683.884959 523.218927 
L 693.722975 523.198304 
L 703.560992 522.775478 
L 713.399008 523.182482 
L 723.237025 522.801218 
L 733.075041 521.813397 
L 742.913058 524.120794 
L 752.751074 521.978781 
L 762.589091 522.71241 
L 772.427107 519.672709 
L 782.265124 514.682235 
L 792.10314 509.141005 
L 801.941157 504.51058 
L 811.779174 500.753586 
L 821.61719 495.231703 
L 831.455207 490.256214 
L 841.293223 485.93737 
L 851.13124 481.34904 
L 860.969256 476.595226 
L 870.807273 470.600107 
L 880.645289 466.075996 
L 890.483306 460.982178 
L 900.321322 455.787405 
L 910.159339 450.785843 
L 919.997355 445.096604 
L 929.835372 439.669224 
L 939.673388 433.760116 
L 949.511405 428.700781 
L 959.349421 423.462666 
L 969.187438 417.838169 
L 979.025455 411.924731 
L 988.863471 406.537601 
L 998.701488 400.652409 
L 1008.539504 395.41356 
L 1018.377521 389.703822 
L 1028.215537 383.915013 
L 1038.053554 378.30736 
L 1047.89157 371.96506 
L 1057.729587 366.91402 
L 1067.567603 361.206425 
L 1077.40562 355.472588 
L 1087.243636 349.703892 
L 1097.081653 344.112265 
L 1106.919669 338.236204 
L 1116.757686 332.580434 
L 1126.595702 326.770229 
L 1136.433719 321.561222 
L 1146.271736 316.131693 
" style="fill:none;stroke:#2ca02c;stroke-linecap:square;stroke-width:1.5;"/>
   </g>
   <g id="line2d_87">
    <path clip-path="url(#pcc281f9b33)" d="M 221.498182 514.991429 
L 231.336198 512.90786 
L 241.174215 514.622485 
L 251.012231 514.024062 
L 260.850248 514.629739 
L 270.688264 514.419693 
L 280.526281 515.439321 
L 290.364298 515.269992 
L 300.202314 517.041441 
L 310.040331 516.064348 
L 319.878347 516.86139 
L 329.716364 517.334553 
L 339.55438 515.619631 
L 349.392397 517.818258 
L 359.230413 515.138028 
L 369.06843 516.804785 
L 378.906446 516.857511 
L 388.744463 516.626923 
L 398.582479 515.983904 
L 408.420496 517.199113 
L 418.258512 517.838213 
L 428.096529 517.371436 
L 437.934545 517.875446 
L 447.772562 515.556924 
L 457.610579 517.079979 
L 467.448595 515.290718 
L 477.286612 516.889922 
L 487.124628 516.799643 
L 496.962645 516.167367 
L 506.800661 515.432602 
L 516.638678 514.938922 
L 526.476694 515.137611 
L 536.314711 515.129882 
L 546.152727 514.910046 
L 555.990744 516.84307 
L 565.82876 516.051755 
L 575.666777 515.824692 
L 585.504793 518.362368 
L 595.34281 517.632517 
L 605.180826 518.086835 
L 615.018843 516.691242 
L 624.85686 516.593157 
L 634.694876 516.29722 
L 644.532893 515.993857 
L 654.370909 515.486419 
L 664.208926 515.573515 
L 674.046942 516.060642 
L 683.884959 515.245996 
L 693.722975 515.902572 
L 703.560992 515.855226 
L 713.399008 516.754494 
L 723.237025 512.606025 
L 733.075041 515.290042 
L 742.913058 516.059789 
L 752.751074 516.87654 
L 762.589091 515.696832 
L 772.427107 513.960516 
L 782.265124 508.103462 
L 792.10314 501.787617 
L 801.941157 497.426905 
L 811.779174 493.569708 
L 821.61719 489.626742 
L 831.455207 485.697118 
L 841.293223 481.52605 
L 851.13124 476.860885 
L 860.969256 471.930741 
L 870.807273 466.470441 
L 880.645289 461.783564 
L 890.483306 456.864148 
L 900.321322 451.891281 
L 910.159339 447.054973 
L 919.997355 441.195691 
L 929.835372 436.557345 
L 939.673388 431.931666 
L 949.511405 424.489072 
L 959.349421 419.670065 
L 969.187438 414.403175 
L 979.025455 409.54953 
L 988.863471 404.100324 
L 998.701488 397.951178 
L 1008.539504 393.047405 
L 1018.377521 387.73493 
L 1028.215537 381.361224 
L 1038.053554 376.18323 
L 1047.89157 369.926209 
L 1057.729587 364.814563 
L 1067.567603 359.33993 
L 1077.40562 353.160433 
L 1087.243636 347.763755 
L 1097.081653 342.066769 
L 1106.919669 336.215202 
L 1116.757686 331.256975 
L 1126.595702 325.455731 
L 1136.433719 320.224694 
L 1146.271736 314.858119 
L 1156.109752 309.808875 
" style="fill:none;stroke:#d62728;stroke-linecap:square;stroke-width:1.5;"/>
   </g>
   <g id="line2d_88">
    <path clip-path="url(#pcc281f9b33)" d="M 221.498182 426.667062 
L 231.336198 426.120973 
L 241.174215 426.166248 
L 251.012231 426.847934 
L 260.850248 430.474342 
L 270.688264 426.922654 
L 280.526281 429.4552 
L 290.364298 429.539421 
L 300.202314 429.800693 
L 310.040331 429.567681 
L 319.878347 429.794627 
L 329.716364 430.150037 
L 339.55438 429.648537 
L 349.392397 429.94997 
L 359.230413 429.691503 
L 369.06843 429.600182 
L 378.906446 429.290316 
L 388.744463 428.832369 
L 398.582479 429.064986 
L 408.420496 428.659889 
L 418.258512 428.067151 
L 428.096529 427.813137 
L 437.934545 426.271485 
L 447.772562 427.008171 
L 457.610579 426.519044 
L 467.448595 426.290674 
L 477.286612 425.674969 
L 487.124628 425.045433 
L 496.962645 424.208651 
L 506.800661 423.648949 
L 516.638678 422.413849 
L 526.476694 422.253675 
L 536.314711 420.911243 
L 546.152727 419.468076 
L 555.990744 418.550901 
L 565.82876 417.638479 
L 575.666777 416.434671 
L 585.504793 411.494659 
L 595.34281 408.716213 
L 605.180826 406.071095 
L 615.018843 405.927329 
L 624.85686 401.276152 
L 634.694876 398.786692 
L 644.532893 392.904272 
L 654.370909 389.406398 
L 664.208926 384.276324 
L 674.046942 381.509361 
L 683.884959 379.266674 
L 693.722975 375.11169 
L 703.560992 370.959966 
L 713.399008 367.100063 
L 723.237025 362.404076 
L 733.075041 358.050538 
L 742.913058 352.774254 
L 752.751074 348.950196 
L 762.589091 343.192562 
L 772.427107 338.552383 
L 782.265124 334.373928 
L 792.10314 326.604308 
L 801.941157 323.746517 
L 811.779174 317.396452 
L 821.61719 311.981378 
L 831.455207 307.383862 
L 841.293223 299.205903 
L 851.13124 297.457926 
L 860.969256 292.438282 
L 870.807273 287.377041 
L 880.645289 280.954704 
L 890.483306 273.717462 
L 900.321322 271.923915 
L 910.159339 265.759011 
L 919.997355 261.947054 
L 929.835372 251.26638 
L 939.673388 248.886484 
L 949.511405 244.157909 
L 959.349421 236.160967 
L 969.187438 225.626347 
L 979.025455 217.243325 
L 988.863471 209.607795 
L 998.701488 205.13309 
L 1008.539504 198.210122 
L 1018.377521 192.479464 
L 1028.215537 187.389982 
L 1038.053554 181.324286 
L 1047.89157 174.622608 
L 1057.729587 170.055428 
L 1067.567603 164.199104 
L 1077.40562 158.441096 
L 1087.243636 151.487048 
L 1097.081653 146.691195 
L 1106.919669 140.984227 
L 1116.757686 135.537923 
L 1126.595702 129.594752 
L 1136.433719 122.302056 
L 1146.271736 117.631351 
L 1156.109752 112.199238 
" style="fill:none;stroke:#9467bd;stroke-linecap:square;stroke-width:1.5;"/>
   </g>
   <g id="patch_3">
    <path d="M 172.8 641.4408 
L 172.8 86.4864 
" style="fill:none;stroke:#000000;stroke-linecap:square;stroke-linejoin:miter;stroke-width:0.8;"/>
   </g>
   <g id="patch_4">
    <path d="M 1244.16 641.4408 
L 1244.16 86.4864 
" style="fill:none;stroke:#000000;stroke-linecap:square;stroke-linejoin:miter;stroke-width:0.8;"/>
   </g>
   <g id="patch_5">
    <path d="M 172.8 641.4408 
L 1244.16 641.4408 
" style="fill:none;stroke:#000000;stroke-linecap:square;stroke-linejoin:miter;stroke-width:0.8;"/>
   </g>
   <g id="patch_6">
    <path d="M 172.8 86.4864 
L 1244.16 86.4864 
" style="fill:none;stroke:#000000;stroke-linecap:square;stroke-linejoin:miter;stroke-width:0.8;"/>
   </g>
   <g id="text_12">
    <!-- Average Simulation Step Time as a Function of Network Size -->
    <g transform="translate(527.2275 80.4864)scale(0.12 -0.12)">
     <defs>
      <path d="M 2188 4044 
L 1331 1722 
L 3047 1722 
L 2188 4044 
z
M 1831 4666 
L 2547 4666 
L 4325 0 
L 3669 0 
L 3244 1197 
L 1141 1197 
L 716 0 
L 50 0 
L 1831 4666 
z
" id="DejaVuSans-41" transform="scale(0.015625)"/>
      <path d="M 191 3500 
L 800 3500 
L 1894 563 
L 2988 3500 
L 3597 3500 
L 2284 0 
L 1503 0 
L 191 3500 
z
" id="DejaVuSans-76" transform="scale(0.015625)"/>
      <path d="M 2194 1759 
Q 1497 1759 1228 1600 
Q 959 1441 959 1056 
Q 959 750 1161 570 
Q 1363 391 1709 391 
Q 2188 391 2477 730 
Q 2766 1069 2766 1631 
L 2766 1759 
L 2194 1759 
z
M 3341 1997 
L 3341 0 
L 2766 0 
L 2766 531 
Q 2569 213 2275 61 
Q 1981 -91 1556 -91 
Q 1019 -91 701 211 
Q 384 513 384 1019 
Q 384 1609 779 1909 
Q 1175 2209 1959 2209 
L 2766 2209 
L 2766 2266 
Q 2766 2663 2505 2880 
Q 2244 3097 1772 3097 
Q 1472 3097 1187 3025 
Q 903 2953 641 2809 
L 641 3341 
Q 956 3463 1253 3523 
Q 1550 3584 1831 3584 
Q 2591 3584 2966 3190 
Q 3341 2797 3341 1997 
z
" id="DejaVuSans-61" transform="scale(0.015625)"/>
      <path d="M 2906 1791 
Q 2906 2416 2648 2759 
Q 2391 3103 1925 3103 
Q 1463 3103 1205 2759 
Q 947 2416 947 1791 
Q 947 1169 1205 825 
Q 1463 481 1925 481 
Q 2391 481 2648 825 
Q 2906 1169 2906 1791 
z
M 3481 434 
Q 3481 -459 3084 -895 
Q 2688 -1331 1869 -1331 
Q 1566 -1331 1297 -1286 
Q 1028 -1241 775 -1147 
L 775 -588 
Q 1028 -725 1275 -790 
Q 1522 -856 1778 -856 
Q 2344 -856 2625 -561 
Q 2906 -266 2906 331 
L 2906 616 
Q 2728 306 2450 153 
Q 2172 0 1784 0 
Q 1141 0 747 490 
Q 353 981 353 1791 
Q 353 2603 747 3093 
Q 1141 3584 1784 3584 
Q 2172 3584 2450 3431 
Q 2728 3278 2906 2969 
L 2906 3500 
L 3481 3500 
L 3481 434 
z
" id="DejaVuSans-67" transform="scale(0.015625)"/>
      <path d="M 603 4863 
L 1178 4863 
L 1178 0 
L 603 0 
L 603 4863 
z
" id="DejaVuSans-6c" transform="scale(0.015625)"/>
      <path d="M 628 4666 
L 3309 4666 
L 3309 4134 
L 1259 4134 
L 1259 2759 
L 3109 2759 
L 3109 2228 
L 1259 2228 
L 1259 0 
L 628 0 
L 628 4666 
z
" id="DejaVuSans-46" transform="scale(0.015625)"/>
      <path d="M 3122 3366 
L 3122 2828 
Q 2878 2963 2633 3030 
Q 2388 3097 2138 3097 
Q 1578 3097 1268 2742 
Q 959 2388 959 1747 
Q 959 1106 1268 751 
Q 1578 397 2138 397 
Q 2388 397 2633 464 
Q 2878 531 3122 666 
L 3122 134 
Q 2881 22 2623 -34 
Q 2366 -91 2075 -91 
Q 1284 -91 818 406 
Q 353 903 353 1747 
Q 353 2603 823 3093 
Q 1294 3584 2113 3584 
Q 2378 3584 2631 3529 
Q 2884 3475 3122 3366 
z
" id="DejaVuSans-63" transform="scale(0.015625)"/>
      <path d="M 269 3500 
L 844 3500 
L 1563 769 
L 2278 3500 
L 2956 3500 
L 3675 769 
L 4391 3500 
L 4966 3500 
L 4050 0 
L 3372 0 
L 2619 2869 
L 1863 0 
L 1184 0 
L 269 3500 
z
" id="DejaVuSans-77" transform="scale(0.015625)"/>
      <path d="M 581 4863 
L 1159 4863 
L 1159 1991 
L 2875 3500 
L 3609 3500 
L 1753 1863 
L 3688 0 
L 2938 0 
L 1159 1709 
L 1159 0 
L 581 0 
L 581 4863 
z
" id="DejaVuSans-6b" transform="scale(0.015625)"/>
      <path d="M 353 3500 
L 3084 3500 
L 3084 2975 
L 922 459 
L 3084 459 
L 3084 0 
L 275 0 
L 275 525 
L 2438 3041 
L 353 3041 
L 353 3500 
z
" id="DejaVuSans-7a" transform="scale(0.015625)"/>
     </defs>
     <use xlink:href="#DejaVuSans-41"/>
     <use x="62.533203" xlink:href="#DejaVuSans-76"/>
     <use x="121.712891" xlink:href="#DejaVuSans-65"/>
     <use x="183.236328" xlink:href="#DejaVuSans-72"/>
     <use x="224.349609" xlink:href="#DejaVuSans-61"/>
     <use x="285.628906" xlink:href="#DejaVuSans-67"/>
     <use x="349.105469" xlink:href="#DejaVuSans-65"/>
     <use x="410.628906" xlink:href="#DejaVuSans-20"/>
     <use x="442.416016" xlink:href="#DejaVuSans-53"/>
     <use x="505.892578" xlink:href="#DejaVuSans-69"/>
     <use x="533.675781" xlink:href="#DejaVuSans-6d"/>
     <use x="631.087891" xlink:href="#DejaVuSans-75"/>
     <use x="694.466797" xlink:href="#DejaVuSans-6c"/>
     <use x="722.25" xlink:href="#DejaVuSans-61"/>
     <use x="783.529297" xlink:href="#DejaVuSans-74"/>
     <use x="822.738281" xlink:href="#DejaVuSans-69"/>
     <use x="850.521484" xlink:href="#DejaVuSans-6f"/>
     <use x="911.703125" xlink:href="#DejaVuSans-6e"/>
     <use x="975.082031" xlink:href="#DejaVuSans-20"/>
     <use x="1006.869141" xlink:href="#DejaVuSans-53"/>
     <use x="1070.345703" xlink:href="#DejaVuSans-74"/>
     <use x="1109.554688" xlink:href="#DejaVuSans-65"/>
     <use x="1171.078125" xlink:href="#DejaVuSans-70"/>
     <use x="1234.554688" xlink:href="#DejaVuSans-20"/>
     <use x="1266.341797" xlink:href="#DejaVuSans-54"/>
     <use x="1324.300781" xlink:href="#DejaVuSans-69"/>
     <use x="1352.083984" xlink:href="#DejaVuSans-6d"/>
     <use x="1449.496094" xlink:href="#DejaVuSans-65"/>
     <use x="1511.019531" xlink:href="#DejaVuSans-20"/>
     <use x="1542.806641" xlink:href="#DejaVuSans-61"/>
     <use x="1604.085938" xlink:href="#DejaVuSans-73"/>
     <use x="1656.185547" xlink:href="#DejaVuSans-20"/>
     <use x="1687.972656" xlink:href="#DejaVuSans-61"/>
     <use x="1749.251953" xlink:href="#DejaVuSans-20"/>
     <use x="1781.039062" xlink:href="#DejaVuSans-46"/>
     <use x="1833.058594" xlink:href="#DejaVuSans-75"/>
     <use x="1896.4375" xlink:href="#DejaVuSans-6e"/>
     <use x="1959.816406" xlink:href="#DejaVuSans-63"/>
     <use x="2014.796875" xlink:href="#DejaVuSans-74"/>
     <use x="2054.005859" xlink:href="#DejaVuSans-69"/>
     <use x="2081.789062" xlink:href="#DejaVuSans-6f"/>
     <use x="2142.970703" xlink:href="#DejaVuSans-6e"/>
     <use x="2206.349609" xlink:href="#DejaVuSans-20"/>
     <use x="2238.136719" xlink:href="#DejaVuSans-6f"/>
     <use x="2299.318359" xlink:href="#DejaVuSans-66"/>
     <use x="2334.523438" xlink:href="#DejaVuSans-20"/>
     <use x="2366.310547" xlink:href="#DejaVuSans-4e"/>
     <use x="2441.115234" xlink:href="#DejaVuSans-65"/>
     <use x="2502.638672" xlink:href="#DejaVuSans-74"/>
     <use x="2541.847656" xlink:href="#DejaVuSans-77"/>
     <use x="2623.634766" xlink:href="#DejaVuSans-6f"/>
     <use x="2684.816406" xlink:href="#DejaVuSans-72"/>
     <use x="2725.929688" xlink:href="#DejaVuSans-6b"/>
     <use x="2783.839844" xlink:href="#DejaVuSans-20"/>
     <use x="2815.626953" xlink:href="#DejaVuSans-53"/>
     <use x="2879.103516" xlink:href="#DejaVuSans-69"/>
     <use x="2906.886719" xlink:href="#DejaVuSans-7a"/>
     <use x="2959.376953" xlink:href="#DejaVuSans-65"/>
    </g>
   </g>
   <g id="legend_1">
    <g id="patch_7">
     <path d="M 179.8 167.877025 
L 305.704687 167.877025 
Q 307.704687 167.877025 307.704687 165.877025 
L 307.704687 93.4864 
Q 307.704687 91.4864 305.704687 91.4864 
L 179.8 91.4864 
Q 177.8 91.4864 177.8 93.4864 
L 177.8 165.877025 
Q 177.8 167.877025 179.8 167.877025 
z
" style="fill:#ffffff;opacity:0.8;stroke:#cccccc;stroke-linejoin:miter;"/>
    </g>
    <g id="line2d_89">
     <path d="M 181.8 99.584838 
L 201.8 99.584838 
" style="fill:none;stroke:#1f77b4;stroke-linecap:square;stroke-width:1.5;"/>
    </g>
    <g id="line2d_90"/>
    <g id="text_13">
     <!-- Numpy -->
     <g transform="translate(209.8 103.084838)scale(0.1 -0.1)">
      <defs>
       <path d="M 2059 -325 
Q 1816 -950 1584 -1140 
Q 1353 -1331 966 -1331 
L 506 -1331 
L 506 -850 
L 844 -850 
Q 1081 -850 1212 -737 
Q 1344 -625 1503 -206 
L 1606 56 
L 191 3500 
L 800 3500 
L 1894 763 
L 2988 3500 
L 3597 3500 
L 2059 -325 
z
" id="DejaVuSans-79" transform="scale(0.015625)"/>
      </defs>
      <use xlink:href="#DejaVuSans-4e"/>
      <use x="74.804688" xlink:href="#DejaVuSans-75"/>
      <use x="138.183594" xlink:href="#DejaVuSans-6d"/>
      <use x="235.595703" xlink:href="#DejaVuSans-70"/>
      <use x="299.072266" xlink:href="#DejaVuSans-79"/>
     </g>
    </g>
    <g id="line2d_91">
     <path d="M 181.8 114.262963 
L 201.8 114.262963 
" style="fill:none;stroke:#ff7f0e;stroke-linecap:square;stroke-width:1.5;"/>
    </g>
    <g id="line2d_92"/>
    <g id="text_14">
     <!-- Torch CPU -->
     <g transform="translate(209.8 117.762963)scale(0.1 -0.1)">
      <defs>
       <path d="M 3513 2113 
L 3513 0 
L 2938 0 
L 2938 2094 
Q 2938 2591 2744 2837 
Q 2550 3084 2163 3084 
Q 1697 3084 1428 2787 
Q 1159 2491 1159 1978 
L 1159 0 
L 581 0 
L 581 4863 
L 1159 4863 
L 1159 2956 
Q 1366 3272 1645 3428 
Q 1925 3584 2291 3584 
Q 2894 3584 3203 3211 
Q 3513 2838 3513 2113 
z
" id="DejaVuSans-68" transform="scale(0.015625)"/>
       <path d="M 4122 4306 
L 4122 3641 
Q 3803 3938 3442 4084 
Q 3081 4231 2675 4231 
Q 1875 4231 1450 3742 
Q 1025 3253 1025 2328 
Q 1025 1406 1450 917 
Q 1875 428 2675 428 
Q 3081 428 3442 575 
Q 3803 722 4122 1019 
L 4122 359 
Q 3791 134 3420 21 
Q 3050 -91 2638 -91 
Q 1578 -91 968 557 
Q 359 1206 359 2328 
Q 359 3453 968 4101 
Q 1578 4750 2638 4750 
Q 3056 4750 3426 4639 
Q 3797 4528 4122 4306 
z
" id="DejaVuSans-43" transform="scale(0.015625)"/>
       <path d="M 1259 4147 
L 1259 2394 
L 2053 2394 
Q 2494 2394 2734 2622 
Q 2975 2850 2975 3272 
Q 2975 3691 2734 3919 
Q 2494 4147 2053 4147 
L 1259 4147 
z
M 628 4666 
L 2053 4666 
Q 2838 4666 3239 4311 
Q 3641 3956 3641 3272 
Q 3641 2581 3239 2228 
Q 2838 1875 2053 1875 
L 1259 1875 
L 1259 0 
L 628 0 
L 628 4666 
z
" id="DejaVuSans-50" transform="scale(0.015625)"/>
       <path d="M 556 4666 
L 1191 4666 
L 1191 1831 
Q 1191 1081 1462 751 
Q 1734 422 2344 422 
Q 2950 422 3222 751 
Q 3494 1081 3494 1831 
L 3494 4666 
L 4128 4666 
L 4128 1753 
Q 4128 841 3676 375 
Q 3225 -91 2344 -91 
Q 1459 -91 1007 375 
Q 556 841 556 1753 
L 556 4666 
z
" id="DejaVuSans-55" transform="scale(0.015625)"/>
      </defs>
      <use xlink:href="#DejaVuSans-54"/>
      <use x="44.083984" xlink:href="#DejaVuSans-6f"/>
      <use x="105.265625" xlink:href="#DejaVuSans-72"/>
      <use x="144.128906" xlink:href="#DejaVuSans-63"/>
      <use x="199.109375" xlink:href="#DejaVuSans-68"/>
      <use x="262.488281" xlink:href="#DejaVuSans-20"/>
      <use x="294.275391" xlink:href="#DejaVuSans-43"/>
      <use x="364.099609" xlink:href="#DejaVuSans-50"/>
      <use x="424.402344" xlink:href="#DejaVuSans-55"/>
     </g>
    </g>
    <g id="line2d_93">
     <path d="M 181.8 128.941088 
L 201.8 128.941088 
" style="fill:none;stroke:#2ca02c;stroke-linecap:square;stroke-width:1.5;"/>
    </g>
    <g id="line2d_94"/>
    <g id="text_15">
     <!-- Torch GPU -->
     <g transform="translate(209.8 132.441088)scale(0.1 -0.1)">
      <defs>
       <path d="M 3809 666 
L 3809 1919 
L 2778 1919 
L 2778 2438 
L 4434 2438 
L 4434 434 
Q 4069 175 3628 42 
Q 3188 -91 2688 -91 
Q 1594 -91 976 548 
Q 359 1188 359 2328 
Q 359 3472 976 4111 
Q 1594 4750 2688 4750 
Q 3144 4750 3555 4637 
Q 3966 4525 4313 4306 
L 4313 3634 
Q 3963 3931 3569 4081 
Q 3175 4231 2741 4231 
Q 1884 4231 1454 3753 
Q 1025 3275 1025 2328 
Q 1025 1384 1454 906 
Q 1884 428 2741 428 
Q 3075 428 3337 486 
Q 3600 544 3809 666 
z
" id="DejaVuSans-47" transform="scale(0.015625)"/>
      </defs>
      <use xlink:href="#DejaVuSans-54"/>
      <use x="44.083984" xlink:href="#DejaVuSans-6f"/>
      <use x="105.265625" xlink:href="#DejaVuSans-72"/>
      <use x="144.128906" xlink:href="#DejaVuSans-63"/>
      <use x="199.109375" xlink:href="#DejaVuSans-68"/>
      <use x="262.488281" xlink:href="#DejaVuSans-20"/>
      <use x="294.275391" xlink:href="#DejaVuSans-47"/>
      <use x="371.765625" xlink:href="#DejaVuSans-50"/>
      <use x="432.068359" xlink:href="#DejaVuSans-55"/>
     </g>
    </g>
    <g id="line2d_95">
     <path d="M 181.8 143.619213 
L 201.8 143.619213 
" style="fill:none;stroke:#d62728;stroke-linecap:square;stroke-width:1.5;"/>
    </g>
    <g id="line2d_96"/>
    <g id="text_16">
     <!-- Torch GPU Transfer -->
     <g transform="translate(209.8 147.119213)scale(0.1 -0.1)">
      <use xlink:href="#DejaVuSans-54"/>
      <use x="44.083984" xlink:href="#DejaVuSans-6f"/>
      <use x="105.265625" xlink:href="#DejaVuSans-72"/>
      <use x="144.128906" xlink:href="#DejaVuSans-63"/>
      <use x="199.109375" xlink:href="#DejaVuSans-68"/>
      <use x="262.488281" xlink:href="#DejaVuSans-20"/>
      <use x="294.275391" xlink:href="#DejaVuSans-47"/>
      <use x="371.765625" xlink:href="#DejaVuSans-50"/>
      <use x="432.068359" xlink:href="#DejaVuSans-55"/>
      <use x="505.261719" xlink:href="#DejaVuSans-20"/>
      <use x="537.048828" xlink:href="#DejaVuSans-54"/>
      <use x="583.382812" xlink:href="#DejaVuSans-72"/>
      <use x="624.496094" xlink:href="#DejaVuSans-61"/>
      <use x="685.775391" xlink:href="#DejaVuSans-6e"/>
      <use x="749.154297" xlink:href="#DejaVuSans-73"/>
      <use x="801.253906" xlink:href="#DejaVuSans-66"/>
      <use x="836.458984" xlink:href="#DejaVuSans-65"/>
      <use x="897.982422" xlink:href="#DejaVuSans-72"/>
     </g>
    </g>
    <g id="line2d_97">
     <path d="M 181.8 158.297338 
L 201.8 158.297338 
" style="fill:none;stroke:#9467bd;stroke-linecap:square;stroke-width:1.5;"/>
    </g>
    <g id="line2d_98"/>
    <g id="text_17">
     <!-- Torch GPU Sparse -->
     <g transform="translate(209.8 161.797338)scale(0.1 -0.1)">
      <use xlink:href="#DejaVuSans-54"/>
      <use x="44.083984" xlink:href="#DejaVuSans-6f"/>
      <use x="105.265625" xlink:href="#DejaVuSans-72"/>
      <use x="144.128906" xlink:href="#DejaVuSans-63"/>
      <use x="199.109375" xlink:href="#DejaVuSans-68"/>
      <use x="262.488281" xlink:href="#DejaVuSans-20"/>
      <use x="294.275391" xlink:href="#DejaVuSans-47"/>
      <use x="371.765625" xlink:href="#DejaVuSans-50"/>
      <use x="432.068359" xlink:href="#DejaVuSans-55"/>
      <use x="505.261719" xlink:href="#DejaVuSans-20"/>
      <use x="537.048828" xlink:href="#DejaVuSans-53"/>
      <use x="600.525391" xlink:href="#DejaVuSans-70"/>
      <use x="664.001953" xlink:href="#DejaVuSans-61"/>
      <use x="725.28125" xlink:href="#DejaVuSans-72"/>
      <use x="766.394531" xlink:href="#DejaVuSans-73"/>
      <use x="818.494141" xlink:href="#DejaVuSans-65"/>
     </g>
    </g>
   </g>
  </g>
 </g>
 <defs>
  <clipPath id="pcc281f9b33">
   <rect height="554.9544" width="1071.36" x="172.8" y="86.4864"/>
  </clipPath>
 </defs>
</svg>
