<?xml version="1.0" encoding="UTF-8" standalone="no"?>
<!DOCTYPE svg PUBLIC "-//W3C//DTD SVG 1.1//EN"
 "http://www.w3.org/Graphics/SVG/1.1/DTD/svg11.dtd">
<!-- Generated by graphviz version 2.43.0 (0)
 -->
<!-- Title: %3 Pages: 1 -->
<svg width="836pt" height="260pt"
 viewBox="0.00 0.00 835.65 260.00" xmlns="http://www.w3.org/2000/svg" xmlns:xlink="http://www.w3.org/1999/xlink">
<g id="graph0" class="graph" transform="scale(1 1) rotate(0) translate(4 256)">
<title>%3</title>
<polygon fill="white" stroke="transparent" points="-4,4 -4,-256 831.65,-256 831.65,4 -4,4"/>
<!-- 0 -->
<g id="node1" class="node">
<title>0</title>
<ellipse fill="blue" stroke="black" cx="99.83" cy="-162" rx="27" ry="18"/>
<text text-anchor="middle" x="99.83" y="-158.3" font-family="Times,serif" font-size="14.00" fill="white">0</text>
</g>
<!-- 1 -->
<g id="node2" class="node">
<title>1</title>
<ellipse fill="orange" stroke="black" cx="53.83" cy="-90" rx="27" ry="18"/>
<text text-anchor="middle" x="53.83" y="-86.3" font-family="Times,serif" font-size="14.00">1</text>
</g>
<!-- 0&#45;&gt;1 -->
<g id="edge13" class="edge">
<title>0&#45;&gt;1</title>
<path fill="none" stroke="black" d="M89.39,-145.12C83.62,-136.34 76.34,-125.26 69.87,-115.42"/>
<polygon fill="none" stroke="black" points="67.15,-104.9 69.71,-115.18 61.3,-108.74 67.15,-104.9"/>
</g>
<!-- Out0 -->
<g id="node13" class="node">
<title>Out0</title>
<polygon fill="white" stroke="black" points="206.48,-95.56 152.83,-108 99.17,-95.56 99.22,-75.44 206.43,-75.44 206.48,-95.56"/>
<text text-anchor="middle" x="152.83" y="-86.3" font-family="Times,serif" font-size="14.00">Output</text>
</g>
<!-- 0&#45;&gt;Out0 -->
<g id="edge5" class="edge">
<title>0&#45;&gt;Out0</title>
<path fill="none" stroke="black" d="M111.59,-145.46C118.64,-136.15 127.73,-124.14 135.59,-113.77"/>
<polygon fill="black" stroke="black" points="138.57,-115.62 141.82,-105.54 132.99,-111.4 138.57,-115.62"/>
</g>
<!-- Out1 -->
<g id="node14" class="node">
<title>Out1</title>
<polygon fill="white" stroke="black" points="107.48,-23.56 53.83,-36 0.17,-23.56 0.22,-3.44 107.43,-3.44 107.48,-23.56"/>
<text text-anchor="middle" x="53.83" y="-14.3" font-family="Times,serif" font-size="14.00">Output</text>
</g>
<!-- 1&#45;&gt;Out1 -->
<g id="edge6" class="edge">
<title>1&#45;&gt;Out1</title>
<path fill="none" stroke="black" d="M53.83,-71.7C53.83,-63.98 53.83,-54.71 53.83,-46.11"/>
<polygon fill="black" stroke="black" points="57.33,-46.1 53.83,-36.1 50.33,-46.1 57.33,-46.1"/>
</g>
<!-- 2 -->
<g id="node3" class="node">
<title>2</title>
<ellipse fill="green" stroke="black" cx="297.83" cy="-162" rx="27" ry="18"/>
<text text-anchor="middle" x="297.83" y="-158.3" font-family="Times,serif" font-size="14.00">2</text>
</g>
<!-- 3 -->
<g id="node4" class="node">
<title>3</title>
<ellipse fill="red" stroke="black" cx="251.83" cy="-90" rx="27" ry="18"/>
<text text-anchor="middle" x="251.83" y="-86.3" font-family="Times,serif" font-size="14.00">3</text>
</g>
<!-- 2&#45;&gt;3 -->
<g id="edge14" class="edge">
<title>2&#45;&gt;3</title>
<path fill="none" stroke="black" d="M280.74,-135C276.85,-129.08 272.72,-122.8 268.84,-116.89"/>
<polygon fill="none" stroke="black" points="280.8,-135.09 287.44,-137.9 287.39,-145.12 280.75,-142.3 280.8,-135.09"/>
<polygon fill="none" stroke="black" points="268.81,-116.85 262.18,-114.03 262.22,-106.82 268.86,-109.64 268.81,-116.85"/>
</g>
<!-- Out2 -->
<g id="node15" class="node">
<title>Out2</title>
<polygon fill="white" stroke="black" points="404.48,-95.56 350.83,-108 297.17,-95.56 297.22,-75.44 404.43,-75.44 404.48,-95.56"/>
<text text-anchor="middle" x="350.83" y="-86.3" font-family="Times,serif" font-size="14.00">Output</text>
</g>
<!-- 2&#45;&gt;Out2 -->
<g id="edge7" class="edge">
<title>2&#45;&gt;Out2</title>
<path fill="none" stroke="black" d="M309.59,-145.46C316.64,-136.15 325.73,-124.14 333.59,-113.77"/>
<polygon fill="black" stroke="black" points="336.57,-115.62 339.82,-105.54 330.99,-111.4 336.57,-115.62"/>
</g>
<!-- Out3 -->
<g id="node16" class="node">
<title>Out3</title>
<polygon fill="white" stroke="black" points="305.48,-23.56 251.83,-36 198.17,-23.56 198.22,-3.44 305.43,-3.44 305.48,-23.56"/>
<text text-anchor="middle" x="251.83" y="-14.3" font-family="Times,serif" font-size="14.00">Output</text>
</g>
<!-- 3&#45;&gt;Out3 -->
<g id="edge8" class="edge">
<title>3&#45;&gt;Out3</title>
<path fill="none" stroke="black" d="M251.83,-71.7C251.83,-63.98 251.83,-54.71 251.83,-46.11"/>
<polygon fill="black" stroke="black" points="255.33,-46.1 251.83,-36.1 248.33,-46.1 255.33,-46.1"/>
</g>
<!-- 4 -->
<g id="node5" class="node">
<title>4</title>
<ellipse fill="purple" stroke="black" cx="498.83" cy="-162" rx="27" ry="18"/>
<text text-anchor="middle" x="498.83" y="-158.3" font-family="Times,serif" font-size="14.00" fill="white">4</text>
</g>
<!-- 5 -->
<g id="node6" class="node">
<title>5</title>
<ellipse fill="brown" stroke="black" cx="449.83" cy="-90" rx="27" ry="18"/>
<text text-anchor="middle" x="449.83" y="-86.3" font-family="Times,serif" font-size="14.00" fill="white">5</text>
</g>
<!-- 4&#45;&gt;5 -->
<g id="edge15" class="edge">
<title>4&#45;&gt;5</title>
<path fill="none" stroke="black" d="M487.95,-145.46C481.99,-136.95 474.45,-126.17 467.65,-116.46"/>
<polygon fill="none" stroke="black" points="467.55,-116.32 460.83,-113.7 460.67,-106.49 467.39,-109.11 467.55,-116.32"/>
</g>
<!-- Out4 -->
<g id="node17" class="node">
<title>Out4</title>
<polygon fill="white" stroke="black" points="602.48,-95.56 548.83,-108 495.17,-95.56 495.22,-75.44 602.43,-75.44 602.48,-95.56"/>
<text text-anchor="middle" x="548.83" y="-86.3" font-family="Times,serif" font-size="14.00">Output</text>
</g>
<!-- 4&#45;&gt;Out4 -->
<g id="edge9" class="edge">
<title>4&#45;&gt;Out4</title>
<path fill="none" stroke="black" d="M509.92,-145.46C516.49,-136.28 524.92,-124.46 532.26,-114.19"/>
<polygon fill="black" stroke="black" points="535.14,-116.18 538.1,-106.01 529.44,-112.11 535.14,-116.18"/>
</g>
<!-- Out5 -->
<g id="node18" class="node">
<title>Out5</title>
<polygon fill="white" stroke="black" points="503.48,-23.56 449.83,-36 396.17,-23.56 396.22,-3.44 503.43,-3.44 503.48,-23.56"/>
<text text-anchor="middle" x="449.83" y="-14.3" font-family="Times,serif" font-size="14.00">Output</text>
</g>
<!-- 5&#45;&gt;Out5 -->
<g id="edge10" class="edge">
<title>5&#45;&gt;Out5</title>
<path fill="none" stroke="black" d="M449.83,-71.7C449.83,-63.98 449.83,-54.71 449.83,-46.11"/>
<polygon fill="black" stroke="black" points="453.33,-46.1 449.83,-36.1 446.33,-46.1 453.33,-46.1"/>
</g>
<!-- 6 -->
<g id="node7" class="node">
<title>6</title>
<ellipse fill="pink" stroke="black" cx="768.83" cy="-234" rx="27" ry="18"/>
<text text-anchor="middle" x="768.83" y="-230.3" font-family="Times,serif" font-size="14.00">6</text>
</g>
<!-- 7 -->
<g id="node8" class="node">
<title>7</title>
<ellipse fill="grey" stroke="black" cx="674.83" cy="-162" rx="27" ry="18"/>
<text text-anchor="middle" x="674.83" y="-158.3" font-family="Times,serif" font-size="14.00">7</text>
</g>
<!-- 6&#45;&gt;7 -->
<g id="edge16" class="edge">
<title>6&#45;&gt;7</title>
<path fill="none" stroke="black" d="M751.15,-219.83C737.27,-209.5 717.72,-194.95 701.89,-183.15"/>
<polygon fill="none" stroke="black" points="701.73,-183.04 694.53,-182.66 692.11,-175.87 699.31,-176.25 701.73,-183.04"/>
</g>
<!-- Out6 -->
<g id="node19" class="node">
<title>Out6</title>
<polygon fill="white" stroke="black" points="827.48,-167.56 773.83,-180 720.17,-167.56 720.22,-147.44 827.43,-147.44 827.48,-167.56"/>
<text text-anchor="middle" x="773.83" y="-158.3" font-family="Times,serif" font-size="14.00">Output</text>
</g>
<!-- 6&#45;&gt;Out6 -->
<g id="edge11" class="edge">
<title>6&#45;&gt;Out6</title>
<path fill="none" stroke="black" d="M770.06,-215.7C770.61,-207.98 771.28,-198.71 771.89,-190.11"/>
<polygon fill="black" stroke="black" points="775.38,-190.33 772.6,-180.1 768.4,-189.83 775.38,-190.33"/>
</g>
<!-- Out7 -->
<g id="node20" class="node">
<title>Out7</title>
<polygon fill="white" stroke="black" points="728.48,-95.56 674.83,-108 621.17,-95.56 621.22,-75.44 728.43,-75.44 728.48,-95.56"/>
<text text-anchor="middle" x="674.83" y="-86.3" font-family="Times,serif" font-size="14.00">Output</text>
</g>
<!-- 7&#45;&gt;Out7 -->
<g id="edge12" class="edge">
<title>7&#45;&gt;Out7</title>
<path fill="none" stroke="black" d="M674.83,-143.7C674.83,-135.98 674.83,-126.71 674.83,-118.11"/>
<polygon fill="black" stroke="black" points="678.33,-118.1 674.83,-108.1 671.33,-118.1 678.33,-118.1"/>
</g>
<!-- In0 -->
<g id="node9" class="node">
<title>In0</title>
<polygon fill="white" stroke="black" points="55.45,-228.44 99.83,-216 144.2,-228.44 144.16,-248.56 55.5,-248.56 55.45,-228.44"/>
<text text-anchor="middle" x="99.83" y="-230.3" font-family="Times,serif" font-size="14.00">Input</text>
</g>
<!-- In0&#45;&gt;0 -->
<g id="edge1" class="edge">
<title>In0&#45;&gt;0</title>
<path fill="none" stroke="black" d="M99.83,-215.7C99.83,-207.98 99.83,-198.71 99.83,-190.11"/>
<polygon fill="black" stroke="black" points="103.33,-190.1 99.83,-180.1 96.33,-190.1 103.33,-190.1"/>
</g>
<!-- In1 -->
<g id="node10" class="node">
<title>In1</title>
<polygon fill="white" stroke="black" points="253.45,-228.44 297.83,-216 342.2,-228.44 342.16,-248.56 253.5,-248.56 253.45,-228.44"/>
<text text-anchor="middle" x="297.83" y="-230.3" font-family="Times,serif" font-size="14.00">Input</text>
</g>
<!-- In1&#45;&gt;2 -->
<g id="edge2" class="edge">
<title>In1&#45;&gt;2</title>
<path fill="none" stroke="black" d="M297.83,-215.7C297.83,-207.98 297.83,-198.71 297.83,-190.11"/>
<polygon fill="black" stroke="black" points="301.33,-190.1 297.83,-180.1 294.33,-190.1 301.33,-190.1"/>
</g>
<!-- In2 -->
<g id="node11" class="node">
<title>In2</title>
<polygon fill="white" stroke="black" points="454.45,-228.44 498.83,-216 543.2,-228.44 543.16,-248.56 454.5,-248.56 454.45,-228.44"/>
<text text-anchor="middle" x="498.83" y="-230.3" font-family="Times,serif" font-size="14.00">Input</text>
</g>
<!-- In2&#45;&gt;4 -->
<g id="edge3" class="edge">
<title>In2&#45;&gt;4</title>
<path fill="none" stroke="black" d="M498.83,-215.7C498.83,-207.98 498.83,-198.71 498.83,-190.11"/>
<polygon fill="black" stroke="black" points="502.33,-190.1 498.83,-180.1 495.33,-190.1 502.33,-190.1"/>
</g>
<!-- In3 -->
<g id="node12" class="node">
<title>In3</title>
<polygon fill="white" stroke="black" points="630.45,-228.44 674.83,-216 719.2,-228.44 719.16,-248.56 630.5,-248.56 630.45,-228.44"/>
<text text-anchor="middle" x="674.83" y="-230.3" font-family="Times,serif" font-size="14.00">Input</text>
</g>
<!-- In3&#45;&gt;7 -->
<g id="edge4" class="edge">
<title>In3&#45;&gt;7</title>
<path fill="none" stroke="black" d="M674.83,-215.7C674.83,-207.98 674.83,-198.71 674.83,-190.11"/>
<polygon fill="black" stroke="black" points="678.33,-190.1 674.83,-180.1 671.33,-190.1 678.33,-190.1"/>
</g>
</g>
</svg>
