<?xml version="1.0" encoding="UTF-8" standalone="no"?>
<!DOCTYPE svg PUBLIC "-//W3C//DTD SVG 1.1//EN"
 "http://www.w3.org/Graphics/SVG/1.1/DTD/svg11.dtd">
<!-- Generated by graphviz version 2.43.0 (0)
 -->
<!-- Title: %3 Pages: 1 -->
<svg width="692pt" height="198pt"
 viewBox="0.00 0.00 691.85 198.00" xmlns="http://www.w3.org/2000/svg" xmlns:xlink="http://www.w3.org/1999/xlink">
<g id="graph0" class="graph" transform="scale(1 1) rotate(0) translate(4 194)">
<title>%3</title>
<polygon fill="white" stroke="transparent" points="-4,4 -4,-194 687.85,-194 687.85,4 -4,4"/>
<!-- 0 -->
<g id="node1" class="node">
<title>0</title>
<ellipse fill="aqua" stroke="black" cx="96.76" cy="-100" rx="33.29" ry="18"/>
<text text-anchor="middle" x="96.76" y="-96.3" font-family="Times,serif" font-size="14.00">m=0</text>
</g>
<!-- Out0 -->
<g id="node7" class="node">
<title>Out0</title>
<polygon fill="grey" stroke="black" points="75.28,-28.56 37.76,-41 0.24,-28.56 0.27,-8.44 75.24,-8.44 75.28,-28.56"/>
<text text-anchor="middle" x="37.76" y="-19.3" font-family="Times,serif" font-size="14.00">O0V</text>
</g>
<!-- 0&#45;&gt;Out0 -->
<g id="edge4" class="edge">
<title>0&#45;&gt;Out0</title>
<path fill="none" stroke="black" d="M84.25,-83.09C75.75,-72.3 64.41,-57.88 55.06,-45.99"/>
<polygon fill="black" stroke="black" points="57.6,-43.56 48.67,-37.87 52.1,-47.89 57.6,-43.56"/>
</g>
<!-- Out1 -->
<g id="node8" class="node">
<title>Out1</title>
<polygon fill="grey" stroke="black" points="154.76,-46 93.57,-11.5 215.95,-11.5 154.76,-46"/>
<text text-anchor="middle" x="154.76" y="-19.3" font-family="Times,serif" font-size="14.00">O1S</text>
</g>
<!-- 0&#45;&gt;Out1 -->
<g id="edge5" class="edge">
<title>0&#45;&gt;Out1</title>
<path fill="none" stroke="black" d="M109.06,-83.09C117.09,-72.71 127.7,-58.99 136.68,-47.37"/>
<polygon fill="black" stroke="black" points="139.52,-49.42 142.87,-39.37 133.99,-45.14 139.52,-49.42"/>
</g>
<!-- 1 -->
<g id="node2" class="node">
<title>1</title>
<ellipse fill="darkorange" stroke="black" cx="330.76" cy="-100" rx="33.29" ry="18"/>
<text text-anchor="middle" x="330.76" y="-96.3" font-family="Times,serif" font-size="14.00">m&lt;0</text>
</g>
<!-- Out2 -->
<g id="node9" class="node">
<title>Out2</title>
<polygon fill="grey" stroke="black" points="309.28,-28.56 271.76,-41 234.24,-28.56 234.27,-8.44 309.24,-8.44 309.28,-28.56"/>
<text text-anchor="middle" x="271.76" y="-19.3" font-family="Times,serif" font-size="14.00">O2V</text>
</g>
<!-- 1&#45;&gt;Out2 -->
<g id="edge6" class="edge">
<title>1&#45;&gt;Out2</title>
<path fill="none" stroke="black" d="M318.25,-83.09C309.75,-72.3 298.41,-57.88 289.06,-45.99"/>
<polygon fill="black" stroke="black" points="291.6,-43.56 282.67,-37.87 286.1,-47.89 291.6,-43.56"/>
</g>
<!-- Out3 -->
<g id="node10" class="node">
<title>Out3</title>
<polygon fill="grey" stroke="black" points="388.76,-46 327.57,-11.5 449.95,-11.5 388.76,-46"/>
<text text-anchor="middle" x="388.76" y="-19.3" font-family="Times,serif" font-size="14.00">O3S</text>
</g>
<!-- 1&#45;&gt;Out3 -->
<g id="edge7" class="edge">
<title>1&#45;&gt;Out3</title>
<path fill="none" stroke="black" d="M343.06,-83.09C351.09,-72.71 361.7,-58.99 370.68,-47.37"/>
<polygon fill="black" stroke="black" points="373.52,-49.42 376.87,-39.37 367.99,-45.14 373.52,-49.42"/>
</g>
<!-- 2 -->
<g id="node3" class="node">
<title>2</title>
<ellipse fill="forestgreen" stroke="black" cx="563.76" cy="-100" rx="33.29" ry="18"/>
<text text-anchor="middle" x="563.76" y="-96.3" font-family="Times,serif" font-size="14.00">m&gt;0</text>
</g>
<!-- Out4 -->
<g id="node11" class="node">
<title>Out4</title>
<polygon fill="grey" stroke="black" points="543.28,-28.56 505.76,-41 468.24,-28.56 468.27,-8.44 543.24,-8.44 543.28,-28.56"/>
<text text-anchor="middle" x="505.76" y="-19.3" font-family="Times,serif" font-size="14.00">O4V</text>
</g>
<!-- 2&#45;&gt;Out4 -->
<g id="edge8" class="edge">
<title>2&#45;&gt;Out4</title>
<path fill="none" stroke="black" d="M551.46,-83.09C543.11,-72.3 531.96,-57.88 522.76,-45.99"/>
<polygon fill="black" stroke="black" points="525.37,-43.63 516.48,-37.87 519.83,-47.92 525.37,-43.63"/>
</g>
<!-- Out5 -->
<g id="node12" class="node">
<title>Out5</title>
<polygon fill="grey" stroke="black" points="622.76,-46 561.57,-11.5 683.95,-11.5 622.76,-46"/>
<text text-anchor="middle" x="622.76" y="-19.3" font-family="Times,serif" font-size="14.00">O5S</text>
</g>
<!-- 2&#45;&gt;Out5 -->
<g id="edge9" class="edge">
<title>2&#45;&gt;Out5</title>
<path fill="none" stroke="black" d="M576.27,-83.09C584.44,-72.71 595.24,-58.99 604.37,-47.37"/>
<polygon fill="black" stroke="black" points="607.24,-49.39 610.67,-39.37 601.73,-45.07 607.24,-49.39"/>
</g>
<!-- In0 -->
<g id="node4" class="node">
<title>In0</title>
<polygon fill="black" stroke="black" points="69.76,-166.44 96.76,-154 123.76,-166.44 123.73,-186.56 69.78,-186.56 69.76,-166.44"/>
<text text-anchor="middle" x="96.76" y="-168.3" font-family="Times,serif" font-size="14.00" fill="white">I0</text>
</g>
<!-- In0&#45;&gt;0 -->
<g id="edge1" class="edge">
<title>In0&#45;&gt;0</title>
<path fill="none" stroke="black" d="M96.76,-153.7C96.76,-145.98 96.76,-136.71 96.76,-128.11"/>
<polygon fill="black" stroke="black" points="100.26,-128.1 96.76,-118.1 93.26,-128.1 100.26,-128.1"/>
</g>
<!-- In1 -->
<g id="node5" class="node">
<title>In1</title>
<polygon fill="black" stroke="black" points="303.76,-166.44 330.76,-154 357.76,-166.44 357.73,-186.56 303.78,-186.56 303.76,-166.44"/>
<text text-anchor="middle" x="330.76" y="-168.3" font-family="Times,serif" font-size="14.00" fill="white">I1</text>
</g>
<!-- In1&#45;&gt;1 -->
<g id="edge2" class="edge">
<title>In1&#45;&gt;1</title>
<path fill="none" stroke="black" d="M330.76,-153.7C330.76,-145.98 330.76,-136.71 330.76,-128.11"/>
<polygon fill="black" stroke="black" points="334.26,-128.1 330.76,-118.1 327.26,-128.1 334.26,-128.1"/>
</g>
<!-- In2 -->
<g id="node6" class="node">
<title>In2</title>
<polygon fill="black" stroke="black" points="536.76,-166.44 563.76,-154 590.76,-166.44 590.73,-186.56 536.78,-186.56 536.76,-166.44"/>
<text text-anchor="middle" x="563.76" y="-168.3" font-family="Times,serif" font-size="14.00" fill="white">I2</text>
</g>
<!-- In2&#45;&gt;2 -->
<g id="edge3" class="edge">
<title>In2&#45;&gt;2</title>
<path fill="none" stroke="black" d="M563.76,-153.7C563.76,-145.98 563.76,-136.71 563.76,-128.11"/>
<polygon fill="black" stroke="black" points="567.26,-128.1 563.76,-118.1 560.26,-128.1 567.26,-128.1"/>
</g>
</g>
</svg>
