<?xml version="1.0" encoding="UTF-8" standalone="no"?>
<!DOCTYPE svg PUBLIC "-//W3C//DTD SVG 1.1//EN"
 "http://www.w3.org/Graphics/SVG/1.1/DTD/svg11.dtd">
<!-- Generated by graphviz version 2.43.0 (0)
 -->
<!-- Title: %3 Pages: 1 -->
<svg width="1313pt" height="188pt"
 viewBox="0.00 0.00 1312.54 188.00" xmlns="http://www.w3.org/2000/svg" xmlns:xlink="http://www.w3.org/1999/xlink">
<g id="graph0" class="graph" transform="scale(1 1) rotate(0) translate(4 184)">
<title>%3</title>
<polygon fill="white" stroke="transparent" points="-4,4 -4,-184 1308.54,-184 1308.54,4 -4,4"/>
<!-- 0 -->
<g id="node1" class="node">
<title>0</title>
<ellipse fill="blue" stroke="black" cx="227.05" cy="-90" rx="50.09" ry="18"/>
<text text-anchor="middle" x="227.05" y="-86.3" font-family="Times,serif" font-size="14.00" fill="white">AddSum</text>
</g>
<!-- 1 -->
<g id="node2" class="node">
<title>1</title>
<ellipse fill="blue" stroke="black" cx="50.05" cy="-162" rx="50.09" ry="18"/>
<text text-anchor="middle" x="50.05" y="-158.3" font-family="Times,serif" font-size="14.00" fill="white">AddSrc0</text>
</g>
<!-- 1&#45;&gt;0 -->
<g id="edge1" class="edge">
<title>1&#45;&gt;0</title>
<path fill="none" stroke="black" d="M82.51,-148.16C111.36,-136.75 153.71,-120 185.12,-107.58"/>
<polygon fill="none" stroke="black" points="195.77,-107.13 185.19,-107.55 193.2,-100.62 195.77,-107.13"/>
</g>
<!-- 2 -->
<g id="node3" class="node">
<title>2</title>
<ellipse fill="blue" stroke="black" cx="168.05" cy="-162" rx="50.09" ry="18"/>
<text text-anchor="middle" x="168.05" y="-158.3" font-family="Times,serif" font-size="14.00" fill="white">AddSrc1</text>
</g>
<!-- 2&#45;&gt;0 -->
<g id="edge2" class="edge">
<title>2&#45;&gt;0</title>
<path fill="none" stroke="black" d="M182.03,-144.41C189.74,-135.26 199.44,-123.76 207.85,-113.77"/>
<ellipse fill="black" stroke="black" cx="210.59" cy="-110.53" rx="4" ry="4"/>
</g>
<!-- 3 -->
<g id="node4" class="node">
<title>3</title>
<ellipse fill="blue" stroke="black" cx="286.05" cy="-162" rx="50.09" ry="18"/>
<text text-anchor="middle" x="286.05" y="-158.3" font-family="Times,serif" font-size="14.00" fill="white">AddSrc2</text>
</g>
<!-- 3&#45;&gt;0 -->
<g id="edge3" class="edge">
<title>3&#45;&gt;0</title>
<path fill="none" stroke="black" d="M272.06,-144.41C264.35,-135.26 254.65,-123.76 246.24,-113.77"/>
<ellipse fill="black" stroke="black" cx="243.51" cy="-110.53" rx="4" ry="4"/>
</g>
<!-- 4 -->
<g id="node5" class="node">
<title>4</title>
<ellipse fill="blue" stroke="black" cx="404.05" cy="-162" rx="50.09" ry="18"/>
<text text-anchor="middle" x="404.05" y="-158.3" font-family="Times,serif" font-size="14.00" fill="white">AddSrc3</text>
</g>
<!-- 4&#45;&gt;0 -->
<g id="edge4" class="edge">
<title>4&#45;&gt;0</title>
<path fill="none" stroke="black" d="M371.58,-148.16C342.73,-136.75 300.38,-120 268.97,-107.58"/>
<polygon fill="none" stroke="black" points="260.89,-100.62 268.9,-107.55 258.32,-107.13 260.89,-100.62"/>
</g>
<!-- 5 -->
<g id="node6" class="node">
<title>5</title>
<ellipse fill="orange" stroke="black" cx="555.05" cy="-162" rx="82.59" ry="18"/>
<text text-anchor="middle" x="555.05" y="-158.3" font-family="Times,serif" font-size="14.00">DivideTransmit</text>
</g>
<!-- 7 -->
<g id="node8" class="node">
<title>7</title>
<ellipse fill="orange" stroke="black" cx="578.05" cy="-90" rx="75.29" ry="18"/>
<text text-anchor="middle" x="578.05" y="-86.3" font-family="Times,serif" font-size="14.00">DivideResults</text>
</g>
<!-- 5&#45;&gt;7 -->
<g id="edge5" class="edge">
<title>5&#45;&gt;7</title>
<path fill="none" stroke="black" d="M560.73,-143.7C563.29,-135.9 566.38,-126.51 569.23,-117.83"/>
<polygon fill="none" stroke="black" points="575.75,-109.2 569.3,-117.6 569.1,-107.01 575.75,-109.2"/>
</g>
<!-- 6 -->
<g id="node7" class="node">
<title>6</title>
<ellipse fill="orange" stroke="black" cx="740.05" cy="-162" rx="84.49" ry="18"/>
<text text-anchor="middle" x="740.05" y="-158.3" font-family="Times,serif" font-size="14.00">DivideModulate</text>
</g>
<!-- 6&#45;&gt;7 -->
<g id="edge6" class="edge">
<title>6&#45;&gt;7</title>
<path fill="none" stroke="black" d="M704.49,-145.64C679.74,-134.94 646.62,-120.63 620.48,-109.34"/>
<ellipse fill="none" stroke="black" cx="616.63" cy="-107.67" rx="4" ry="4"/>
</g>
<!-- 8 -->
<g id="node9" class="node">
<title>8</title>
<ellipse fill="green" stroke="black" cx="751.05" cy="-90" rx="55.79" ry="18"/>
<text text-anchor="middle" x="751.05" y="-86.3" font-family="Times,serif" font-size="14.00">Multiply0</text>
</g>
<!-- 11 -->
<g id="node12" class="node">
<title>11</title>
<ellipse fill="green" stroke="black" cx="879.05" cy="-18" rx="79.09" ry="18"/>
<text text-anchor="middle" x="879.05" y="-14.3" font-family="Times,serif" font-size="14.00">MultiplyResult</text>
</g>
<!-- 8&#45;&gt;11 -->
<g id="edge7" class="edge">
<title>8&#45;&gt;11</title>
<path fill="none" stroke="black" d="M778.19,-74.15C796.52,-64.13 820.96,-50.76 841.2,-39.7"/>
<polygon fill="none" stroke="black" points="851.84,-37.87 841.39,-39.59 848.48,-31.73 851.84,-37.87"/>
</g>
<!-- 9 -->
<g id="node10" class="node">
<title>9</title>
<ellipse fill="green" stroke="black" cx="898.05" cy="-162" rx="55.79" ry="18"/>
<text text-anchor="middle" x="898.05" y="-158.3" font-family="Times,serif" font-size="14.00">Multiply1</text>
</g>
<!-- 10 -->
<g id="node11" class="node">
<title>10</title>
<ellipse fill="green" stroke="black" cx="898.05" cy="-90" rx="72.59" ry="18"/>
<text text-anchor="middle" x="898.05" y="-86.3" font-family="Times,serif" font-size="14.00">MultiplyInter</text>
</g>
<!-- 9&#45;&gt;10 -->
<g id="edge8" class="edge">
<title>9&#45;&gt;10</title>
<path fill="none" stroke="black" d="M898.05,-143.7C898.05,-135.39 898.05,-125.28 898.05,-116.14"/>
<ellipse fill="black" stroke="black" cx="898.05" cy="-112.1" rx="4" ry="4"/>
</g>
<!-- 10&#45;&gt;11 -->
<g id="edge9" class="edge">
<title>10&#45;&gt;11</title>
<path fill="none" stroke="black" d="M893.35,-71.7C891.07,-63.3 888.29,-53.07 885.79,-43.86"/>
<ellipse fill="black" stroke="black" cx="884.74" cy="-39.96" rx="4" ry="4"/>
</g>
<!-- 12 -->
<g id="node13" class="node">
<title>12</title>
<ellipse fill="red" stroke="black" cx="1109.05" cy="-162" rx="27.1" ry="18"/>
<text text-anchor="middle" x="1109.05" y="-158.3" font-family="Times,serif" font-size="14.00">Uin</text>
</g>
<!-- 13 -->
<g id="node14" class="node">
<title>13</title>
<ellipse fill="red" stroke="black" cx="1062.05" cy="-90" rx="36.29" ry="18"/>
<text text-anchor="middle" x="1062.05" y="-86.3" font-family="Times,serif" font-size="14.00">Ufast</text>
</g>
<!-- 12&#45;&gt;13 -->
<g id="edge10" class="edge">
<title>12&#45;&gt;13</title>
<path fill="none" stroke="black" d="M1098.38,-145.12C1092.57,-136.47 1085.26,-125.58 1078.72,-115.83"/>
<polygon fill="none" stroke="black" points="1075.9,-105.36 1078.57,-115.61 1070.09,-109.26 1075.9,-105.36"/>
</g>
<!-- 14 -->
<g id="node15" class="node">
<title>14</title>
<ellipse fill="red" stroke="black" cx="1156.05" cy="-90" rx="39.79" ry="18"/>
<text text-anchor="middle" x="1156.05" y="-86.3" font-family="Times,serif" font-size="14.00">Uslow</text>
</g>
<!-- 12&#45;&gt;14 -->
<g id="edge11" class="edge">
<title>12&#45;&gt;14</title>
<path fill="none" stroke="black" d="M1119.71,-145.12C1125.52,-136.47 1132.83,-125.58 1139.37,-115.83"/>
<polygon fill="none" stroke="black" points="1148,-109.26 1139.52,-115.61 1142.19,-105.36 1148,-109.26"/>
</g>
<!-- 15 -->
<g id="node16" class="node">
<title>15</title>
<ellipse fill="red" stroke="black" cx="1081.05" cy="-18" rx="33.6" ry="18"/>
<text text-anchor="middle" x="1081.05" y="-14.3" font-family="Times,serif" font-size="14.00">Uout</text>
</g>
<!-- 13&#45;&gt;15 -->
<g id="edge12" class="edge">
<title>13&#45;&gt;15</title>
<path fill="none" stroke="black" d="M1066.64,-72.05C1068.76,-64.26 1071.32,-54.82 1073.7,-46.08"/>
<polygon fill="none" stroke="black" points="1079.73,-37.19 1073.74,-45.93 1072.98,-35.36 1079.73,-37.19"/>
</g>
<!-- 14&#45;&gt;15 -->
<g id="edge13" class="edge">
<title>14&#45;&gt;15</title>
<path fill="none" stroke="black" d="M1139.4,-73.46C1128.77,-63.54 1114.86,-50.56 1103.28,-39.75"/>
<ellipse fill="black" stroke="black" cx="1100.05" cy="-36.74" rx="4" ry="4"/>
</g>
<!-- 16 -->
<g id="node17" class="node">
<title>16</title>
<ellipse fill="purple" stroke="black" cx="1259.05" cy="-162" rx="31.4" ry="18"/>
<text text-anchor="middle" x="1259.05" y="-158.3" font-family="Times,serif" font-size="14.00" fill="white">Uint</text>
</g>
<!-- 17 -->
<g id="node18" class="node">
<title>17</title>
<ellipse fill="purple" stroke="black" cx="1259.05" cy="-90" rx="45.49" ry="18"/>
<text text-anchor="middle" x="1259.05" y="-86.3" font-family="Times,serif" font-size="14.00" fill="white">Neuron</text>
</g>
<!-- 16&#45;&gt;17 -->
<g id="edge14" class="edge">
<title>16&#45;&gt;17</title>
<path fill="none" stroke="black" d="M1253.17,-144.05C1252.29,-135.75 1252.07,-125.58 1252.53,-116.38"/>
<ellipse fill="black" stroke="black" cx="1252.83" cy="-112.26" rx="4" ry="4"/>
</g>
<!-- 17&#45;&gt;16 -->
<g id="edge15" class="edge">
<title>17&#45;&gt;16</title>
<path fill="none" stroke="black" d="M1264.96,-108.28C1265.82,-116.63 1266.02,-126.81 1265.55,-135.99"/>
<ellipse fill="black" stroke="black" cx="1265.23" cy="-140.07" rx="4" ry="4"/>
</g>
</g>
</svg>
