<?xml version="1.0" encoding="UTF-8" standalone="no"?>
<!DOCTYPE svg PUBLIC "-//W3C//DTD SVG 1.1//EN"
 "http://www.w3.org/Graphics/SVG/1.1/DTD/svg11.dtd">
<!-- Generated by graphviz version 2.43.0 (0)
 -->
<!-- Title: %3 Pages: 1 -->
<svg width="462pt" height="116pt"
 viewBox="0.00 0.00 462.09 116.00" xmlns="http://www.w3.org/2000/svg" xmlns:xlink="http://www.w3.org/1999/xlink">
<g id="graph0" class="graph" transform="scale(1 1) rotate(0) translate(4 112)">
<title>%3</title>
<polygon fill="white" stroke="transparent" points="-4,4 -4,-112 458.09,-112 458.09,4 -4,4"/>
<!-- 0 -->
<g id="node1" class="node">
<title>0</title>
<ellipse fill="blue" stroke="black" cx="227.05" cy="-18" rx="50.09" ry="18"/>
<text text-anchor="middle" x="227.05" y="-14.3" font-family="Times,serif" font-size="14.00" fill="white">AddSum</text>
</g>
<!-- 1 -->
<g id="node2" class="node">
<title>1</title>
<ellipse fill="blue" stroke="black" cx="50.05" cy="-90" rx="50.09" ry="18"/>
<text text-anchor="middle" x="50.05" y="-86.3" font-family="Times,serif" font-size="14.00" fill="white">AddSrc0</text>
</g>
<!-- 1&#45;&gt;0 -->
<g id="edge1" class="edge">
<title>1&#45;&gt;0</title>
<path fill="none" stroke="black" d="M82.51,-76.16C111.36,-64.75 153.71,-48 185.12,-35.58"/>
<polygon fill="none" stroke="black" points="195.77,-35.13 185.19,-35.55 193.2,-28.62 195.77,-35.13"/>
</g>
<!-- 2 -->
<g id="node3" class="node">
<title>2</title>
<ellipse fill="blue" stroke="black" cx="168.05" cy="-90" rx="50.09" ry="18"/>
<text text-anchor="middle" x="168.05" y="-86.3" font-family="Times,serif" font-size="14.00" fill="white">AddSrc1</text>
</g>
<!-- 2&#45;&gt;0 -->
<g id="edge2" class="edge">
<title>2&#45;&gt;0</title>
<path fill="none" stroke="black" d="M182.03,-72.41C189.74,-63.26 199.44,-51.76 207.85,-41.77"/>
<ellipse fill="black" stroke="black" cx="210.59" cy="-38.53" rx="4" ry="4"/>
</g>
<!-- 3 -->
<g id="node4" class="node">
<title>3</title>
<ellipse fill="blue" stroke="black" cx="286.05" cy="-90" rx="50.09" ry="18"/>
<text text-anchor="middle" x="286.05" y="-86.3" font-family="Times,serif" font-size="14.00" fill="white">AddSrc2</text>
</g>
<!-- 3&#45;&gt;0 -->
<g id="edge3" class="edge">
<title>3&#45;&gt;0</title>
<path fill="none" stroke="black" d="M272.06,-72.41C264.35,-63.26 254.65,-51.76 246.24,-41.77"/>
<ellipse fill="black" stroke="black" cx="243.51" cy="-38.53" rx="4" ry="4"/>
</g>
<!-- 4 -->
<g id="node5" class="node">
<title>4</title>
<ellipse fill="blue" stroke="black" cx="404.05" cy="-90" rx="50.09" ry="18"/>
<text text-anchor="middle" x="404.05" y="-86.3" font-family="Times,serif" font-size="14.00" fill="white">AddSrc3</text>
</g>
<!-- 4&#45;&gt;0 -->
<g id="edge4" class="edge">
<title>4&#45;&gt;0</title>
<path fill="none" stroke="black" d="M371.58,-76.16C342.73,-64.75 300.38,-48 268.97,-35.58"/>
<polygon fill="none" stroke="black" points="260.89,-28.62 268.9,-35.55 258.32,-35.13 260.89,-28.62"/>
</g>
</g>
</svg>
