<?xml version="1.0" encoding="UTF-8" standalone="no"?>
<!DOCTYPE svg PUBLIC "-//W3C//DTD SVG 1.1//EN"
 "http://www.w3.org/Graphics/SVG/1.1/DTD/svg11.dtd">
<!-- Generated by graphviz version 2.43.0 (0)
 -->
<!-- Title: %3 Pages: 1 -->
<svg width="189pt" height="188pt"
 viewBox="0.00 0.00 188.79 188.00" xmlns="http://www.w3.org/2000/svg" xmlns:xlink="http://www.w3.org/1999/xlink">
<g id="graph0" class="graph" transform="scale(1 1) rotate(0) translate(4 184)">
<title>%3</title>
<polygon fill="white" stroke="transparent" points="-4,4 -4,-184 184.79,-184 184.79,4 -4,4"/>
<!-- 0 -->
<g id="node1" class="node">
<title>0</title>
<ellipse fill="black" stroke="black" cx="85.35" cy="-162" rx="61.19" ry="18"/>
<text text-anchor="middle" x="85.35" y="-158.3" font-family="Times,serif" font-size="14.00" fill="white">SourceNrn</text>
</g>
<!-- 1 -->
<g id="node2" class="node">
<title>1</title>
<ellipse fill="blue" stroke="black" cx="38.35" cy="-90" rx="38.19" ry="18"/>
<text text-anchor="middle" x="38.35" y="-86.3" font-family="Times,serif" font-size="14.00" fill="white">Dest1</text>
</g>
<!-- 0&#45;&gt;1 -->
<g id="edge1" class="edge">
<title>0&#45;&gt;1</title>
<path fill="none" stroke="black" d="M73.97,-144.05C68.29,-135.59 61.3,-125.19 55.03,-115.84"/>
<polygon fill="none" stroke="black" points="52.2,-105.36 54.87,-115.61 46.39,-109.26 52.2,-105.36"/>
</g>
<!-- 2 -->
<g id="node3" class="node">
<title>2</title>
<ellipse fill="orange" stroke="black" cx="133.35" cy="-90" rx="38.19" ry="18"/>
<text text-anchor="middle" x="133.35" y="-86.3" font-family="Times,serif" font-size="14.00">Dest2</text>
</g>
<!-- 0&#45;&gt;2 -->
<g id="edge2" class="edge">
<title>0&#45;&gt;2</title>
<path fill="none" stroke="black" d="M96.97,-144.05C102.83,-135.5 110.05,-124.97 116.51,-115.56"/>
<polygon fill="none" stroke="black" points="125.05,-109.29 116.51,-115.55 119.28,-105.33 125.05,-109.29"/>
</g>
<!-- 3 -->
<g id="node4" class="node">
<title>3</title>
<ellipse fill="green" stroke="black" cx="133.35" cy="-18" rx="47.39" ry="18"/>
<text text-anchor="middle" x="133.35" y="-14.3" font-family="Times,serif" font-size="14.00">Dest2In</text>
</g>
<!-- 2&#45;&gt;3 -->
<g id="edge3" class="edge">
<title>2&#45;&gt;3</title>
<path fill="none" stroke="black" d="M127.47,-72.05C126.65,-64.35 126.41,-55.03 126.74,-46.36"/>
<polygon fill="none" stroke="black" points="130.93,-36.51 126.75,-46.25 123.94,-36.04 130.93,-36.51"/>
</g>
<!-- 3&#45;&gt;2 -->
<g id="edge4" class="edge">
<title>3&#45;&gt;2</title>
<path fill="none" stroke="black" d="M139.26,-36.28C140.12,-44.63 140.32,-54.81 139.85,-63.99"/>
<ellipse fill="black" stroke="black" cx="139.53" cy="-68.07" rx="4" ry="4"/>
</g>
</g>
</svg>
