<?xml version="1.0" encoding="UTF-8" standalone="no"?>
<!DOCTYPE svg PUBLIC "-//W3C//DTD SVG 1.1//EN"
 "http://www.w3.org/Graphics/SVG/1.1/DTD/svg11.dtd">
<!-- Generated by graphviz version 2.43.0 (0)
 -->
<!-- Title: %3 Pages: 1 -->
<svg width="226pt" height="188pt"
 viewBox="0.00 0.00 225.79 188.00" xmlns="http://www.w3.org/2000/svg" xmlns:xlink="http://www.w3.org/1999/xlink">
<g id="graph0" class="graph" transform="scale(1 1) rotate(0) translate(4 184)">
<title>%3</title>
<polygon fill="white" stroke="transparent" points="-4,4 -4,-184 221.79,-184 221.79,4 -4,4"/>
<!-- 0 -->
<g id="node1" class="node">
<title>0</title>
<ellipse fill="black" stroke="black" cx="104.35" cy="-162" rx="61.19" ry="18"/>
<text text-anchor="middle" x="104.35" y="-158.3" font-family="Times,serif" font-size="14.00" fill="white">SourceNrn</text>
</g>
<!-- 1 -->
<g id="node2" class="node">
<title>1</title>
<ellipse fill="blue" stroke="black" cx="38.35" cy="-90" rx="38.19" ry="18"/>
<text text-anchor="middle" x="38.35" y="-86.3" font-family="Times,serif" font-size="14.00" fill="white">Dest1</text>
</g>
<!-- 0&#45;&gt;1 -->
<g id="edge1" class="edge">
<title>0&#45;&gt;1</title>
<path fill="none" stroke="black" d="M88.71,-144.41C80.28,-135.48 69.75,-124.31 60.5,-114.5"/>
<polygon fill="none" stroke="black" points="55.97,-104.59 60.28,-114.26 50.87,-109.39 55.97,-104.59"/>
</g>
<!-- 2 -->
<g id="node3" class="node">
<title>2</title>
<ellipse fill="orange" stroke="black" cx="170.35" cy="-90" rx="38.19" ry="18"/>
<text text-anchor="middle" x="170.35" y="-86.3" font-family="Times,serif" font-size="14.00">Dest2</text>
</g>
<!-- 0&#45;&gt;2 -->
<g id="edge2" class="edge">
<title>0&#45;&gt;2</title>
<path fill="none" stroke="black" d="M119.99,-144.41C128.41,-135.48 138.94,-124.31 148.19,-114.5"/>
<polygon fill="none" stroke="black" points="157.82,-109.39 148.41,-114.26 152.73,-104.59 157.82,-109.39"/>
</g>
<!-- 4 -->
<g id="node5" class="node">
<title>4</title>
<ellipse fill="red" stroke="black" cx="52.35" cy="-18" rx="38.19" ry="18"/>
<text text-anchor="middle" x="52.35" y="-14.3" font-family="Times,serif" font-size="14.00">Dest3</text>
</g>
<!-- 0&#45;&gt;4 -->
<g id="edge5" class="edge">
<title>0&#45;&gt;4</title>
<path fill="none" stroke="black" d="M102.46,-143.75C100.05,-125.43 94.99,-95.88 85.35,-72 81.43,-62.3 75.78,-52.39 70.26,-43.79"/>
<polygon fill="none" stroke="black" points="67.54,-33.44 70.19,-43.69 61.72,-37.33 67.54,-33.44"/>
</g>
<!-- 1&#45;&gt;4 -->
<g id="edge6" class="edge">
<title>1&#45;&gt;4</title>
<path fill="none" stroke="black" d="M41.74,-72.05C43.4,-63.75 45.43,-53.58 47.27,-44.38"/>
<ellipse fill="none" stroke="black" cx="48.11" cy="-40.2" rx="4" ry="4"/>
</g>
<!-- 3 -->
<g id="node4" class="node">
<title>3</title>
<ellipse fill="green" stroke="black" cx="170.35" cy="-18" rx="47.39" ry="18"/>
<text text-anchor="middle" x="170.35" y="-14.3" font-family="Times,serif" font-size="14.00">Dest2In</text>
</g>
<!-- 2&#45;&gt;3 -->
<g id="edge3" class="edge">
<title>2&#45;&gt;3</title>
<path fill="none" stroke="black" d="M164.47,-72.05C163.65,-64.35 163.41,-55.03 163.74,-46.36"/>
<polygon fill="none" stroke="black" points="167.93,-36.51 163.75,-46.25 160.94,-36.04 167.93,-36.51"/>
</g>
<!-- 3&#45;&gt;2 -->
<g id="edge4" class="edge">
<title>3&#45;&gt;2</title>
<path fill="none" stroke="black" d="M176.26,-36.28C177.12,-44.63 177.32,-54.81 176.85,-63.99"/>
<ellipse fill="black" stroke="black" cx="176.53" cy="-68.07" rx="4" ry="4"/>
</g>
</g>
</svg>
