<?xml version="1.0" encoding="UTF-8" standalone="no"?>
<!DOCTYPE svg PUBLIC "-//W3C//DTD SVG 1.1//EN"
 "http://www.w3.org/Graphics/SVG/1.1/DTD/svg11.dtd">
<!-- Generated by graphviz version 2.43.0 (0)
 -->
<!-- Title: %3 Pages: 1 -->
<svg width="979pt" height="188pt"
 viewBox="0.00 0.00 978.84 188.00" xmlns="http://www.w3.org/2000/svg" xmlns:xlink="http://www.w3.org/1999/xlink">
<g id="graph0" class="graph" transform="scale(1 1) rotate(0) translate(4 184)">
<title>%3</title>
<polygon fill="white" stroke="transparent" points="-4,4 -4,-184 974.84,-184 974.84,4 -4,4"/>
<!-- 0 -->
<g id="node1" class="node">
<title>0</title>
<ellipse fill="blue" stroke="black" cx="227.05" cy="-90" rx="50.09" ry="18"/>
<text text-anchor="middle" x="227.05" y="-86.3" font-family="Times,serif" font-size="14.00" fill="white">AddSum</text>
</g>
<!-- 1 -->
<g id="node2" class="node">
<title>1</title>
<ellipse fill="blue" stroke="black" cx="50.05" cy="-162" rx="50.09" ry="18"/>
<text text-anchor="middle" x="50.05" y="-158.3" font-family="Times,serif" font-size="14.00" fill="white">AddSrc0</text>
</g>
<!-- 1&#45;&gt;0 -->
<g id="edge1" class="edge">
<title>1&#45;&gt;0</title>
<path fill="none" stroke="black" d="M82.51,-148.16C111.36,-136.75 153.71,-120 185.12,-107.58"/>
<polygon fill="none" stroke="black" points="195.77,-107.13 185.19,-107.55 193.2,-100.62 195.77,-107.13"/>
</g>
<!-- 2 -->
<g id="node3" class="node">
<title>2</title>
<ellipse fill="blue" stroke="black" cx="168.05" cy="-162" rx="50.09" ry="18"/>
<text text-anchor="middle" x="168.05" y="-158.3" font-family="Times,serif" font-size="14.00" fill="white">AddSrc1</text>
</g>
<!-- 2&#45;&gt;0 -->
<g id="edge2" class="edge">
<title>2&#45;&gt;0</title>
<path fill="none" stroke="black" d="M182.03,-144.41C189.74,-135.26 199.44,-123.76 207.85,-113.77"/>
<ellipse fill="black" stroke="black" cx="210.59" cy="-110.53" rx="4" ry="4"/>
</g>
<!-- 3 -->
<g id="node4" class="node">
<title>3</title>
<ellipse fill="blue" stroke="black" cx="286.05" cy="-162" rx="50.09" ry="18"/>
<text text-anchor="middle" x="286.05" y="-158.3" font-family="Times,serif" font-size="14.00" fill="white">AddSrc2</text>
</g>
<!-- 3&#45;&gt;0 -->
<g id="edge3" class="edge">
<title>3&#45;&gt;0</title>
<path fill="none" stroke="black" d="M272.06,-144.41C264.35,-135.26 254.65,-123.76 246.24,-113.77"/>
<ellipse fill="black" stroke="black" cx="243.51" cy="-110.53" rx="4" ry="4"/>
</g>
<!-- 4 -->
<g id="node5" class="node">
<title>4</title>
<ellipse fill="blue" stroke="black" cx="404.05" cy="-162" rx="50.09" ry="18"/>
<text text-anchor="middle" x="404.05" y="-158.3" font-family="Times,serif" font-size="14.00" fill="white">AddSrc3</text>
</g>
<!-- 4&#45;&gt;0 -->
<g id="edge4" class="edge">
<title>4&#45;&gt;0</title>
<path fill="none" stroke="black" d="M371.58,-148.16C342.73,-136.75 300.38,-120 268.97,-107.58"/>
<polygon fill="none" stroke="black" points="260.89,-100.62 268.9,-107.55 258.32,-107.13 260.89,-100.62"/>
</g>
<!-- 5 -->
<g id="node6" class="node">
<title>5</title>
<ellipse fill="orange" stroke="black" cx="555.05" cy="-162" rx="82.59" ry="18"/>
<text text-anchor="middle" x="555.05" y="-158.3" font-family="Times,serif" font-size="14.00">DivideTransmit</text>
</g>
<!-- 7 -->
<g id="node8" class="node">
<title>7</title>
<ellipse fill="orange" stroke="black" cx="578.05" cy="-90" rx="75.29" ry="18"/>
<text text-anchor="middle" x="578.05" y="-86.3" font-family="Times,serif" font-size="14.00">DivideResults</text>
</g>
<!-- 5&#45;&gt;7 -->
<g id="edge5" class="edge">
<title>5&#45;&gt;7</title>
<path fill="none" stroke="black" d="M560.73,-143.7C563.29,-135.9 566.38,-126.51 569.23,-117.83"/>
<polygon fill="none" stroke="black" points="575.75,-109.2 569.3,-117.6 569.1,-107.01 575.75,-109.2"/>
</g>
<!-- 6 -->
<g id="node7" class="node">
<title>6</title>
<ellipse fill="orange" stroke="black" cx="740.05" cy="-162" rx="84.49" ry="18"/>
<text text-anchor="middle" x="740.05" y="-158.3" font-family="Times,serif" font-size="14.00">DivideModulate</text>
</g>
<!-- 6&#45;&gt;7 -->
<g id="edge6" class="edge">
<title>6&#45;&gt;7</title>
<path fill="none" stroke="black" d="M704.49,-145.64C679.74,-134.94 646.62,-120.63 620.48,-109.34"/>
<ellipse fill="none" stroke="black" cx="616.63" cy="-107.67" rx="4" ry="4"/>
</g>
<!-- 8 -->
<g id="node9" class="node">
<title>8</title>
<ellipse fill="green" stroke="black" cx="751.05" cy="-90" rx="55.79" ry="18"/>
<text text-anchor="middle" x="751.05" y="-86.3" font-family="Times,serif" font-size="14.00">Multiply0</text>
</g>
<!-- 11 -->
<g id="node12" class="node">
<title>11</title>
<ellipse fill="green" stroke="black" cx="824.05" cy="-18" rx="79.09" ry="18"/>
<text text-anchor="middle" x="824.05" y="-14.3" font-family="Times,serif" font-size="14.00">MultiplyResult</text>
</g>
<!-- 8&#45;&gt;11 -->
<g id="edge7" class="edge">
<title>8&#45;&gt;11</title>
<path fill="none" stroke="black" d="M767.98,-72.76C777.33,-63.79 789.12,-52.49 799.47,-42.56"/>
<polygon fill="none" stroke="black" points="809.12,-38.16 799.48,-42.55 804.28,-33.11 809.12,-38.16"/>
</g>
<!-- 9 -->
<g id="node10" class="node">
<title>9</title>
<ellipse fill="green" stroke="black" cx="898.05" cy="-162" rx="55.79" ry="18"/>
<text text-anchor="middle" x="898.05" y="-158.3" font-family="Times,serif" font-size="14.00">Multiply1</text>
</g>
<!-- 10 -->
<g id="node11" class="node">
<title>10</title>
<ellipse fill="green" stroke="black" cx="898.05" cy="-90" rx="72.59" ry="18"/>
<text text-anchor="middle" x="898.05" y="-86.3" font-family="Times,serif" font-size="14.00">MultiplyInter</text>
</g>
<!-- 9&#45;&gt;10 -->
<g id="edge8" class="edge">
<title>9&#45;&gt;10</title>
<path fill="none" stroke="black" d="M898.05,-143.7C898.05,-135.39 898.05,-125.28 898.05,-116.14"/>
<ellipse fill="black" stroke="black" cx="898.05" cy="-112.1" rx="4" ry="4"/>
</g>
<!-- 10&#45;&gt;11 -->
<g id="edge9" class="edge">
<title>10&#45;&gt;11</title>
<path fill="none" stroke="black" d="M880.51,-72.41C870.72,-63.15 858.39,-51.49 847.75,-41.42"/>
<ellipse fill="black" stroke="black" cx="844.62" cy="-38.46" rx="4" ry="4"/>
</g>
</g>
</svg>
