<?xml version="1.0" encoding="UTF-8" standalone="no"?>
<!DOCTYPE svg PUBLIC "-//W3C//DTD SVG 1.1//EN"
 "http://www.w3.org/Graphics/SVG/1.1/DTD/svg11.dtd">
<!-- Generated by graphviz version 2.43.0 (0)
 -->
<!-- Title: %3 Pages: 1 -->
<svg width="569pt" height="332pt"
 viewBox="0.00 0.00 568.69 332.00" xmlns="http://www.w3.org/2000/svg" xmlns:xlink="http://www.w3.org/1999/xlink">
<g id="graph0" class="graph" transform="scale(1 1) rotate(0) translate(4 328)">
<title>%3</title>
<polygon fill="white" stroke="transparent" points="-4,4 -4,-328 564.69,-328 564.69,4 -4,4"/>
<!-- 0 -->
<g id="node1" class="node">
<title>0</title>
<ellipse fill="black" stroke="black" cx="278.29" cy="-234" rx="61.19" ry="18"/>
<text text-anchor="middle" x="278.29" y="-230.3" font-family="Times,serif" font-size="14.00" fill="white">SourceNrn</text>
</g>
<!-- 1 -->
<g id="node2" class="node">
<title>1</title>
<ellipse fill="blue" stroke="black" cx="179.29" cy="-162" rx="38.19" ry="18"/>
<text text-anchor="middle" x="179.29" y="-158.3" font-family="Times,serif" font-size="14.00" fill="white">Dest1</text>
</g>
<!-- 0&#45;&gt;1 -->
<g id="edge7" class="edge">
<title>0&#45;&gt;1</title>
<path fill="none" stroke="black" d="M255.82,-217.12C241.71,-207.13 223.36,-194.16 208.17,-183.42"/>
<polygon fill="none" stroke="black" points="201.66,-174.53 207.81,-183.17 197.62,-180.25 201.66,-174.53"/>
</g>
<!-- 2 -->
<g id="node3" class="node">
<title>2</title>
<ellipse fill="orange" stroke="black" cx="311.29" cy="-162" rx="38.19" ry="18"/>
<text text-anchor="middle" x="311.29" y="-158.3" font-family="Times,serif" font-size="14.00">Dest2</text>
</g>
<!-- 0&#45;&gt;2 -->
<g id="edge8" class="edge">
<title>0&#45;&gt;2</title>
<path fill="none" stroke="black" d="M286.28,-216.05C290.09,-207.97 294.73,-198.12 298.98,-189.11"/>
<polygon fill="none" stroke="black" points="306.54,-181.28 299.11,-188.83 300.21,-178.3 306.54,-181.28"/>
</g>
<!-- 4 -->
<g id="node5" class="node">
<title>4</title>
<ellipse fill="red" stroke="black" cx="193.29" cy="-90" rx="38.19" ry="18"/>
<text text-anchor="middle" x="193.29" y="-86.3" font-family="Times,serif" font-size="14.00">Dest3</text>
</g>
<!-- 0&#45;&gt;4 -->
<g id="edge11" class="edge">
<title>0&#45;&gt;4</title>
<path fill="none" stroke="black" d="M268.65,-216.19C258.32,-198.23 241.35,-168.98 226.29,-144 220.8,-134.91 214.68,-125.01 209.22,-116.26"/>
<polygon fill="none" stroke="black" points="206.78,-105.78 209.12,-116.11 200.85,-109.49 206.78,-105.78"/>
</g>
<!-- Out0 -->
<g id="node7" class="node">
<title>Out0</title>
<polygon fill="grey" stroke="black" points="560.6,-167.56 464.29,-180 367.98,-167.56 368.07,-147.44 560.51,-147.44 560.6,-167.56"/>
<text text-anchor="middle" x="464.29" y="-158.3" font-family="Times,serif" font-size="14.00">OutSourceNrn</text>
</g>
<!-- 0&#45;&gt;Out0 -->
<g id="edge2" class="edge">
<title>0&#45;&gt;Out0</title>
<path fill="none" stroke="black" d="M314.59,-219.34C345.06,-207.87 388.65,-191.46 420.95,-179.31"/>
<polygon fill="black" stroke="black" points="422.45,-182.48 430.58,-175.69 419.99,-175.93 422.45,-182.48"/>
</g>
<!-- 1&#45;&gt;4 -->
<g id="edge12" class="edge">
<title>1&#45;&gt;4</title>
<path fill="none" stroke="black" d="M182.68,-144.05C184.34,-135.75 186.37,-125.58 188.21,-116.38"/>
<ellipse fill="none" stroke="black" cx="189.05" cy="-112.2" rx="4" ry="4"/>
</g>
<!-- Out1 -->
<g id="node8" class="node">
<title>Out1</title>
<polygon fill="grey" stroke="black" points="136.36,-95.56 68.29,-108 0.21,-95.56 0.28,-75.44 136.3,-75.44 136.36,-95.56"/>
<text text-anchor="middle" x="68.29" y="-86.3" font-family="Times,serif" font-size="14.00">OutDest1</text>
</g>
<!-- 1&#45;&gt;Out1 -->
<g id="edge3" class="edge">
<title>1&#45;&gt;Out1</title>
<path fill="none" stroke="black" d="M157.36,-147.17C140.42,-136.49 116.79,-121.59 98.13,-109.82"/>
<polygon fill="black" stroke="black" points="99.74,-106.7 89.42,-104.33 96.01,-112.62 99.74,-106.7"/>
</g>
<!-- 3 -->
<g id="node4" class="node">
<title>3</title>
<ellipse fill="green" stroke="black" cx="311.29" cy="-90" rx="47.39" ry="18"/>
<text text-anchor="middle" x="311.29" y="-86.3" font-family="Times,serif" font-size="14.00">Dest2In</text>
</g>
<!-- 2&#45;&gt;3 -->
<g id="edge9" class="edge">
<title>2&#45;&gt;3</title>
<path fill="none" stroke="black" d="M305.41,-144.05C304.59,-136.35 304.35,-127.03 304.68,-118.36"/>
<polygon fill="none" stroke="black" points="308.87,-108.51 304.69,-118.25 301.88,-108.04 308.87,-108.51"/>
</g>
<!-- Out2 -->
<g id="node9" class="node">
<title>Out2</title>
<polygon fill="grey" stroke="black" points="513.36,-95.56 445.29,-108 377.21,-95.56 377.28,-75.44 513.3,-75.44 513.36,-95.56"/>
<text text-anchor="middle" x="445.29" y="-86.3" font-family="Times,serif" font-size="14.00">OutDest2</text>
</g>
<!-- 2&#45;&gt;Out2 -->
<g id="edge4" class="edge">
<title>2&#45;&gt;Out2</title>
<path fill="none" stroke="black" d="M335.86,-148.16C357.21,-137.01 388.31,-120.76 411.91,-108.44"/>
<polygon fill="black" stroke="black" points="413.62,-111.49 420.86,-103.76 410.38,-105.29 413.62,-111.49"/>
</g>
<!-- 3&#45;&gt;2 -->
<g id="edge10" class="edge">
<title>3&#45;&gt;2</title>
<path fill="none" stroke="black" d="M317.2,-108.28C318.06,-116.63 318.26,-126.81 317.79,-135.99"/>
<ellipse fill="black" stroke="black" cx="317.47" cy="-140.07" rx="4" ry="4"/>
</g>
<!-- Out3 -->
<g id="node10" class="node">
<title>Out3</title>
<polygon fill="grey" stroke="black" points="414.85,-23.56 335.29,-36 255.72,-23.56 255.79,-3.44 414.78,-3.44 414.85,-23.56"/>
<text text-anchor="middle" x="335.29" y="-14.3" font-family="Times,serif" font-size="14.00">OutDest2In</text>
</g>
<!-- 3&#45;&gt;Out3 -->
<g id="edge5" class="edge">
<title>3&#45;&gt;Out3</title>
<path fill="none" stroke="black" d="M317.1,-72.05C319.88,-63.94 323.27,-54.04 326.37,-45.01"/>
<polygon fill="black" stroke="black" points="329.76,-45.9 329.7,-35.31 323.14,-43.63 329.76,-45.9"/>
</g>
<!-- Out4 -->
<g id="node11" class="node">
<title>Out4</title>
<polygon fill="grey" stroke="black" points="237.36,-23.56 169.29,-36 101.21,-23.56 101.28,-3.44 237.3,-3.44 237.36,-23.56"/>
<text text-anchor="middle" x="169.29" y="-14.3" font-family="Times,serif" font-size="14.00">OutDest3</text>
</g>
<!-- 4&#45;&gt;Out4 -->
<g id="edge6" class="edge">
<title>4&#45;&gt;Out4</title>
<path fill="none" stroke="black" d="M187.48,-72.05C184.7,-63.94 181.3,-54.04 178.2,-45.01"/>
<polygon fill="black" stroke="black" points="181.43,-43.63 174.88,-35.31 174.81,-45.9 181.43,-43.63"/>
</g>
<!-- In0 -->
<g id="node6" class="node">
<title>In0</title>
<polygon fill="white" stroke="black" points="233.91,-300.44 278.29,-288 322.66,-300.44 322.62,-320.56 233.96,-320.56 233.91,-300.44"/>
<text text-anchor="middle" x="278.29" y="-302.3" font-family="Times,serif" font-size="14.00">Input</text>
</g>
<!-- In0&#45;&gt;0 -->
<g id="edge1" class="edge">
<title>In0&#45;&gt;0</title>
<path fill="none" stroke="black" d="M278.29,-287.7C278.29,-279.98 278.29,-270.71 278.29,-262.11"/>
<polygon fill="black" stroke="black" points="281.79,-262.1 278.29,-252.1 274.79,-262.1 281.79,-262.1"/>
</g>
</g>
</svg>
