<?xml version="1.0" encoding="UTF-8" standalone="no"?>
<!DOCTYPE svg PUBLIC "-//W3C//DTD SVG 1.1//EN"
 "http://www.w3.org/Graphics/SVG/1.1/DTD/svg11.dtd">
<!-- Generated by graphviz version 2.43.0 (0)
 -->
<!-- Title: %3 Pages: 1 -->
<svg width="1044pt" height="280pt"
 viewBox="0.00 0.00 1043.52 280.00" xmlns="http://www.w3.org/2000/svg" xmlns:xlink="http://www.w3.org/1999/xlink">
<g id="graph0" class="graph" transform="scale(1 1) rotate(0) translate(4 276)">
<title>%3</title>
<polygon fill="white" stroke="transparent" points="-4,4 -4,-276 1039.52,-276 1039.52,4 -4,4"/>
<!-- 0 -->
<g id="node1" class="node">
<title>0</title>
<ellipse fill="aqua" stroke="black" cx="96.76" cy="-182" rx="33.29" ry="18"/>
<text text-anchor="middle" x="96.76" y="-178.3" font-family="Times,serif" font-size="14.00">m=0</text>
</g>
<!-- Out0 -->
<g id="node10" class="node">
<title>Out0</title>
<polygon fill="grey" stroke="black" points="75.28,-110.56 37.76,-123 0.24,-110.56 0.27,-90.44 75.24,-90.44 75.28,-110.56"/>
<text text-anchor="middle" x="37.76" y="-101.3" font-family="Times,serif" font-size="14.00">O0V</text>
</g>
<!-- 0&#45;&gt;Out0 -->
<g id="edge5" class="edge">
<title>0&#45;&gt;Out0</title>
<path fill="none" stroke="black" d="M84.25,-165.09C75.75,-154.3 64.41,-139.88 55.06,-127.99"/>
<polygon fill="black" stroke="black" points="57.6,-125.56 48.67,-119.87 52.1,-129.89 57.6,-125.56"/>
</g>
<!-- Out1 -->
<g id="node11" class="node">
<title>Out1</title>
<polygon fill="grey" stroke="black" points="154.76,-128 93.57,-93.5 215.95,-93.5 154.76,-128"/>
<text text-anchor="middle" x="154.76" y="-101.3" font-family="Times,serif" font-size="14.00">O1S</text>
</g>
<!-- 0&#45;&gt;Out1 -->
<g id="edge6" class="edge">
<title>0&#45;&gt;Out1</title>
<path fill="none" stroke="black" d="M109.06,-165.09C117.09,-154.71 127.7,-140.99 136.68,-129.37"/>
<polygon fill="black" stroke="black" points="139.52,-131.42 142.87,-121.37 133.99,-127.14 139.52,-131.42"/>
</g>
<!-- 1 -->
<g id="node2" class="node">
<title>1</title>
<ellipse fill="darkorange" stroke="black" cx="329.76" cy="-182" rx="33.29" ry="18"/>
<text text-anchor="middle" x="329.76" y="-178.3" font-family="Times,serif" font-size="14.00">m&lt;0</text>
</g>
<!-- Out2 -->
<g id="node12" class="node">
<title>Out2</title>
<polygon fill="grey" stroke="black" points="309.28,-110.56 271.76,-123 234.24,-110.56 234.27,-90.44 309.24,-90.44 309.28,-110.56"/>
<text text-anchor="middle" x="271.76" y="-101.3" font-family="Times,serif" font-size="14.00">O2V</text>
</g>
<!-- 1&#45;&gt;Out2 -->
<g id="edge7" class="edge">
<title>1&#45;&gt;Out2</title>
<path fill="none" stroke="black" d="M317.46,-165.09C309.11,-154.3 297.96,-139.88 288.76,-127.99"/>
<polygon fill="black" stroke="black" points="291.37,-125.63 282.48,-119.87 285.83,-129.92 291.37,-125.63"/>
</g>
<!-- Out3 -->
<g id="node13" class="node">
<title>Out3</title>
<polygon fill="grey" stroke="black" points="388.76,-128 327.57,-93.5 449.95,-93.5 388.76,-128"/>
<text text-anchor="middle" x="388.76" y="-101.3" font-family="Times,serif" font-size="14.00">O3S</text>
</g>
<!-- 1&#45;&gt;Out3 -->
<g id="edge8" class="edge">
<title>1&#45;&gt;Out3</title>
<path fill="none" stroke="black" d="M342.27,-165.09C350.44,-154.71 361.24,-140.99 370.37,-129.37"/>
<polygon fill="black" stroke="black" points="373.24,-131.39 376.67,-121.37 367.73,-127.07 373.24,-131.39"/>
</g>
<!-- 2 -->
<g id="node3" class="node">
<title>2</title>
<ellipse fill="forestgreen" stroke="black" cx="564.76" cy="-182" rx="33.29" ry="18"/>
<text text-anchor="middle" x="564.76" y="-178.3" font-family="Times,serif" font-size="14.00">m&gt;0</text>
</g>
<!-- Out4 -->
<g id="node14" class="node">
<title>Out4</title>
<polygon fill="grey" stroke="black" points="543.28,-110.56 505.76,-123 468.24,-110.56 468.27,-90.44 543.24,-90.44 543.28,-110.56"/>
<text text-anchor="middle" x="505.76" y="-101.3" font-family="Times,serif" font-size="14.00">O4V</text>
</g>
<!-- 2&#45;&gt;Out4 -->
<g id="edge9" class="edge">
<title>2&#45;&gt;Out4</title>
<path fill="none" stroke="black" d="M552.25,-165.09C543.75,-154.3 532.41,-139.88 523.06,-127.99"/>
<polygon fill="black" stroke="black" points="525.6,-125.56 516.67,-119.87 520.1,-129.89 525.6,-125.56"/>
</g>
<!-- Out5 -->
<g id="node15" class="node">
<title>Out5</title>
<polygon fill="grey" stroke="black" points="622.76,-128 561.57,-93.5 683.95,-93.5 622.76,-128"/>
<text text-anchor="middle" x="622.76" y="-101.3" font-family="Times,serif" font-size="14.00">O5S</text>
</g>
<!-- 2&#45;&gt;Out5 -->
<g id="edge10" class="edge">
<title>2&#45;&gt;Out5</title>
<path fill="none" stroke="black" d="M577.06,-165.09C585.09,-154.71 595.7,-140.99 604.68,-129.37"/>
<polygon fill="black" stroke="black" points="607.52,-131.42 610.87,-121.37 601.99,-127.14 607.52,-131.42"/>
</g>
<!-- 3 -->
<g id="node4" class="node">
<title>3</title>
<path fill="red" stroke="black" d="M901.76,-200C901.76,-200 859.76,-200 859.76,-200 853.76,-200 847.76,-194 847.76,-188 847.76,-188 847.76,-176 847.76,-176 847.76,-170 853.76,-164 859.76,-164 859.76,-164 901.76,-164 901.76,-164 907.76,-164 913.76,-170 913.76,-176 913.76,-176 913.76,-188 913.76,-188 913.76,-194 907.76,-200 901.76,-200"/>
<text text-anchor="middle" x="880.76" y="-178.3" font-family="Times,serif" font-size="14.00">Source</text>
</g>
<!-- 4 -->
<g id="node5" class="node">
<title>4</title>
<path fill="purple" stroke="black" d="M789.26,-123C789.26,-123 714.26,-123 714.26,-123 708.26,-123 702.26,-117 702.26,-111 702.26,-111 702.26,-99 702.26,-99 702.26,-93 708.26,-87 714.26,-87 714.26,-87 789.26,-87 789.26,-87 795.26,-87 801.26,-93 801.26,-99 801.26,-99 801.26,-111 801.26,-111 801.26,-117 795.26,-123 789.26,-123"/>
<text text-anchor="middle" x="751.76" y="-101.3" font-family="Times,serif" font-size="14.00" fill="white">Destination</text>
</g>
<!-- 3&#45;&gt;4 -->
<g id="edge15" class="edge">
<title>3&#45;&gt;4</title>
<path fill="none" stroke="black" d="M851.49,-163.98C833.31,-153.41 809.74,-139.71 790.09,-128.28"/>
<polygon fill="none" stroke="black" points="783.12,-120.19 790.01,-128.24 779.6,-126.24 783.12,-120.19"/>
</g>
<!-- Out6 -->
<g id="node16" class="node">
<title>Out6</title>
<polygon fill="grey" stroke="black" points="880.76,-128 819.57,-93.5 941.95,-93.5 880.76,-128"/>
<polyline fill="none" stroke="black" points="830.02,-99.39 831.57,-93.5 "/>
<polyline fill="none" stroke="black" points="929.95,-93.5 931.49,-99.39 "/>
<polyline fill="none" stroke="black" points="891.21,-122.11 870.31,-122.11 "/>
<text text-anchor="middle" x="880.76" y="-101.3" font-family="Times,serif" font-size="14.00">O6S</text>
</g>
<!-- 3&#45;&gt;Out6 -->
<g id="edge11" class="edge">
<title>3&#45;&gt;Out6</title>
<path fill="none" stroke="black" d="M880.76,-163.98C880.76,-156.34 880.76,-147.06 880.76,-138.19"/>
<polygon fill="black" stroke="black" points="884.26,-138.08 880.76,-128.08 877.26,-138.08 884.26,-138.08"/>
</g>
<!-- Out7 -->
<g id="node17" class="node">
<title>Out7</title>
<polygon fill="grey" stroke="black" points="1035.28,-110.56 997.76,-123 960.24,-110.56 960.27,-90.44 1035.24,-90.44 1035.28,-110.56"/>
<polyline fill="none" stroke="black" points="1004.13,-120.89 991.39,-120.89 "/>
<polyline fill="none" stroke="black" points="966.61,-112.67 960.25,-103.85 "/>
<polyline fill="none" stroke="black" points="960.26,-97.15 966.98,-90.44 "/>
<polyline fill="none" stroke="black" points="1028.53,-90.44 1035.25,-97.15 "/>
<polyline fill="none" stroke="black" points="1035.27,-103.85 1028.91,-112.67 "/>
<text text-anchor="middle" x="997.76" y="-101.3" font-family="Times,serif" font-size="14.00">O7V</text>
</g>
<!-- 3&#45;&gt;Out7 -->
<g id="edge12" class="edge">
<title>3&#45;&gt;Out7</title>
<path fill="none" stroke="black" d="M907.31,-163.98C926.51,-151.67 952.35,-135.11 971.49,-122.84"/>
<polygon fill="black" stroke="black" points="973.5,-125.71 980.03,-117.36 969.72,-119.81 973.5,-125.71"/>
</g>
<!-- Out8 -->
<g id="node18" class="node">
<title>Out8</title>
<polygon fill="grey" stroke="black" points="693.76,-46 632.57,-11.5 754.95,-11.5 693.76,-46"/>
<polyline fill="none" stroke="black" points="643.02,-17.39 644.57,-11.5 "/>
<polyline fill="none" stroke="black" points="742.95,-11.5 744.49,-17.39 "/>
<polyline fill="none" stroke="black" points="704.21,-40.11 683.31,-40.11 "/>
<text text-anchor="middle" x="693.76" y="-19.3" font-family="Times,serif" font-size="14.00">O8S</text>
</g>
<!-- 4&#45;&gt;Out8 -->
<g id="edge13" class="edge">
<title>4&#45;&gt;Out8</title>
<path fill="none" stroke="black" d="M739.17,-86.64C730.94,-75.29 720.09,-60.31 711.05,-47.85"/>
<polygon fill="black" stroke="black" points="713.84,-45.74 705.14,-39.7 708.18,-49.85 713.84,-45.74"/>
</g>
<!-- Out9 -->
<g id="node19" class="node">
<title>Out9</title>
<polygon fill="grey" stroke="black" points="848.28,-28.56 810.76,-41 773.24,-28.56 773.27,-8.44 848.24,-8.44 848.28,-28.56"/>
<polyline fill="none" stroke="black" points="817.13,-38.89 804.39,-38.89 "/>
<polyline fill="none" stroke="black" points="779.61,-30.67 773.25,-21.85 "/>
<polyline fill="none" stroke="black" points="773.26,-15.15 779.98,-8.44 "/>
<polyline fill="none" stroke="black" points="841.53,-8.44 848.25,-15.15 "/>
<polyline fill="none" stroke="black" points="848.27,-21.85 841.91,-30.67 "/>
<text text-anchor="middle" x="810.76" y="-19.3" font-family="Times,serif" font-size="14.00">O9V</text>
</g>
<!-- 4&#45;&gt;Out9 -->
<g id="edge14" class="edge">
<title>4&#45;&gt;Out9</title>
<path fill="none" stroke="black" d="M764.56,-86.64C773.32,-74.77 785,-58.93 794.43,-46.14"/>
<polygon fill="black" stroke="black" points="797.41,-48 800.53,-37.87 791.78,-43.84 797.41,-48"/>
</g>
<!-- In0 -->
<g id="node6" class="node">
<title>In0</title>
<polygon fill="black" stroke="black" points="69.76,-248.44 96.76,-236 123.76,-248.44 123.73,-268.56 69.78,-268.56 69.76,-248.44"/>
<text text-anchor="middle" x="96.76" y="-250.3" font-family="Times,serif" font-size="14.00" fill="white">I0</text>
</g>
<!-- In0&#45;&gt;0 -->
<g id="edge1" class="edge">
<title>In0&#45;&gt;0</title>
<path fill="none" stroke="black" d="M96.76,-235.7C96.76,-227.98 96.76,-218.71 96.76,-210.11"/>
<polygon fill="black" stroke="black" points="100.26,-210.1 96.76,-200.1 93.26,-210.1 100.26,-210.1"/>
</g>
<!-- In1 -->
<g id="node7" class="node">
<title>In1</title>
<polygon fill="black" stroke="black" points="302.76,-248.44 329.76,-236 356.76,-248.44 356.73,-268.56 302.78,-268.56 302.76,-248.44"/>
<text text-anchor="middle" x="329.76" y="-250.3" font-family="Times,serif" font-size="14.00" fill="white">I1</text>
</g>
<!-- In1&#45;&gt;1 -->
<g id="edge2" class="edge">
<title>In1&#45;&gt;1</title>
<path fill="none" stroke="black" d="M329.76,-235.7C329.76,-227.98 329.76,-218.71 329.76,-210.11"/>
<polygon fill="black" stroke="black" points="333.26,-210.1 329.76,-200.1 326.26,-210.1 333.26,-210.1"/>
</g>
<!-- In2 -->
<g id="node8" class="node">
<title>In2</title>
<polygon fill="black" stroke="black" points="537.76,-248.44 564.76,-236 591.76,-248.44 591.73,-268.56 537.78,-268.56 537.76,-248.44"/>
<text text-anchor="middle" x="564.76" y="-250.3" font-family="Times,serif" font-size="14.00" fill="white">I2</text>
</g>
<!-- In2&#45;&gt;2 -->
<g id="edge3" class="edge">
<title>In2&#45;&gt;2</title>
<path fill="none" stroke="black" d="M564.76,-235.7C564.76,-227.98 564.76,-218.71 564.76,-210.11"/>
<polygon fill="black" stroke="black" points="568.26,-210.1 564.76,-200.1 561.26,-210.1 568.26,-210.1"/>
</g>
<!-- In3 -->
<g id="node9" class="node">
<title>In3</title>
<polygon fill="black" stroke="black" points="853.76,-248.44 880.76,-236 907.76,-248.44 907.73,-268.56 853.78,-268.56 853.76,-248.44"/>
<text text-anchor="middle" x="880.76" y="-250.3" font-family="Times,serif" font-size="14.00" fill="white">I3</text>
</g>
<!-- In3&#45;&gt;3 -->
<g id="edge4" class="edge">
<title>In3&#45;&gt;3</title>
<path fill="none" stroke="black" d="M880.76,-235.7C880.76,-227.98 880.76,-218.71 880.76,-210.11"/>
<polygon fill="black" stroke="black" points="884.26,-210.1 880.76,-200.1 877.26,-210.1 884.26,-210.1"/>
</g>
</g>
</svg>
