<?xml version="1.0" encoding="UTF-8" standalone="no"?>
<!DOCTYPE svg PUBLIC "-//W3C//DTD SVG 1.1//EN"
 "http://www.w3.org/Graphics/SVG/1.1/DTD/svg11.dtd">
<!-- Generated by graphviz version 2.43.0 (0)
 -->
<!-- Title: %3 Pages: 1 -->
<svg width="116pt" height="188pt"
 viewBox="0.00 0.00 115.65 188.00" xmlns="http://www.w3.org/2000/svg" xmlns:xlink="http://www.w3.org/1999/xlink">
<g id="graph0" class="graph" transform="scale(1 1) rotate(0) translate(4 184)">
<title>%3</title>
<polygon fill="white" stroke="transparent" points="-4,4 -4,-184 111.65,-184 111.65,4 -4,4"/>
<!-- 0 -->
<g id="node1" class="node">
<title>0</title>
<ellipse fill="orange" stroke="black" cx="53.83" cy="-90" rx="27" ry="18"/>
<text text-anchor="middle" x="53.83" y="-86.3" font-family="Times,serif" font-size="14.00">HC</text>
</g>
<!-- Out0 -->
<g id="node3" class="node">
<title>Out0</title>
<polygon fill="white" stroke="black" points="107.48,-23.56 53.83,-36 0.17,-23.56 0.22,-3.44 107.43,-3.44 107.48,-23.56"/>
<text text-anchor="middle" x="53.83" y="-14.3" font-family="Times,serif" font-size="14.00">Output</text>
</g>
<!-- 0&#45;&gt;Out0 -->
<g id="edge2" class="edge">
<title>0&#45;&gt;Out0</title>
<path fill="none" stroke="black" d="M53.83,-71.7C53.83,-63.98 53.83,-54.71 53.83,-46.11"/>
<polygon fill="black" stroke="black" points="57.33,-46.1 53.83,-36.1 50.33,-46.1 57.33,-46.1"/>
</g>
<!-- In0 -->
<g id="node2" class="node">
<title>In0</title>
<polygon fill="white" stroke="black" points="9.45,-156.44 53.83,-144 98.2,-156.44 98.16,-176.56 9.5,-176.56 9.45,-156.44"/>
<text text-anchor="middle" x="53.83" y="-158.3" font-family="Times,serif" font-size="14.00">Input</text>
</g>
<!-- In0&#45;&gt;0 -->
<g id="edge1" class="edge">
<title>In0&#45;&gt;0</title>
<path fill="none" stroke="black" d="M53.83,-143.7C53.83,-135.98 53.83,-126.71 53.83,-118.11"/>
<polygon fill="black" stroke="black" points="57.33,-118.1 53.83,-108.1 50.33,-118.1 57.33,-118.1"/>
</g>
</g>
</svg>
