<?xml version="1.0" encoding="UTF-8" standalone="no"?>
<!DOCTYPE svg PUBLIC "-//W3C//DTD SVG 1.1//EN"
 "http://www.w3.org/Graphics/SVG/1.1/DTD/svg11.dtd">
<!-- Generated by graphviz version 2.43.0 (0)
 -->
<!-- Title: %3 Pages: 1 -->
<svg width="411pt" height="280pt"
 viewBox="0.00 0.00 410.85 280.00" xmlns="http://www.w3.org/2000/svg" xmlns:xlink="http://www.w3.org/1999/xlink">
<g id="graph0" class="graph" transform="scale(1 1) rotate(0) translate(4 276)">
<title>%3</title>
<polygon fill="white" stroke="transparent" points="-4,4 -4,-276 406.85,-276 406.85,4 -4,4"/>
<!-- 0 -->
<g id="node1" class="node">
<title>0</title>
<path fill="red" stroke="black" d="M269.09,-200C269.09,-200 227.09,-200 227.09,-200 221.09,-200 215.09,-194 215.09,-188 215.09,-188 215.09,-176 215.09,-176 215.09,-170 221.09,-164 227.09,-164 227.09,-164 269.09,-164 269.09,-164 275.09,-164 281.09,-170 281.09,-176 281.09,-176 281.09,-188 281.09,-188 281.09,-194 275.09,-200 269.09,-200"/>
<text text-anchor="middle" x="248.09" y="-178.3" font-family="Times,serif" font-size="14.00">Source</text>
</g>
<!-- 1 -->
<g id="node2" class="node">
<title>1</title>
<path fill="purple" stroke="black" d="M156.59,-123C156.59,-123 81.59,-123 81.59,-123 75.59,-123 69.59,-117 69.59,-111 69.59,-111 69.59,-99 69.59,-99 69.59,-93 75.59,-87 81.59,-87 81.59,-87 156.59,-87 156.59,-87 162.59,-87 168.59,-93 168.59,-99 168.59,-99 168.59,-111 168.59,-111 168.59,-117 162.59,-123 156.59,-123"/>
<text text-anchor="middle" x="119.09" y="-101.3" font-family="Times,serif" font-size="14.00" fill="white">Destination</text>
</g>
<!-- 0&#45;&gt;1 -->
<g id="edge6" class="edge">
<title>0&#45;&gt;1</title>
<path fill="none" stroke="black" d="M218.82,-163.98C200.64,-153.41 177.08,-139.71 157.42,-128.28"/>
<polygon fill="none" stroke="black" points="150.46,-120.19 157.34,-128.24 146.94,-126.24 150.46,-120.19"/>
</g>
<!-- Out0 -->
<g id="node4" class="node">
<title>Out0</title>
<polygon fill="grey" stroke="black" points="248.09,-128 186.91,-93.5 309.28,-93.5 248.09,-128"/>
<polyline fill="none" stroke="black" points="197.36,-99.39 198.91,-93.5 "/>
<polyline fill="none" stroke="black" points="297.28,-93.5 298.83,-99.39 "/>
<polyline fill="none" stroke="black" points="258.55,-122.11 237.64,-122.11 "/>
<text text-anchor="middle" x="248.09" y="-101.3" font-family="Times,serif" font-size="14.00">O6S</text>
</g>
<!-- 0&#45;&gt;Out0 -->
<g id="edge2" class="edge">
<title>0&#45;&gt;Out0</title>
<path fill="none" stroke="black" d="M248.09,-163.98C248.09,-156.34 248.09,-147.06 248.09,-138.19"/>
<polygon fill="black" stroke="black" points="251.59,-138.08 248.09,-128.08 244.59,-138.08 251.59,-138.08"/>
</g>
<!-- Out1 -->
<g id="node5" class="node">
<title>Out1</title>
<polygon fill="grey" stroke="black" points="402.61,-110.56 365.09,-123 327.58,-110.56 327.61,-90.44 402.58,-90.44 402.61,-110.56"/>
<polyline fill="none" stroke="black" points="371.46,-120.89 358.73,-120.89 "/>
<polyline fill="none" stroke="black" points="333.94,-112.67 327.59,-103.85 "/>
<polyline fill="none" stroke="black" points="327.6,-97.15 334.32,-90.44 "/>
<polyline fill="none" stroke="black" points="395.87,-90.44 402.59,-97.15 "/>
<polyline fill="none" stroke="black" points="402.6,-103.85 396.25,-112.67 "/>
<text text-anchor="middle" x="365.09" y="-101.3" font-family="Times,serif" font-size="14.00">O7V</text>
</g>
<!-- 0&#45;&gt;Out1 -->
<g id="edge3" class="edge">
<title>0&#45;&gt;Out1</title>
<path fill="none" stroke="black" d="M274.64,-163.98C293.85,-151.67 319.69,-135.11 338.83,-122.84"/>
<polygon fill="black" stroke="black" points="340.84,-125.71 347.37,-117.36 337.06,-119.81 340.84,-125.71"/>
</g>
<!-- Out2 -->
<g id="node6" class="node">
<title>Out2</title>
<polygon fill="grey" stroke="black" points="61.09,-46 -0.09,-11.5 122.28,-11.5 61.09,-46"/>
<polyline fill="none" stroke="black" points="10.36,-17.39 11.91,-11.5 "/>
<polyline fill="none" stroke="black" points="110.28,-11.5 111.83,-17.39 "/>
<polyline fill="none" stroke="black" points="71.55,-40.11 50.64,-40.11 "/>
<text text-anchor="middle" x="61.09" y="-19.3" font-family="Times,serif" font-size="14.00">O8S</text>
</g>
<!-- 1&#45;&gt;Out2 -->
<g id="edge4" class="edge">
<title>1&#45;&gt;Out2</title>
<path fill="none" stroke="black" d="M106.51,-86.64C98.28,-75.29 87.42,-60.31 78.39,-47.85"/>
<polygon fill="black" stroke="black" points="81.18,-45.74 72.48,-39.7 75.51,-49.85 81.18,-45.74"/>
</g>
<!-- Out3 -->
<g id="node7" class="node">
<title>Out3</title>
<polygon fill="grey" stroke="black" points="215.61,-28.56 178.09,-41 140.58,-28.56 140.61,-8.44 215.58,-8.44 215.61,-28.56"/>
<polyline fill="none" stroke="black" points="184.46,-38.89 171.73,-38.89 "/>
<polyline fill="none" stroke="black" points="146.94,-30.67 140.59,-21.85 "/>
<polyline fill="none" stroke="black" points="140.6,-15.15 147.32,-8.44 "/>
<polyline fill="none" stroke="black" points="208.87,-8.44 215.59,-15.15 "/>
<polyline fill="none" stroke="black" points="215.6,-21.85 209.25,-30.67 "/>
<text text-anchor="middle" x="178.09" y="-19.3" font-family="Times,serif" font-size="14.00">O9V</text>
</g>
<!-- 1&#45;&gt;Out3 -->
<g id="edge5" class="edge">
<title>1&#45;&gt;Out3</title>
<path fill="none" stroke="black" d="M131.9,-86.64C140.65,-74.77 152.34,-58.93 161.76,-46.14"/>
<polygon fill="black" stroke="black" points="164.75,-48 167.86,-37.87 159.11,-43.84 164.75,-48"/>
</g>
<!-- In0 -->
<g id="node3" class="node">
<title>In0</title>
<polygon fill="black" stroke="black" points="221.09,-248.44 248.09,-236 275.09,-248.44 275.07,-268.56 221.12,-268.56 221.09,-248.44"/>
<text text-anchor="middle" x="248.09" y="-250.3" font-family="Times,serif" font-size="14.00" fill="white">I3</text>
</g>
<!-- In0&#45;&gt;0 -->
<g id="edge1" class="edge">
<title>In0&#45;&gt;0</title>
<path fill="none" stroke="black" d="M248.09,-235.7C248.09,-227.98 248.09,-218.71 248.09,-210.11"/>
<polygon fill="black" stroke="black" points="251.59,-210.1 248.09,-200.1 244.59,-210.1 251.59,-210.1"/>
</g>
</g>
</svg>
