<?xml version="1.0" encoding="UTF-8" standalone="no"?>
<!DOCTYPE svg PUBLIC "-//W3C//DTD SVG 1.1//EN"
 "http://www.w3.org/Graphics/SVG/1.1/DTD/svg11.dtd">
<!-- Generated by graphviz version 2.43.0 (0)
 -->
<!-- Title: %3 Pages: 1 -->
<svg width="349pt" height="260pt"
 viewBox="0.00 0.00 349.42 260.00" xmlns="http://www.w3.org/2000/svg" xmlns:xlink="http://www.w3.org/1999/xlink">
<g id="graph0" class="graph" transform="scale(1 1) rotate(0) translate(4 256)">
<title>%3</title>
<polygon fill="white" stroke="transparent" points="-4,4 -4,-256 345.42,-256 345.42,4 -4,4"/>
<!-- 0 -->
<g id="node1" class="node">
<title>0</title>
<polygon fill="white" stroke="black" points="204.12,-180 145.12,-180 141.12,-176 141.12,-144 200.12,-144 204.12,-148 204.12,-180"/>
<polyline fill="none" stroke="black" points="200.12,-176 141.12,-176 "/>
<polyline fill="none" stroke="black" points="200.12,-176 200.12,-144 "/>
<polyline fill="none" stroke="black" points="200.12,-176 204.12,-180 "/>
<text text-anchor="middle" x="172.62" y="-158.3" font-family="Times,serif" font-size="14.00">Retina</text>
</g>
<!-- 1 -->
<g id="node2" class="node">
<title>1</title>
<polygon fill="white" stroke="black" points="134.12,-108 69.12,-108 65.12,-104 65.12,-72 130.12,-72 134.12,-76 134.12,-108"/>
<polyline fill="none" stroke="black" points="130.12,-104 65.12,-104 "/>
<polyline fill="none" stroke="black" points="130.12,-104 130.12,-72 "/>
<polyline fill="none" stroke="black" points="130.12,-104 134.12,-108 "/>
<text text-anchor="middle" x="99.62" y="-86.3" font-family="Times,serif" font-size="14.00">Lamina</text>
</g>
<!-- 0&#45;&gt;1 -->
<g id="edge4" class="edge">
<title>0&#45;&gt;1</title>
<path fill="none" stroke="black" d="M154.57,-143.7C145.56,-135.05 134.5,-124.45 124.68,-115.03"/>
<polygon fill="black" stroke="black" points="117.46,-108.1 127.79,-111.78 121.06,-111.56 124.67,-115.03 124.67,-115.03 124.67,-115.03 121.06,-111.56 121.56,-118.27 117.46,-108.1 117.46,-108.1"/>
</g>
<!-- Out0 -->
<g id="node4" class="node">
<title>Out0</title>
<polygon fill="white" stroke="black" points="341.21,-95.56 246.62,-108 152.02,-95.56 152.11,-75.44 341.13,-75.44 341.21,-95.56"/>
<polyline fill="none" stroke="black" points="253.27,-107.13 239.97,-107.13 "/>
<polyline fill="none" stroke="black" points="158.67,-96.44 152.05,-88.85 "/>
<polyline fill="none" stroke="black" points="152.08,-82.15 158.82,-75.44 "/>
<polyline fill="none" stroke="black" points="334.42,-75.44 341.16,-82.15 "/>
<polyline fill="none" stroke="black" points="341.19,-88.85 334.56,-96.44 "/>
<text text-anchor="middle" x="246.62" y="-86.3" font-family="Times,serif" font-size="14.00">Retina Output</text>
</g>
<!-- 0&#45;&gt;Out0 -->
<g id="edge2" class="edge">
<title>0&#45;&gt;Out0</title>
<path fill="none" stroke="black" d="M190.91,-143.7C200.6,-134.53 212.6,-123.18 222.99,-113.35"/>
<polygon fill="black" stroke="black" points="225.69,-115.62 230.55,-106.2 220.88,-110.53 225.69,-115.62"/>
</g>
<!-- Out1 -->
<g id="node5" class="node">
<title>Out1</title>
<polygon fill="white" stroke="black" points="199.35,-23.56 99.62,-36 -0.12,-23.56 -0.03,-3.44 199.26,-3.44 199.35,-23.56"/>
<polyline fill="none" stroke="black" points="106.27,-35.17 92.96,-35.17 "/>
<polyline fill="none" stroke="black" points="6.54,-24.39 -0.09,-16.85 "/>
<polyline fill="none" stroke="black" points="-0.06,-10.15 6.68,-3.44 "/>
<polyline fill="none" stroke="black" points="192.55,-3.44 199.29,-10.15 "/>
<polyline fill="none" stroke="black" points="199.32,-16.85 192.7,-24.39 "/>
<text text-anchor="middle" x="99.62" y="-14.3" font-family="Times,serif" font-size="14.00">Lamina Output</text>
</g>
<!-- 1&#45;&gt;Out1 -->
<g id="edge3" class="edge">
<title>1&#45;&gt;Out1</title>
<path fill="none" stroke="black" d="M99.62,-71.7C99.62,-63.98 99.62,-54.71 99.62,-46.11"/>
<polygon fill="black" stroke="black" points="103.12,-46.1 99.62,-36.1 96.12,-46.1 103.12,-46.1"/>
</g>
<!-- In0 -->
<g id="node3" class="node">
<title>In0</title>
<polygon fill="white" stroke="black" points="123.61,-228.44 172.62,-216 221.63,-228.44 221.58,-248.56 123.65,-248.56 123.61,-228.44"/>
<polyline fill="none" stroke="black" points="166.12,-217.65 179.12,-217.65 "/>
<polyline fill="none" stroke="black" points="215.13,-226.79 221.61,-235.15 "/>
<polyline fill="none" stroke="black" points="221.6,-241.85 214.88,-248.56 "/>
<polyline fill="none" stroke="black" points="130.36,-248.56 123.64,-241.85 "/>
<polyline fill="none" stroke="black" points="123.62,-235.15 130.11,-226.79 "/>
<text text-anchor="middle" x="172.62" y="-230.3" font-family="Times,serif" font-size="14.00">Image</text>
</g>
<!-- In0&#45;&gt;0 -->
<g id="edge1" class="edge">
<title>In0&#45;&gt;0</title>
<path fill="none" stroke="black" d="M172.62,-215.7C172.62,-207.98 172.62,-198.71 172.62,-190.11"/>
<polygon fill="black" stroke="black" points="176.12,-190.1 172.62,-180.1 169.12,-190.1 176.12,-190.1"/>
</g>
</g>
</svg>
