<?xml version="1.0" encoding="utf-8" standalone="no"?>
<!DOCTYPE svg PUBLIC "-//W3C//DTD SVG 1.1//EN"
  "http://www.w3.org/Graphics/SVG/1.1/DTD/svg11.dtd">
<svg height="216pt" version="1.1" viewBox="0 0 720 216" width="720pt" xmlns="http://www.w3.org/2000/svg" xmlns:xlink="http://www.w3.org/1999/xlink">
 <metadata>
  <rdf:RDF xmlns:cc="http://creativecommons.org/ns#" xmlns:dc="http://purl.org/dc/elements/1.1/" xmlns:rdf="http://www.w3.org/1999/02/22-rdf-syntax-ns#">
   <cc:Work>
    <dc:type rdf:resource="http://purl.org/dc/dcmitype/StillImage"/>
    <dc:date>2023-04-19T10:29:44.010114</dc:date>
    <dc:format>image/svg+xml</dc:format>
    <dc:creator>
     <cc:Agent>
      <dc:title>Matplotlib v3.4.1, https://matplotlib.org/</dc:title>
     </cc:Agent>
    </dc:creator>
   </cc:Work>
  </rdf:RDF>
 </metadata>
 <defs>
  <style type="text/css">*{stroke-linecap:butt;stroke-linejoin:round;}</style>
 </defs>
 <g id="figure_1">
  <g id="patch_1">
   <path d="M 0 216 
L 720 216 
L 720 0 
L 0 0 
z
" style="fill:#ffffff;"/>
  </g>
  <g id="axes_1">
   <g id="patch_2">
    <path d="M 45.607428 177.240072 
L 716.99976 177.240072 
L 716.99976 18.118365 
L 45.607428 18.118365 
z
" style="fill:#ffffff;"/>
   </g>
   <g id="matplotlib.axis_1">
    <g id="xtick_1">
     <g id="line2d_1">
      <defs>
       <path d="M 0 0 
L 0 6 
" id="mf07d23956f" style="stroke:#262626;stroke-width:1.25;"/>
      </defs>
      <g>
       <use style="fill:#262626;stroke:#262626;stroke-width:1.25;" x="76.125261" xlink:href="#mf07d23956f" y="177.240072"/>
      </g>
     </g>
     <g id="text_1">
      <!-- 0 -->
      <g style="fill:#262626;" transform="translate(72.625886 195.098354)scale(0.11 -0.11)">
       <defs>
        <path d="M 2034 4250 
Q 1547 4250 1301 3770 
Q 1056 3291 1056 2328 
Q 1056 1369 1301 889 
Q 1547 409 2034 409 
Q 2525 409 2770 889 
Q 3016 1369 3016 2328 
Q 3016 3291 2770 3770 
Q 2525 4250 2034 4250 
z
M 2034 4750 
Q 2819 4750 3233 4129 
Q 3647 3509 3647 2328 
Q 3647 1150 3233 529 
Q 2819 -91 2034 -91 
Q 1250 -91 836 529 
Q 422 1150 422 2328 
Q 422 3509 836 4129 
Q 1250 4750 2034 4750 
z
" id="DejaVuSans-30" transform="scale(0.015625)"/>
       </defs>
       <use xlink:href="#DejaVuSans-30"/>
      </g>
     </g>
    </g>
    <g id="xtick_2">
     <g id="line2d_2">
      <g>
       <use style="fill:#262626;stroke:#262626;stroke-width:1.25;" x="164.736856" xlink:href="#mf07d23956f" y="177.240072"/>
      </g>
     </g>
     <g id="text_2">
      <!-- 5000 -->
      <g style="fill:#262626;" transform="translate(150.739356 195.098354)scale(0.11 -0.11)">
       <defs>
        <path d="M 691 4666 
L 3169 4666 
L 3169 4134 
L 1269 4134 
L 1269 2991 
Q 1406 3038 1543 3061 
Q 1681 3084 1819 3084 
Q 2600 3084 3056 2656 
Q 3513 2228 3513 1497 
Q 3513 744 3044 326 
Q 2575 -91 1722 -91 
Q 1428 -91 1123 -41 
Q 819 9 494 109 
L 494 744 
Q 775 591 1075 516 
Q 1375 441 1709 441 
Q 2250 441 2565 725 
Q 2881 1009 2881 1497 
Q 2881 1984 2565 2268 
Q 2250 2553 1709 2553 
Q 1456 2553 1204 2497 
Q 953 2441 691 2322 
L 691 4666 
z
" id="DejaVuSans-35" transform="scale(0.015625)"/>
       </defs>
       <use xlink:href="#DejaVuSans-35"/>
       <use x="63.623047" xlink:href="#DejaVuSans-30"/>
       <use x="127.246094" xlink:href="#DejaVuSans-30"/>
       <use x="190.869141" xlink:href="#DejaVuSans-30"/>
      </g>
     </g>
    </g>
    <g id="xtick_3">
     <g id="line2d_3">
      <g>
       <use style="fill:#262626;stroke:#262626;stroke-width:1.25;" x="253.348451" xlink:href="#mf07d23956f" y="177.240072"/>
      </g>
     </g>
     <g id="text_3">
      <!-- 10000 -->
      <g style="fill:#262626;" transform="translate(235.851576 195.098354)scale(0.11 -0.11)">
       <defs>
        <path d="M 794 531 
L 1825 531 
L 1825 4091 
L 703 3866 
L 703 4441 
L 1819 4666 
L 2450 4666 
L 2450 531 
L 3481 531 
L 3481 0 
L 794 0 
L 794 531 
z
" id="DejaVuSans-31" transform="scale(0.015625)"/>
       </defs>
       <use xlink:href="#DejaVuSans-31"/>
       <use x="63.623047" xlink:href="#DejaVuSans-30"/>
       <use x="127.246094" xlink:href="#DejaVuSans-30"/>
       <use x="190.869141" xlink:href="#DejaVuSans-30"/>
       <use x="254.492188" xlink:href="#DejaVuSans-30"/>
      </g>
     </g>
    </g>
    <g id="xtick_4">
     <g id="line2d_4">
      <g>
       <use style="fill:#262626;stroke:#262626;stroke-width:1.25;" x="341.960046" xlink:href="#mf07d23956f" y="177.240072"/>
      </g>
     </g>
     <g id="text_4">
      <!-- 15000 -->
      <g style="fill:#262626;" transform="translate(324.463171 195.098354)scale(0.11 -0.11)">
       <use xlink:href="#DejaVuSans-31"/>
       <use x="63.623047" xlink:href="#DejaVuSans-35"/>
       <use x="127.246094" xlink:href="#DejaVuSans-30"/>
       <use x="190.869141" xlink:href="#DejaVuSans-30"/>
       <use x="254.492188" xlink:href="#DejaVuSans-30"/>
      </g>
     </g>
    </g>
    <g id="xtick_5">
     <g id="line2d_5">
      <g>
       <use style="fill:#262626;stroke:#262626;stroke-width:1.25;" x="430.571641" xlink:href="#mf07d23956f" y="177.240072"/>
      </g>
     </g>
     <g id="text_5">
      <!-- 20000 -->
      <g style="fill:#262626;" transform="translate(413.074766 195.098354)scale(0.11 -0.11)">
       <defs>
        <path d="M 1228 531 
L 3431 531 
L 3431 0 
L 469 0 
L 469 531 
Q 828 903 1448 1529 
Q 2069 2156 2228 2338 
Q 2531 2678 2651 2914 
Q 2772 3150 2772 3378 
Q 2772 3750 2511 3984 
Q 2250 4219 1831 4219 
Q 1534 4219 1204 4116 
Q 875 4013 500 3803 
L 500 4441 
Q 881 4594 1212 4672 
Q 1544 4750 1819 4750 
Q 2544 4750 2975 4387 
Q 3406 4025 3406 3419 
Q 3406 3131 3298 2873 
Q 3191 2616 2906 2266 
Q 2828 2175 2409 1742 
Q 1991 1309 1228 531 
z
" id="DejaVuSans-32" transform="scale(0.015625)"/>
       </defs>
       <use xlink:href="#DejaVuSans-32"/>
       <use x="63.623047" xlink:href="#DejaVuSans-30"/>
       <use x="127.246094" xlink:href="#DejaVuSans-30"/>
       <use x="190.869141" xlink:href="#DejaVuSans-30"/>
       <use x="254.492188" xlink:href="#DejaVuSans-30"/>
      </g>
     </g>
    </g>
    <g id="xtick_6">
     <g id="line2d_6">
      <g>
       <use style="fill:#262626;stroke:#262626;stroke-width:1.25;" x="519.183235" xlink:href="#mf07d23956f" y="177.240072"/>
      </g>
     </g>
     <g id="text_6">
      <!-- 25000 -->
      <g style="fill:#262626;" transform="translate(501.68636 195.098354)scale(0.11 -0.11)">
       <use xlink:href="#DejaVuSans-32"/>
       <use x="63.623047" xlink:href="#DejaVuSans-35"/>
       <use x="127.246094" xlink:href="#DejaVuSans-30"/>
       <use x="190.869141" xlink:href="#DejaVuSans-30"/>
       <use x="254.492188" xlink:href="#DejaVuSans-30"/>
      </g>
     </g>
    </g>
    <g id="xtick_7">
     <g id="line2d_7">
      <g>
       <use style="fill:#262626;stroke:#262626;stroke-width:1.25;" x="607.79483" xlink:href="#mf07d23956f" y="177.240072"/>
      </g>
     </g>
     <g id="text_7">
      <!-- 30000 -->
      <g style="fill:#262626;" transform="translate(590.297955 195.098354)scale(0.11 -0.11)">
       <defs>
        <path d="M 2597 2516 
Q 3050 2419 3304 2112 
Q 3559 1806 3559 1356 
Q 3559 666 3084 287 
Q 2609 -91 1734 -91 
Q 1441 -91 1130 -33 
Q 819 25 488 141 
L 488 750 
Q 750 597 1062 519 
Q 1375 441 1716 441 
Q 2309 441 2620 675 
Q 2931 909 2931 1356 
Q 2931 1769 2642 2001 
Q 2353 2234 1838 2234 
L 1294 2234 
L 1294 2753 
L 1863 2753 
Q 2328 2753 2575 2939 
Q 2822 3125 2822 3475 
Q 2822 3834 2567 4026 
Q 2313 4219 1838 4219 
Q 1578 4219 1281 4162 
Q 984 4106 628 3988 
L 628 4550 
Q 988 4650 1302 4700 
Q 1616 4750 1894 4750 
Q 2613 4750 3031 4423 
Q 3450 4097 3450 3541 
Q 3450 3153 3228 2886 
Q 3006 2619 2597 2516 
z
" id="DejaVuSans-33" transform="scale(0.015625)"/>
       </defs>
       <use xlink:href="#DejaVuSans-33"/>
       <use x="63.623047" xlink:href="#DejaVuSans-30"/>
       <use x="127.246094" xlink:href="#DejaVuSans-30"/>
       <use x="190.869141" xlink:href="#DejaVuSans-30"/>
       <use x="254.492188" xlink:href="#DejaVuSans-30"/>
      </g>
     </g>
    </g>
    <g id="xtick_8">
     <g id="line2d_8">
      <g>
       <use style="fill:#262626;stroke:#262626;stroke-width:1.25;" x="696.406425" xlink:href="#mf07d23956f" y="177.240072"/>
      </g>
     </g>
     <g id="text_8">
      <!-- 35000 -->
      <g style="fill:#262626;" transform="translate(678.90955 195.098354)scale(0.11 -0.11)">
       <use xlink:href="#DejaVuSans-33"/>
       <use x="63.623047" xlink:href="#DejaVuSans-35"/>
       <use x="127.246094" xlink:href="#DejaVuSans-30"/>
       <use x="190.869141" xlink:href="#DejaVuSans-30"/>
       <use x="254.492188" xlink:href="#DejaVuSans-30"/>
      </g>
     </g>
    </g>
    <g id="text_9">
     <!-- t (ms) -->
     <g style="fill:#262626;" transform="translate(363.392656 210.504135)scale(0.12 -0.12)">
      <defs>
       <path d="M 1172 4494 
L 1172 3500 
L 2356 3500 
L 2356 3053 
L 1172 3053 
L 1172 1153 
Q 1172 725 1289 603 
Q 1406 481 1766 481 
L 2356 481 
L 2356 0 
L 1766 0 
Q 1100 0 847 248 
Q 594 497 594 1153 
L 594 3053 
L 172 3053 
L 172 3500 
L 594 3500 
L 594 4494 
L 1172 4494 
z
" id="DejaVuSans-74" transform="scale(0.015625)"/>
       <path id="DejaVuSans-20" transform="scale(0.015625)"/>
       <path d="M 1984 4856 
Q 1566 4138 1362 3434 
Q 1159 2731 1159 2009 
Q 1159 1288 1364 580 
Q 1569 -128 1984 -844 
L 1484 -844 
Q 1016 -109 783 600 
Q 550 1309 550 2009 
Q 550 2706 781 3412 
Q 1013 4119 1484 4856 
L 1984 4856 
z
" id="DejaVuSans-28" transform="scale(0.015625)"/>
       <path d="M 3328 2828 
Q 3544 3216 3844 3400 
Q 4144 3584 4550 3584 
Q 5097 3584 5394 3201 
Q 5691 2819 5691 2113 
L 5691 0 
L 5113 0 
L 5113 2094 
Q 5113 2597 4934 2840 
Q 4756 3084 4391 3084 
Q 3944 3084 3684 2787 
Q 3425 2491 3425 1978 
L 3425 0 
L 2847 0 
L 2847 2094 
Q 2847 2600 2669 2842 
Q 2491 3084 2119 3084 
Q 1678 3084 1418 2786 
Q 1159 2488 1159 1978 
L 1159 0 
L 581 0 
L 581 3500 
L 1159 3500 
L 1159 2956 
Q 1356 3278 1631 3431 
Q 1906 3584 2284 3584 
Q 2666 3584 2933 3390 
Q 3200 3197 3328 2828 
z
" id="DejaVuSans-6d" transform="scale(0.015625)"/>
       <path d="M 2834 3397 
L 2834 2853 
Q 2591 2978 2328 3040 
Q 2066 3103 1784 3103 
Q 1356 3103 1142 2972 
Q 928 2841 928 2578 
Q 928 2378 1081 2264 
Q 1234 2150 1697 2047 
L 1894 2003 
Q 2506 1872 2764 1633 
Q 3022 1394 3022 966 
Q 3022 478 2636 193 
Q 2250 -91 1575 -91 
Q 1294 -91 989 -36 
Q 684 19 347 128 
L 347 722 
Q 666 556 975 473 
Q 1284 391 1588 391 
Q 1994 391 2212 530 
Q 2431 669 2431 922 
Q 2431 1156 2273 1281 
Q 2116 1406 1581 1522 
L 1381 1569 
Q 847 1681 609 1914 
Q 372 2147 372 2553 
Q 372 3047 722 3315 
Q 1072 3584 1716 3584 
Q 2034 3584 2315 3537 
Q 2597 3491 2834 3397 
z
" id="DejaVuSans-73" transform="scale(0.015625)"/>
       <path d="M 513 4856 
L 1013 4856 
Q 1481 4119 1714 3412 
Q 1947 2706 1947 2009 
Q 1947 1309 1714 600 
Q 1481 -109 1013 -844 
L 513 -844 
Q 928 -128 1133 580 
Q 1338 1288 1338 2009 
Q 1338 2731 1133 3434 
Q 928 4138 513 4856 
z
" id="DejaVuSans-29" transform="scale(0.015625)"/>
      </defs>
      <use xlink:href="#DejaVuSans-74"/>
      <use x="39.208984" xlink:href="#DejaVuSans-20"/>
      <use x="70.996094" xlink:href="#DejaVuSans-28"/>
      <use x="110.009766" xlink:href="#DejaVuSans-6d"/>
      <use x="207.421875" xlink:href="#DejaVuSans-73"/>
      <use x="259.521484" xlink:href="#DejaVuSans-29"/>
     </g>
    </g>
   </g>
   <g id="matplotlib.axis_2">
    <g id="ytick_1">
     <g id="line2d_9">
      <defs>
       <path d="M 0 0 
L -6 0 
" id="m5c0011120d" style="stroke:#262626;stroke-width:1.25;"/>
      </defs>
      <g>
       <use style="fill:#262626;stroke:#262626;stroke-width:1.25;" x="45.607428" xlink:href="#m5c0011120d" y="170.007268"/>
      </g>
     </g>
     <g id="text_10">
      <!-- 0.0 -->
      <g style="fill:#262626;" transform="translate(18.61399 174.186408)scale(0.11 -0.11)">
       <defs>
        <path d="M 684 794 
L 1344 794 
L 1344 0 
L 684 0 
L 684 794 
z
" id="DejaVuSans-2e" transform="scale(0.015625)"/>
       </defs>
       <use xlink:href="#DejaVuSans-30"/>
       <use x="63.623047" xlink:href="#DejaVuSans-2e"/>
       <use x="95.410156" xlink:href="#DejaVuSans-30"/>
      </g>
     </g>
    </g>
    <g id="ytick_2">
     <g id="line2d_10">
      <g>
       <use style="fill:#262626;stroke:#262626;stroke-width:1.25;" x="45.607428" xlink:href="#m5c0011120d" y="141.076048"/>
      </g>
     </g>
     <g id="text_11">
      <!-- 0.2 -->
      <g style="fill:#262626;" transform="translate(18.61399 145.255189)scale(0.11 -0.11)">
       <use xlink:href="#DejaVuSans-30"/>
       <use x="63.623047" xlink:href="#DejaVuSans-2e"/>
       <use x="95.410156" xlink:href="#DejaVuSans-32"/>
      </g>
     </g>
    </g>
    <g id="ytick_3">
     <g id="line2d_11">
      <g>
       <use style="fill:#262626;stroke:#262626;stroke-width:1.25;" x="45.607428" xlink:href="#m5c0011120d" y="112.144829"/>
      </g>
     </g>
     <g id="text_12">
      <!-- 0.4 -->
      <g style="fill:#262626;" transform="translate(18.61399 116.323969)scale(0.11 -0.11)">
       <defs>
        <path d="M 2419 4116 
L 825 1625 
L 2419 1625 
L 2419 4116 
z
M 2253 4666 
L 3047 4666 
L 3047 1625 
L 3713 1625 
L 3713 1100 
L 3047 1100 
L 3047 0 
L 2419 0 
L 2419 1100 
L 313 1100 
L 313 1709 
L 2253 4666 
z
" id="DejaVuSans-34" transform="scale(0.015625)"/>
       </defs>
       <use xlink:href="#DejaVuSans-30"/>
       <use x="63.623047" xlink:href="#DejaVuSans-2e"/>
       <use x="95.410156" xlink:href="#DejaVuSans-34"/>
      </g>
     </g>
    </g>
    <g id="ytick_4">
     <g id="line2d_12">
      <g>
       <use style="fill:#262626;stroke:#262626;stroke-width:1.25;" x="45.607428" xlink:href="#m5c0011120d" y="83.213609"/>
      </g>
     </g>
     <g id="text_13">
      <!-- 0.6 -->
      <g style="fill:#262626;" transform="translate(18.61399 87.39275)scale(0.11 -0.11)">
       <defs>
        <path d="M 2113 2584 
Q 1688 2584 1439 2293 
Q 1191 2003 1191 1497 
Q 1191 994 1439 701 
Q 1688 409 2113 409 
Q 2538 409 2786 701 
Q 3034 994 3034 1497 
Q 3034 2003 2786 2293 
Q 2538 2584 2113 2584 
z
M 3366 4563 
L 3366 3988 
Q 3128 4100 2886 4159 
Q 2644 4219 2406 4219 
Q 1781 4219 1451 3797 
Q 1122 3375 1075 2522 
Q 1259 2794 1537 2939 
Q 1816 3084 2150 3084 
Q 2853 3084 3261 2657 
Q 3669 2231 3669 1497 
Q 3669 778 3244 343 
Q 2819 -91 2113 -91 
Q 1303 -91 875 529 
Q 447 1150 447 2328 
Q 447 3434 972 4092 
Q 1497 4750 2381 4750 
Q 2619 4750 2861 4703 
Q 3103 4656 3366 4563 
z
" id="DejaVuSans-36" transform="scale(0.015625)"/>
       </defs>
       <use xlink:href="#DejaVuSans-30"/>
       <use x="63.623047" xlink:href="#DejaVuSans-2e"/>
       <use x="95.410156" xlink:href="#DejaVuSans-36"/>
      </g>
     </g>
    </g>
    <g id="ytick_5">
     <g id="line2d_13">
      <g>
       <use style="fill:#262626;stroke:#262626;stroke-width:1.25;" x="45.607428" xlink:href="#m5c0011120d" y="54.282389"/>
      </g>
     </g>
     <g id="text_14">
      <!-- 0.8 -->
      <g style="fill:#262626;" transform="translate(18.61399 58.46153)scale(0.11 -0.11)">
       <defs>
        <path d="M 2034 2216 
Q 1584 2216 1326 1975 
Q 1069 1734 1069 1313 
Q 1069 891 1326 650 
Q 1584 409 2034 409 
Q 2484 409 2743 651 
Q 3003 894 3003 1313 
Q 3003 1734 2745 1975 
Q 2488 2216 2034 2216 
z
M 1403 2484 
Q 997 2584 770 2862 
Q 544 3141 544 3541 
Q 544 4100 942 4425 
Q 1341 4750 2034 4750 
Q 2731 4750 3128 4425 
Q 3525 4100 3525 3541 
Q 3525 3141 3298 2862 
Q 3072 2584 2669 2484 
Q 3125 2378 3379 2068 
Q 3634 1759 3634 1313 
Q 3634 634 3220 271 
Q 2806 -91 2034 -91 
Q 1263 -91 848 271 
Q 434 634 434 1313 
Q 434 1759 690 2068 
Q 947 2378 1403 2484 
z
M 1172 3481 
Q 1172 3119 1398 2916 
Q 1625 2713 2034 2713 
Q 2441 2713 2670 2916 
Q 2900 3119 2900 3481 
Q 2900 3844 2670 4047 
Q 2441 4250 2034 4250 
Q 1625 4250 1398 4047 
Q 1172 3844 1172 3481 
z
" id="DejaVuSans-38" transform="scale(0.015625)"/>
       </defs>
       <use xlink:href="#DejaVuSans-30"/>
       <use x="63.623047" xlink:href="#DejaVuSans-2e"/>
       <use x="95.410156" xlink:href="#DejaVuSans-38"/>
      </g>
     </g>
    </g>
    <g id="ytick_6">
     <g id="line2d_14">
      <g>
       <use style="fill:#262626;stroke:#262626;stroke-width:1.25;" x="45.607428" xlink:href="#m5c0011120d" y="25.35117"/>
      </g>
     </g>
     <g id="text_15">
      <!-- 1.0 -->
      <g style="fill:#262626;" transform="translate(18.61399 29.530311)scale(0.11 -0.11)">
       <use xlink:href="#DejaVuSans-31"/>
       <use x="63.623047" xlink:href="#DejaVuSans-2e"/>
       <use x="95.410156" xlink:href="#DejaVuSans-30"/>
      </g>
     </g>
    </g>
    <g id="text_16">
     <!-- Neural Potential (mV) -->
     <g style="fill:#262626;" transform="translate(12.118365 162.197969)rotate(-90)scale(0.12 -0.12)">
      <defs>
       <path d="M 628 4666 
L 1478 4666 
L 3547 763 
L 3547 4666 
L 4159 4666 
L 4159 0 
L 3309 0 
L 1241 3903 
L 1241 0 
L 628 0 
L 628 4666 
z
" id="DejaVuSans-4e" transform="scale(0.015625)"/>
       <path d="M 3597 1894 
L 3597 1613 
L 953 1613 
Q 991 1019 1311 708 
Q 1631 397 2203 397 
Q 2534 397 2845 478 
Q 3156 559 3463 722 
L 3463 178 
Q 3153 47 2828 -22 
Q 2503 -91 2169 -91 
Q 1331 -91 842 396 
Q 353 884 353 1716 
Q 353 2575 817 3079 
Q 1281 3584 2069 3584 
Q 2775 3584 3186 3129 
Q 3597 2675 3597 1894 
z
M 3022 2063 
Q 3016 2534 2758 2815 
Q 2500 3097 2075 3097 
Q 1594 3097 1305 2825 
Q 1016 2553 972 2059 
L 3022 2063 
z
" id="DejaVuSans-65" transform="scale(0.015625)"/>
       <path d="M 544 1381 
L 544 3500 
L 1119 3500 
L 1119 1403 
Q 1119 906 1312 657 
Q 1506 409 1894 409 
Q 2359 409 2629 706 
Q 2900 1003 2900 1516 
L 2900 3500 
L 3475 3500 
L 3475 0 
L 2900 0 
L 2900 538 
Q 2691 219 2414 64 
Q 2138 -91 1772 -91 
Q 1169 -91 856 284 
Q 544 659 544 1381 
z
M 1991 3584 
L 1991 3584 
z
" id="DejaVuSans-75" transform="scale(0.015625)"/>
       <path d="M 2631 2963 
Q 2534 3019 2420 3045 
Q 2306 3072 2169 3072 
Q 1681 3072 1420 2755 
Q 1159 2438 1159 1844 
L 1159 0 
L 581 0 
L 581 3500 
L 1159 3500 
L 1159 2956 
Q 1341 3275 1631 3429 
Q 1922 3584 2338 3584 
Q 2397 3584 2469 3576 
Q 2541 3569 2628 3553 
L 2631 2963 
z
" id="DejaVuSans-72" transform="scale(0.015625)"/>
       <path d="M 2194 1759 
Q 1497 1759 1228 1600 
Q 959 1441 959 1056 
Q 959 750 1161 570 
Q 1363 391 1709 391 
Q 2188 391 2477 730 
Q 2766 1069 2766 1631 
L 2766 1759 
L 2194 1759 
z
M 3341 1997 
L 3341 0 
L 2766 0 
L 2766 531 
Q 2569 213 2275 61 
Q 1981 -91 1556 -91 
Q 1019 -91 701 211 
Q 384 513 384 1019 
Q 384 1609 779 1909 
Q 1175 2209 1959 2209 
L 2766 2209 
L 2766 2266 
Q 2766 2663 2505 2880 
Q 2244 3097 1772 3097 
Q 1472 3097 1187 3025 
Q 903 2953 641 2809 
L 641 3341 
Q 956 3463 1253 3523 
Q 1550 3584 1831 3584 
Q 2591 3584 2966 3190 
Q 3341 2797 3341 1997 
z
" id="DejaVuSans-61" transform="scale(0.015625)"/>
       <path d="M 603 4863 
L 1178 4863 
L 1178 0 
L 603 0 
L 603 4863 
z
" id="DejaVuSans-6c" transform="scale(0.015625)"/>
       <path d="M 1259 4147 
L 1259 2394 
L 2053 2394 
Q 2494 2394 2734 2622 
Q 2975 2850 2975 3272 
Q 2975 3691 2734 3919 
Q 2494 4147 2053 4147 
L 1259 4147 
z
M 628 4666 
L 2053 4666 
Q 2838 4666 3239 4311 
Q 3641 3956 3641 3272 
Q 3641 2581 3239 2228 
Q 2838 1875 2053 1875 
L 1259 1875 
L 1259 0 
L 628 0 
L 628 4666 
z
" id="DejaVuSans-50" transform="scale(0.015625)"/>
       <path d="M 1959 3097 
Q 1497 3097 1228 2736 
Q 959 2375 959 1747 
Q 959 1119 1226 758 
Q 1494 397 1959 397 
Q 2419 397 2687 759 
Q 2956 1122 2956 1747 
Q 2956 2369 2687 2733 
Q 2419 3097 1959 3097 
z
M 1959 3584 
Q 2709 3584 3137 3096 
Q 3566 2609 3566 1747 
Q 3566 888 3137 398 
Q 2709 -91 1959 -91 
Q 1206 -91 779 398 
Q 353 888 353 1747 
Q 353 2609 779 3096 
Q 1206 3584 1959 3584 
z
" id="DejaVuSans-6f" transform="scale(0.015625)"/>
       <path d="M 3513 2113 
L 3513 0 
L 2938 0 
L 2938 2094 
Q 2938 2591 2744 2837 
Q 2550 3084 2163 3084 
Q 1697 3084 1428 2787 
Q 1159 2491 1159 1978 
L 1159 0 
L 581 0 
L 581 3500 
L 1159 3500 
L 1159 2956 
Q 1366 3272 1645 3428 
Q 1925 3584 2291 3584 
Q 2894 3584 3203 3211 
Q 3513 2838 3513 2113 
z
" id="DejaVuSans-6e" transform="scale(0.015625)"/>
       <path d="M 603 3500 
L 1178 3500 
L 1178 0 
L 603 0 
L 603 3500 
z
M 603 4863 
L 1178 4863 
L 1178 4134 
L 603 4134 
L 603 4863 
z
" id="DejaVuSans-69" transform="scale(0.015625)"/>
       <path d="M 1831 0 
L 50 4666 
L 709 4666 
L 2188 738 
L 3669 4666 
L 4325 4666 
L 2547 0 
L 1831 0 
z
" id="DejaVuSans-56" transform="scale(0.015625)"/>
      </defs>
      <use xlink:href="#DejaVuSans-4e"/>
      <use x="74.804688" xlink:href="#DejaVuSans-65"/>
      <use x="136.328125" xlink:href="#DejaVuSans-75"/>
      <use x="199.707031" xlink:href="#DejaVuSans-72"/>
      <use x="240.820312" xlink:href="#DejaVuSans-61"/>
      <use x="302.099609" xlink:href="#DejaVuSans-6c"/>
      <use x="329.882812" xlink:href="#DejaVuSans-20"/>
      <use x="361.669922" xlink:href="#DejaVuSans-50"/>
      <use x="418.347656" xlink:href="#DejaVuSans-6f"/>
      <use x="479.529297" xlink:href="#DejaVuSans-74"/>
      <use x="518.738281" xlink:href="#DejaVuSans-65"/>
      <use x="580.261719" xlink:href="#DejaVuSans-6e"/>
      <use x="643.640625" xlink:href="#DejaVuSans-74"/>
      <use x="682.849609" xlink:href="#DejaVuSans-69"/>
      <use x="710.632812" xlink:href="#DejaVuSans-61"/>
      <use x="771.912109" xlink:href="#DejaVuSans-6c"/>
      <use x="799.695312" xlink:href="#DejaVuSans-20"/>
      <use x="831.482422" xlink:href="#DejaVuSans-28"/>
      <use x="870.496094" xlink:href="#DejaVuSans-6d"/>
      <use x="967.908203" xlink:href="#DejaVuSans-56"/>
      <use x="1036.316406" xlink:href="#DejaVuSans-29"/>
     </g>
    </g>
   </g>
   <g id="line2d_15">
    <path clip-path="url(#p34c475f7bb)" d="M 76.125261 170.007268 
L 76.603763 76.669366 
L 76.798709 75.895526 
L 76.922765 75.945862 
L 77.472157 76.813003 
L 77.64938 77.606096 
L 78.305106 84.43573 
L 78.907665 91.521477 
L 79.368445 94.202758 
L 80.006449 99.849903 
L 80.733064 105.424756 
L 81.229289 107.882649 
L 82.381239 113.302001 
L 82.859742 115.304144 
L 83.249633 116.671077 
L 83.869914 119.753729 
L 84.206638 120.8464 
L 85.51809 123.450064 
L 85.907981 124.031609 
L 86.333317 124.345292 
L 86.882708 124.713786 
L 88.016937 125.927319 
L 88.123271 126.025086 
L 88.778997 126.946676 
L 89.434722 127.390386 
L 89.718279 127.69239 
L 89.94867 127.667507 
L 90.10817 127.704168 
L 90.568951 127.809397 
L 91.277844 127.783953 
L 91.827235 127.815265 
L 92.252571 127.765985 
L 93.493133 127.11339 
L 93.794413 126.937131 
L 94.042525 126.781651 
L 95.389422 125.293106 
L 97.019875 123.572762 
L 97.569267 123.252272 
L 97.888269 123.03323 
L 98.27816 122.825517 
L 98.597161 122.461877 
L 99.022497 122.099478 
L 99.394666 121.882303 
L 99.908613 121.52084 
L 100.209892 121.265921 
L 100.617506 121.045241 
L 103.045463 118.240451 
L 103.435354 117.743435 
L 103.736634 117.421332 
L 105.243031 115.413059 
L 105.54431 115.049539 
L 105.934201 114.618689 
L 106.589927 114.159834 
L 107.670989 113.740973 
L 108.964718 113.276984 
L 111.233175 112.738189 
L 112.704127 112.606166 
L 114.387747 112.680351 
L 115.734644 113.163124 
L 116.443536 113.503915 
L 117.063818 113.774104 
L 119.06644 115.073845 
L 119.403164 115.363093 
L 119.775332 115.574677 
L 120.307002 116.097211 
L 121.246285 116.95495 
L 121.458953 117.183804 
L 122.238735 117.977621 
L 122.451403 118.285256 
L 124.081856 121.195935 
L 124.560359 122.493805 
L 125.003417 123.240718 
L 126.17309 124.66558 
L 126.421202 124.66658 
L 126.527536 124.746853 
L 126.828815 124.92118 
L 127.130095 125.284932 
L 127.55543 125.63216 
L 128.406102 126.128116 
L 128.601047 126.257186 
L 128.831437 126.436027 
L 129.380829 126.609557 
L 129.664386 126.648219 
L 130.337835 127.000047 
L 132.251845 127.753905 
L 132.429068 127.724154 
L 132.570847 127.784277 
L 133.616464 128.023801 
L 134.768414 128.040584 
L 135.672253 127.807246 
L 136.912815 127.452983 
L 137.444484 127.265649 
L 138.064766 126.603431 
L 138.915437 125.219292 
L 139.305328 124.663071 
L 139.500273 124.367197 
L 140.191444 123.153423 
L 140.563613 122.543344 
L 140.882614 121.952729 
L 141.183894 121.426345 
L 142.406734 117.711908 
L 143.718185 114.997397 
L 143.824519 114.788154 
L 144.143521 114.257657 
L 144.391634 113.876221 
L 145.720807 111.858744 
L 145.951198 111.561227 
L 146.323366 111.145336 
L 147.156315 110.351079 
L 147.741152 109.78236 
L 148.591823 109.195229 
L 148.910825 109.138607 
L 150.151387 109.27069 
L 152.065398 110.18577 
L 152.508456 110.573285 
L 153.252793 111.665646 
L 153.731296 112.066547 
L 154.404744 112.816607 
L 155.255415 113.766215 
L 155.98203 114.73577 
L 157.009925 116.223841 
L 157.187148 116.360584 
L 157.594761 117.29284 
L 157.73654 117.461627 
L 158.285932 118.415218 
L 158.906213 119.733769 
L 159.668272 120.963304 
L 160.093608 122.094715 
L 160.323998 122.212731 
L 160.501221 122.298379 
L 160.944279 123.25347 
L 161.369615 123.868468 
L 161.954452 124.621615 
L 163.230459 126.270106 
L 164.293798 127.270322 
L 164.524188 127.403409 
L 164.630522 127.493015 
L 164.84319 127.58244 
L 165.055857 127.661807 
L 165.392582 127.855686 
L 165.782473 128.185691 
L 166.367309 128.659109 
L 166.863534 128.824827 
L 167.129369 128.873046 
L 167.377481 128.900771 
L 169.362381 129.669386 
L 170.797889 129.816937 
L 172.552398 129.353112 
L 173.314458 128.958514 
L 174.147407 128.148659 
L 174.360075 127.79377 
L 174.661354 127.054052 
L 176.30953 123.699853 
L 178.577987 117.132174 
L 179.552714 114.722345 
L 180.456553 112.285386 
L 181.608503 109.733809 
L 182.317396 108.521531 
L 183.061734 106.952575 
L 183.469347 106.450075 
L 184.142795 106.119996 
L 184.763076 105.850532 
L 185.596025 106.088582 
L 186.535308 106.864069 
L 187.0847 107.419552 
L 187.439146 107.635555 
L 188.325262 108.553765 
L 189.867104 110.749212 
L 189.955716 110.911404 
L 190.381051 111.668414 
L 190.593719 111.999195 
L 191.710225 113.924005 
L 192.20645 114.704381 
L 192.578619 115.451897 
L 193.092566 116.117473 
L 193.535624 116.858467 
L 193.766014 117.226889 
L 194.297684 118.653096 
L 195.077466 121.047107 
L 195.910415 122.599577 
L 196.672475 124.200996 
L 197.788981 125.689955 
L 198.62193 126.553547 
L 199.951104 127.941093 
L 200.340995 128.166093 
L 201.971448 129.614428 
L 202.272727 129.743985 
L 202.627174 129.925128 
L 203.389233 130.468364 
L 203.867736 130.850068 
L 204.275349 130.923283 
L 204.807019 131.0973 
L 205.179188 131.137079 
L 205.923525 130.750551 
L 206.100748 130.673012 
L 207.093198 130.046917 
L 207.359033 129.942252 
L 208.138815 129.486014 
L 211.381999 125.267994 
L 212.569395 122.238731 
L 213.827679 118.83398 
L 214.323904 118.248819 
L 214.731518 117.486425 
L 215.21002 116.896388 
L 216.167025 115.401535 
L 216.468305 114.370086 
L 216.929085 112.894465 
L 218.275981 110.55389 
L 218.87854 109.830821 
L 219.817823 108.908938 
L 220.119103 108.58762 
L 220.792551 108.260525 
L 221.200164 108.051135 
L 221.55461 107.933572 
L 222.31667 108.042108 
L 222.759728 108.119026 
L 223.061008 108.13593 
L 223.823067 108.781403 
L 224.797795 109.392284 
L 225.453521 109.743241 
L 226.623194 110.392828 
L 227.846034 111.683628 
L 230.575271 115.88273 
L 231.603165 116.999121 
L 231.869 117.254613 
L 232.32978 117.879915 
L 232.790561 118.555833 
L 233.162729 119.034316 
L 233.357675 119.42719 
L 233.765288 120.191214 
L 235.590687 122.923409 
L 236.388191 123.777642 
L 237.628754 126.387053 
L 238.21359 127.00622 
L 238.479425 127.758488 
L 238.692093 128.120033 
L 239.081984 128.323426 
L 239.383263 128.51348 
L 239.914933 129.000003 
L 240.712437 130.043882 
L 240.995994 130.320972 
L 242.732782 132.366722 
L 243.246729 132.522158 
L 244.363235 132.753818 
L 244.983516 132.830961 
L 246.100022 132.110121 
L 246.791193 131.772141 
L 247.53553 131.562911 
L 249.662208 130.197606 
L 251.753442 127.692533 
L 252.799059 125.716024 
L 254.234567 123.095728 
L 257.211916 115.522582 
L 257.495473 114.491103 
L 258.098032 113.370629 
L 259.515818 111.554364 
L 260.419656 110.62792 
L 260.98677 110.061697 
L 261.855164 109.459244 
L 262.829891 109.20245 
L 263.060281 109.149872 
L 263.73373 108.863478 
L 265.399628 108.667233 
L 265.860408 108.495509 
L 267.668084 108.533624 
L 268.057975 108.494427 
L 268.678257 108.394332 
L 268.837757 108.457744 
L 269.08587 108.450437 
L 269.599817 108.368535 
L 270.787213 108.503774 
L 271.30116 108.484602 
L 272.807557 108.743461 
L 273.481005 108.614293 
L 274.065842 108.954713 
L 274.43801 109.185482 
L 275.058291 109.348156 
L 275.572239 109.877002 
L 277.610305 112.583244 
L 277.964752 113.206972 
L 278.443254 113.628566 
L 279.081258 114.066232 
L 279.985096 115.311817 
L 280.995268 116.590779 
L 281.650994 117.90764 
L 282.147219 118.454432 
L 283.033335 118.878234 
L 284.043507 119.174785 
L 284.858734 119.236187 
L 285.638516 119.123353 
L 286.861356 118.689287 
L 290.193152 117.637063 
L 291.203324 117.042154 
L 293.77306 116.276462 
L 294.641454 115.735808 
L 295.580737 115.315202 
L 296.325074 114.951893 
L 296.839021 114.732045 
L 299.355591 113.57006 
L 299.904983 113.35999 
L 300.87971 113.245418 
L 302.687387 113.151609 
L 302.970944 113.196069 
L 303.520336 113.292857 
L 304.122895 113.41587 
L 304.902677 113.750285 
L 305.274845 113.910985 
L 305.948293 114.086736 
L 306.852132 114.128894 
L 307.206578 113.951372 
L 307.507857 113.684248 
L 307.826859 113.509183 
L 308.411696 113.126096 
L 309.085144 112.553174 
L 309.528202 112.333468 
L 310.113038 111.574686 
L 310.414318 111.23665 
L 310.839653 111.052049 
L 311.335878 110.847746 
L 312.346051 110.426157 
L 312.594163 110.358641 
L 312.930887 110.531571 
L 313.320778 111.10486 
L 313.976504 112.293909 
L 314.63223 113.140219 
L 316.457629 116.973073 
L 316.865242 118.237778 
L 317.042465 118.849354 
L 317.53869 120.088735 
L 322.252827 128.617856 
L 323.316166 129.955194 
L 323.582001 130.371554 
L 324.290894 131.45134 
L 324.680785 131.827547 
L 324.893452 131.939833 
L 325.371955 132.396602 
L 326.736574 133.62965 
L 329.111364 134.759367 
L 330.458261 134.989363 
L 331.946935 134.987865 
L 333.098886 134.78929 
L 333.453332 134.567226 
L 333.701445 134.48511 
L 334.463505 133.894625 
L 335.367343 133.258198 
L 336.147125 132.170226 
L 336.820573 130.732186 
L 337.86619 128.93732 
L 338.85864 127.657496 
L 339.177642 127.277918 
L 339.762478 125.686833 
L 340.116924 124.795512 
L 340.471371 123.747004 
L 341.056207 122.01561 
L 341.392931 121.574858 
L 341.658766 121.095585 
L 342.048657 120.302945 
L 342.261325 120.009144 
L 342.580327 119.349289 
L 344.51206 114.128118 
L 345.983012 111.638245 
L 347.560298 110.530373 
L 349.33253 110.190616 
L 350.32498 110.976726 
L 350.962984 112.072246 
L 351.441486 112.776574 
L 351.760488 113.363357 
L 352.983328 115.495327 
L 353.497275 116.200669 
L 353.798555 116.924298 
L 354.45428 118.411162 
L 354.649226 118.672853 
L 355.056839 119.493275 
L 355.44673 119.773095 
L 355.694843 120.004242 
L 356.102456 120.740585 
L 356.811349 122.266067 
L 357.803799 124.208605 
L 358.300024 125.704427 
L 358.601303 126.106427 
L 360.781148 128.486553 
L 360.887482 128.617765 
L 361.135595 128.79821 
L 361.295096 128.894675 
L 361.791321 129.122158 
L 362.32299 129.379638 
L 362.571103 129.530724 
L 362.801493 129.664489 
L 363.474941 130.178012 
L 363.740776 130.376771 
L 364.272445 130.727874 
L 365.832009 131.545183 
L 366.151011 131.510811 
L 366.895348 131.520813 
L 367.108016 131.538462 
L 367.480185 131.624516 
L 367.692853 131.662574 
L 368.330856 131.539325 
L 368.578969 131.424964 
L 369.571419 131.090148 
L 369.979032 130.676331 
L 370.989204 129.565217 
L 371.308206 129.299598 
L 371.609485 129.139385 
L 372.034821 128.988652 
L 372.86777 128.251883 
L 373.275383 127.969266 
L 373.895664 127.184229 
L 374.746336 125.893865 
L 375.012171 125.523116 
L 375.756508 124.760678 
L 376.057787 124.503496 
L 376.607179 123.525961 
L 378.485745 119.11702 
L 378.964248 118.104441 
L 379.726307 116.440038 
L 380.116198 115.729704 
L 380.488367 115.253256 
L 380.860536 114.854851 
L 381.516262 114.344875 
L 382.242877 113.922039 
L 382.615045 113.698552 
L 383.625218 112.98574 
L 384.511333 112.654562 
L 385.273393 112.334774 
L 387.293738 112.406032 
L 387.77224 112.655028 
L 389.207748 113.748444 
L 390.093864 114.476656 
L 390.714145 114.838348 
L 391.352149 115.526561 
L 392.220542 117.199324 
L 393.283881 119.386144 
L 393.638328 120.186394 
L 394.169997 121.257234 
L 394.825723 122.818891 
L 395.197892 123.733837 
L 395.463727 124.230716 
L 396.137175 124.965011 
L 396.473899 125.646339 
L 396.686567 126.027802 
L 396.987846 126.515045 
L 397.271403 126.861027 
L 397.679016 127.364653 
L 399.185414 129.39405 
L 401.29437 131.211816 
L 402.109596 131.712734 
L 402.464043 131.99849 
L 402.836211 132.230797 
L 403.155213 132.236087 
L 403.74005 132.469627 
L 403.952717 132.542829 
L 404.413498 132.653073 
L 404.66161 132.677594 
L 404.96289 132.633871 
L 405.65406 132.537764 
L 406.362953 132.165381 
L 406.983234 131.360557 
L 407.319958 130.915252 
L 408.09974 130.418606 
L 408.507353 130.081711 
L 408.985856 129.557686 
L 410.297308 127.398154 
L 411.396091 126.127258 
L 412.051817 125.183277 
L 412.796155 123.912713 
L 413.345546 122.88977 
L 413.877216 121.096288 
L 414.922833 117.748272 
L 415.117778 117.16837 
L 415.89756 114.970892 
L 416.978622 112.500777 
L 417.740682 111.886693 
L 418.024239 111.657291 
L 418.910355 110.989577 
L 419.300246 110.873479 
L 420.009138 110.943457 
L 421.426924 111.303743 
L 421.958594 111.604778 
L 422.490263 112.209809 
L 423.447268 113.861615 
L 424.014383 114.588055 
L 424.546052 115.035778 
L 424.900498 115.394603 
L 425.166333 115.633791 
L 427.275289 118.214227 
L 428.675352 121.137179 
L 429.100688 122.208592 
L 429.632358 123.023181 
L 429.88047 123.397202 
L 430.926087 125.286346 
L 431.121032 125.532022 
L 431.776758 126.891313 
L 433.442656 129.052883 
L 433.992048 129.595447 
L 434.860442 130.658143 
L 435.498445 131.021149 
L 436.065559 131.257004 
L 436.29595 131.346011 
L 436.809897 131.766816 
L 437.235232 131.937091 
L 437.571957 131.987514 
L 438.050459 132.179137 
L 439.220132 132.48666 
L 439.627746 132.477094 
L 439.875858 132.409738 
L 440.832863 132.00778 
L 441.399977 131.648727 
L 441.807591 131.50872 
L 442.729151 131.09136 
L 443.172209 130.759505 
L 443.455766 130.348059 
L 446.698951 125.202302 
L 447.00023 124.801026 
L 448.311682 122.267964 
L 451.413088 113.832558 
L 451.6612 113.516279 
L 451.980202 112.545573 
L 452.919485 109.734727 
L 453.539766 108.914482 
L 454.443604 107.900247 
L 455.063885 107.754588 
L 455.737333 107.88405 
L 456.038613 108.053549 
L 457.651344 109.102398 
L 458.200736 109.812115 
L 460.699583 112.652833 
L 461.727477 114.487723 
L 462.064201 114.951764 
L 462.808539 115.76005 
L 463.552876 116.810451 
L 463.836433 117.167305 
L 464.42127 118.099121 
L 465.059273 119.141219 
L 465.502331 120.185968 
L 466.016279 121.241188 
L 466.512503 122.224069 
L 468.231568 126.049392 
L 468.603737 127.042356 
L 470.429136 129.983901 
L 471.368419 130.74489 
L 472.059589 131.316635 
L 472.272257 131.441722 
L 472.484925 131.502271 
L 473.069761 131.719869 
L 473.406486 131.704883 
L 473.867266 131.619235 
L 474.292601 131.447236 
L 475.001494 131.211117 
L 475.993944 130.410979 
L 476.312946 130.139519 
L 477.553508 128.187113 
L 477.943399 127.332794 
L 478.935849 124.381251 
L 479.467519 122.969257 
L 479.662464 122.571051 
L 480.903026 118.227785 
L 481.416974 116.441529 
L 481.895476 115.334412 
L 482.2322 114.395431 
L 482.498035 113.594715 
L 483.632264 108.746229 
L 483.915821 107.673475 
L 484.500657 105.764043 
L 484.766492 104.880567 
L 485.20955 103.745842 
L 485.43994 102.849584 
L 485.688053 102.255731 
L 486.538724 101.471101 
L 487.088116 101.4186 
L 487.513451 101.612211 
L 487.921065 102.003347 
L 488.594513 102.657374 
L 489.622407 104.33894 
L 489.799631 104.884387 
L 490.171799 105.898734 
L 490.508523 106.545979 
L 491.235138 107.378062 
L 491.607307 107.975514 
L 493.113704 110.588309 
L 494.088432 112.227648 
L 494.797325 114.122815 
L 495.825219 116.97585 
L 496.144221 117.513029 
L 496.693613 118.690878 
L 496.97717 119.237623 
L 498.607623 122.096133 
L 499.032959 122.680656 
L 499.88363 124.734053 
L 500.716579 126.009937 
L 501.053303 126.706664 
L 501.850807 127.914868 
L 502.435644 128.374107 
L 502.683756 128.514941 
L 502.931869 128.571231 
L 503.250871 128.841041 
L 503.481261 128.961234 
L 503.747096 129.10725 
L 504.438266 129.455302 
L 504.650934 129.546865 
L 506.157331 129.80919 
L 506.671278 129.624383 
L 506.901668 129.63582 
L 507.75234 129.447887 
L 508.106786 129.378185 
L 509.506849 128.514084 
L 510.038519 128.227694 
L 510.694245 127.782906 
L 510.88919 127.681759 
L 511.030969 127.603789 
L 511.438582 127.436536 
L 511.65125 127.309199 
L 514.32732 125.881255 
L 515.053935 125.51617 
L 517.694561 124.079479 
L 518.155341 123.590265 
L 518.45662 123.256449 
L 518.7579 122.868878 
L 520.920023 120.183644 
L 521.274469 119.916775 
L 523.082146 117.772974 
L 523.401147 117.478182 
L 523.87965 117.162201 
L 524.748044 116.622901 
L 525.261991 116.145241 
L 526.09494 115.637473 
L 526.449386 115.250087 
L 526.910167 114.95082 
L 527.31778 114.624768 
L 530.153351 113.225518 
L 530.45463 113.175695 
L 530.950855 113.064232 
L 531.482525 112.873466 
L 532.545864 112.48208 
L 532.90031 112.367314 
L 533.307924 112.302747 
L 533.768704 112.207657 
L 534.991544 112.022466 
L 535.151045 111.958037 
L 537.118222 111.17601 
L 538.022061 110.136848 
L 538.181561 110.014935 
L 538.660064 109.575863 
L 539.138567 109.031136 
L 539.705681 108.21046 
L 540.272795 107.321307 
L 540.53863 106.947229 
L 541.052577 106.377536 
L 541.495635 106.046324 
L 541.938693 105.280671 
L 542.505807 104.566397 
L 542.718475 104.338077 
L 543.427368 103.867238 
L 545.040099 103.160525 
L 545.642658 103.527541 
L 546.209772 104.041414 
L 546.42244 104.271212 
L 547.219944 105.563211 
L 547.556668 105.891655 
L 547.787058 106.310784 
L 548.123782 106.88978 
L 548.655452 107.605226 
L 549.080788 108.390866 
L 549.364345 108.95965 
L 550.569462 111.192008 
L 551.615079 112.545686 
L 551.880914 112.931649 
L 552.377139 113.731192 
L 553.050587 114.531545 
L 553.511367 115.150471 
L 554.787374 116.352393 
L 555.319044 116.68442 
L 555.779824 116.985735 
L 556.134271 117.292797 
L 557.552056 117.850815 
L 557.995114 117.883851 
L 559.235676 117.961731 
L 559.855958 117.990059 
L 560.86613 117.834054 
L 561.468689 117.788222 
L 562.585195 117.427816 
L 563.471311 117.144271 
L 569.071563 114.2108 
L 569.620955 113.897712 
L 569.957679 113.711149 
L 570.631127 113.385753 
L 571.021019 113.239193 
L 571.960301 112.837753 
L 572.172969 112.739978 
L 573.431254 112.338456 
L 573.874312 112.181131 
L 574.689539 112.02845 
L 576.957995 111.357403 
L 577.294719 111.164913 
L 577.879556 110.812766 
L 578.180835 110.674514 
L 578.322614 110.599949 
L 579.137841 110.029205 
L 580.254347 109.000428 
L 580.484737 108.771134 
L 580.750572 108.514271 
L 580.963239 108.29838 
L 581.512631 107.762223 
L 581.955689 106.83646 
L 582.824083 105.273385 
L 583.745644 103.066651 
L 584.135535 102.653528 
L 584.933039 101.567751 
L 585.978656 100.77455 
L 586.262213 100.565742 
L 586.598937 100.422273 
L 587.679998 100.342652 
L 589.044617 100.920221 
L 589.576286 101.419669 
L 589.806677 101.65931 
L 590.356069 102.473528 
L 590.994072 103.24191 
L 591.561186 104.705817 
L 591.915633 106.101704 
L 592.65997 107.959111 
L 593.88281 111.562141 
L 595.070205 115.755924 
L 595.460096 116.705187 
L 596.027211 117.470832 
L 596.452546 118.116564 
L 597.710831 120.399289 
L 598.596947 122.281436 
L 599.217228 123.293839 
L 599.53623 123.614645 
L 600.103344 123.968326 
L 601.042627 124.240593 
L 601.556574 124.427039 
L 602.230022 124.708031 
L 603.080694 124.883393 
L 605.437762 125.372486 
L 606.483379 125.766205 
L 607.085938 125.937071 
L 607.387217 126.017934 
L 609.283505 125.945093 
L 610.275955 125.224625 
L 610.719013 124.771146 
L 610.878514 124.430729 
L 611.427906 123.426556 
L 612.367189 121.737899 
L 613.554584 118.727212 
L 613.97992 118.009855 
L 614.812869 116.001397 
L 615.681262 113.674591 
L 616.053431 113.281782 
L 616.35471 112.52019 
L 616.815491 111.396087 
L 617.400327 110.55639 
L 618.002886 109.587603 
L 618.357333 108.935844 
L 618.729501 108.531127 
L 618.977614 108.233636 
L 619.420672 107.751963 
L 620.430844 107.285072 
L 621.689128 106.970863 
L 622.663856 106.75117 
L 624.914591 106.907947 
L 626.155153 107.280636 
L 627.342548 107.852411 
L 627.572938 108.005524 
L 628.140053 108.307378 
L 629.132502 108.991478 
L 631.489571 111.024919 
L 632.32252 111.712878 
L 632.55291 112.099367 
L 632.854189 112.509688 
L 633.492193 113.10611 
L 634.23653 113.699139 
L 635.140369 114.475419 
L 636.522709 116.28076 
L 637.586049 119.123237 
L 637.887328 119.923168 
L 638.277219 120.508493 
L 639.021556 121.649388 
L 639.411447 121.940477 
L 639.765894 122.17591 
L 640.776066 122.972327 
L 640.971012 123.068089 
L 641.148235 123.084751 
L 641.609015 123.198232 
L 641.821683 123.196723 
L 642.495131 123.166386 
L 642.902744 123.181182 
L 643.133134 123.277949 
L 643.32808 123.24146 
L 644.958533 123.35826 
L 645.614259 123.488166 
L 647.138379 123.612924 
L 649.371391 122.932699 
L 649.991672 122.756941 
L 651.338568 122.199039 
L 652.047461 121.454656 
L 652.969022 119.795275 
L 653.394357 119.214796 
L 654.758976 117.184347 
L 655.432424 116.51424 
L 656.070427 115.596112 
L 656.531208 114.993564 
L 657.00971 114.313706 
L 658.516107 112.46024 
L 660.731397 110.657765 
L 661.936515 110.104386 
L 663.3543 109.230196 
L 665.534146 109.023919 
L 666.278483 109.195557 
L 666.739263 109.284628 
L 667.217766 109.535443 
L 667.997548 110.183093 
L 669.716613 111.434296 
L 670.248283 111.933364 
L 670.478673 112.188508 
L 671.028065 112.828316 
L 674.182637 115.622888 
L 674.909252 116.498117 
L 675.228254 116.8802 
L 675.88398 117.670832 
L 676.982764 119.219482 
L 677.266321 119.725392 
L 677.744823 120.393391 
L 678.187881 121.224155 
L 678.754996 121.987394 
L 679.623389 123.268615 
L 680.190503 123.795124 
L 680.757618 124.437036 
L 684.071691 127.129017 
L 684.337526 127.323262 
L 684.833751 127.573719 
L 685.010974 127.639079 
L 685.223642 127.614178 
L 685.43631 127.686583 
L 685.6667 127.71824 
L 686.481927 128.007419 
L 686.481927 128.007419 
" style="fill:none;stroke:#0173b2;stroke-linecap:round;stroke-width:1.5;"/>
   </g>
   <g id="line2d_16">
    <path clip-path="url(#p34c475f7bb)" d="M 76.125261 170.007268 
L 76.284762 140.159864 
L 76.497429 125.809803 
L 76.692375 124.163778 
L 76.922765 123.924185 
L 77.684825 123.251927 
L 78.854498 120.424047 
L 79.598835 119.303208 
L 82.221739 112.920892 
L 83.373689 109.367077 
L 85.872536 97.40243 
L 86.315594 96.275761 
L 87.875158 93.658431 
L 88.584051 93.383091 
L 88.88533 93.613242 
L 89.576501 94.438264 
L 90.444895 96.153395 
L 90.905675 98.319838 
L 91.295566 99.91119 
L 91.703179 101.078524 
L 92.32346 102.692669 
L 92.642462 103.98249 
L 93.457689 106.15718 
L 93.741246 106.625648 
L 94.202026 107.503157 
L 95.141309 108.931395 
L 95.336255 109.249781 
L 95.619812 109.510908 
L 95.814757 109.709908 
L 96.29326 110.226303 
L 98.154103 110.669875 
L 99.571889 110.915456 
L 100.068114 110.921259 
L 101.911235 111.368703 
L 105.934201 113.785628 
L 107.334265 114.423772 
L 109.673611 115.161037 
L 111.162285 115.509192 
L 112.42057 115.687201 
L 115.575143 115.775384 
L 120.732338 114.925535 
L 122.681793 114.302186 
L 123.904633 113.915697 
L 124.684415 113.602863 
L 125.357863 113.263089 
L 126.616148 112.768914 
L 127.147817 112.508912 
L 129.239051 110.940211 
L 130.266945 110.003967 
L 131.791065 107.361434 
L 131.968288 107.016517 
L 132.482235 106.150463 
L 132.836682 105.618664 
L 133.545574 104.458176 
L 133.829131 103.92151 
L 134.254467 103.447471 
L 135.229195 102.855309 
L 136.062144 102.693156 
L 136.381145 102.936396 
L 137.267261 103.915362 
L 137.497651 104.296014 
L 138.011599 105.746695 
L 138.525546 107.752683 
L 139.181272 109.512292 
L 139.482551 110.235451 
L 140.014221 111.706575 
L 141.449729 114.530407 
L 141.981398 115.941542 
L 142.353567 116.841542 
L 142.743458 117.500699 
L 143.576407 118.670857 
L 145.189138 120.280523 
L 145.756252 120.686571 
L 146.518312 121.101643 
L 147.209482 121.384165 
L 147.741152 121.541852 
L 148.822213 121.718516 
L 150.931169 121.393176 
L 153.022403 120.74797 
L 153.341405 120.600487 
L 154.457911 120.080273 
L 155.857974 119.325237 
L 157.771984 118.205807 
L 158.250487 117.939335 
L 158.923935 117.437304 
L 159.561939 117.106083 
L 159.863218 116.786796 
L 160.199942 116.550833 
L 160.643 116.234205 
L 161.10378 115.697884 
L 161.369615 115.385886 
L 162.929179 113.101997 
L 163.283626 112.713189 
L 164.719133 110.744823 
L 165.002691 110.3665 
L 165.83564 108.240396 
L 166.190086 107.082382 
L 166.774922 106.047687 
L 168.192708 103.218923 
L 168.44082 102.341216 
L 168.848434 100.879848 
L 169.043379 100.356529 
L 169.521882 99.48206 
L 171.134613 97.197386 
L 171.489059 97.11632 
L 171.861228 97.182797 
L 172.056173 97.494713 
L 173.084068 99.776373 
L 173.349903 100.189815 
L 173.739794 101.236478 
L 174.32463 103.651269 
L 175.193024 107.266319 
L 175.77786 109.244815 
L 176.203196 111.171022 
L 176.628532 112.657731 
L 177.372869 115.41906 
L 177.709593 116.435101 
L 178.152651 117.340378 
L 178.436208 117.874918 
L 179.091934 119.010459 
L 179.783105 119.981596 
L 180.757832 121.049552 
L 182.246507 121.800504 
L 183.487069 122.066649 
L 184.373185 122.028539 
L 184.656742 121.995482 
L 186.039083 121.455272 
L 186.606197 121.153363 
L 187.191034 120.902 
L 188.360707 120.467986 
L 189.884826 119.682195 
L 190.664608 119.21061 
L 191.320334 118.640115 
L 193.836904 116.758812 
L 195.290134 115.036839 
L 196.087638 114.395905 
L 197.062366 113.291189 
L 198.728264 111.663529 
L 199.259933 111.056502 
L 199.791603 110.476777 
L 200.270105 109.94034 
L 200.695441 109.46656 
L 201.776502 107.588357 
L 202.095504 107.005058 
L 202.662618 106.228287 
L 203.4424 104.551394 
L 203.761402 103.618815 
L 204.66524 101.934499 
L 204.860186 101.61 
L 205.356411 100.744514 
L 206.153915 99.979667 
L 206.614695 99.870118 
L 207.075476 99.946872 
L 207.483089 100.327227 
L 208.316038 101.877261 
L 208.936319 104.085659 
L 209.361655 105.211857 
L 209.698379 105.961077 
L 209.893325 106.290457 
L 210.743996 108.278256 
L 211.009831 108.999631 
L 211.647834 111.053045 
L 211.789613 111.582485 
L 212.356727 113.804355 
L 212.551672 114.553967 
L 213.260565 116.876617 
L 213.597289 117.510131 
L 215.387243 119.169085 
L 216.255637 120.001362 
L 217.053141 121.068098 
L 217.478477 121.307514 
L 220.349493 121.943878 
L 221.200164 121.973517 
L 221.572333 121.964084 
L 222.493893 121.654928 
L 222.954674 121.65901 
L 223.202786 121.527022 
L 223.929401 121.217175 
L 225.06363 120.942869 
L 227.119419 120.447103 
L 228.484037 119.869223 
L 228.944817 119.582777 
L 229.441042 119.292943 
L 229.937267 118.999875 
L 234.119735 116.765594 
L 234.669126 116.412994 
L 235.697021 115.915249 
L 236.370469 115.618258 
L 237.114806 115.058537 
L 237.912311 114.548914 
L 238.21359 114.393189 
L 238.97565 113.729325 
L 239.525042 113.499277 
L 240.038989 112.924302 
L 240.641548 112.245354 
L 241.066884 111.725083 
L 242.218834 109.276152 
L 243.211284 106.849989 
L 243.494841 106.595945 
L 243.813843 106.322734 
L 243.902455 106.210124 
L 244.256901 105.775795 
L 244.522736 105.520686 
L 245.143017 104.63584 
L 245.568353 104.574265 
L 247.145639 104.763332 
L 247.287418 104.935038 
L 248.014033 106.051373 
L 248.279867 106.39629 
L 250.247045 110.974919 
L 251.274939 114.063555 
L 252.42689 118.116335 
L 252.852226 119.274698 
L 253.047171 119.886442 
L 253.330728 120.515253 
L 253.632008 120.929958 
L 253.915565 121.636355 
L 256.432134 126.362264 
L 257.247361 127.762592 
L 257.584085 128.123771 
L 258.292978 128.59812 
L 258.665146 128.829784 
L 259.53354 129.211023 
L 260.437378 129.593373 
L 261.943775 130.222266 
L 264.584401 130.928754 
L 268.62509 131.75581 
L 268.979536 131.684992 
L 269.706151 131.427982 
L 269.971986 131.27743 
L 270.255543 131.285083 
L 270.574545 131.038807 
L 270.84038 130.993205 
L 271.194826 130.663807 
L 271.389771 130.618679 
L 272.045497 129.983268 
L 272.240443 129.789333 
L 272.825279 129.227547 
L 273.108836 129.159759 
L 273.675951 128.544455 
L 274.73929 126.946374 
L 275.129181 126.60682 
L 275.324126 126.27368 
L 275.696295 125.726258 
L 275.855796 125.437411 
L 276.210242 124.910933 
L 277.309026 123.568667 
L 278.33692 121.886804 
L 279.240759 120.920495 
L 280.109152 119.537757 
L 280.233209 119.341934 
L 280.888934 118.11067 
L 281.31427 116.558166 
L 281.916829 114.590158 
L 282.785223 112.960115 
L 284.185286 110.853329 
L 284.841012 110.58943 
L 285.886628 110.569944 
L 286.400576 110.759154 
L 287.765194 111.439767 
L 288.172807 111.62679 
L 290.264041 113.087201 
L 291.079268 114.198927 
L 293.77306 116.100858 
L 294.659176 117.611119 
L 295.190846 118.190611 
L 295.952906 119.334084 
L 296.28963 119.62106 
L 296.590909 119.952009 
L 297.494747 120.84628 
L 300.153095 124.53263 
L 300.560708 124.823129 
L 301.021489 125.153035 
L 301.34049 125.4632 
L 301.978494 126.305358 
L 303.236779 127.422697 
L 303.963394 127.970455 
L 304.619119 128.544188 
L 304.973566 128.850999 
L 305.558402 129.308764 
L 307.047077 130.50428 
L 307.383801 130.748844 
L 307.773692 130.969179 
L 308.358529 131.144571 
L 308.677531 131.270153 
L 309.120589 131.34865 
L 311.796659 131.061087 
L 312.576441 130.754 
L 315.199344 129.353301 
L 315.642402 129.114713 
L 315.979126 128.905548 
L 316.439906 128.202564 
L 316.829797 127.433794 
L 317.113354 126.802922 
L 318.034915 125.234277 
L 318.371639 124.928867 
L 318.779252 124.227552 
L 320.391983 121.251789 
L 320.888208 120.521767 
L 321.490767 119.580902 
L 321.880658 118.978216 
L 322.341438 118.133515 
L 323.068054 116.877548 
L 323.564278 116.118711 
L 323.989614 115.233761 
L 324.751674 114.514939 
L 325.247899 114.250759 
L 325.708679 113.919168 
L 327.09102 113.23336 
L 329.253143 112.557657 
L 329.625312 112.275104 
L 330.422816 111.913667 
L 330.883596 111.708283 
L 331.202598 111.537926 
L 331.379821 111.296431 
L 331.822879 110.780804 
L 332.833051 110.101342 
L 333.364721 109.421863 
L 333.683723 109.253239 
L 334.020447 109.126338 
L 334.268559 108.904877 
L 334.605283 108.505601 
L 334.906563 108.670858 
L 335.491399 109.202243 
L 336.040791 110.058378 
L 336.802851 111.833106 
L 337.192742 112.618133 
L 337.56491 113.517625 
L 337.919357 114.10842 
L 338.699139 115.150108 
L 339.567533 116.91621 
L 340.116924 118.196715 
L 341.322042 120.622931 
L 341.623322 120.905958 
L 342.101824 121.462886 
L 342.775272 122.195124 
L 343.377831 122.977574 
L 343.891778 123.458044 
L 344.228502 123.771603 
L 347.064073 124.785963 
L 349.314808 124.584001 
L 350.679427 123.635351 
L 351.884544 122.557199 
L 352.30988 122.167779 
L 352.894716 121.704233 
L 353.621331 121.180048 
L 354.98595 119.73132 
L 355.925233 119.302009 
L 356.315124 118.877492 
L 356.775904 118.347569 
L 357.608853 117.639313 
L 357.874688 117.15986 
L 358.388635 116.356687 
L 359.983644 115.097944 
L 361.897654 114.300751 
L 363.54583 113.763477 
L 365.53073 112.682075 
L 365.885176 112.446 
L 366.611791 112.170776 
L 367.21435 111.531692 
L 367.692853 110.737624 
L 369.022027 108.72961 
L 370.88287 107.863379 
L 371.379095 107.932951 
L 372.052543 108.154381 
L 373.488051 109.804894 
L 373.718441 110.158261 
L 374.710891 112.267681 
L 375.012171 112.651389 
L 375.703341 113.630433 
L 376.164121 114.134541 
L 377.103404 115.979549 
L 377.599629 116.92275 
L 377.883186 117.380381 
L 378.2908 117.988041 
L 380.293422 120.242214 
L 382.065653 121.160739 
L 382.809991 121.417964 
L 383.64294 121.695935 
L 384.493611 121.836683 
L 385.698729 121.989515 
L 388.676078 121.703376 
L 391.104036 121.012312 
L 391.990152 120.452113 
L 392.716767 119.926828 
L 394.471277 118.853328 
L 395.446004 118.001544 
L 396.385287 117.448263 
L 398.192964 115.992581 
L 400.319642 113.615478 
L 401.648816 111.712038 
L 404.307164 107.204235 
L 404.626166 106.616983 
L 405.033779 106.062987 
L 405.689505 105.135969 
L 407.089568 103.598459 
L 407.479459 103.736685 
L 407.851628 104.11763 
L 409.446636 106.654032 
L 410.492253 109.831326 
L 410.899866 110.674889 
L 411.254313 111.232662 
L 412.016373 113.070069 
L 412.813877 114.879204 
L 413.150601 115.460809 
L 413.505047 116.477014 
L 414.036717 118.156424 
L 414.621553 119.722323 
L 415.064611 120.363727 
L 415.614003 121.228841 
L 416.588731 122.217865 
L 417.173567 122.463705 
L 418.166017 122.643046 
L 419.495191 122.585631 
L 422.08265 121.984239 
L 423.163711 121.399358 
L 423.730825 121.083079 
L 427.346178 119.295284 
L 429.667802 117.044021 
L 430.004526 116.766206 
L 431.227366 115.660558 
L 431.989426 114.657299 
L 432.538818 113.95357 
L 433.3186 113.098332 
L 434.665496 110.641926 
L 435.00222 109.909869 
L 436.544062 107.682365 
L 436.98712 106.767711 
L 438.121348 105.014293 
L 438.653018 104.114422 
L 439.787246 102.586228 
L 440.88603 101.482439 
L 441.399977 101.446614 
L 441.896202 101.575593 
L 442.463317 102.137819 
L 442.817763 102.921803 
L 442.959542 103.23562 
L 443.455766 105.260555 
L 444.501383 109.917384 
L 445.157109 112.063822 
L 445.600167 113.431795 
L 446.344504 115.624035 
L 447.921791 118.578505 
L 448.29396 119.381131 
L 448.666128 120.101052 
L 448.931963 120.736847 
L 449.499077 121.891813 
L 450.243415 123.052655 
L 450.651028 123.60813 
L 451.129531 124.151026 
L 451.483977 124.334458 
L 452.689095 124.920279 
L 453.008096 125.025323 
L 453.734711 124.966334 
L 454.425882 124.665864 
L 457.598177 123.255458 
L 458.253903 122.805919 
L 459.352687 122.291158 
L 460.238803 121.877406 
L 461.44392 121.050069 
L 462.737649 120.17951 
L 462.985762 119.970038 
L 463.641488 119.469473 
L 463.96049 119.151712 
L 465.147885 117.848936 
L 465.768166 116.90983 
L 466.494781 115.748048 
L 468.142957 112.557782 
L 468.639182 110.822039 
L 469.596187 108.256912 
L 470.287357 105.936348 
L 471.173473 103.368337 
L 471.350697 102.957059 
L 471.740588 101.399614 
L 472.289979 98.928938 
L 473.193818 96.206681 
L 473.849543 95.29755 
L 474.115378 95.061518 
L 474.363491 95.102792 
L 474.983772 95.482401 
L 475.355941 96.02258 
L 476.082556 97.536418 
L 476.826893 100.30662 
L 479.520686 113.725328 
L 479.875132 114.945375 
L 480.796693 118.314201 
L 481.452418 119.88123 
L 481.877754 120.417831 
L 482.30309 121.061963 
L 482.515757 121.424759 
L 483.171483 122.673952 
L 483.667708 123.15798 
L 484.713325 123.934131 
L 485.244995 123.881755 
L 486.219722 123.329151 
L 489.711019 120.435394 
L 490.597135 119.455928 
L 491.199694 119.131441 
L 491.997198 118.514132 
L 493.095982 117.525121 
L 494.566934 116.015059 
L 495.966998 113.889206 
L 496.321444 113.454407 
L 497.96962 111.226234 
L 500.131743 109.419453 
L 500.734301 109.127528 
L 501.053303 108.993211 
L 502.471089 109.088094 
L 502.719201 109.119233 
L 502.896424 109.186822 
L 504.154709 110.090754 
L 504.509155 110.40993 
L 505.643384 111.689547 
L 506.050997 112.227484 
L 507.025725 112.784054 
L 507.823229 112.920681 
L 508.21312 112.976402 
L 508.957457 113.301092 
L 509.542294 113.429644 
L 510.251187 113.074686 
L 510.552466 113.20426 
L 510.871468 113.149333 
L 511.367693 112.86662 
L 512.448754 112.168034 
L 512.856368 111.917758 
L 513.157647 111.490413 
L 513.441204 111.200505 
L 514.114652 110.785499 
L 514.469099 110.343362 
L 515.727383 110.257684 
L 516.329942 110.586068 
L 516.950223 111.061158 
L 517.357837 111.517263 
L 518.102174 112.613193 
L 518.421176 113.288503 
L 518.704733 113.757804 
L 519.626293 115.224535 
L 519.945295 115.84475 
L 520.352909 116.462537 
L 520.937745 117.021112 
L 521.522582 117.649949 
L 521.859306 118.078497 
L 523.87965 120.466969 
L 524.677154 121.070202 
L 525.279713 121.788576 
L 526.059495 122.364839 
L 526.467109 122.837399 
L 527.77856 123.601879 
L 528.327952 123.831186 
L 531.553414 125.074944 
L 532.085084 125.338756 
L 532.581309 125.617602 
L 532.90031 125.915425 
L 533.024367 126.050219 
L 533.502869 126.626957 
L 533.697815 126.920869 
L 533.89276 127.097262 
L 534.034539 127.157854 
L 535.151045 127.912428 
L 535.789048 128.076426 
L 536.161217 128.21996 
L 536.444774 128.36429 
L 536.604275 128.422154 
L 536.799221 128.421244 
L 539.120844 128.982841 
L 539.280345 128.992528 
L 539.741125 129.193231 
L 539.953793 129.148727 
L 540.201906 129.120158 
L 540.875354 129.012368 
L 542.009582 128.828112 
L 542.45264 128.637156 
L 543.108366 128.508289 
L 543.285589 128.374857 
L 543.640036 128.244102 
L 544.100816 127.951612 
L 544.66793 127.489735 
L 546.581941 125.519279 
L 547.999726 123.965903 
L 549.275733 122.109058 
L 549.984626 120.734157 
L 552.30625 116.5965 
L 552.76703 115.646138 
L 553.139199 114.846767 
L 553.546812 113.924923 
L 556.063381 109.664456 
L 556.488717 109.29535 
L 556.931775 108.929959 
L 558.083726 108.139107 
L 560.210404 107.758977 
L 561.078798 107.732162 
L 561.521856 107.848169 
L 562.868752 108.407917 
L 563.400421 108.752756 
L 565.597989 110.81553 
L 567.352498 113.148453 
L 567.919613 113.713796 
L 569.266509 115.535615 
L 570.684294 117.205816 
L 571.942579 118.873129 
L 572.084358 119.067107 
L 574.228758 121.89568 
L 574.919929 122.082174 
L 575.168041 122.23379 
L 575.487043 122.414472 
L 576.036435 122.831367 
L 577.064329 123.301871 
L 577.312442 123.472383 
L 577.773222 123.659092 
L 578.056779 123.854733 
L 578.234002 123.910752 
L 578.535282 124.152004 
L 579.049229 124.382872 
L 580.165735 125.441597 
L 581.583521 126.488842 
L 582.026579 126.928496 
L 583.586143 128.101047 
L 584.082368 128.239976 
L 585.252041 128.3912 
L 589.576286 126.765252 
L 590.019344 126.564459 
L 591.401685 125.663062 
L 592.394135 124.403974 
L 592.730859 124.06001 
L 593.315696 123.333829 
L 593.439752 123.147771 
L 593.741031 122.504453 
L 595.460096 117.689249 
L 596.204434 116.467072 
L 597.515885 113.513632 
L 598.561502 109.765319 
L 599.695731 107.294867 
L 600.209678 106.678899 
L 601.893298 105.653024 
L 602.194578 105.653683 
L 603.293361 105.667643 
L 603.488307 105.671824 
L 604.356701 106.043225 
L 604.640258 106.213896 
L 606.040321 106.612965 
L 606.306156 106.781606 
L 606.554268 106.912956 
L 606.766936 107.058576 
L 607.015048 107.131908 
L 608.113832 107.106731 
L 608.379667 106.858201 
L 609.443006 106.095035 
L 609.815175 105.948782 
L 610.134177 105.853338 
L 610.435456 105.681981 
L 610.807625 105.608671 
L 611.00257 105.477791 
L 611.286127 105.234753 
L 612.508967 104.855115 
L 612.721635 104.799847 
L 614.547034 105.904472 
L 615.521761 107.250023 
L 616.461044 108.108563 
L 616.797768 108.452877 
L 618.445944 109.481537 
L 619.243448 109.773109 
L 619.899174 109.967116 
L 621.175181 110.239051 
L 622.858802 110.543651 
L 623.851251 110.527795 
L 626.757712 110.010925 
L 630.231286 109.018354 
L 631.188291 108.76221 
L 635.140369 108.026174 
L 636.823989 107.854726 
L 637.355658 107.837775 
L 638.755722 108.28521 
L 639.677282 108.575527 
L 641.467236 108.937637 
L 642.495131 108.754709 
L 643.239468 108.333395 
L 644.072417 107.915043 
L 644.480031 107.700959 
L 645.135757 106.899644 
L 645.561092 106.124743 
L 647.297879 104.431516 
L 648.75111 103.900411 
L 649.460002 104.121941 
L 650.310674 104.761353 
L 651.001844 105.447156 
L 651.568958 106.211486 
L 652.11835 107.581145 
L 652.844965 109.556007 
L 654.067805 111.888266 
L 654.741253 112.67047 
L 654.900754 112.867211 
L 658.817387 116.972466 
L 660.660508 118.115279 
L 661.67068 118.319163 
L 662.66313 118.705165 
L 663.407467 118.853277 
L 666.10126 118.778772 
L 669.255833 117.897366 
L 671.098954 117.214844 
L 671.967347 116.898259 
L 672.552184 116.68727 
L 673.969969 116.113667 
L 674.572528 115.815538 
L 678.967663 113.707032 
L 679.268943 113.501148 
L 679.906946 113.171582 
L 680.261393 112.912882 
L 680.669006 112.631274 
L 682.139959 111.905442 
L 682.370349 111.750484 
L 682.831129 111.500518 
L 683.575466 111.053411 
L 684.67425 109.981442 
L 686.481927 108.49594 
L 686.481927 108.49594 
" style="fill:none;stroke:#de8f05;stroke-dasharray:5.55,2.4;stroke-dashoffset:0;stroke-width:1.5;"/>
   </g>
   <g id="line2d_17">
    <path clip-path="url(#p34c475f7bb)" d="M 76.125261 25.35117 
L 76.621486 71.795293 
L 76.816431 72.142189 
L 77.082266 72.105148 
L 77.578491 71.856675 
L 77.826603 71.299941 
L 78.198772 70.208649 
L 78.553218 68.79225 
L 78.889943 67.880532 
L 79.616558 66.653657 
L 80.591285 64.515651 
L 82.168572 63.148933 
L 82.84202 62.909469 
L 83.53319 62.849467 
L 84.011693 63.038655 
L 85.039587 63.822144 
L 86.297872 64.974032 
L 87.237155 65.341078 
L 87.73338 65.379972 
L 88.778997 65.112064 
L 89.558779 64.611823 
L 90.125893 64.208908 
L 90.444895 63.945898 
L 91.951292 62.08869 
L 92.39435 61.634387 
L 92.943742 61.019721 
L 94.290638 60.407064 
L 95.017253 60.281715 
L 97.586989 60.521652 
L 98.543994 60.646364 
L 99.766834 60.907495 
L 102.336571 61.507564 
L 107.245653 62.282654 
L 110.896451 62.288905 
L 115.787811 62.06372 
L 120.307002 61.339983 
L 123.000795 60.565591 
L 124.41858 59.812677 
L 125.038861 59.535181 
L 126.740204 59.243734 
L 127.236429 59.182413 
L 128.335213 59.195088 
L 129.806165 59.383284 
L 130.550502 59.639242 
L 132.358179 60.508711 
L 133.598741 61.061745 
L 135.459585 61.669816 
L 136.150755 61.744277 
L 136.611535 61.618979 
L 138.153377 60.878455 
L 138.826825 60.472592 
L 141.113005 60.026627 
L 142.211788 60.13149 
L 149.743774 61.492001 
L 151.586895 61.35233 
L 157.293482 60.025593 
L 158.073264 59.712272 
L 158.516322 59.496786 
L 158.853046 59.383129 
L 160.359443 58.874705 
L 160.767056 58.78838 
L 161.972174 58.696122 
L 163.248181 58.791949 
L 164.187464 59.007728 
L 165.516638 59.442165 
L 165.941973 59.797881 
L 166.260975 59.988888 
L 167.731928 60.728662 
L 168.033207 60.949054 
L 168.547154 61.478283 
L 169.025657 61.929507 
L 170.354831 62.570868 
L 170.638388 62.732896 
L 171.400448 63.029395 
L 171.985284 62.986534 
L 173.952462 61.757917 
L 175.015801 60.793613 
L 175.370247 60.567341 
L 175.77786 60.358736 
L 176.929811 59.86291 
L 178.276707 59.916738 
L 180.172996 60.586698 
L 181.094556 61.090518 
L 181.519892 61.315824 
L 183.930127 62.354598 
L 185.40108 62.52655 
L 186.641642 62.379291 
L 187.421424 62.262495 
L 188.094872 62.114091 
L 189.955716 61.553796 
L 190.575997 61.318816 
L 194.563519 59.92592 
L 194.988854 59.710763 
L 195.697747 59.458228 
L 197.842148 58.997605 
L 201.333444 59.339268 
L 203.336066 60.126395 
L 205.88808 61.6691 
L 207.518534 61.850916 
L 208.475539 61.356917 
L 208.847708 61.056607 
L 213.101064 59.45502 
L 214.961908 59.739914 
L 216.255637 60.019342 
L 217.974702 60.91616 
L 218.843096 61.228145 
L 220.083658 61.569807 
L 221.678667 61.814556 
L 222.635672 61.844734 
L 224.602849 61.656253 
L 225.488965 61.543337 
L 227.066252 61.314306 
L 231.656332 59.996372 
L 232.843728 59.678395 
L 234.899517 58.987845 
L 235.466631 58.847873 
L 236.051467 58.742561 
L 236.565415 58.550899 
L 237.398364 58.133663 
L 238.568037 57.849494 
L 238.940205 57.845752 
L 241.669442 57.943579 
L 243.778398 58.941682 
L 244.061956 59.043631 
L 246.649414 59.812073 
L 247.30514 59.707279 
L 248.120367 59.458185 
L 248.492535 59.318204 
L 250.583769 58.07067 
L 251.062272 57.759978 
L 251.540774 57.475326 
L 252.515502 56.914962 
L 253.366173 56.722334 
L 256.024521 56.941734 
L 257.123305 57.30684 
L 257.61953 57.702149 
L 258.381589 57.947002 
L 260.277877 58.412323 
L 261.589329 58.631249 
L 262.812169 58.662565 
L 263.379283 58.683198 
L 264.159065 58.659375 
L 269.458039 58.557374 
L 270.149209 58.632327 
L 270.804935 58.710616 
L 271.283437 58.827197 
L 271.76194 58.925352 
L 272.594889 59.154081 
L 273.28606 59.322523 
L 275.820351 59.891139 
L 278.496421 59.951727 
L 280.995268 60.281361 
L 283.706783 61.544423 
L 284.061229 61.683241 
L 284.805567 61.788543 
L 286.7373 61.821963 
L 290.777988 61.382421 
L 291.522326 61.256434 
L 293.631282 60.983344 
L 296.201018 60.230645 
L 297.636526 59.936819 
L 298.540364 59.642941 
L 300.897433 59.017669 
L 301.694937 58.772179 
L 307.029355 57.030103 
L 308.872476 57.213729 
L 309.723147 57.398123 
L 310.680153 57.735948 
L 311.247267 57.848304 
L 312.966332 58.163367 
L 313.604335 57.887906 
L 314.366395 57.621661 
L 315.146177 57.265988 
L 315.62468 57.097321 
L 316.333572 56.833672 
L 317.733636 56.418014 
L 318.672918 56.326792 
L 320.604651 56.170739 
L 321.313544 56.136043 
L 323.333888 56.322679 
L 324.556728 56.419523 
L 327.78219 56.160608 
L 328.31386 56.120075 
L 331.468433 56.556512 
L 332.124159 56.774783 
L 332.655828 56.8748 
L 333.045719 57.07949 
L 333.648278 57.342105 
L 334.374893 57.718419 
L 334.65845 57.82486 
L 337.529466 57.543743 
L 338.256081 57.519411 
L 338.840917 57.484405 
L 340.258703 57.467454 
L 340.949873 57.640484 
L 342.739828 58.099399 
L 344.653838 59.159125 
L 345.274119 59.428878 
L 345.805789 59.673041 
L 346.337458 59.789397 
L 348.10969 60.053718 
L 350.112312 60.166358 
L 350.85665 60.019971 
L 351.8491 59.729292 
L 354.206168 58.95865 
L 355.039117 58.704236 
L 357.467075 58.09476 
L 358.813971 57.684457 
L 359.788698 57.541182 
L 365.778842 57.191734 
L 366.399123 57.261806 
L 366.930793 57.415384 
L 367.533352 57.672705 
L 368.189078 58.060185 
L 369.022027 58.528576 
L 369.642308 58.773851 
L 370.510701 59.17173 
L 371.485429 59.492415 
L 372.353823 59.429119 
L 373.346273 59.314056 
L 373.824775 59.257935 
L 374.515946 59.06685 
L 377.741408 59.080904 
L 381.179538 59.935155 
L 382.756824 60.102072 
L 385.911397 60.341647 
L 387.896296 60.234896 
L 391.458483 59.577291 
L 392.504099 59.083931 
L 393.248437 58.763996 
L 393.620605 58.587811 
L 394.329498 58.276171 
L 394.808001 58.010884 
L 395.233336 57.793432 
L 395.623227 57.67893 
L 396.013119 57.640915 
L 397.448626 57.234422 
L 399.610749 57.044441 
L 400.851312 57.251623 
L 402.322264 57.676119 
L 403.793217 58.27273 
L 404.059051 58.407831 
L 407.461737 60.411289 
L 407.922517 60.327438 
L 409.021301 60.092587 
L 409.446636 60.023972 
L 410.474531 59.50953 
L 410.882144 59.387207 
L 412.29993 58.948054 
L 414.089884 58.898718 
L 417.740682 60.27555 
L 418.325518 60.424998 
L 419.247079 60.600209 
L 420.983866 60.61948 
L 422.419374 60.439888 
L 423.270045 60.128567 
L 424.102994 59.886776 
L 426.194228 59.494251 
L 428.143683 58.935508 
L 430.766586 58.052374 
L 431.599535 57.915634 
L 432.09576 57.852029 
L 434.346494 58.017626 
L 434.807275 58.244476 
L 435.427556 58.481732 
L 438.103626 59.515677 
L 439.025187 59.943734 
L 441.470867 60.922299 
L 442.516484 60.769687 
L 443.827935 59.581654 
L 444.359605 59.100209 
L 445.121664 58.621325 
L 445.617889 58.348243 
L 446.397671 58.030249 
L 447.372399 57.853667 
L 448.98513 58.003348 
L 451.040919 58.889035 
L 452.476427 59.820601 
L 453.34482 60.409297 
L 454.957551 61.06754 
L 456.056335 61.132447 
L 458.00579 60.944605 
L 459.051407 60.704744 
L 460.309692 60.466169 
L 461.284419 60.173394 
L 462.081924 59.904313 
L 464.970662 59.397122 
L 465.732721 59.213712 
L 467.345452 59.063453 
L 468.993628 59.235603 
L 469.596187 59.500183 
L 471.811477 61.250519 
L 472.555814 62.088241 
L 472.945705 62.508503 
L 473.690043 62.964272 
L 474.398935 63.180757 
L 474.96605 63.111107 
L 475.409108 62.966487 
L 476.490169 62.377593 
L 476.88006 61.959874 
L 477.447174 61.352735 
L 479.254851 59.65052 
L 480.335912 59.393311 
L 480.920749 59.480766 
L 482.870204 60.326584 
L 483.100594 60.535914 
L 484.075322 61.570919 
L 484.500657 61.92473 
L 484.801937 62.230292 
L 486.379223 63.558607 
L 487.176727 63.750605 
L 488.399567 63.756003 
L 489.250239 63.564254 
L 493.00737 62.378895 
L 494.549212 61.907814 
L 496.321444 61.262806 
L 497.225282 61.091777 
L 499.351961 60.638043 
L 500.397577 60.25477 
L 500.716579 60.093648 
L 501.56725 59.640492 
L 502.754646 59.310349 
L 503.09137 59.183775 
L 506.157331 57.817255 
L 506.99028 57.723808 
L 508.089064 57.738552 
L 508.6739 57.742587 
L 509.630906 57.896002 
L 510.42841 58.076792 
L 510.694245 58.178447 
L 512.431032 58.791923 
L 513.015868 59.064341 
L 513.618427 59.366884 
L 514.167819 59.597916 
L 514.522266 59.767324 
L 515.372937 59.952339 
L 516.117274 59.966936 
L 517.464171 59.821972 
L 521.061801 59.357857 
L 523.170757 59.284086 
L 524.180929 59.205969 
L 527.176001 59.110254 
L 531.163523 59.156917 
L 531.97875 59.150123 
L 532.599031 59.102442 
L 533.875038 58.723713 
L 534.176317 58.666669 
L 535.080156 58.530258 
L 536.001716 58.541958 
L 537.029611 58.580861 
L 537.951171 58.884914 
L 538.447396 58.98049 
L 540.644964 59.936534 
L 541.017132 60.069557 
L 541.708303 60.311823 
L 542.346306 60.741664 
L 543.285589 61.106063 
L 545.536324 61.800019 
L 547.521224 61.650511 
L 550.764408 61.483706 
L 552.99742 61.805537 
L 555.779824 62.675274 
L 557.428 62.932309 
L 560.759796 63.177515 
L 563.559922 63.046225 
L 566.377771 62.52298 
L 568.929785 61.914203 
L 570.666572 61.536491 
L 574.565482 60.446053 
L 575.345264 60.369799 
L 575.947823 60.282715 
L 576.851661 60.265384 
L 577.188386 60.234646 
L 579.829011 60.311401 
L 580.750572 60.357409 
L 581.548076 60.458185 
L 583.515253 61.350933 
L 583.887422 61.51716 
L 585.712821 62.201519 
L 588.495225 62.681956 
L 589.469953 62.485749 
L 590.480125 62.194639 
L 591.490297 61.863478 
L 592.270079 61.265462 
L 594.857538 60.285198 
L 596.346212 60.348536 
L 597.852609 60.761461 
L 599.075449 61.227222 
L 601.290739 61.684982 
L 605.366873 61.263513 
L 605.809931 61.147709 
L 606.075765 61.052882 
L 606.430212 60.946079 
L 607.723941 60.715315 
L 608.273333 60.80227 
L 608.78728 60.953736 
L 611.020292 61.938698 
L 611.410183 62.23625 
L 612.065909 62.588716 
L 613.483695 63.681387 
L 614.174865 64.005339 
L 615.291371 64.492923 
L 615.769874 64.675153 
L 616.372433 64.854528 
L 617.081326 65.101407 
L 617.896552 65.311383 
L 618.605445 65.590931 
L 620.235898 65.82623 
L 621.511905 65.859141 
L 624.028475 65.889672 
L 629.11478 65.530395 
L 634.927701 64.239647 
L 636.646766 63.541957 
L 637.532882 62.800545 
L 637.887328 62.442768 
L 638.454442 62.127084 
L 639.358281 61.627947 
L 641.57357 61.07686 
L 642.193852 61.114392 
L 644.940811 61.584258 
L 645.224368 61.751063 
L 645.791482 62.005555 
L 646.907988 62.356055 
L 649.761282 62.746251 
L 650.647398 62.582499 
L 651.941127 62.214168 
L 652.596853 61.97342 
L 654.369085 61.749795 
L 656.513485 61.839328 
L 657.328712 61.905451 
L 659.047777 62.010987 
L 660.873176 62.131801 
L 662.20235 62.263996 
L 663.744191 62.395837 
L 667.253211 62.361004 
L 675.759924 60.822127 
L 678.967663 59.745243 
L 679.623389 59.593113 
L 683.876746 59.251813 
L 684.833751 59.368816 
L 685.152753 59.449959 
L 686.411037 59.656995 
L 686.481927 59.675395 
L 686.481927 59.675395 
" style="fill:none;stroke:#029e73;stroke-dasharray:1.5,2.475;stroke-dashoffset:0;stroke-width:1.5;"/>
   </g>
   <g id="patch_3">
    <path d="M 45.607428 177.240072 
L 45.607428 18.118365 
" style="fill:none;stroke:#262626;stroke-linecap:square;stroke-linejoin:miter;stroke-width:1.25;"/>
   </g>
   <g id="patch_4">
    <path d="M 716.99976 177.240072 
L 716.99976 18.118365 
" style="fill:none;stroke:#262626;stroke-linecap:square;stroke-linejoin:miter;stroke-width:1.25;"/>
   </g>
   <g id="patch_5">
    <path d="M 45.607428 177.240072 
L 716.99976 177.240072 
" style="fill:none;stroke:#262626;stroke-linecap:square;stroke-linejoin:miter;stroke-width:1.25;"/>
   </g>
   <g id="patch_6">
    <path d="M 45.607428 18.118365 
L 716.99976 18.118365 
" style="fill:none;stroke:#262626;stroke-linecap:square;stroke-linejoin:miter;stroke-width:1.25;"/>
   </g>
   <g id="text_17">
    <!-- Neural Activity -->
    <g style="fill:#262626;" transform="translate(337.164219 12.118365)scale(0.12 -0.12)">
     <defs>
      <path d="M 2188 4044 
L 1331 1722 
L 3047 1722 
L 2188 4044 
z
M 1831 4666 
L 2547 4666 
L 4325 0 
L 3669 0 
L 3244 1197 
L 1141 1197 
L 716 0 
L 50 0 
L 1831 4666 
z
" id="DejaVuSans-41" transform="scale(0.015625)"/>
      <path d="M 3122 3366 
L 3122 2828 
Q 2878 2963 2633 3030 
Q 2388 3097 2138 3097 
Q 1578 3097 1268 2742 
Q 959 2388 959 1747 
Q 959 1106 1268 751 
Q 1578 397 2138 397 
Q 2388 397 2633 464 
Q 2878 531 3122 666 
L 3122 134 
Q 2881 22 2623 -34 
Q 2366 -91 2075 -91 
Q 1284 -91 818 406 
Q 353 903 353 1747 
Q 353 2603 823 3093 
Q 1294 3584 2113 3584 
Q 2378 3584 2631 3529 
Q 2884 3475 3122 3366 
z
" id="DejaVuSans-63" transform="scale(0.015625)"/>
      <path d="M 191 3500 
L 800 3500 
L 1894 563 
L 2988 3500 
L 3597 3500 
L 2284 0 
L 1503 0 
L 191 3500 
z
" id="DejaVuSans-76" transform="scale(0.015625)"/>
      <path d="M 2059 -325 
Q 1816 -950 1584 -1140 
Q 1353 -1331 966 -1331 
L 506 -1331 
L 506 -850 
L 844 -850 
Q 1081 -850 1212 -737 
Q 1344 -625 1503 -206 
L 1606 56 
L 191 3500 
L 800 3500 
L 1894 763 
L 2988 3500 
L 3597 3500 
L 2059 -325 
z
" id="DejaVuSans-79" transform="scale(0.015625)"/>
     </defs>
     <use xlink:href="#DejaVuSans-4e"/>
     <use x="74.804688" xlink:href="#DejaVuSans-65"/>
     <use x="136.328125" xlink:href="#DejaVuSans-75"/>
     <use x="199.707031" xlink:href="#DejaVuSans-72"/>
     <use x="240.820312" xlink:href="#DejaVuSans-61"/>
     <use x="302.099609" xlink:href="#DejaVuSans-6c"/>
     <use x="329.882812" xlink:href="#DejaVuSans-20"/>
     <use x="361.669922" xlink:href="#DejaVuSans-41"/>
     <use x="428.328125" xlink:href="#DejaVuSans-63"/>
     <use x="483.308594" xlink:href="#DejaVuSans-74"/>
     <use x="522.517578" xlink:href="#DejaVuSans-69"/>
     <use x="550.300781" xlink:href="#DejaVuSans-76"/>
     <use x="609.480469" xlink:href="#DejaVuSans-69"/>
     <use x="637.263672" xlink:href="#DejaVuSans-74"/>
     <use x="676.472656" xlink:href="#DejaVuSans-79"/>
    </g>
   </g>
   <g id="text_18">
    <!-- C -->
    <g style="fill:#262626;" transform="translate(45.607428 12.118365)scale(0.12 -0.12)">
     <defs>
      <path d="M 4288 256 
Q 3956 84 3597 -3 
Q 3238 -91 2847 -91 
Q 1681 -91 1000 561 
Q 319 1213 319 2328 
Q 319 3447 1000 4098 
Q 1681 4750 2847 4750 
Q 3238 4750 3597 4662 
Q 3956 4575 4288 4403 
L 4288 3438 
Q 3953 3666 3628 3772 
Q 3303 3878 2944 3878 
Q 2300 3878 1931 3465 
Q 1563 3053 1563 2328 
Q 1563 1606 1931 1193 
Q 2300 781 2944 781 
Q 3303 781 3628 887 
Q 3953 994 4288 1222 
L 4288 256 
z
" id="DejaVuSans-Bold-43" transform="scale(0.015625)"/>
     </defs>
     <use xlink:href="#DejaVuSans-Bold-43"/>
    </g>
   </g>
   <g id="legend_1">
    <g id="patch_7">
     <path d="M 53.307428 171.740072 
L 122.994146 171.740072 
Q 125.194146 171.740072 125.194146 169.540072 
L 125.194146 122.20226 
Q 125.194146 120.00226 122.994146 120.00226 
L 53.307428 120.00226 
Q 51.107428 120.00226 51.107428 122.20226 
L 51.107428 169.540072 
Q 51.107428 171.740072 53.307428 171.740072 
z
" style="fill:#ffffff;opacity:0.8;stroke:#cccccc;stroke-linejoin:miter;"/>
    </g>
    <g id="line2d_18">
     <path d="M 55.507427 128.910541 
L 77.507428 128.910541 
" style="fill:none;stroke:#0173b2;stroke-linecap:round;stroke-width:1.5;"/>
    </g>
    <g id="line2d_19"/>
    <g id="text_19">
     <!-- CCW -->
     <g style="fill:#262626;" transform="translate(86.307428 132.760541)scale(0.11 -0.11)">
      <defs>
       <path d="M 4122 4306 
L 4122 3641 
Q 3803 3938 3442 4084 
Q 3081 4231 2675 4231 
Q 1875 4231 1450 3742 
Q 1025 3253 1025 2328 
Q 1025 1406 1450 917 
Q 1875 428 2675 428 
Q 3081 428 3442 575 
Q 3803 722 4122 1019 
L 4122 359 
Q 3791 134 3420 21 
Q 3050 -91 2638 -91 
Q 1578 -91 968 557 
Q 359 1206 359 2328 
Q 359 3453 968 4101 
Q 1578 4750 2638 4750 
Q 3056 4750 3426 4639 
Q 3797 4528 4122 4306 
z
" id="DejaVuSans-43" transform="scale(0.015625)"/>
       <path d="M 213 4666 
L 850 4666 
L 1831 722 
L 2809 4666 
L 3519 4666 
L 4500 722 
L 5478 4666 
L 6119 4666 
L 4947 0 
L 4153 0 
L 3169 4050 
L 2175 0 
L 1381 0 
L 213 4666 
z
" id="DejaVuSans-57" transform="scale(0.015625)"/>
      </defs>
      <use xlink:href="#DejaVuSans-43"/>
      <use x="69.824219" xlink:href="#DejaVuSans-43"/>
      <use x="139.648438" xlink:href="#DejaVuSans-57"/>
     </g>
    </g>
    <g id="line2d_20">
     <path d="M 55.507427 145.056479 
L 77.507428 145.056479 
" style="fill:none;stroke:#de8f05;stroke-dasharray:5.55,2.4;stroke-dashoffset:0;stroke-width:1.5;"/>
    </g>
    <g id="line2d_21"/>
    <g id="text_20">
     <!-- CW -->
     <g style="fill:#262626;" transform="translate(86.307428 148.906479)scale(0.11 -0.11)">
      <use xlink:href="#DejaVuSans-43"/>
      <use x="69.824219" xlink:href="#DejaVuSans-57"/>
     </g>
    </g>
    <g id="line2d_22">
     <path d="M 55.507427 161.202416 
L 77.507428 161.202416 
" style="fill:none;stroke:#029e73;stroke-dasharray:1.5,2.475;stroke-dashoffset:0;stroke-width:1.5;"/>
    </g>
    <g id="line2d_23"/>
    <g id="text_21">
     <!-- Speed -->
     <g style="fill:#262626;" transform="translate(86.307428 165.052416)scale(0.11 -0.11)">
      <defs>
       <path d="M 3425 4513 
L 3425 3897 
Q 3066 4069 2747 4153 
Q 2428 4238 2131 4238 
Q 1616 4238 1336 4038 
Q 1056 3838 1056 3469 
Q 1056 3159 1242 3001 
Q 1428 2844 1947 2747 
L 2328 2669 
Q 3034 2534 3370 2195 
Q 3706 1856 3706 1288 
Q 3706 609 3251 259 
Q 2797 -91 1919 -91 
Q 1588 -91 1214 -16 
Q 841 59 441 206 
L 441 856 
Q 825 641 1194 531 
Q 1563 422 1919 422 
Q 2459 422 2753 634 
Q 3047 847 3047 1241 
Q 3047 1584 2836 1778 
Q 2625 1972 2144 2069 
L 1759 2144 
Q 1053 2284 737 2584 
Q 422 2884 422 3419 
Q 422 4038 858 4394 
Q 1294 4750 2059 4750 
Q 2388 4750 2728 4690 
Q 3069 4631 3425 4513 
z
" id="DejaVuSans-53" transform="scale(0.015625)"/>
       <path d="M 1159 525 
L 1159 -1331 
L 581 -1331 
L 581 3500 
L 1159 3500 
L 1159 2969 
Q 1341 3281 1617 3432 
Q 1894 3584 2278 3584 
Q 2916 3584 3314 3078 
Q 3713 2572 3713 1747 
Q 3713 922 3314 415 
Q 2916 -91 2278 -91 
Q 1894 -91 1617 61 
Q 1341 213 1159 525 
z
M 3116 1747 
Q 3116 2381 2855 2742 
Q 2594 3103 2138 3103 
Q 1681 3103 1420 2742 
Q 1159 2381 1159 1747 
Q 1159 1113 1420 752 
Q 1681 391 2138 391 
Q 2594 391 2855 752 
Q 3116 1113 3116 1747 
z
" id="DejaVuSans-70" transform="scale(0.015625)"/>
       <path d="M 2906 2969 
L 2906 4863 
L 3481 4863 
L 3481 0 
L 2906 0 
L 2906 525 
Q 2725 213 2448 61 
Q 2172 -91 1784 -91 
Q 1150 -91 751 415 
Q 353 922 353 1747 
Q 353 2572 751 3078 
Q 1150 3584 1784 3584 
Q 2172 3584 2448 3432 
Q 2725 3281 2906 2969 
z
M 947 1747 
Q 947 1113 1208 752 
Q 1469 391 1925 391 
Q 2381 391 2643 752 
Q 2906 1113 2906 1747 
Q 2906 2381 2643 2742 
Q 2381 3103 1925 3103 
Q 1469 3103 1208 2742 
Q 947 2381 947 1747 
z
" id="DejaVuSans-64" transform="scale(0.015625)"/>
      </defs>
      <use xlink:href="#DejaVuSans-53"/>
      <use x="63.476562" xlink:href="#DejaVuSans-70"/>
      <use x="126.953125" xlink:href="#DejaVuSans-65"/>
      <use x="188.476562" xlink:href="#DejaVuSans-65"/>
      <use x="250" xlink:href="#DejaVuSans-64"/>
     </g>
    </g>
   </g>
  </g>
 </g>
 <defs>
  <clipPath id="p34c475f7bb">
   <rect height="159.121708" width="671.392332" x="45.607428" y="18.118365"/>
  </clipPath>
 </defs>
</svg>
