<?xml version="1.0" encoding="utf-8" standalone="no"?>
<!DOCTYPE svg PUBLIC "-//W3C//DTD SVG 1.1//EN"
  "http://www.w3.org/Graphics/SVG/1.1/DTD/svg11.dtd">
<svg height="216pt" version="1.1" viewBox="0 0 720 216" width="720pt" xmlns="http://www.w3.org/2000/svg" xmlns:xlink="http://www.w3.org/1999/xlink">
 <metadata>
  <rdf:RDF xmlns:cc="http://creativecommons.org/ns#" xmlns:dc="http://purl.org/dc/elements/1.1/" xmlns:rdf="http://www.w3.org/1999/02/22-rdf-syntax-ns#">
   <cc:Work>
    <dc:type rdf:resource="http://purl.org/dc/dcmitype/StillImage"/>
    <dc:date>2023-04-18T19:04:12.562151</dc:date>
    <dc:format>image/svg+xml</dc:format>
    <dc:creator>
     <cc:Agent>
      <dc:title>Matplotlib v3.4.1, https://matplotlib.org/</dc:title>
     </cc:Agent>
    </dc:creator>
   </cc:Work>
  </rdf:RDF>
 </metadata>
 <defs>
  <style type="text/css">*{stroke-linecap:butt;stroke-linejoin:round;}</style>
 </defs>
 <g id="figure_1">
  <g id="patch_1">
   <path d="M 0 216 
L 720 216 
L 720 0 
L 0 0 
z
" style="fill:#ffffff;"/>
  </g>
  <g id="axes_1">
   <g id="patch_2">
    <path d="M 54.84399 177.234135 
L 226.103502 177.234135 
L 226.103502 18.12524 
L 54.84399 18.12524 
z
" style="fill:#ffffff;"/>
   </g>
   <g id="matplotlib.axis_1">
    <g id="xtick_1">
     <g id="line2d_1">
      <defs>
       <path d="M 0 0 
L 0 6 
" id="m8fec1da3a4" style="stroke:#262626;stroke-width:1.25;"/>
      </defs>
      <g>
       <use style="fill:#262626;stroke:#262626;stroke-width:1.25;" x="62.628513" xlink:href="#m8fec1da3a4" y="177.234135"/>
      </g>
     </g>
     <g id="text_1">
      <!-- 4000 -->
      <g style="fill:#262626;" transform="translate(48.631013 195.092416)scale(0.11 -0.11)">
       <defs>
        <path d="M 2419 4116 
L 825 1625 
L 2419 1625 
L 2419 4116 
z
M 2253 4666 
L 3047 4666 
L 3047 1625 
L 3713 1625 
L 3713 1100 
L 3047 1100 
L 3047 0 
L 2419 0 
L 2419 1100 
L 313 1100 
L 313 1709 
L 2253 4666 
z
" id="DejaVuSans-34" transform="scale(0.015625)"/>
        <path d="M 2034 4250 
Q 1547 4250 1301 3770 
Q 1056 3291 1056 2328 
Q 1056 1369 1301 889 
Q 1547 409 2034 409 
Q 2525 409 2770 889 
Q 3016 1369 3016 2328 
Q 3016 3291 2770 3770 
Q 2525 4250 2034 4250 
z
M 2034 4750 
Q 2819 4750 3233 4129 
Q 3647 3509 3647 2328 
Q 3647 1150 3233 529 
Q 2819 -91 2034 -91 
Q 1250 -91 836 529 
Q 422 1150 422 2328 
Q 422 3509 836 4129 
Q 1250 4750 2034 4750 
z
" id="DejaVuSans-30" transform="scale(0.015625)"/>
       </defs>
       <use xlink:href="#DejaVuSans-34"/>
       <use x="63.623047" xlink:href="#DejaVuSans-30"/>
       <use x="127.246094" xlink:href="#DejaVuSans-30"/>
       <use x="190.869141" xlink:href="#DejaVuSans-30"/>
      </g>
     </g>
    </g>
    <g id="xtick_2">
     <g id="line2d_2">
      <g>
       <use style="fill:#262626;stroke:#262626;stroke-width:1.25;" x="101.55113" xlink:href="#m8fec1da3a4" y="177.234135"/>
      </g>
     </g>
     <g id="text_2">
      <!-- 4250 -->
      <g style="fill:#262626;" transform="translate(87.55363 195.092416)scale(0.11 -0.11)">
       <defs>
        <path d="M 1228 531 
L 3431 531 
L 3431 0 
L 469 0 
L 469 531 
Q 828 903 1448 1529 
Q 2069 2156 2228 2338 
Q 2531 2678 2651 2914 
Q 2772 3150 2772 3378 
Q 2772 3750 2511 3984 
Q 2250 4219 1831 4219 
Q 1534 4219 1204 4116 
Q 875 4013 500 3803 
L 500 4441 
Q 881 4594 1212 4672 
Q 1544 4750 1819 4750 
Q 2544 4750 2975 4387 
Q 3406 4025 3406 3419 
Q 3406 3131 3298 2873 
Q 3191 2616 2906 2266 
Q 2828 2175 2409 1742 
Q 1991 1309 1228 531 
z
" id="DejaVuSans-32" transform="scale(0.015625)"/>
        <path d="M 691 4666 
L 3169 4666 
L 3169 4134 
L 1269 4134 
L 1269 2991 
Q 1406 3038 1543 3061 
Q 1681 3084 1819 3084 
Q 2600 3084 3056 2656 
Q 3513 2228 3513 1497 
Q 3513 744 3044 326 
Q 2575 -91 1722 -91 
Q 1428 -91 1123 -41 
Q 819 9 494 109 
L 494 744 
Q 775 591 1075 516 
Q 1375 441 1709 441 
Q 2250 441 2565 725 
Q 2881 1009 2881 1497 
Q 2881 1984 2565 2268 
Q 2250 2553 1709 2553 
Q 1456 2553 1204 2497 
Q 953 2441 691 2322 
L 691 4666 
z
" id="DejaVuSans-35" transform="scale(0.015625)"/>
       </defs>
       <use xlink:href="#DejaVuSans-34"/>
       <use x="63.623047" xlink:href="#DejaVuSans-32"/>
       <use x="127.246094" xlink:href="#DejaVuSans-35"/>
       <use x="190.869141" xlink:href="#DejaVuSans-30"/>
      </g>
     </g>
    </g>
    <g id="xtick_3">
     <g id="line2d_3">
      <g>
       <use style="fill:#262626;stroke:#262626;stroke-width:1.25;" x="140.473746" xlink:href="#m8fec1da3a4" y="177.234135"/>
      </g>
     </g>
     <g id="text_3">
      <!-- 4500 -->
      <g style="fill:#262626;" transform="translate(126.476246 195.092416)scale(0.11 -0.11)">
       <use xlink:href="#DejaVuSans-34"/>
       <use x="63.623047" xlink:href="#DejaVuSans-35"/>
       <use x="127.246094" xlink:href="#DejaVuSans-30"/>
       <use x="190.869141" xlink:href="#DejaVuSans-30"/>
      </g>
     </g>
    </g>
    <g id="xtick_4">
     <g id="line2d_4">
      <g>
       <use style="fill:#262626;stroke:#262626;stroke-width:1.25;" x="179.396363" xlink:href="#m8fec1da3a4" y="177.234135"/>
      </g>
     </g>
     <g id="text_4">
      <!-- 4750 -->
      <g style="fill:#262626;" transform="translate(165.398863 195.092416)scale(0.11 -0.11)">
       <defs>
        <path d="M 525 4666 
L 3525 4666 
L 3525 4397 
L 1831 0 
L 1172 0 
L 2766 4134 
L 525 4134 
L 525 4666 
z
" id="DejaVuSans-37" transform="scale(0.015625)"/>
       </defs>
       <use xlink:href="#DejaVuSans-34"/>
       <use x="63.623047" xlink:href="#DejaVuSans-37"/>
       <use x="127.246094" xlink:href="#DejaVuSans-35"/>
       <use x="190.869141" xlink:href="#DejaVuSans-30"/>
      </g>
     </g>
    </g>
    <g id="xtick_5">
     <g id="line2d_5">
      <g>
       <use style="fill:#262626;stroke:#262626;stroke-width:1.25;" x="218.318979" xlink:href="#m8fec1da3a4" y="177.234135"/>
      </g>
     </g>
     <g id="text_5">
      <!-- 5000 -->
      <g style="fill:#262626;" transform="translate(204.321479 195.092416)scale(0.11 -0.11)">
       <use xlink:href="#DejaVuSans-35"/>
       <use x="63.623047" xlink:href="#DejaVuSans-30"/>
       <use x="127.246094" xlink:href="#DejaVuSans-30"/>
       <use x="190.869141" xlink:href="#DejaVuSans-30"/>
      </g>
     </g>
    </g>
    <g id="text_6">
     <!-- Time (ms) -->
     <g style="fill:#262626;" transform="translate(110.234684 210.498198)scale(0.12 -0.12)">
      <defs>
       <path d="M -19 4666 
L 3928 4666 
L 3928 4134 
L 2272 4134 
L 2272 0 
L 1638 0 
L 1638 4134 
L -19 4134 
L -19 4666 
z
" id="DejaVuSans-54" transform="scale(0.015625)"/>
       <path d="M 603 3500 
L 1178 3500 
L 1178 0 
L 603 0 
L 603 3500 
z
M 603 4863 
L 1178 4863 
L 1178 4134 
L 603 4134 
L 603 4863 
z
" id="DejaVuSans-69" transform="scale(0.015625)"/>
       <path d="M 3328 2828 
Q 3544 3216 3844 3400 
Q 4144 3584 4550 3584 
Q 5097 3584 5394 3201 
Q 5691 2819 5691 2113 
L 5691 0 
L 5113 0 
L 5113 2094 
Q 5113 2597 4934 2840 
Q 4756 3084 4391 3084 
Q 3944 3084 3684 2787 
Q 3425 2491 3425 1978 
L 3425 0 
L 2847 0 
L 2847 2094 
Q 2847 2600 2669 2842 
Q 2491 3084 2119 3084 
Q 1678 3084 1418 2786 
Q 1159 2488 1159 1978 
L 1159 0 
L 581 0 
L 581 3500 
L 1159 3500 
L 1159 2956 
Q 1356 3278 1631 3431 
Q 1906 3584 2284 3584 
Q 2666 3584 2933 3390 
Q 3200 3197 3328 2828 
z
" id="DejaVuSans-6d" transform="scale(0.015625)"/>
       <path d="M 3597 1894 
L 3597 1613 
L 953 1613 
Q 991 1019 1311 708 
Q 1631 397 2203 397 
Q 2534 397 2845 478 
Q 3156 559 3463 722 
L 3463 178 
Q 3153 47 2828 -22 
Q 2503 -91 2169 -91 
Q 1331 -91 842 396 
Q 353 884 353 1716 
Q 353 2575 817 3079 
Q 1281 3584 2069 3584 
Q 2775 3584 3186 3129 
Q 3597 2675 3597 1894 
z
M 3022 2063 
Q 3016 2534 2758 2815 
Q 2500 3097 2075 3097 
Q 1594 3097 1305 2825 
Q 1016 2553 972 2059 
L 3022 2063 
z
" id="DejaVuSans-65" transform="scale(0.015625)"/>
       <path id="DejaVuSans-20" transform="scale(0.015625)"/>
       <path d="M 1984 4856 
Q 1566 4138 1362 3434 
Q 1159 2731 1159 2009 
Q 1159 1288 1364 580 
Q 1569 -128 1984 -844 
L 1484 -844 
Q 1016 -109 783 600 
Q 550 1309 550 2009 
Q 550 2706 781 3412 
Q 1013 4119 1484 4856 
L 1984 4856 
z
" id="DejaVuSans-28" transform="scale(0.015625)"/>
       <path d="M 2834 3397 
L 2834 2853 
Q 2591 2978 2328 3040 
Q 2066 3103 1784 3103 
Q 1356 3103 1142 2972 
Q 928 2841 928 2578 
Q 928 2378 1081 2264 
Q 1234 2150 1697 2047 
L 1894 2003 
Q 2506 1872 2764 1633 
Q 3022 1394 3022 966 
Q 3022 478 2636 193 
Q 2250 -91 1575 -91 
Q 1294 -91 989 -36 
Q 684 19 347 128 
L 347 722 
Q 666 556 975 473 
Q 1284 391 1588 391 
Q 1994 391 2212 530 
Q 2431 669 2431 922 
Q 2431 1156 2273 1281 
Q 2116 1406 1581 1522 
L 1381 1569 
Q 847 1681 609 1914 
Q 372 2147 372 2553 
Q 372 3047 722 3315 
Q 1072 3584 1716 3584 
Q 2034 3584 2315 3537 
Q 2597 3491 2834 3397 
z
" id="DejaVuSans-73" transform="scale(0.015625)"/>
       <path d="M 513 4856 
L 1013 4856 
Q 1481 4119 1714 3412 
Q 1947 2706 1947 2009 
Q 1947 1309 1714 600 
Q 1481 -109 1013 -844 
L 513 -844 
Q 928 -128 1133 580 
Q 1338 1288 1338 2009 
Q 1338 2731 1133 3434 
Q 928 4138 513 4856 
z
" id="DejaVuSans-29" transform="scale(0.015625)"/>
      </defs>
      <use xlink:href="#DejaVuSans-54"/>
      <use x="57.958984" xlink:href="#DejaVuSans-69"/>
      <use x="85.742188" xlink:href="#DejaVuSans-6d"/>
      <use x="183.154297" xlink:href="#DejaVuSans-65"/>
      <use x="244.677734" xlink:href="#DejaVuSans-20"/>
      <use x="276.464844" xlink:href="#DejaVuSans-28"/>
      <use x="315.478516" xlink:href="#DejaVuSans-6d"/>
      <use x="412.890625" xlink:href="#DejaVuSans-73"/>
      <use x="464.990234" xlink:href="#DejaVuSans-29"/>
     </g>
    </g>
   </g>
   <g id="matplotlib.axis_2">
    <g id="ytick_1">
     <g id="line2d_6">
      <defs>
       <path d="M 0 0 
L -6 0 
" id="m9b7af9d373" style="stroke:#262626;stroke-width:1.25;"/>
      </defs>
      <g>
       <use style="fill:#262626;stroke:#262626;stroke-width:1.25;" x="54.84399" xlink:href="#m9b7af9d373" y="151.607895"/>
      </g>
     </g>
     <g id="text_7">
      <!-- −0.8 -->
      <g style="fill:#262626;" transform="translate(18.632896 155.787035)scale(0.11 -0.11)">
       <defs>
        <path d="M 678 2272 
L 4684 2272 
L 4684 1741 
L 678 1741 
L 678 2272 
z
" id="DejaVuSans-2212" transform="scale(0.015625)"/>
        <path d="M 684 794 
L 1344 794 
L 1344 0 
L 684 0 
L 684 794 
z
" id="DejaVuSans-2e" transform="scale(0.015625)"/>
        <path d="M 2034 2216 
Q 1584 2216 1326 1975 
Q 1069 1734 1069 1313 
Q 1069 891 1326 650 
Q 1584 409 2034 409 
Q 2484 409 2743 651 
Q 3003 894 3003 1313 
Q 3003 1734 2745 1975 
Q 2488 2216 2034 2216 
z
M 1403 2484 
Q 997 2584 770 2862 
Q 544 3141 544 3541 
Q 544 4100 942 4425 
Q 1341 4750 2034 4750 
Q 2731 4750 3128 4425 
Q 3525 4100 3525 3541 
Q 3525 3141 3298 2862 
Q 3072 2584 2669 2484 
Q 3125 2378 3379 2068 
Q 3634 1759 3634 1313 
Q 3634 634 3220 271 
Q 2806 -91 2034 -91 
Q 1263 -91 848 271 
Q 434 634 434 1313 
Q 434 1759 690 2068 
Q 947 2378 1403 2484 
z
M 1172 3481 
Q 1172 3119 1398 2916 
Q 1625 2713 2034 2713 
Q 2441 2713 2670 2916 
Q 2900 3119 2900 3481 
Q 2900 3844 2670 4047 
Q 2441 4250 2034 4250 
Q 1625 4250 1398 4047 
Q 1172 3844 1172 3481 
z
" id="DejaVuSans-38" transform="scale(0.015625)"/>
       </defs>
       <use xlink:href="#DejaVuSans-2212"/>
       <use x="83.789062" xlink:href="#DejaVuSans-30"/>
       <use x="147.412109" xlink:href="#DejaVuSans-2e"/>
       <use x="179.199219" xlink:href="#DejaVuSans-38"/>
      </g>
     </g>
    </g>
    <g id="ytick_2">
     <g id="line2d_7">
      <g>
       <use style="fill:#262626;stroke:#262626;stroke-width:1.25;" x="54.84399" xlink:href="#m9b7af9d373" y="125.555636"/>
      </g>
     </g>
     <g id="text_8">
      <!-- −0.6 -->
      <g style="fill:#262626;" transform="translate(18.632896 129.734776)scale(0.11 -0.11)">
       <defs>
        <path d="M 2113 2584 
Q 1688 2584 1439 2293 
Q 1191 2003 1191 1497 
Q 1191 994 1439 701 
Q 1688 409 2113 409 
Q 2538 409 2786 701 
Q 3034 994 3034 1497 
Q 3034 2003 2786 2293 
Q 2538 2584 2113 2584 
z
M 3366 4563 
L 3366 3988 
Q 3128 4100 2886 4159 
Q 2644 4219 2406 4219 
Q 1781 4219 1451 3797 
Q 1122 3375 1075 2522 
Q 1259 2794 1537 2939 
Q 1816 3084 2150 3084 
Q 2853 3084 3261 2657 
Q 3669 2231 3669 1497 
Q 3669 778 3244 343 
Q 2819 -91 2113 -91 
Q 1303 -91 875 529 
Q 447 1150 447 2328 
Q 447 3434 972 4092 
Q 1497 4750 2381 4750 
Q 2619 4750 2861 4703 
Q 3103 4656 3366 4563 
z
" id="DejaVuSans-36" transform="scale(0.015625)"/>
       </defs>
       <use xlink:href="#DejaVuSans-2212"/>
       <use x="83.789062" xlink:href="#DejaVuSans-30"/>
       <use x="147.412109" xlink:href="#DejaVuSans-2e"/>
       <use x="179.199219" xlink:href="#DejaVuSans-36"/>
      </g>
     </g>
    </g>
    <g id="ytick_3">
     <g id="line2d_8">
      <g>
       <use style="fill:#262626;stroke:#262626;stroke-width:1.25;" x="54.84399" xlink:href="#m9b7af9d373" y="99.503377"/>
      </g>
     </g>
     <g id="text_9">
      <!-- −0.4 -->
      <g style="fill:#262626;" transform="translate(18.632896 103.682517)scale(0.11 -0.11)">
       <use xlink:href="#DejaVuSans-2212"/>
       <use x="83.789062" xlink:href="#DejaVuSans-30"/>
       <use x="147.412109" xlink:href="#DejaVuSans-2e"/>
       <use x="179.199219" xlink:href="#DejaVuSans-34"/>
      </g>
     </g>
    </g>
    <g id="ytick_4">
     <g id="line2d_9">
      <g>
       <use style="fill:#262626;stroke:#262626;stroke-width:1.25;" x="54.84399" xlink:href="#m9b7af9d373" y="73.451118"/>
      </g>
     </g>
     <g id="text_10">
      <!-- −0.2 -->
      <g style="fill:#262626;" transform="translate(18.632896 77.630258)scale(0.11 -0.11)">
       <use xlink:href="#DejaVuSans-2212"/>
       <use x="83.789062" xlink:href="#DejaVuSans-30"/>
       <use x="147.412109" xlink:href="#DejaVuSans-2e"/>
       <use x="179.199219" xlink:href="#DejaVuSans-32"/>
      </g>
     </g>
    </g>
    <g id="ytick_5">
     <g id="line2d_10">
      <g>
       <use style="fill:#262626;stroke:#262626;stroke-width:1.25;" x="54.84399" xlink:href="#m9b7af9d373" y="47.398859"/>
      </g>
     </g>
     <g id="text_11">
      <!-- 0.0 -->
      <g style="fill:#262626;" transform="translate(27.850553 51.578)scale(0.11 -0.11)">
       <use xlink:href="#DejaVuSans-30"/>
       <use x="63.623047" xlink:href="#DejaVuSans-2e"/>
       <use x="95.410156" xlink:href="#DejaVuSans-30"/>
      </g>
     </g>
    </g>
    <g id="ytick_6">
     <g id="line2d_11">
      <g>
       <use style="fill:#262626;stroke:#262626;stroke-width:1.25;" x="54.84399" xlink:href="#m9b7af9d373" y="21.3466"/>
      </g>
     </g>
     <g id="text_12">
      <!-- 0.2 -->
      <g style="fill:#262626;" transform="translate(27.850553 25.525741)scale(0.11 -0.11)">
       <use xlink:href="#DejaVuSans-30"/>
       <use x="63.623047" xlink:href="#DejaVuSans-2e"/>
       <use x="95.410156" xlink:href="#DejaVuSans-32"/>
      </g>
     </g>
    </g>
    <g id="text_13">
     <!-- Angle (rad) -->
     <g style="fill:#262626;" transform="translate(12.137271 131.295625)rotate(-90)scale(0.12 -0.12)">
      <defs>
       <path d="M 2188 4044 
L 1331 1722 
L 3047 1722 
L 2188 4044 
z
M 1831 4666 
L 2547 4666 
L 4325 0 
L 3669 0 
L 3244 1197 
L 1141 1197 
L 716 0 
L 50 0 
L 1831 4666 
z
" id="DejaVuSans-41" transform="scale(0.015625)"/>
       <path d="M 3513 2113 
L 3513 0 
L 2938 0 
L 2938 2094 
Q 2938 2591 2744 2837 
Q 2550 3084 2163 3084 
Q 1697 3084 1428 2787 
Q 1159 2491 1159 1978 
L 1159 0 
L 581 0 
L 581 3500 
L 1159 3500 
L 1159 2956 
Q 1366 3272 1645 3428 
Q 1925 3584 2291 3584 
Q 2894 3584 3203 3211 
Q 3513 2838 3513 2113 
z
" id="DejaVuSans-6e" transform="scale(0.015625)"/>
       <path d="M 2906 1791 
Q 2906 2416 2648 2759 
Q 2391 3103 1925 3103 
Q 1463 3103 1205 2759 
Q 947 2416 947 1791 
Q 947 1169 1205 825 
Q 1463 481 1925 481 
Q 2391 481 2648 825 
Q 2906 1169 2906 1791 
z
M 3481 434 
Q 3481 -459 3084 -895 
Q 2688 -1331 1869 -1331 
Q 1566 -1331 1297 -1286 
Q 1028 -1241 775 -1147 
L 775 -588 
Q 1028 -725 1275 -790 
Q 1522 -856 1778 -856 
Q 2344 -856 2625 -561 
Q 2906 -266 2906 331 
L 2906 616 
Q 2728 306 2450 153 
Q 2172 0 1784 0 
Q 1141 0 747 490 
Q 353 981 353 1791 
Q 353 2603 747 3093 
Q 1141 3584 1784 3584 
Q 2172 3584 2450 3431 
Q 2728 3278 2906 2969 
L 2906 3500 
L 3481 3500 
L 3481 434 
z
" id="DejaVuSans-67" transform="scale(0.015625)"/>
       <path d="M 603 4863 
L 1178 4863 
L 1178 0 
L 603 0 
L 603 4863 
z
" id="DejaVuSans-6c" transform="scale(0.015625)"/>
       <path d="M 2631 2963 
Q 2534 3019 2420 3045 
Q 2306 3072 2169 3072 
Q 1681 3072 1420 2755 
Q 1159 2438 1159 1844 
L 1159 0 
L 581 0 
L 581 3500 
L 1159 3500 
L 1159 2956 
Q 1341 3275 1631 3429 
Q 1922 3584 2338 3584 
Q 2397 3584 2469 3576 
Q 2541 3569 2628 3553 
L 2631 2963 
z
" id="DejaVuSans-72" transform="scale(0.015625)"/>
       <path d="M 2194 1759 
Q 1497 1759 1228 1600 
Q 959 1441 959 1056 
Q 959 750 1161 570 
Q 1363 391 1709 391 
Q 2188 391 2477 730 
Q 2766 1069 2766 1631 
L 2766 1759 
L 2194 1759 
z
M 3341 1997 
L 3341 0 
L 2766 0 
L 2766 531 
Q 2569 213 2275 61 
Q 1981 -91 1556 -91 
Q 1019 -91 701 211 
Q 384 513 384 1019 
Q 384 1609 779 1909 
Q 1175 2209 1959 2209 
L 2766 2209 
L 2766 2266 
Q 2766 2663 2505 2880 
Q 2244 3097 1772 3097 
Q 1472 3097 1187 3025 
Q 903 2953 641 2809 
L 641 3341 
Q 956 3463 1253 3523 
Q 1550 3584 1831 3584 
Q 2591 3584 2966 3190 
Q 3341 2797 3341 1997 
z
" id="DejaVuSans-61" transform="scale(0.015625)"/>
       <path d="M 2906 2969 
L 2906 4863 
L 3481 4863 
L 3481 0 
L 2906 0 
L 2906 525 
Q 2725 213 2448 61 
Q 2172 -91 1784 -91 
Q 1150 -91 751 415 
Q 353 922 353 1747 
Q 353 2572 751 3078 
Q 1150 3584 1784 3584 
Q 2172 3584 2448 3432 
Q 2725 3281 2906 2969 
z
M 947 1747 
Q 947 1113 1208 752 
Q 1469 391 1925 391 
Q 2381 391 2643 752 
Q 2906 1113 2906 1747 
Q 2906 2381 2643 2742 
Q 2381 3103 1925 3103 
Q 1469 3103 1208 2742 
Q 947 2381 947 1747 
z
" id="DejaVuSans-64" transform="scale(0.015625)"/>
      </defs>
      <use xlink:href="#DejaVuSans-41"/>
      <use x="68.408203" xlink:href="#DejaVuSans-6e"/>
      <use x="131.787109" xlink:href="#DejaVuSans-67"/>
      <use x="195.263672" xlink:href="#DejaVuSans-6c"/>
      <use x="223.046875" xlink:href="#DejaVuSans-65"/>
      <use x="284.570312" xlink:href="#DejaVuSans-20"/>
      <use x="316.357422" xlink:href="#DejaVuSans-28"/>
      <use x="355.371094" xlink:href="#DejaVuSans-72"/>
      <use x="396.484375" xlink:href="#DejaVuSans-61"/>
      <use x="457.763672" xlink:href="#DejaVuSans-64"/>
      <use x="521.240234" xlink:href="#DejaVuSans-29"/>
     </g>
    </g>
   </g>
   <g id="line2d_12">
    <path clip-path="url(#pd17e35cec2)" d="M 62.628513 160.912195 
L 63.749485 158.61474 
L 65.026146 155.467722 
L 66.474068 151.283224 
L 68.139956 145.755023 
L 70.054948 138.589648 
L 72.468151 128.619911 
L 75.410701 115.54567 
L 78.960443 98.680425 
L 89.313859 48.782682 
L 90.590521 43.870507 
L 91.493526 41.216887 
L 92.225271 39.704393 
L 92.832464 38.910866 
L 93.361811 38.553626 
L 93.844452 38.479965 
L 94.342661 38.630474 
L 94.903147 39.043252 
L 95.572616 39.832239 
L 96.382206 41.156682 
L 97.363056 43.21717 
L 98.561873 46.28751 
L 100.040932 50.729373 
L 101.87808 56.991045 
L 104.587094 67.122087 
L 108.354803 81.998497 
L 115.065062 109.643013 
L 121.30825 134.911497 
L 125.356202 150.427081 
L 127.598145 158.251754 
L 128.905945 162.086241 
L 129.917933 164.413976 
L 130.805368 165.931981 
L 131.59939 166.879628 
L 132.331135 167.42405 
L 133.000604 167.659154 
L 133.654504 167.658279 
L 134.323973 167.433357 
L 135.055718 166.941823 
L 135.865308 166.115554 
L 136.783882 164.841253 
L 137.827008 162.990622 
L 139.010256 160.413219 
L 140.349194 156.938561 
L 141.87496 152.331011 
L 143.603124 146.377759 
L 145.595962 138.682052 
L 148.336115 127.093331 
L 151.340941 113.399714 
L 155.311048 94.166003 
L 163.640487 53.7402 
L 165.057271 47.991731 
L 166.006983 44.990827 
L 166.769866 43.259439 
L 167.408197 42.317793 
L 167.953113 41.877745 
L 168.451323 41.749868 
L 168.949532 41.858128 
L 169.494449 42.215604 
L 170.148349 42.933408 
L 170.926801 44.141913 
L 171.876513 46.054778 
L 173.028623 48.903851 
L 174.445406 53.032105 
L 176.220277 58.929613 
L 178.649048 67.846981 
L 182.416758 82.476707 
L 187.974907 105.119033 
L 195.307928 134.760969 
L 199.589416 151.170233 
L 202.049325 159.825024 
L 203.43497 163.968027 
L 204.478097 166.436907 
L 205.381101 168.042675 
L 206.206261 169.079157 
L 206.953575 169.677141 
L 207.638613 169.954444 
L 208.308082 169.98745 
L 208.977551 169.796925 
L 209.693727 169.358158 
L 210.487749 168.60286 
L 211.390753 167.420817 
L 212.41831 165.685552 
L 213.57042 163.28323 
L 214.87822 160.020847 
L 216.357279 155.711431 
L 218.038736 150.100719 
L 218.30341 149.154739 
L 218.30341 149.154739 
" style="fill:none;stroke:#949494;stroke-dasharray:5.55,2.4;stroke-dashoffset:0;stroke-width:1.5;"/>
   </g>
   <g id="line2d_13">
    <path clip-path="url(#pd17e35cec2)" d="M 62.636298 26.301896 
L 63.118938 27.03076 
L 63.928529 28.717709 
L 65.228544 32.301366 
L 67.104614 38.134842 
L 67.766299 40.166644 
L 67.82079 40.046284 
L 67.859713 40.000669 
L 67.90642 40.093632 
L 69.175297 44.144342 
L 71.035798 49.104334 
L 71.845389 50.806048 
L 72.001079 51.055403 
L 73.456785 54.036698 
L 74.180746 55.358158 
L 74.227453 55.32428 
L 74.414282 55.328962 
L 75.091535 56.368984 
L 75.363993 56.591956 
L 75.862203 56.893693 
L 76.196937 57.067982 
L 76.352628 57.127236 
L 76.959821 57.42922 
L 77.232279 57.600178 
L 78.252052 58.240091 
L 78.617924 58.395193 
L 78.85146 58.437993 
L 79.038288 58.476787 
L 79.668835 58.60899 
L 80.011354 58.637164 
L 80.338304 58.647306 
L 81.217955 58.408461 
L 81.646104 58.169732 
L 82.307788 57.571181 
L 82.829351 56.992168 
L 83.008395 56.774802 
L 83.280854 56.354356 
L 83.747925 55.587206 
L 85.312614 51.561895 
L 87.00964 43.247171 
L 87.788093 39.438183 
L 88.940202 34.930904 
L 89.897698 31.981979 
L 90.76178 30.016557 
L 91.797122 28.309665 
L 93.019292 26.96701 
L 93.657623 26.473593 
L 95.75166 25.45977 
L 96.358853 25.364653 
L 97.495393 25.542981 
L 98.289414 26.114697 
L 98.888823 26.928518 
L 99.729551 28.625289 
L 100.834954 31.5941 
L 102.485273 36.698811 
L 103.598459 40.144765 
L 103.645166 40.024366 
L 103.691874 39.966096 
L 103.738581 40.074449 
L 104.758353 43.446738 
L 106.587716 48.422605 
L 108.129052 52.03579 
L 108.518278 52.759806 
L 109.429067 54.368572 
L 109.833862 55.072353 
L 109.896139 55.015288 
L 110.03626 55.036828 
L 110.588961 55.9353 
L 111.328491 56.85108 
L 111.58538 56.978324 
L 112.036883 57.277184 
L 113.150069 57.868086 
L 114.995001 58.70004 
L 115.275244 58.718358 
L 115.804592 58.765622 
L 116.193818 58.758336 
L 116.801011 58.622741 
L 118.599236 57.182072 
L 120.265124 54.284845 
L 121.580708 49.802819 
L 123.908281 38.240229 
L 125.06039 33.986244 
L 125.978964 31.38249 
L 126.811908 29.626477 
L 127.932879 27.945116 
L 129.13948 26.752131 
L 129.785596 26.301375 
L 131.747296 25.458428 
L 132.813775 25.425472 
L 133.708995 25.794294 
L 134.253912 26.309334 
L 134.884458 27.257441 
L 135.50722 28.547366 
L 136.254535 30.474712 
L 137.943776 35.58096 
L 139.399482 40.124895 
L 139.438405 40.041674 
L 139.492896 39.959929 
L 139.539603 40.058227 
L 140.707282 43.846663 
L 143.860014 51.802326 
L 145.160029 54.25217 
L 145.409134 54.602762 
L 145.922912 55.331776 
L 146.055249 55.464818 
L 146.709149 56.324761 
L 146.903762 56.341226 
L 147.363049 56.617654 
L 147.689999 56.873802 
L 148.141502 57.177918 
L 148.881031 57.593405 
L 149.885235 58.252661 
L 150.235538 58.408702 
L 150.866085 58.517964 
L 151.200819 58.583191 
L 151.909211 58.587598 
L 153.006829 58.272873 
L 153.434977 58.045594 
L 153.777496 57.748347 
L 153.979894 57.578422 
L 154.664932 56.784777 
L 156.214052 53.908266 
L 157.677543 48.649554 
L 159.499121 39.320466 
L 160.682369 34.800121 
L 161.63208 31.94122 
L 162.519516 29.948066 
L 163.329106 28.589349 
L 164.208758 27.50723 
L 165.625541 26.347852 
L 166.699805 25.76574 
L 167.742931 25.442666 
L 168.933963 25.484246 
L 169.447742 25.698734 
L 170.117211 26.269487 
L 170.568713 26.902036 
L 171.316027 28.344823 
L 172.281308 30.835171 
L 174.250793 36.855683 
L 175.169366 39.706565 
L 175.223858 39.583312 
L 175.262781 39.540924 
L 175.309488 39.638867 
L 176.492735 43.485012 
L 179.505346 51.315727 
L 180.486196 53.257884 
L 181.31914 54.658924 
L 181.591598 55.067008 
L 181.809565 55.428404 
L 181.879625 55.361755 
L 182.019747 55.38538 
L 182.533525 56.182314 
L 182.899398 56.535002 
L 183.218563 56.704833 
L 183.491022 56.860796 
L 185.421584 58.137905 
L 185.803025 58.395939 
L 186.200036 58.592811 
L 186.456925 58.685161 
L 186.970704 58.749583 
L 187.141963 58.761049 
L 187.51562 58.800343 
L 187.834786 58.795812 
L 188.107244 58.767819 
L 188.971326 58.491612 
L 189.181508 58.422913 
L 189.531812 58.157675 
L 191.096501 56.312814 
L 192.614483 52.745673 
L 193.976775 46.583147 
L 196.218717 35.850777 
L 197.23849 32.587173 
L 198.195986 30.303601 
L 199.060068 28.788232 
L 200.2511 27.328824 
L 200.912785 26.751766 
L 202.8667 25.667862 
L 204.143362 25.433275 
L 205.015229 25.614351 
L 205.817035 26.190444 
L 206.470935 27.105165 
L 207.264956 28.728885 
L 208.448203 31.94165 
L 213.344669 46.530466 
L 214.356657 48.949138 
L 214.597977 49.475494 
L 216.162666 52.976487 
L 216.964472 54.406891 
L 217.260284 54.839551 
L 217.602803 55.373858 
L 217.657294 55.335414 
L 217.797416 55.379642 
L 218.318979 56.191081 
L 218.318979 56.191081 
" style="fill:none;stroke:#0173b2;stroke-linecap:round;stroke-width:1.5;"/>
   </g>
   <g id="patch_3">
    <path d="M 54.84399 177.234135 
L 54.84399 18.12524 
" style="fill:none;stroke:#262626;stroke-linecap:square;stroke-linejoin:miter;stroke-width:1.25;"/>
   </g>
   <g id="patch_4">
    <path d="M 226.103502 177.234135 
L 226.103502 18.12524 
" style="fill:none;stroke:#262626;stroke-linecap:square;stroke-linejoin:miter;stroke-width:1.25;"/>
   </g>
   <g id="patch_5">
    <path d="M 54.84399 177.234135 
L 226.103502 177.234135 
" style="fill:none;stroke:#262626;stroke-linecap:square;stroke-linejoin:miter;stroke-width:1.25;"/>
   </g>
   <g id="patch_6">
    <path d="M 54.84399 18.12524 
L 226.103502 18.12524 
" style="fill:none;stroke:#262626;stroke-linecap:square;stroke-linejoin:miter;stroke-width:1.25;"/>
   </g>
   <g id="text_14">
    <!-- Hip Angle -->
    <g style="fill:#262626;" transform="translate(111.504059 12.12524)scale(0.12 -0.12)">
     <defs>
      <path d="M 628 4666 
L 1259 4666 
L 1259 2753 
L 3553 2753 
L 3553 4666 
L 4184 4666 
L 4184 0 
L 3553 0 
L 3553 2222 
L 1259 2222 
L 1259 0 
L 628 0 
L 628 4666 
z
" id="DejaVuSans-48" transform="scale(0.015625)"/>
      <path d="M 1159 525 
L 1159 -1331 
L 581 -1331 
L 581 3500 
L 1159 3500 
L 1159 2969 
Q 1341 3281 1617 3432 
Q 1894 3584 2278 3584 
Q 2916 3584 3314 3078 
Q 3713 2572 3713 1747 
Q 3713 922 3314 415 
Q 2916 -91 2278 -91 
Q 1894 -91 1617 61 
Q 1341 213 1159 525 
z
M 3116 1747 
Q 3116 2381 2855 2742 
Q 2594 3103 2138 3103 
Q 1681 3103 1420 2742 
Q 1159 2381 1159 1747 
Q 1159 1113 1420 752 
Q 1681 391 2138 391 
Q 2594 391 2855 752 
Q 3116 1113 3116 1747 
z
" id="DejaVuSans-70" transform="scale(0.015625)"/>
     </defs>
     <use xlink:href="#DejaVuSans-48"/>
     <use x="75.195312" xlink:href="#DejaVuSans-69"/>
     <use x="102.978516" xlink:href="#DejaVuSans-70"/>
     <use x="166.455078" xlink:href="#DejaVuSans-20"/>
     <use x="198.242188" xlink:href="#DejaVuSans-41"/>
     <use x="266.650391" xlink:href="#DejaVuSans-6e"/>
     <use x="330.029297" xlink:href="#DejaVuSans-67"/>
     <use x="393.505859" xlink:href="#DejaVuSans-6c"/>
     <use x="421.289062" xlink:href="#DejaVuSans-65"/>
    </g>
   </g>
   <g id="text_15">
    <!-- A -->
    <g style="fill:#262626;" transform="translate(54.84399 12.12524)scale(0.12 -0.12)">
     <defs>
      <path d="M 3419 850 
L 1538 850 
L 1241 0 
L 31 0 
L 1759 4666 
L 3194 4666 
L 4922 0 
L 3713 0 
L 3419 850 
z
M 1838 1716 
L 3116 1716 
L 2478 3572 
L 1838 1716 
z
" id="DejaVuSans-Bold-41" transform="scale(0.015625)"/>
     </defs>
     <use xlink:href="#DejaVuSans-Bold-41"/>
    </g>
   </g>
   <g id="legend_1">
    <g id="patch_7">
     <path d="M 116.796159 115.475625 
L 218.403502 115.475625 
Q 220.603502 115.475625 220.603502 113.275625 
L 220.603502 82.08375 
Q 220.603502 79.88375 218.403502 79.88375 
L 116.796159 79.88375 
Q 114.596159 79.88375 114.596159 82.08375 
L 114.596159 113.275625 
Q 114.596159 115.475625 116.796159 115.475625 
z
" style="fill:#ffffff;opacity:0.8;stroke:#cccccc;stroke-linejoin:miter;"/>
    </g>
    <g id="line2d_14">
     <path d="M 118.996159 88.792031 
L 140.996159 88.792031 
" style="fill:none;stroke:#949494;stroke-dasharray:5.55,2.4;stroke-dashoffset:0;stroke-width:1.5;"/>
    </g>
    <g id="line2d_15"/>
    <g id="text_16">
     <!-- SNS-Toolbox -->
     <g style="fill:#262626;" transform="translate(149.796159 92.642031)scale(0.11 -0.11)">
      <defs>
       <path d="M 3425 4513 
L 3425 3897 
Q 3066 4069 2747 4153 
Q 2428 4238 2131 4238 
Q 1616 4238 1336 4038 
Q 1056 3838 1056 3469 
Q 1056 3159 1242 3001 
Q 1428 2844 1947 2747 
L 2328 2669 
Q 3034 2534 3370 2195 
Q 3706 1856 3706 1288 
Q 3706 609 3251 259 
Q 2797 -91 1919 -91 
Q 1588 -91 1214 -16 
Q 841 59 441 206 
L 441 856 
Q 825 641 1194 531 
Q 1563 422 1919 422 
Q 2459 422 2753 634 
Q 3047 847 3047 1241 
Q 3047 1584 2836 1778 
Q 2625 1972 2144 2069 
L 1759 2144 
Q 1053 2284 737 2584 
Q 422 2884 422 3419 
Q 422 4038 858 4394 
Q 1294 4750 2059 4750 
Q 2388 4750 2728 4690 
Q 3069 4631 3425 4513 
z
" id="DejaVuSans-53" transform="scale(0.015625)"/>
       <path d="M 628 4666 
L 1478 4666 
L 3547 763 
L 3547 4666 
L 4159 4666 
L 4159 0 
L 3309 0 
L 1241 3903 
L 1241 0 
L 628 0 
L 628 4666 
z
" id="DejaVuSans-4e" transform="scale(0.015625)"/>
       <path d="M 313 2009 
L 1997 2009 
L 1997 1497 
L 313 1497 
L 313 2009 
z
" id="DejaVuSans-2d" transform="scale(0.015625)"/>
       <path d="M 1959 3097 
Q 1497 3097 1228 2736 
Q 959 2375 959 1747 
Q 959 1119 1226 758 
Q 1494 397 1959 397 
Q 2419 397 2687 759 
Q 2956 1122 2956 1747 
Q 2956 2369 2687 2733 
Q 2419 3097 1959 3097 
z
M 1959 3584 
Q 2709 3584 3137 3096 
Q 3566 2609 3566 1747 
Q 3566 888 3137 398 
Q 2709 -91 1959 -91 
Q 1206 -91 779 398 
Q 353 888 353 1747 
Q 353 2609 779 3096 
Q 1206 3584 1959 3584 
z
" id="DejaVuSans-6f" transform="scale(0.015625)"/>
       <path d="M 3116 1747 
Q 3116 2381 2855 2742 
Q 2594 3103 2138 3103 
Q 1681 3103 1420 2742 
Q 1159 2381 1159 1747 
Q 1159 1113 1420 752 
Q 1681 391 2138 391 
Q 2594 391 2855 752 
Q 3116 1113 3116 1747 
z
M 1159 2969 
Q 1341 3281 1617 3432 
Q 1894 3584 2278 3584 
Q 2916 3584 3314 3078 
Q 3713 2572 3713 1747 
Q 3713 922 3314 415 
Q 2916 -91 2278 -91 
Q 1894 -91 1617 61 
Q 1341 213 1159 525 
L 1159 0 
L 581 0 
L 581 4863 
L 1159 4863 
L 1159 2969 
z
" id="DejaVuSans-62" transform="scale(0.015625)"/>
       <path d="M 3513 3500 
L 2247 1797 
L 3578 0 
L 2900 0 
L 1881 1375 
L 863 0 
L 184 0 
L 1544 1831 
L 300 3500 
L 978 3500 
L 1906 2253 
L 2834 3500 
L 3513 3500 
z
" id="DejaVuSans-78" transform="scale(0.015625)"/>
      </defs>
      <use xlink:href="#DejaVuSans-53"/>
      <use x="63.476562" xlink:href="#DejaVuSans-4e"/>
      <use x="138.28125" xlink:href="#DejaVuSans-53"/>
      <use x="201.757812" xlink:href="#DejaVuSans-2d"/>
      <use x="228.716797" xlink:href="#DejaVuSans-54"/>
      <use x="272.800781" xlink:href="#DejaVuSans-6f"/>
      <use x="333.982422" xlink:href="#DejaVuSans-6f"/>
      <use x="395.164062" xlink:href="#DejaVuSans-6c"/>
      <use x="422.947266" xlink:href="#DejaVuSans-62"/>
      <use x="486.423828" xlink:href="#DejaVuSans-6f"/>
      <use x="544.480469" xlink:href="#DejaVuSans-78"/>
     </g>
    </g>
    <g id="line2d_16">
     <path d="M 118.996159 104.937969 
L 140.996159 104.937969 
" style="fill:none;stroke:#0173b2;stroke-linecap:round;stroke-width:1.5;"/>
    </g>
    <g id="line2d_17"/>
    <g id="text_17">
     <!-- AnimatLab -->
     <g style="fill:#262626;" transform="translate(149.796159 108.787969)scale(0.11 -0.11)">
      <defs>
       <path d="M 1172 4494 
L 1172 3500 
L 2356 3500 
L 2356 3053 
L 1172 3053 
L 1172 1153 
Q 1172 725 1289 603 
Q 1406 481 1766 481 
L 2356 481 
L 2356 0 
L 1766 0 
Q 1100 0 847 248 
Q 594 497 594 1153 
L 594 3053 
L 172 3053 
L 172 3500 
L 594 3500 
L 594 4494 
L 1172 4494 
z
" id="DejaVuSans-74" transform="scale(0.015625)"/>
       <path d="M 628 4666 
L 1259 4666 
L 1259 531 
L 3531 531 
L 3531 0 
L 628 0 
L 628 4666 
z
" id="DejaVuSans-4c" transform="scale(0.015625)"/>
      </defs>
      <use xlink:href="#DejaVuSans-41"/>
      <use x="68.408203" xlink:href="#DejaVuSans-6e"/>
      <use x="131.787109" xlink:href="#DejaVuSans-69"/>
      <use x="159.570312" xlink:href="#DejaVuSans-6d"/>
      <use x="256.982422" xlink:href="#DejaVuSans-61"/>
      <use x="318.261719" xlink:href="#DejaVuSans-74"/>
      <use x="357.470703" xlink:href="#DejaVuSans-4c"/>
      <use x="413.183594" xlink:href="#DejaVuSans-61"/>
      <use x="474.462891" xlink:href="#DejaVuSans-62"/>
     </g>
    </g>
   </g>
  </g>
  <g id="axes_2">
   <g id="patch_8">
    <path d="M 297.177323 177.234135 
L 468.436836 177.234135 
L 468.436836 18.12524 
L 297.177323 18.12524 
z
" style="fill:#ffffff;"/>
   </g>
   <g id="matplotlib.axis_3">
    <g id="xtick_6">
     <g id="line2d_18">
      <g>
       <use style="fill:#262626;stroke:#262626;stroke-width:1.25;" x="304.961847" xlink:href="#m8fec1da3a4" y="177.234135"/>
      </g>
     </g>
     <g id="text_18">
      <!-- 4000 -->
      <g style="fill:#262626;" transform="translate(290.964347 195.092416)scale(0.11 -0.11)">
       <use xlink:href="#DejaVuSans-34"/>
       <use x="63.623047" xlink:href="#DejaVuSans-30"/>
       <use x="127.246094" xlink:href="#DejaVuSans-30"/>
       <use x="190.869141" xlink:href="#DejaVuSans-30"/>
      </g>
     </g>
    </g>
    <g id="xtick_7">
     <g id="line2d_19">
      <g>
       <use style="fill:#262626;stroke:#262626;stroke-width:1.25;" x="343.884463" xlink:href="#m8fec1da3a4" y="177.234135"/>
      </g>
     </g>
     <g id="text_19">
      <!-- 4250 -->
      <g style="fill:#262626;" transform="translate(329.886963 195.092416)scale(0.11 -0.11)">
       <use xlink:href="#DejaVuSans-34"/>
       <use x="63.623047" xlink:href="#DejaVuSans-32"/>
       <use x="127.246094" xlink:href="#DejaVuSans-35"/>
       <use x="190.869141" xlink:href="#DejaVuSans-30"/>
      </g>
     </g>
    </g>
    <g id="xtick_8">
     <g id="line2d_20">
      <g>
       <use style="fill:#262626;stroke:#262626;stroke-width:1.25;" x="382.807079" xlink:href="#m8fec1da3a4" y="177.234135"/>
      </g>
     </g>
     <g id="text_20">
      <!-- 4500 -->
      <g style="fill:#262626;" transform="translate(368.809579 195.092416)scale(0.11 -0.11)">
       <use xlink:href="#DejaVuSans-34"/>
       <use x="63.623047" xlink:href="#DejaVuSans-35"/>
       <use x="127.246094" xlink:href="#DejaVuSans-30"/>
       <use x="190.869141" xlink:href="#DejaVuSans-30"/>
      </g>
     </g>
    </g>
    <g id="xtick_9">
     <g id="line2d_21">
      <g>
       <use style="fill:#262626;stroke:#262626;stroke-width:1.25;" x="421.729696" xlink:href="#m8fec1da3a4" y="177.234135"/>
      </g>
     </g>
     <g id="text_21">
      <!-- 4750 -->
      <g style="fill:#262626;" transform="translate(407.732196 195.092416)scale(0.11 -0.11)">
       <use xlink:href="#DejaVuSans-34"/>
       <use x="63.623047" xlink:href="#DejaVuSans-37"/>
       <use x="127.246094" xlink:href="#DejaVuSans-35"/>
       <use x="190.869141" xlink:href="#DejaVuSans-30"/>
      </g>
     </g>
    </g>
    <g id="xtick_10">
     <g id="line2d_22">
      <g>
       <use style="fill:#262626;stroke:#262626;stroke-width:1.25;" x="460.652312" xlink:href="#m8fec1da3a4" y="177.234135"/>
      </g>
     </g>
     <g id="text_22">
      <!-- 5000 -->
      <g style="fill:#262626;" transform="translate(446.654812 195.092416)scale(0.11 -0.11)">
       <use xlink:href="#DejaVuSans-35"/>
       <use x="63.623047" xlink:href="#DejaVuSans-30"/>
       <use x="127.246094" xlink:href="#DejaVuSans-30"/>
       <use x="190.869141" xlink:href="#DejaVuSans-30"/>
      </g>
     </g>
    </g>
    <g id="text_23">
     <!-- Time (ms) -->
     <g style="fill:#262626;" transform="translate(352.568017 210.498198)scale(0.12 -0.12)">
      <use xlink:href="#DejaVuSans-54"/>
      <use x="57.958984" xlink:href="#DejaVuSans-69"/>
      <use x="85.742188" xlink:href="#DejaVuSans-6d"/>
      <use x="183.154297" xlink:href="#DejaVuSans-65"/>
      <use x="244.677734" xlink:href="#DejaVuSans-20"/>
      <use x="276.464844" xlink:href="#DejaVuSans-28"/>
      <use x="315.478516" xlink:href="#DejaVuSans-6d"/>
      <use x="412.890625" xlink:href="#DejaVuSans-73"/>
      <use x="464.990234" xlink:href="#DejaVuSans-29"/>
     </g>
    </g>
   </g>
   <g id="matplotlib.axis_4">
    <g id="ytick_7">
     <g id="line2d_23">
      <g>
       <use style="fill:#262626;stroke:#262626;stroke-width:1.25;" x="297.177323" xlink:href="#m9b7af9d373" y="173.404749"/>
      </g>
     </g>
     <g id="text_24">
      <!-- −0.50 -->
      <g style="fill:#262626;" transform="translate(253.96748 177.583889)scale(0.11 -0.11)">
       <use xlink:href="#DejaVuSans-2212"/>
       <use x="83.789062" xlink:href="#DejaVuSans-30"/>
       <use x="147.412109" xlink:href="#DejaVuSans-2e"/>
       <use x="179.199219" xlink:href="#DejaVuSans-35"/>
       <use x="242.822266" xlink:href="#DejaVuSans-30"/>
      </g>
     </g>
    </g>
    <g id="ytick_8">
     <g id="line2d_24">
      <g>
       <use style="fill:#262626;stroke:#262626;stroke-width:1.25;" x="297.177323" xlink:href="#m9b7af9d373" y="145.709513"/>
      </g>
     </g>
     <g id="text_25">
      <!-- −0.25 -->
      <g style="fill:#262626;" transform="translate(253.96748 149.888654)scale(0.11 -0.11)">
       <use xlink:href="#DejaVuSans-2212"/>
       <use x="83.789062" xlink:href="#DejaVuSans-30"/>
       <use x="147.412109" xlink:href="#DejaVuSans-2e"/>
       <use x="179.199219" xlink:href="#DejaVuSans-32"/>
       <use x="242.822266" xlink:href="#DejaVuSans-35"/>
      </g>
     </g>
    </g>
    <g id="ytick_9">
     <g id="line2d_25">
      <g>
       <use style="fill:#262626;stroke:#262626;stroke-width:1.25;" x="297.177323" xlink:href="#m9b7af9d373" y="118.014278"/>
      </g>
     </g>
     <g id="text_26">
      <!-- 0.00 -->
      <g style="fill:#262626;" transform="translate(263.185136 122.193418)scale(0.11 -0.11)">
       <use xlink:href="#DejaVuSans-30"/>
       <use x="63.623047" xlink:href="#DejaVuSans-2e"/>
       <use x="95.410156" xlink:href="#DejaVuSans-30"/>
       <use x="159.033203" xlink:href="#DejaVuSans-30"/>
      </g>
     </g>
    </g>
    <g id="ytick_10">
     <g id="line2d_26">
      <g>
       <use style="fill:#262626;stroke:#262626;stroke-width:1.25;" x="297.177323" xlink:href="#m9b7af9d373" y="90.319042"/>
      </g>
     </g>
     <g id="text_27">
      <!-- 0.25 -->
      <g style="fill:#262626;" transform="translate(263.185136 94.498183)scale(0.11 -0.11)">
       <use xlink:href="#DejaVuSans-30"/>
       <use x="63.623047" xlink:href="#DejaVuSans-2e"/>
       <use x="95.410156" xlink:href="#DejaVuSans-32"/>
       <use x="159.033203" xlink:href="#DejaVuSans-35"/>
      </g>
     </g>
    </g>
    <g id="ytick_11">
     <g id="line2d_27">
      <g>
       <use style="fill:#262626;stroke:#262626;stroke-width:1.25;" x="297.177323" xlink:href="#m9b7af9d373" y="62.623807"/>
      </g>
     </g>
     <g id="text_28">
      <!-- 0.50 -->
      <g style="fill:#262626;" transform="translate(263.185136 66.802947)scale(0.11 -0.11)">
       <use xlink:href="#DejaVuSans-30"/>
       <use x="63.623047" xlink:href="#DejaVuSans-2e"/>
       <use x="95.410156" xlink:href="#DejaVuSans-35"/>
       <use x="159.033203" xlink:href="#DejaVuSans-30"/>
      </g>
     </g>
    </g>
    <g id="ytick_12">
     <g id="line2d_28">
      <g>
       <use style="fill:#262626;stroke:#262626;stroke-width:1.25;" x="297.177323" xlink:href="#m9b7af9d373" y="34.928571"/>
      </g>
     </g>
     <g id="text_29">
      <!-- 0.75 -->
      <g style="fill:#262626;" transform="translate(263.185136 39.107712)scale(0.11 -0.11)">
       <use xlink:href="#DejaVuSans-30"/>
       <use x="63.623047" xlink:href="#DejaVuSans-2e"/>
       <use x="95.410156" xlink:href="#DejaVuSans-37"/>
       <use x="159.033203" xlink:href="#DejaVuSans-35"/>
      </g>
     </g>
    </g>
    <g id="text_30">
     <!-- Angle (rad) -->
     <g style="fill:#262626;" transform="translate(247.471855 131.295625)rotate(-90)scale(0.12 -0.12)">
      <use xlink:href="#DejaVuSans-41"/>
      <use x="68.408203" xlink:href="#DejaVuSans-6e"/>
      <use x="131.787109" xlink:href="#DejaVuSans-67"/>
      <use x="195.263672" xlink:href="#DejaVuSans-6c"/>
      <use x="223.046875" xlink:href="#DejaVuSans-65"/>
      <use x="284.570312" xlink:href="#DejaVuSans-20"/>
      <use x="316.357422" xlink:href="#DejaVuSans-28"/>
      <use x="355.371094" xlink:href="#DejaVuSans-72"/>
      <use x="396.484375" xlink:href="#DejaVuSans-61"/>
      <use x="457.763672" xlink:href="#DejaVuSans-64"/>
      <use x="521.240234" xlink:href="#DejaVuSans-29"/>
     </g>
    </g>
   </g>
   <g id="line2d_29">
    <path clip-path="url(#pc0a0ddf28e)" d="M 304.961847 34.770006 
L 307.172651 39.583424 
L 310.224184 46.805305 
L 325.263883 83.162003 
L 328.860333 90.986989 
L 330.744188 94.630876 
L 331.756176 96.167282 
L 332.425645 96.799634 
L 333.001699 97.068665 
L 333.531047 97.077592 
L 334.107102 96.860074 
L 334.807709 96.34079 
L 335.695145 95.383208 
L 336.847254 93.790108 
L 338.404159 91.227664 
L 340.583825 87.174615 
L 343.962308 80.369733 
L 355.20316 56.902792 
L 367.191326 31.979747 
L 369.24644 28.137383 
L 370.305135 26.590153 
L 371.083587 25.816019 
L 371.753056 25.450131 
L 372.375818 25.358471 
L 373.029718 25.493219 
L 373.761463 25.884667 
L 374.602192 26.599939 
L 375.598611 27.753462 
L 376.797427 29.498117 
L 378.260918 32.042206 
L 380.082496 35.682357 
L 382.433422 40.910522 
L 385.780767 48.9473 
L 397.893486 78.479399 
L 401.972576 87.655095 
L 404.666021 93.241227 
L 406.020528 95.598982 
L 406.767842 96.522664 
L 407.406173 96.975767 
L 407.95109 97.102959 
L 408.496006 96.999532 
L 409.134337 96.636527 
L 409.91279 95.921228 
L 410.924778 94.667777 
L 412.263716 92.628699 
L 414.100863 89.391805 
L 416.778739 84.179013 
L 421.729696 73.96036 
L 436.84724 42.321445 
L 442.779047 30.21086 
L 444.320382 27.511477 
L 445.254525 26.286287 
L 445.98627 25.666776 
L 446.624601 25.401294 
L 447.247363 25.378887 
L 447.916832 25.583858 
L 448.679715 26.064545 
L 449.567151 26.902645 
L 450.625846 28.22644 
L 451.902508 30.199368 
L 453.459413 33.036356 
L 455.421113 37.101812 
L 458.005574 43.006868 
L 460.636743 49.385949 
L 460.636743 49.385949 
" style="fill:none;stroke:#949494;stroke-dasharray:5.55,2.4;stroke-dashoffset:0;stroke-width:1.5;"/>
   </g>
   <g id="line2d_30">
    <path clip-path="url(#pc0a0ddf28e)" d="M 304.969631 154.05134 
L 306.939116 159.677361 
L 307.982242 161.935332 
L 308.82297 163.393707 
L 310.037356 164.945427 
L 310.099632 164.993296 
L 310.122986 164.87373 
L 310.426582 163.275715 
L 310.917007 163.435583 
L 311.913426 163.938595 
L 312.979906 164.204912 
L 314.194291 164.474043 
L 315.027235 166.197396 
L 315.36197 166.337545 
L 315.805688 166.230907 
L 316.615278 166.005113 
L 317.222471 166.892923 
L 317.409299 166.655652 
L 317.580559 166.333546 
L 317.666189 166.427709 
L 318.195536 166.754901 
L 318.250028 166.691479 
L 318.28895 166.797341 
L 318.452425 166.957818 
L 318.475779 166.942697 
L 318.584762 166.872384 
L 318.608116 166.953786 
L 318.826083 167.302923 
L 318.950635 167.429568 
L 318.981773 167.403811 
L 319.036265 167.368871 
L 319.090756 167.43442 
L 319.246447 167.730482 
L 319.285369 167.696506 
L 319.721303 168.3695 
L 319.954838 168.683918 
L 319.962623 168.67972 
L 320.001546 168.648513 
L 320.024899 168.742233 
L 320.219512 169.04132 
L 320.42191 169.225128 
L 320.445263 169.199282 
L 320.453048 169.185457 
L 320.491971 169.309764 
L 320.562031 169.393847 
L 320.608738 169.333693 
L 320.616523 169.314783 
L 320.671015 169.457801 
L 320.850059 169.627672 
L 320.873412 169.604608 
L 320.90455 169.559309 
L 320.951257 169.677712 
L 321.114732 169.763689 
L 321.130301 169.748911 
L 321.31713 169.677225 
L 321.387191 169.788017 
L 321.441682 169.709251 
L 321.449467 169.687815 
L 321.519528 169.815789 
L 321.589588 169.716917 
L 321.597373 169.69218 
L 321.659649 169.807448 
L 321.675218 169.807437 
L 322.438101 169.314195 
L 322.492593 169.340373 
L 322.593792 169.130908 
L 322.648284 169.192968 
L 322.694991 169.102504 
L 322.874035 168.788817 
L 322.889604 168.820954 
L 322.920742 168.839001 
L 322.967449 168.751628 
L 323.169847 168.291045 
L 323.208769 168.328788 
L 323.27883 168.164932 
L 323.450089 167.781951 
L 323.473443 167.816415 
L 323.52015 167.774097 
L 323.535719 167.73138 
L 323.901592 166.795967 
L 323.917161 166.811277 
L 323.940514 166.818434 
L 323.987222 166.726596 
L 325.762093 160.248027 
L 326.018982 159.14394 
L 326.953125 154.055517 
L 327.280075 152.125591 
L 327.895052 147.879025 
L 328.494461 143.24837 
L 329.584294 134.418011 
L 330.105857 131.330058 
L 330.510652 130.088913 
L 330.876525 129.597045 
L 331.257966 129.440457 
L 331.795098 129.485977 
L 332.495705 129.773785 
L 333.165174 130.332243 
L 333.655599 130.960083 
L 334.348422 132.221136 
L 335.375979 134.897703 
L 336.201139 137.601467 
L 337.617922 142.90896 
L 339.361655 149.587178 
L 340.941913 154.96926 
L 341.977255 158.077729 
L 343.744342 162.298782 
L 345.161125 164.631408 
L 345.924008 165.508028 
L 345.931793 165.495887 
L 346.009638 164.709519 
L 346.180897 163.900918 
L 346.258743 163.757811 
L 346.328803 163.787689 
L 346.585693 163.793239 
L 346.865935 164.026821 
L 347.480913 164.413557 
L 347.691095 164.456806 
L 348.376133 164.648955 
L 349.40369 164.787487 
L 350.664783 164.955697 
L 351.092932 165.232283 
L 351.326467 165.391199 
L 351.832461 165.874813 
L 352.120489 165.826091 
L 352.221687 165.886024 
L 352.478577 166.504104 
L 352.774389 166.947006 
L 352.961217 166.909108 
L 353.225891 166.519824 
L 353.311521 166.341522 
L 353.381581 166.432163 
L 353.607333 166.546245 
L 353.817515 166.537305 
L 354.183387 166.771507 
L 354.269017 166.845487 
L 354.455846 167.167194 
L 354.479199 167.1541 
L 354.642674 167.133617 
L 354.915133 167.603272 
L 354.922917 167.598841 
L 354.96184 167.570692 
L 354.992978 167.677296 
L 355.249867 168.092138 
L 355.397773 168.247641 
L 355.646878 168.529213 
L 355.654662 168.52333 
L 355.670231 168.504619 
L 355.701369 168.621394 
L 355.802568 168.78196 
L 355.841491 168.739564 
L 355.849275 168.724398 
L 355.888198 168.866275 
L 355.997181 169.114878 
L 356.043888 169.063487 
L 356.067242 169.02817 
L 356.106165 169.159512 
L 356.300778 169.423758 
L 356.324131 169.403485 
L 356.363054 169.319136 
L 356.409761 169.467051 
L 356.604374 169.688303 
L 356.619943 169.678875 
L 356.66665 169.609172 
L 356.705573 169.727497 
L 356.884617 169.880231 
L 356.900186 169.867967 
L 356.946893 169.793478 
L 357.001385 169.917265 
L 357.297197 169.962995 
L 357.460672 169.865563 
L 357.468456 169.871601 
L 357.530732 169.972046 
L 357.585224 169.889891 
L 357.600793 169.865585 
L 357.6475 169.958409 
L 357.678638 169.948671 
L 357.881036 169.765196 
L 357.904389 169.824885 
L 357.943312 169.845911 
L 357.990019 169.762327 
L 358.161279 169.569878 
L 358.246909 169.622277 
L 358.285831 169.525277 
L 358.457091 169.295108 
L 358.511582 169.353434 
L 358.558289 169.267158 
L 358.737333 168.956007 
L 358.752903 168.986716 
L 358.784041 169.00155 
L 358.830748 168.918353 
L 359.025361 168.494638 
L 359.072068 168.523563 
L 359.157698 168.26376 
L 359.313388 167.937011 
L 359.321173 167.943603 
L 359.352311 167.974965 
L 359.406802 167.873379 
L 359.78046 166.888137 
L 359.788244 166.897199 
L 359.834951 166.847968 
L 359.85052 166.803379 
L 360.574481 164.637412 
L 360.948138 163.228544 
L 361.314011 161.708331 
L 361.376287 161.54761 
L 362.263723 157.241222 
L 362.567319 155.672486 
L 364.505665 141.955357 
L 365.229626 135.898055 
L 365.82125 131.767466 
L 366.249398 130.171578 
L 366.623056 129.529181 
L 366.988928 129.304595 
L 367.463784 129.290448 
L 368.141038 129.506992 
L 368.911705 130.062857 
L 369.697942 131.105937 
L 370.562024 132.94273 
L 371.550659 135.782821 
L 373.489005 142.896309 
L 375.248307 149.633507 
L 377.552526 157.212275 
L 379.405243 161.82526 
L 380.183695 163.280013 
L 381.631616 165.259192 
L 381.732815 165.339564 
L 381.748384 165.269229 
L 382.059765 163.633116 
L 382.083119 163.642865 
L 382.207671 163.599018 
L 382.324439 163.655029 
L 382.72145 163.957671 
L 383.499902 164.303551 
L 384.652011 164.601175 
L 385.881966 164.660067 
L 386.154424 164.759027 
L 387.174197 165.541063 
L 387.86702 165.933183 
L 388.155047 165.953744 
L 388.248461 166.029607 
L 388.715533 166.461509 
L 389.104759 166.391384 
L 389.392786 166.561411 
L 389.618537 166.518096 
L 389.626322 166.531123 
L 389.735305 166.601104 
L 390.101178 167.027544 
L 390.132316 166.995728 
L 390.272437 166.934311 
L 390.280222 166.952379 
L 390.474835 167.358447 
L 390.505973 167.337863 
L 390.576034 167.304097 
L 390.599387 167.380481 
L 390.739509 167.617729 
L 390.762862 167.603306 
L 390.770647 167.595208 
L 390.809569 167.714452 
L 390.926337 167.868249 
L 390.957475 167.842094 
L 390.973044 167.819218 
L 391.011967 167.944766 
L 391.136519 168.183565 
L 391.167657 168.160589 
L 391.198796 168.128186 
L 391.229934 168.241869 
L 391.463469 168.611169 
L 391.525746 168.559035 
L 391.556884 168.689424 
L 391.650298 168.836131 
L 391.697005 168.781539 
L 391.735928 168.907419 
L 391.953894 169.231265 
L 392.023955 169.1561 
L 392.062878 169.299329 
L 392.265275 169.525842 
L 392.319767 169.466685 
L 392.35869 169.587237 
L 392.553303 169.758372 
L 392.561087 169.753531 
L 392.623363 169.649862 
L 392.677855 169.791141 
L 392.849115 169.887974 
L 392.872468 169.854474 
L 392.888037 169.817396 
L 392.942529 169.90139 
L 392.973667 169.895053 
L 393.160495 169.781602 
L 393.183849 169.845534 
L 393.238341 169.911704 
L 393.292832 169.831509 
L 393.316186 169.777614 
L 393.362893 169.865408 
L 393.401816 169.852015 
L 393.604213 169.688801 
L 393.619782 169.729569 
L 393.666489 169.772784 
L 393.713197 169.697464 
L 393.884456 169.518188 
L 393.938948 169.586827 
L 393.993439 169.48862 
L 394.164699 169.26605 
L 394.172483 169.279078 
L 394.211406 169.322792 
L 394.265898 169.232229 
L 394.452726 168.909191 
L 394.468295 168.940332 
L 394.499433 168.958799 
L 394.546141 168.880743 
L 394.748538 168.453837 
L 394.795245 168.48757 
L 394.873091 168.278194 
L 395.04435 167.90227 
L 395.059919 167.923928 
L 395.091057 167.92292 
L 395.12998 167.847888 
L 395.488068 166.917538 
L 395.519206 166.949898 
L 395.581482 166.846716 
L 396.103045 165.254628 
L 396.118614 165.259691 
L 396.188675 165.072249 
L 396.616824 163.626768 
L 397.013834 161.97775 
L 397.278508 160.93426 
L 398.368342 155.386073 
L 398.671938 153.72457 
L 401.957007 130.56557 
L 402.338448 129.757379 
L 402.696536 129.465405 
L 403.13247 129.407898 
L 403.755232 129.562482 
L 404.362424 129.900796 
L 405.047462 130.585909 
L 405.514534 131.279797 
L 406.292986 132.900954 
L 407.36725 135.97538 
L 409.188829 142.542408 
L 411.337357 150.666705 
L 413.875112 158.681607 
L 415.595492 162.65019 
L 416.996706 164.859428 
L 417.494915 165.431811 
L 417.510484 165.397325 
L 417.930849 163.715061 
L 418.07097 163.715094 
L 419.005113 164.320523 
L 420.608725 164.779223 
L 421.82311 164.823413 
L 422.274613 164.912979 
L 422.827314 165.322825 
L 423.169833 165.500163 
L 423.551274 165.696267 
L 423.722534 165.786321 
L 424.11176 165.97908 
L 424.205174 166.059053 
L 424.773444 166.868352 
L 424.804583 166.845653 
L 425.030334 166.505744 
L 425.115964 166.359158 
L 425.186024 166.429216 
L 425.411775 166.606776 
L 425.57525 166.682904 
L 425.590819 166.670774 
L 425.699803 166.663939 
L 425.715372 166.702856 
L 425.9022 166.919278 
L 426.057891 166.856675 
L 426.081244 166.941744 
L 426.22915 167.170485 
L 426.252504 167.159152 
L 426.268073 167.144085 
L 426.306996 167.249992 
L 426.439332 167.40842 
L 426.470471 167.385832 
L 426.5561 167.365404 
L 426.571669 167.414302 
L 426.72736 167.739478 
L 426.750713 167.724744 
L 426.766282 167.706033 
L 426.805205 167.827881 
L 426.914188 167.978166 
L 426.953111 167.942018 
L 426.960896 167.9295 
L 426.999818 168.063146 
L 427.116586 168.268434 
L 427.155509 168.229584 
L 427.163293 168.216168 
L 427.202216 168.353658 
L 427.311199 168.578798 
L 427.350122 168.548677 
L 427.373475 168.505871 
L 427.412398 168.646574 
L 427.505812 168.784042 
L 427.552519 168.73511 
L 428.136359 169.52828 
L 428.183066 169.446955 
L 428.377679 169.74572 
L 428.424386 169.769749 
L 428.471093 169.69331 
L 428.478878 169.67245 
L 428.533369 169.825084 
L 428.712413 169.93736 
L 428.727982 169.921674 
L 428.766905 169.834833 
L 428.84475 169.945348 
L 429.047148 169.845069 
L 429.070501 169.910341 
L 429.117208 169.942035 
L 429.163916 169.860091 
L 429.179485 169.837425 
L 429.226192 169.923834 
L 429.272899 169.882834 
L 429.436374 169.777171 
L 429.49865 169.853821 
L 429.545357 169.765716 
L 429.560926 169.713572 
L 429.615418 169.812233 
L 429.654341 169.789368 
L 429.864523 169.517589 
L 429.887876 169.576181 
L 429.926799 169.594981 
L 429.965722 169.523416 
L 430.15255 169.239108 
L 430.160335 169.25331 
L 430.199257 169.303516 
L 430.253749 169.214914 
L 430.440577 168.871437 
L 430.463931 168.915163 
L 430.502854 168.908106 
L 430.533992 168.843399 
L 430.798666 168.397716 
L 431.156754 167.593457 
L 431.320229 167.196319 
L 431.335798 167.213102 
L 431.37472 167.221167 
L 431.413643 167.133096 
L 431.935206 165.579582 
L 431.950775 165.587425 
L 432.020836 165.408868 
L 432.417846 164.094973 
L 432.52683 163.582279 
L 433.126238 161.255059 
L 433.492111 159.539915 
L 433.562171 159.310289 
L 434.932247 151.52004 
L 437.547847 131.013923 
L 437.975996 129.386739 
L 438.349653 128.743475 
L 438.715526 128.525414 
L 439.198166 128.519558 
L 439.867635 128.742591 
L 440.59938 129.262221 
L 441.370048 130.262008 
L 442.249699 132.126075 
L 443.199411 134.862043 
L 444.413797 139.189744 
L 448.415042 153.970681 
L 449.940808 158.458228 
L 450.828244 160.593708 
L 451.684541 162.289709 
L 452.455209 163.517461 
L 453.42049 164.686876 
L 453.428275 164.662847 
L 453.537258 163.529879 
L 453.716302 162.996491 
L 453.895346 162.932693 
L 454.019898 162.996602 
L 454.331279 163.227459 
L 454.64266 163.405738 
L 454.954041 163.536127 
L 455.631295 163.781308 
L 456.705559 164.18598 
L 457.42952 165.554191 
L 457.787608 165.728427 
L 458.223541 165.687117 
L 458.869656 165.691105 
L 459.749308 166.272007 
L 460.037335 166.421472 
L 460.519975 167.07662 
L 460.652312 166.97541 
L 460.652312 166.97541 
" style="fill:none;stroke:#0173b2;stroke-linecap:round;stroke-width:1.5;"/>
   </g>
   <g id="patch_9">
    <path d="M 297.177323 177.234135 
L 297.177323 18.12524 
" style="fill:none;stroke:#262626;stroke-linecap:square;stroke-linejoin:miter;stroke-width:1.25;"/>
   </g>
   <g id="patch_10">
    <path d="M 468.436836 177.234135 
L 468.436836 18.12524 
" style="fill:none;stroke:#262626;stroke-linecap:square;stroke-linejoin:miter;stroke-width:1.25;"/>
   </g>
   <g id="patch_11">
    <path d="M 297.177323 177.234135 
L 468.436836 177.234135 
" style="fill:none;stroke:#262626;stroke-linecap:square;stroke-linejoin:miter;stroke-width:1.25;"/>
   </g>
   <g id="patch_12">
    <path d="M 297.177323 18.12524 
L 468.436836 18.12524 
" style="fill:none;stroke:#262626;stroke-linecap:square;stroke-linejoin:miter;stroke-width:1.25;"/>
   </g>
   <g id="text_31">
    <!-- Knee Angle -->
    <g style="fill:#262626;" transform="translate(348.704579 12.12524)scale(0.12 -0.12)">
     <defs>
      <path d="M 628 4666 
L 1259 4666 
L 1259 2694 
L 3353 4666 
L 4166 4666 
L 1850 2491 
L 4331 0 
L 3500 0 
L 1259 2247 
L 1259 0 
L 628 0 
L 628 4666 
z
" id="DejaVuSans-4b" transform="scale(0.015625)"/>
     </defs>
     <use xlink:href="#DejaVuSans-4b"/>
     <use x="65.576172" xlink:href="#DejaVuSans-6e"/>
     <use x="128.955078" xlink:href="#DejaVuSans-65"/>
     <use x="190.478516" xlink:href="#DejaVuSans-65"/>
     <use x="252.001953" xlink:href="#DejaVuSans-20"/>
     <use x="283.789062" xlink:href="#DejaVuSans-41"/>
     <use x="352.197266" xlink:href="#DejaVuSans-6e"/>
     <use x="415.576172" xlink:href="#DejaVuSans-67"/>
     <use x="479.052734" xlink:href="#DejaVuSans-6c"/>
     <use x="506.835938" xlink:href="#DejaVuSans-65"/>
    </g>
   </g>
   <g id="text_32">
    <!-- B -->
    <g style="fill:#262626;" transform="translate(297.177323 12.12524)scale(0.12 -0.12)">
     <defs>
      <path d="M 2456 2859 
Q 2741 2859 2887 2984 
Q 3034 3109 3034 3353 
Q 3034 3594 2887 3720 
Q 2741 3847 2456 3847 
L 1791 3847 
L 1791 2859 
L 2456 2859 
z
M 2497 819 
Q 2859 819 3042 972 
Q 3225 1125 3225 1434 
Q 3225 1738 3044 1889 
Q 2863 2041 2497 2041 
L 1791 2041 
L 1791 819 
L 2497 819 
z
M 3616 2497 
Q 4003 2384 4215 2081 
Q 4428 1778 4428 1338 
Q 4428 663 3972 331 
Q 3516 0 2584 0 
L 588 0 
L 588 4666 
L 2394 4666 
Q 3366 4666 3802 4372 
Q 4238 4078 4238 3431 
Q 4238 3091 4078 2852 
Q 3919 2613 3616 2497 
z
" id="DejaVuSans-Bold-42" transform="scale(0.015625)"/>
     </defs>
     <use xlink:href="#DejaVuSans-Bold-42"/>
    </g>
   </g>
   <g id="legend_2">
    <g id="patch_13">
     <path d="M 359.129492 115.475625 
L 460.736836 115.475625 
Q 462.936836 115.475625 462.936836 113.275625 
L 462.936836 82.08375 
Q 462.936836 79.88375 460.736836 79.88375 
L 359.129492 79.88375 
Q 356.929492 79.88375 356.929492 82.08375 
L 356.929492 113.275625 
Q 356.929492 115.475625 359.129492 115.475625 
z
" style="fill:#ffffff;opacity:0.8;stroke:#cccccc;stroke-linejoin:miter;"/>
    </g>
    <g id="line2d_31">
     <path d="M 361.329492 88.792031 
L 383.329492 88.792031 
" style="fill:none;stroke:#949494;stroke-dasharray:5.55,2.4;stroke-dashoffset:0;stroke-width:1.5;"/>
    </g>
    <g id="line2d_32"/>
    <g id="text_33">
     <!-- SNS-Toolbox -->
     <g style="fill:#262626;" transform="translate(392.129492 92.642031)scale(0.11 -0.11)">
      <use xlink:href="#DejaVuSans-53"/>
      <use x="63.476562" xlink:href="#DejaVuSans-4e"/>
      <use x="138.28125" xlink:href="#DejaVuSans-53"/>
      <use x="201.757812" xlink:href="#DejaVuSans-2d"/>
      <use x="228.716797" xlink:href="#DejaVuSans-54"/>
      <use x="272.800781" xlink:href="#DejaVuSans-6f"/>
      <use x="333.982422" xlink:href="#DejaVuSans-6f"/>
      <use x="395.164062" xlink:href="#DejaVuSans-6c"/>
      <use x="422.947266" xlink:href="#DejaVuSans-62"/>
      <use x="486.423828" xlink:href="#DejaVuSans-6f"/>
      <use x="544.480469" xlink:href="#DejaVuSans-78"/>
     </g>
    </g>
    <g id="line2d_33">
     <path d="M 361.329492 104.937969 
L 383.329492 104.937969 
" style="fill:none;stroke:#0173b2;stroke-linecap:round;stroke-width:1.5;"/>
    </g>
    <g id="line2d_34"/>
    <g id="text_34">
     <!-- AnimatLab -->
     <g style="fill:#262626;" transform="translate(392.129492 108.787969)scale(0.11 -0.11)">
      <use xlink:href="#DejaVuSans-41"/>
      <use x="68.408203" xlink:href="#DejaVuSans-6e"/>
      <use x="131.787109" xlink:href="#DejaVuSans-69"/>
      <use x="159.570312" xlink:href="#DejaVuSans-6d"/>
      <use x="256.982422" xlink:href="#DejaVuSans-61"/>
      <use x="318.261719" xlink:href="#DejaVuSans-74"/>
      <use x="357.470703" xlink:href="#DejaVuSans-4c"/>
      <use x="413.183594" xlink:href="#DejaVuSans-61"/>
      <use x="474.462891" xlink:href="#DejaVuSans-62"/>
     </g>
    </g>
   </g>
  </g>
  <g id="axes_3">
   <g id="patch_14">
    <path d="M 539.510657 177.234135 
L 710.770169 177.234135 
L 710.770169 18.12524 
L 539.510657 18.12524 
z
" style="fill:#ffffff;"/>
   </g>
   <g id="matplotlib.axis_5">
    <g id="xtick_11">
     <g id="line2d_35">
      <g>
       <use style="fill:#262626;stroke:#262626;stroke-width:1.25;" x="547.29518" xlink:href="#m8fec1da3a4" y="177.234135"/>
      </g>
     </g>
     <g id="text_35">
      <!-- 4000 -->
      <g style="fill:#262626;" transform="translate(533.29768 195.092416)scale(0.11 -0.11)">
       <use xlink:href="#DejaVuSans-34"/>
       <use x="63.623047" xlink:href="#DejaVuSans-30"/>
       <use x="127.246094" xlink:href="#DejaVuSans-30"/>
       <use x="190.869141" xlink:href="#DejaVuSans-30"/>
      </g>
     </g>
    </g>
    <g id="xtick_12">
     <g id="line2d_36">
      <g>
       <use style="fill:#262626;stroke:#262626;stroke-width:1.25;" x="586.217796" xlink:href="#m8fec1da3a4" y="177.234135"/>
      </g>
     </g>
     <g id="text_36">
      <!-- 4250 -->
      <g style="fill:#262626;" transform="translate(572.220296 195.092416)scale(0.11 -0.11)">
       <use xlink:href="#DejaVuSans-34"/>
       <use x="63.623047" xlink:href="#DejaVuSans-32"/>
       <use x="127.246094" xlink:href="#DejaVuSans-35"/>
       <use x="190.869141" xlink:href="#DejaVuSans-30"/>
      </g>
     </g>
    </g>
    <g id="xtick_13">
     <g id="line2d_37">
      <g>
       <use style="fill:#262626;stroke:#262626;stroke-width:1.25;" x="625.140413" xlink:href="#m8fec1da3a4" y="177.234135"/>
      </g>
     </g>
     <g id="text_37">
      <!-- 4500 -->
      <g style="fill:#262626;" transform="translate(611.142913 195.092416)scale(0.11 -0.11)">
       <use xlink:href="#DejaVuSans-34"/>
       <use x="63.623047" xlink:href="#DejaVuSans-35"/>
       <use x="127.246094" xlink:href="#DejaVuSans-30"/>
       <use x="190.869141" xlink:href="#DejaVuSans-30"/>
      </g>
     </g>
    </g>
    <g id="xtick_14">
     <g id="line2d_38">
      <g>
       <use style="fill:#262626;stroke:#262626;stroke-width:1.25;" x="664.063029" xlink:href="#m8fec1da3a4" y="177.234135"/>
      </g>
     </g>
     <g id="text_38">
      <!-- 4750 -->
      <g style="fill:#262626;" transform="translate(650.065529 195.092416)scale(0.11 -0.11)">
       <use xlink:href="#DejaVuSans-34"/>
       <use x="63.623047" xlink:href="#DejaVuSans-37"/>
       <use x="127.246094" xlink:href="#DejaVuSans-35"/>
       <use x="190.869141" xlink:href="#DejaVuSans-30"/>
      </g>
     </g>
    </g>
    <g id="xtick_15">
     <g id="line2d_39">
      <g>
       <use style="fill:#262626;stroke:#262626;stroke-width:1.25;" x="702.985646" xlink:href="#m8fec1da3a4" y="177.234135"/>
      </g>
     </g>
     <g id="text_39">
      <!-- 5000 -->
      <g style="fill:#262626;" transform="translate(688.988146 195.092416)scale(0.11 -0.11)">
       <use xlink:href="#DejaVuSans-35"/>
       <use x="63.623047" xlink:href="#DejaVuSans-30"/>
       <use x="127.246094" xlink:href="#DejaVuSans-30"/>
       <use x="190.869141" xlink:href="#DejaVuSans-30"/>
      </g>
     </g>
    </g>
    <g id="text_40">
     <!-- Time (ms) -->
     <g style="fill:#262626;" transform="translate(594.90135 210.498198)scale(0.12 -0.12)">
      <use xlink:href="#DejaVuSans-54"/>
      <use x="57.958984" xlink:href="#DejaVuSans-69"/>
      <use x="85.742188" xlink:href="#DejaVuSans-6d"/>
      <use x="183.154297" xlink:href="#DejaVuSans-65"/>
      <use x="244.677734" xlink:href="#DejaVuSans-20"/>
      <use x="276.464844" xlink:href="#DejaVuSans-28"/>
      <use x="315.478516" xlink:href="#DejaVuSans-6d"/>
      <use x="412.890625" xlink:href="#DejaVuSans-73"/>
      <use x="464.990234" xlink:href="#DejaVuSans-29"/>
     </g>
    </g>
   </g>
   <g id="matplotlib.axis_6">
    <g id="ytick_13">
     <g id="line2d_40">
      <g>
       <use style="fill:#262626;stroke:#262626;stroke-width:1.25;" x="539.510657" xlink:href="#m9b7af9d373" y="169.393242"/>
      </g>
     </g>
     <g id="text_41">
      <!-- −1.75 -->
      <g style="fill:#262626;" transform="translate(496.300813 173.572382)scale(0.11 -0.11)">
       <defs>
        <path d="M 794 531 
L 1825 531 
L 1825 4091 
L 703 3866 
L 703 4441 
L 1819 4666 
L 2450 4666 
L 2450 531 
L 3481 531 
L 3481 0 
L 794 0 
L 794 531 
z
" id="DejaVuSans-31" transform="scale(0.015625)"/>
       </defs>
       <use xlink:href="#DejaVuSans-2212"/>
       <use x="83.789062" xlink:href="#DejaVuSans-31"/>
       <use x="147.412109" xlink:href="#DejaVuSans-2e"/>
       <use x="179.199219" xlink:href="#DejaVuSans-37"/>
       <use x="242.822266" xlink:href="#DejaVuSans-35"/>
      </g>
     </g>
    </g>
    <g id="ytick_14">
     <g id="line2d_41">
      <g>
       <use style="fill:#262626;stroke:#262626;stroke-width:1.25;" x="539.510657" xlink:href="#m9b7af9d373" y="145.297585"/>
      </g>
     </g>
     <g id="text_42">
      <!-- −1.50 -->
      <g style="fill:#262626;" transform="translate(496.300813 149.476725)scale(0.11 -0.11)">
       <use xlink:href="#DejaVuSans-2212"/>
       <use x="83.789062" xlink:href="#DejaVuSans-31"/>
       <use x="147.412109" xlink:href="#DejaVuSans-2e"/>
       <use x="179.199219" xlink:href="#DejaVuSans-35"/>
       <use x="242.822266" xlink:href="#DejaVuSans-30"/>
      </g>
     </g>
    </g>
    <g id="ytick_15">
     <g id="line2d_42">
      <g>
       <use style="fill:#262626;stroke:#262626;stroke-width:1.25;" x="539.510657" xlink:href="#m9b7af9d373" y="121.201928"/>
      </g>
     </g>
     <g id="text_43">
      <!-- −1.25 -->
      <g style="fill:#262626;" transform="translate(496.300813 125.381069)scale(0.11 -0.11)">
       <use xlink:href="#DejaVuSans-2212"/>
       <use x="83.789062" xlink:href="#DejaVuSans-31"/>
       <use x="147.412109" xlink:href="#DejaVuSans-2e"/>
       <use x="179.199219" xlink:href="#DejaVuSans-32"/>
       <use x="242.822266" xlink:href="#DejaVuSans-35"/>
      </g>
     </g>
    </g>
    <g id="ytick_16">
     <g id="line2d_43">
      <g>
       <use style="fill:#262626;stroke:#262626;stroke-width:1.25;" x="539.510657" xlink:href="#m9b7af9d373" y="97.106271"/>
      </g>
     </g>
     <g id="text_44">
      <!-- −1.00 -->
      <g style="fill:#262626;" transform="translate(496.300813 101.285412)scale(0.11 -0.11)">
       <use xlink:href="#DejaVuSans-2212"/>
       <use x="83.789062" xlink:href="#DejaVuSans-31"/>
       <use x="147.412109" xlink:href="#DejaVuSans-2e"/>
       <use x="179.199219" xlink:href="#DejaVuSans-30"/>
       <use x="242.822266" xlink:href="#DejaVuSans-30"/>
      </g>
     </g>
    </g>
    <g id="ytick_17">
     <g id="line2d_44">
      <g>
       <use style="fill:#262626;stroke:#262626;stroke-width:1.25;" x="539.510657" xlink:href="#m9b7af9d373" y="73.010614"/>
      </g>
     </g>
     <g id="text_45">
      <!-- −0.75 -->
      <g style="fill:#262626;" transform="translate(496.300813 77.189755)scale(0.11 -0.11)">
       <use xlink:href="#DejaVuSans-2212"/>
       <use x="83.789062" xlink:href="#DejaVuSans-30"/>
       <use x="147.412109" xlink:href="#DejaVuSans-2e"/>
       <use x="179.199219" xlink:href="#DejaVuSans-37"/>
       <use x="242.822266" xlink:href="#DejaVuSans-35"/>
      </g>
     </g>
    </g>
    <g id="ytick_18">
     <g id="line2d_45">
      <g>
       <use style="fill:#262626;stroke:#262626;stroke-width:1.25;" x="539.510657" xlink:href="#m9b7af9d373" y="48.914957"/>
      </g>
     </g>
     <g id="text_46">
      <!-- −0.50 -->
      <g style="fill:#262626;" transform="translate(496.300813 53.094098)scale(0.11 -0.11)">
       <use xlink:href="#DejaVuSans-2212"/>
       <use x="83.789062" xlink:href="#DejaVuSans-30"/>
       <use x="147.412109" xlink:href="#DejaVuSans-2e"/>
       <use x="179.199219" xlink:href="#DejaVuSans-35"/>
       <use x="242.822266" xlink:href="#DejaVuSans-30"/>
      </g>
     </g>
    </g>
    <g id="ytick_19">
     <g id="line2d_46">
      <g>
       <use style="fill:#262626;stroke:#262626;stroke-width:1.25;" x="539.510657" xlink:href="#m9b7af9d373" y="24.8193"/>
      </g>
     </g>
     <g id="text_47">
      <!-- −0.25 -->
      <g style="fill:#262626;" transform="translate(496.300813 28.998441)scale(0.11 -0.11)">
       <use xlink:href="#DejaVuSans-2212"/>
       <use x="83.789062" xlink:href="#DejaVuSans-30"/>
       <use x="147.412109" xlink:href="#DejaVuSans-2e"/>
       <use x="179.199219" xlink:href="#DejaVuSans-32"/>
       <use x="242.822266" xlink:href="#DejaVuSans-35"/>
      </g>
     </g>
    </g>
    <g id="text_48">
     <!-- Angle (rad) -->
     <g style="fill:#262626;" transform="translate(489.805188 131.295625)rotate(-90)scale(0.12 -0.12)">
      <use xlink:href="#DejaVuSans-41"/>
      <use x="68.408203" xlink:href="#DejaVuSans-6e"/>
      <use x="131.787109" xlink:href="#DejaVuSans-67"/>
      <use x="195.263672" xlink:href="#DejaVuSans-6c"/>
      <use x="223.046875" xlink:href="#DejaVuSans-65"/>
      <use x="284.570312" xlink:href="#DejaVuSans-20"/>
      <use x="316.357422" xlink:href="#DejaVuSans-28"/>
      <use x="355.371094" xlink:href="#DejaVuSans-72"/>
      <use x="396.484375" xlink:href="#DejaVuSans-61"/>
      <use x="457.763672" xlink:href="#DejaVuSans-64"/>
      <use x="521.240234" xlink:href="#DejaVuSans-29"/>
     </g>
    </g>
   </g>
   <g id="line2d_47">
    <path clip-path="url(#pb18b24ded5)" d="M 547.29518 148.659563 
L 552.059308 134.680351 
L 558.925258 113.830226 
L 564.561253 96.77348 
L 565.199584 95.389763 
L 565.822345 94.547639 
L 566.445107 94.064649 
L 567.114576 93.825013 
L 567.908598 93.788073 
L 568.967293 93.979252 
L 570.944562 94.61083 
L 574.058371 95.553247 
L 576.082347 96.180016 
L 576.673971 96.683709 
L 577.312302 97.538357 
L 578.137461 99.045962 
L 579.367416 101.812525 
L 581.640497 107.577748 
L 586.824989 120.749805 
L 591.262167 131.272759 
L 594.936462 139.413759 
L 599.171243 148.240937 
L 603.997648 157.784554 
L 607.889909 165.046529 
L 609.742626 168.093191 
L 610.739045 169.356822 
L 611.392945 169.868038 
L 611.906723 170.001913 
L 612.389364 169.895404 
L 612.93428 169.53353 
L 613.58818 168.813928 
L 614.428909 167.527588 
L 615.534311 165.392375 
L 617.02894 161.980614 
L 619.099623 156.656998 
L 622.151156 148.142897 
L 627.024267 133.818983 
L 634.045907 112.476266 
L 639.245969 96.773692 
L 639.8843 95.390369 
L 640.507062 94.548477 
L 641.129824 94.065611 
L 641.799293 93.826025 
L 642.593314 93.78907 
L 643.652009 93.980172 
L 645.629278 94.611529 
L 648.743087 95.553689 
L 650.767063 96.182388 
L 651.358687 96.688217 
L 652.012587 97.569834 
L 652.853316 99.118709 
L 654.098839 101.935953 
L 656.449765 107.913156 
L 661.462998 120.64669 
L 665.884608 131.139775 
L 669.558903 139.289068 
L 673.793683 148.122922 
L 678.604519 157.642463 
L 682.543487 164.998859 
L 684.411773 168.076422 
L 685.423761 169.360815 
L 686.077661 169.869704 
L 686.575871 170.001126 
L 687.058511 169.899536 
L 687.603428 169.542489 
L 688.257328 168.827666 
L 689.082487 167.572833 
L 690.17232 165.480531 
L 691.65138 162.120365 
L 693.706494 156.853622 
L 696.71132 148.48756 
L 701.522155 134.365397 
L 702.970077 130.026277 
L 702.970077 130.026277 
" style="fill:none;stroke:#949494;stroke-dasharray:5.55,2.4;stroke-dashoffset:0;stroke-width:1.5;"/>
   </g>
   <g id="line2d_48">
    <path clip-path="url(#pb18b24ded5)" d="M 547.302964 69.292809 
L 547.528716 70.365952 
L 547.590992 70.680603 
L 547.808958 71.699155 
L 547.86345 71.912402 
L 548.128124 73.101281 
L 549.233526 78.030511 
L 549.288018 78.129688 
L 550.097608 81.428683 
L 550.167669 81.512661 
L 550.992829 84.374213 
L 551.070674 84.480012 
L 551.553314 86.032543 
L 551.677867 86.135094 
L 552.129369 87.406333 
L 552.292844 87.507217 
L 552.565302 88.033697 
L 552.806622 88.123593 
L 553.055727 88.573826 
L 553.18028 88.680213 
L 553.398246 88.966777 
L 553.515014 89.074475 
L 553.717412 89.261043 
L 553.865318 89.360674 
L 554.052146 89.48922 
L 554.238975 89.593419 
L 554.433588 89.63523 
L 557.127033 89.667633 
L 558.831843 89.605226 
L 558.847413 89.663903 
L 558.96418 89.324617 
L 559.898323 89.274999 
L 559.906108 89.718456 
L 559.999522 89.077348 
L 560.022876 89.002063 
L 560.147428 88.924678 
L 560.240842 88.947164 
L 560.248627 89.062283 
L 560.303118 88.642758 
L 560.326472 88.643192 
L 560.583361 88.539687 
L 560.715698 88.247435 
L 560.863604 88.199707 
L 560.894742 88.419912 
L 561.003725 87.737966 
L 561.104924 87.380734 
L 561.25283 86.84021 
L 561.33846 86.817744 
L 561.354029 86.874638 
L 561.49415 85.997624 
L 561.603134 85.899506 
L 562.186973 83.03222 
L 562.311525 82.718147 
L 562.350448 82.244128 
L 562.513923 81.291906 
L 562.778597 80.247311 
L 563.089978 78.437496 
L 563.269022 77.232106 
L 563.323513 77.128244 
L 563.533696 75.983893 
L 563.751662 75.066321 
L 563.798369 74.597516 
L 563.961844 73.52868 
L 564.218734 72.447489 
L 564.382209 71.144974 
L 564.60796 70.130181 
L 564.662451 69.458519 
L 564.895987 68.409761 
L 565.067247 67.219136 
L 565.230722 65.917364 
L 565.324136 65.750921 
L 565.651086 63.494941 
L 565.814561 62.161458 
L 565.907975 61.996711 
L 566.102588 60.323942 
L 566.266063 58.805126 
L 566.320555 58.70536 
L 566.382831 58.452924 
L 566.522952 57.564874 
L 566.709781 56.010126 
L 566.842118 55.294244 
L 568.912801 39.937195 
L 568.959508 39.301455 
L 569.084061 38.782628 
L 569.138552 38.126638 
L 569.263105 37.568949 
L 569.309812 36.913537 
L 569.434364 36.437156 
L 569.481071 35.964457 
L 569.613408 35.229376 
L 569.6679 34.630474 
L 569.792452 34.205426 
L 569.839159 33.738125 
L 569.971496 33.037307 
L 570.025988 32.722242 
L 570.15054 32.247076 
L 570.843363 29.098583 
L 570.897855 28.885973 
L 571.022407 28.443056 
L 571.092468 28.334577 
L 571.326003 27.756542 
L 571.396064 27.579593 
L 571.6296 27.000709 
L 574.2452 27.102046 
L 574.634426 27.852635 
L 574.720055 27.941028 
L 575.459585 30.351432 
L 575.521861 30.634479 
L 575.724259 31.416325 
L 575.786535 31.729251 
L 575.981148 32.547819 
L 576.03564 32.754646 
L 576.284745 33.855856 
L 577.032059 37.597141 
L 577.078766 37.681398 
L 578.542256 45.785789 
L 578.674593 45.922884 
L 578.736869 46.332423 
L 578.931483 47.327102 
L 578.985974 47.545081 
L 579.398554 50.184336 
L 579.507537 50.269924 
L 579.616521 51.409484 
L 579.748858 51.628475 
L 579.803349 51.857153 
L 580.208144 54.506383 
L 580.332697 54.615913 
L 581.399176 60.256263 
L 581.453668 60.475755 
L 581.866248 63.089748 
L 581.9908 63.192521 
L 583.103987 68.702841 
L 583.189617 69.425566 
L 583.345307 70.000498 
L 583.399799 70.105237 
L 584.232743 73.978334 
L 584.302804 74.386177 
L 584.497417 75.226894 
L 584.551908 75.35676 
L 585.065687 77.679678 
L 585.127963 77.789284 
L 585.680664 80.007405 
L 585.750725 80.326952 
L 585.953123 81.08424 
L 586.015399 81.218886 
L 586.490255 83.117181 
L 586.599238 83.200513 
L 587.167508 84.929685 
L 587.237569 85.158478 
L 587.447751 85.721044 
L 587.517812 85.842496 
L 587.782486 86.472569 
L 587.868115 86.77575 
L 588.039375 87.108858 
L 588.125005 87.206503 
L 588.405247 87.762467 
L 588.646568 87.873268 
L 588.864534 88.298104 
L 589.004656 88.400009 
L 589.230407 88.70079 
L 589.33939 88.800575 
L 589.557357 89.00882 
L 589.674125 89.131948 
L 589.860953 89.24862 
L 590.047782 89.354371 
L 590.23461 89.393724 
L 592.710089 89.506077 
L 594.516098 89.400413 
L 594.640651 89.341532 
L 595.644854 89.271935 
L 595.777191 89.174636 
L 596.002942 89.101723 
L 596.073003 89.409636 
L 596.111925 89.048308 
L 596.135279 89.159032 
L 596.189771 88.788171 
L 596.314323 88.631549 
L 596.462229 88.539783 
L 596.485583 88.960436 
L 596.571212 88.463834 
L 596.633489 87.957883 
L 596.758041 87.868517 
L 596.85924 87.827911 
L 596.9293 88.001187 
L 596.983792 87.523611 
L 596.991577 87.672021 
L 597.069422 87.213655 
L 597.217328 86.578589 
L 597.287388 86.508837 
L 597.443079 85.746113 
L 597.497571 85.113419 
L 597.614338 85.025962 
L 597.661046 84.987746 
L 597.808952 84.332518 
L 597.855659 83.928337 
L 597.99578 83.374841 
L 598.2371 81.630884 
L 598.361653 81.459458 
L 598.392791 81.457154 
L 598.579619 79.930154 
L 598.696387 79.89616 
L 598.883216 78.347976 
L 598.97663 78.25648 
L 599.007768 77.919526 
L 599.179028 76.709298 
L 599.272442 76.596925 
L 599.451486 75.11083 
L 599.685022 74.032386 
L 599.840712 73.086535 
L 599.902988 72.98488 
L 600.082032 71.742653 
L 600.237723 70.707166 
L 600.346706 70.462605 
L 600.494612 69.589041 
L 600.712579 68.153894 
L 600.782639 67.944445 
L 600.946114 66.499765 
L 601.17965 65.406218 
L 601.366479 64.036746 
L 601.522169 62.932249 
L 601.755705 61.542122 
L 601.810197 61.108381 
L 601.981456 59.549643 
L 602.098224 59.271839 
L 602.347329 57.43389 
L 602.40182 56.78243 
L 602.534157 56.149322 
L 605.422215 35.040505 
L 605.476707 34.816164 
L 605.873718 32.195752 
L 605.943778 32.092459 
L 606.574325 29.099826 
L 606.636601 29.012716 
L 607.002474 27.727714 
L 607.095888 27.629182 
L 607.376131 26.912789 
L 610.124067 27.004998 
L 610.295327 27.177273 
L 610.412095 27.613018 
L 611.151624 29.850445 
L 611.29953 30.1663 
L 611.354022 30.349244 
L 611.743248 32.366976 
L 611.860016 32.450559 
L 613.8295 42.636207 
L 613.961837 42.915168 
L 614.008544 43.048821 
L 614.522323 45.765588 
L 614.592384 46.290709 
L 614.771428 47.162885 
L 614.818135 47.29199 
L 615.557665 51.468798 
L 615.627725 51.564535 
L 617.799607 62.954205 
L 617.854099 63.161418 
L 618.282248 65.753128 
L 618.391231 65.83192 
L 618.49243 66.801086 
L 618.632551 67.139119 
L 618.687043 67.288734 
L 619.185252 69.865533 
L 619.239744 69.946023 
L 619.348727 70.950156 
L 619.488849 71.208741 
L 619.543341 71.382924 
L 620.002627 73.823014 
L 620.103826 73.927271 
L 620.921201 77.550544 
L 620.975693 77.667341 
L 621.50504 79.859959 
L 621.559532 79.966915 
L 622.096664 81.994227 
L 622.15894 82.1303 
L 622.618227 83.910198 
L 622.750564 84.013298 
L 623.240989 85.577347 
L 623.357757 85.679764 
L 623.809259 86.962212 
L 623.972734 87.065408 
L 624.260762 87.656456 
L 624.478728 87.760857 
L 624.681126 88.080693 
L 624.790109 88.200709 
L 625.01586 88.485799 
L 625.117059 88.6046 
L 625.319457 88.795496 
L 625.467363 88.923473 
L 625.685329 89.025899 
L 626.238031 89.299317 
L 631.251264 89.294035 
L 631.259048 89.533903 
L 631.352462 89.223762 
L 631.523722 88.935492 
L 631.79618 88.870086 
L 631.803965 89.193344 
L 631.88181 88.777125 
L 631.905164 88.91315 
L 631.983009 88.922162 
L 632.045285 88.490628 
L 632.053069 88.624291 
L 632.12313 88.264861 
L 632.138699 88.269623 
L 632.224329 88.180257 
L 632.36445 87.874415 
L 632.504572 87.775083 
L 632.527925 88.190068 
L 632.613555 87.771739 
L 632.769246 87.06056 
L 632.870444 86.988649 
L 632.886013 87.113725 
L 633.01835 86.332052 
L 633.10398 86.092329 
L 633.244102 85.520337 
L 633.306378 85.459491 
L 633.462068 84.560993 
L 633.524344 84.537639 
L 633.711173 83.125479 
L 633.866863 82.752006 
L 633.9992 82.308251 
L 634.038123 82.069174 
L 634.224951 80.69789 
L 634.341719 80.617016 
L 634.372857 80.158494 
L 634.536332 79.100551 
L 634.621962 79.000033 
L 634.660885 78.638984 
L 634.832144 77.472272 
L 634.948912 77.369817 
L 635.135741 75.854499 
L 635.377061 74.788604 
L 635.540536 73.77328 
L 635.618381 73.674613 
L 635.657304 73.247108 
L 635.820779 72.188519 
L 635.898624 72.087307 
L 635.953116 71.451326 
L 636.178867 70.464754 
L 636.233358 69.80701 
L 636.474679 68.739033 
L 636.645938 67.44924 
L 636.778275 66.92303 
L 637.004026 65.423885 
L 637.042949 65.336639 
L 637.229777 64.143769 
L 637.393252 62.837862 
L 637.603435 61.725423 
L 637.68128 61.126501 
L 637.844755 59.714737 
L 638.062721 58.469521 
L 638.117213 58.026797 
L 638.257335 57.231949 
L 641.34779 34.878977 
L 641.417851 34.624614 
L 641.853784 31.863039 
L 641.962768 31.55156 
L 642.095105 30.725464 
L 642.157381 30.643838 
L 642.772358 28.202543 
L 642.850203 28.110131 
L 642.98254 27.637721 
L 643.130446 27.544837 
L 643.270568 26.802913 
L 643.39512 26.501707 
L 645.855029 26.597984 
L 646.244255 27.314598 
L 646.329885 27.405285 
L 646.812526 28.81543 
L 646.882586 29.177029 
L 647.053846 29.746323 
L 647.108338 29.888728 
L 647.544271 31.926767 
L 647.622116 32.011035 
L 649.856274 43.495902 
L 649.996396 43.804529 
L 650.050887 44.029833 
L 650.455683 46.633253 
L 650.57245 46.732893 
L 652.176062 55.243354 
L 652.230554 55.486373 
L 652.479659 56.753246 
L 652.588642 57.871255 
L 652.720979 58.110785 
L 652.77547 58.307097 
L 653.211404 60.964048 
L 653.312603 61.057636 
L 655.23538 70.643495 
L 655.289871 70.783241 
L 655.795865 73.269199 
L 655.850357 73.352753 
L 655.97491 74.426755 
L 656.107246 74.559223 
L 656.169523 74.81641 
L 656.403058 75.822038 
L 656.465334 76.117913 
L 656.683301 77.036092 
L 656.737793 77.209494 
L 657.173726 79.369111 
L 657.306063 79.463595 
L 658.107869 82.547656 
L 658.193499 82.638458 
L 658.738415 84.394588 
L 658.800691 84.510257 
L 659.259978 85.984063 
L 659.407884 86.093698 
L 659.688127 86.711337 
L 659.820464 87.23402 
L 659.991724 87.377293 
L 660.217475 87.472288 
L 660.458795 87.932283 
L 660.567778 88.035519 
L 660.801314 88.370651 
L 660.902513 88.491495 
L 661.10491 88.705976 
L 661.237247 88.808691 
L 661.455214 88.968329 
L 661.579766 89.08874 
L 661.75881 89.160516 
L 661.937854 89.270932 
L 662.194744 89.306324 
L 662.545047 89.347219 
L 666.484016 89.250624 
L 666.608568 89.21691 
L 667.433728 89.165837 
L 667.441512 89.645697 
L 667.534927 88.995365 
L 667.55828 88.914798 
L 667.573849 89.005292 
L 667.713971 88.596456 
L 667.955291 88.521191 
L 667.994213 89.015007 
L 668.05649 88.317872 
L 668.173258 88.286538 
L 668.321163 88.260659 
L 668.352302 88.576312 
L 668.469069 87.746805 
L 668.601406 87.397765 
L 668.749312 86.885857 
L 668.834942 86.839343 
L 668.850511 86.92975 
L 669.013986 85.805418 
L 669.099616 85.802864 
L 669.247522 85.218949 
L 669.294229 85.130007 
L 669.449919 84.266255 
L 669.496626 84.238651 
L 669.660101 83.287422 
L 669.706809 83.263037 
L 669.854715 82.505142 
L 669.885853 82.437818 
L 670.041543 81.545585 
L 670.243941 80.175728 
L 670.314001 80.077726 
L 670.376278 79.496192 
L 670.50083 79.246059 
L 670.531968 78.901829 
L 670.703228 77.697538 
L 670.796642 77.600104 
L 670.82778 77.262707 
L 670.999039 76.046272 
L 671.076885 75.939576 
L 671.115807 75.584811 
L 671.271498 74.713165 
L 671.388266 74.163379 
L 671.543956 73.171891 
L 671.614017 73.083605 
L 671.769707 72.061216 
L 671.933182 70.866621 
L 672.04995 70.466229 
L 672.213425 69.30848 
L 672.408038 68.288261 
L 672.478099 68.052345 
L 672.61822 67.175735 
L 674.720042 52.047576 
L 674.852378 51.311338 
L 676.082333 41.639081 
L 676.144609 41.104003 
L 676.284731 40.195105 
L 676.985338 34.800473 
L 677.102106 34.422567 
L 677.156597 33.932904 
L 677.288934 33.180927 
L 677.343426 32.491415 
L 677.569177 31.585872 
L 677.6081 31.252561 
L 677.732652 30.715161 
L 678.168585 28.583582 
L 678.215293 28.398633 
L 678.347629 27.924469 
L 678.394337 27.392929 
L 678.511104 27.305028 
L 678.557812 27.111491 
L 678.690148 26.43209 
L 678.806916 26.330821 
L 679.110513 25.475763 
L 679.390756 25.366291 
L 679.670998 25.360942 
L 681.780604 25.463975 
L 682.162046 26.206989 
L 682.25546 26.302292 
L 682.722532 27.732822 
L 682.777023 27.892142 
L 683.181818 29.760857 
L 683.283017 29.846715 
L 685.517175 41.225995 
L 685.649512 41.459819 
L 685.704004 41.680612 
L 686.108799 44.284659 
L 686.225567 44.389427 
L 687.541151 51.464769 
L 687.587859 51.597267 
L 688.117206 54.402261 
L 688.195051 55.090481 
L 688.358526 55.796417 
L 688.405234 55.901117 
L 689.495067 61.561977 
L 689.572912 62.183983 
L 689.744172 62.934726 
L 689.798663 63.082114 
L 690.296873 65.721042 
L 690.351364 65.828933 
L 691.184308 69.848628 
L 691.269938 70.536164 
L 691.433413 71.126681 
L 691.487905 71.251246 
L 692.025037 73.723961 
L 692.087313 74.008011 
L 692.30528 74.969524 
L 692.359771 75.142029 
L 692.803489 77.371947 
L 692.928042 77.48164 
L 693.472958 79.630019 
L 693.535234 79.844557 
L 693.76877 80.687356 
L 693.831046 80.898626 
L 694.064582 81.690304 
L 694.126858 81.889816 
L 694.360394 82.635595 
L 694.42267 82.815407 
L 694.656206 83.518123 
L 694.726266 83.713028 
L 694.952018 84.33512 
L 695.022078 84.495144 
L 695.255614 85.08862 
L 695.325675 85.239864 
L 695.55921 85.766865 
L 695.629271 85.904258 
L 695.870591 86.42856 
L 696.119696 86.521647 
L 696.376585 87.012263 
L 696.485569 87.108732 
L 696.726889 87.438544 
L 696.828088 87.569191 
L 697.022701 87.765705 
L 697.155038 87.868594 
L 697.341866 88.011732 
L 697.489772 88.118292 
L 697.676601 88.196179 
L 697.871214 88.309785 
L 698.556252 88.367865 
L 702.277254 88.285188 
L 702.394022 88.233489 
L 702.985646 88.231792 
L 702.985646 88.231792 
" style="fill:none;stroke:#0173b2;stroke-linecap:round;stroke-width:1.5;"/>
   </g>
   <g id="patch_15">
    <path d="M 539.510657 177.234135 
L 539.510657 18.12524 
" style="fill:none;stroke:#262626;stroke-linecap:square;stroke-linejoin:miter;stroke-width:1.25;"/>
   </g>
   <g id="patch_16">
    <path d="M 710.770169 177.234135 
L 710.770169 18.12524 
" style="fill:none;stroke:#262626;stroke-linecap:square;stroke-linejoin:miter;stroke-width:1.25;"/>
   </g>
   <g id="patch_17">
    <path d="M 539.510657 177.234135 
L 710.770169 177.234135 
" style="fill:none;stroke:#262626;stroke-linecap:square;stroke-linejoin:miter;stroke-width:1.25;"/>
   </g>
   <g id="patch_18">
    <path d="M 539.510657 18.12524 
L 710.770169 18.12524 
" style="fill:none;stroke:#262626;stroke-linecap:square;stroke-linejoin:miter;stroke-width:1.25;"/>
   </g>
   <g id="text_49">
    <!-- Ankle Angle -->
    <g style="fill:#262626;" transform="translate(589.41885 12.12524)scale(0.12 -0.12)">
     <defs>
      <path d="M 581 4863 
L 1159 4863 
L 1159 1991 
L 2875 3500 
L 3609 3500 
L 1753 1863 
L 3688 0 
L 2938 0 
L 1159 1709 
L 1159 0 
L 581 0 
L 581 4863 
z
" id="DejaVuSans-6b" transform="scale(0.015625)"/>
     </defs>
     <use xlink:href="#DejaVuSans-41"/>
     <use x="68.408203" xlink:href="#DejaVuSans-6e"/>
     <use x="131.787109" xlink:href="#DejaVuSans-6b"/>
     <use x="189.697266" xlink:href="#DejaVuSans-6c"/>
     <use x="217.480469" xlink:href="#DejaVuSans-65"/>
     <use x="279.003906" xlink:href="#DejaVuSans-20"/>
     <use x="310.791016" xlink:href="#DejaVuSans-41"/>
     <use x="379.199219" xlink:href="#DejaVuSans-6e"/>
     <use x="442.578125" xlink:href="#DejaVuSans-67"/>
     <use x="506.054688" xlink:href="#DejaVuSans-6c"/>
     <use x="533.837891" xlink:href="#DejaVuSans-65"/>
    </g>
   </g>
   <g id="text_50">
    <!-- C -->
    <g style="fill:#262626;" transform="translate(539.510657 12.12524)scale(0.12 -0.12)">
     <defs>
      <path d="M 4288 256 
Q 3956 84 3597 -3 
Q 3238 -91 2847 -91 
Q 1681 -91 1000 561 
Q 319 1213 319 2328 
Q 319 3447 1000 4098 
Q 1681 4750 2847 4750 
Q 3238 4750 3597 4662 
Q 3956 4575 4288 4403 
L 4288 3438 
Q 3953 3666 3628 3772 
Q 3303 3878 2944 3878 
Q 2300 3878 1931 3465 
Q 1563 3053 1563 2328 
Q 1563 1606 1931 1193 
Q 2300 781 2944 781 
Q 3303 781 3628 887 
Q 3953 994 4288 1222 
L 4288 256 
z
" id="DejaVuSans-Bold-43" transform="scale(0.015625)"/>
     </defs>
     <use xlink:href="#DejaVuSans-Bold-43"/>
    </g>
   </g>
   <g id="legend_3">
    <g id="patch_19">
     <path d="M 547.210657 171.734135 
L 648.818 171.734135 
Q 651.018 171.734135 651.018 169.534135 
L 651.018 138.34226 
Q 651.018 136.14226 648.818 136.14226 
L 547.210657 136.14226 
Q 545.010657 136.14226 545.010657 138.34226 
L 545.010657 169.534135 
Q 545.010657 171.734135 547.210657 171.734135 
z
" style="fill:#ffffff;opacity:0.8;stroke:#cccccc;stroke-linejoin:miter;"/>
    </g>
    <g id="line2d_49">
     <path d="M 549.410657 145.050541 
L 571.410657 145.050541 
" style="fill:none;stroke:#949494;stroke-dasharray:5.55,2.4;stroke-dashoffset:0;stroke-width:1.5;"/>
    </g>
    <g id="line2d_50"/>
    <g id="text_51">
     <!-- SNS-Toolbox -->
     <g style="fill:#262626;" transform="translate(580.210657 148.900541)scale(0.11 -0.11)">
      <use xlink:href="#DejaVuSans-53"/>
      <use x="63.476562" xlink:href="#DejaVuSans-4e"/>
      <use x="138.28125" xlink:href="#DejaVuSans-53"/>
      <use x="201.757812" xlink:href="#DejaVuSans-2d"/>
      <use x="228.716797" xlink:href="#DejaVuSans-54"/>
      <use x="272.800781" xlink:href="#DejaVuSans-6f"/>
      <use x="333.982422" xlink:href="#DejaVuSans-6f"/>
      <use x="395.164062" xlink:href="#DejaVuSans-6c"/>
      <use x="422.947266" xlink:href="#DejaVuSans-62"/>
      <use x="486.423828" xlink:href="#DejaVuSans-6f"/>
      <use x="544.480469" xlink:href="#DejaVuSans-78"/>
     </g>
    </g>
    <g id="line2d_51">
     <path d="M 549.410657 161.196479 
L 571.410657 161.196479 
" style="fill:none;stroke:#0173b2;stroke-linecap:round;stroke-width:1.5;"/>
    </g>
    <g id="line2d_52"/>
    <g id="text_52">
     <!-- AnimatLab -->
     <g style="fill:#262626;" transform="translate(580.210657 165.046479)scale(0.11 -0.11)">
      <use xlink:href="#DejaVuSans-41"/>
      <use x="68.408203" xlink:href="#DejaVuSans-6e"/>
      <use x="131.787109" xlink:href="#DejaVuSans-69"/>
      <use x="159.570312" xlink:href="#DejaVuSans-6d"/>
      <use x="256.982422" xlink:href="#DejaVuSans-61"/>
      <use x="318.261719" xlink:href="#DejaVuSans-74"/>
      <use x="357.470703" xlink:href="#DejaVuSans-4c"/>
      <use x="413.183594" xlink:href="#DejaVuSans-61"/>
      <use x="474.462891" xlink:href="#DejaVuSans-62"/>
     </g>
    </g>
   </g>
  </g>
 </g>
 <defs>
  <clipPath id="pd17e35cec2">
   <rect height="159.108895" width="171.259512" x="54.84399" y="18.12524"/>
  </clipPath>
  <clipPath id="pc0a0ddf28e">
   <rect height="159.108895" width="171.259512" x="297.177323" y="18.12524"/>
  </clipPath>
  <clipPath id="pb18b24ded5">
   <rect height="159.108895" width="171.259512" x="539.510657" y="18.12524"/>
  </clipPath>
 </defs>
</svg>
